%TF.GenerationSoftware,KiCad,Pcbnew,10.0.1*%
%TF.CreationDate,2026-04-23T17:24:39+02:00*%
%TF.ProjectId,Communication_pcb_main,436f6d6d-756e-4696-9361-74696f6e5f70,rev?*%
%TF.SameCoordinates,Original*%
%TF.FileFunction,Soldermask,Bot*%
%TF.FilePolarity,Negative*%
%FSLAX46Y46*%
G04 Gerber Fmt 4.6, Leading zero omitted, Abs format (unit mm)*
G04 Created by KiCad (PCBNEW 10.0.1) date 2026-04-23 17:24:39*
%MOMM*%
%LPD*%
G01*
G04 APERTURE LIST*
%ADD10C,3.800000*%
%ADD11R,1.700000X1.700000*%
%ADD12C,1.700000*%
%ADD13C,0.700000*%
%ADD14O,1.100000X2.000000*%
%ADD15O,1.200000X1.800000*%
%ADD16C,1.000000*%
%ADD17O,8.000000X3.800000*%
%ADD18O,3.800000X8.000000*%
G04 APERTURE END LIST*
D10*
%TO.C,H401*%
X123000000Y-124100000D03*
%TD*%
D11*
%TO.C,J404*%
X123190000Y-81280000D03*
D12*
X123190000Y-83820000D03*
X123190000Y-86360000D03*
X123190000Y-88900000D03*
%TD*%
D11*
%TO.C,J204*%
X123190000Y-111760000D03*
D12*
X123190000Y-114300000D03*
X123190000Y-116840000D03*
X123190000Y-119380000D03*
%TD*%
D10*
%TO.C,H403*%
X156000000Y-136100000D03*
%TD*%
D11*
%TO.C,J205*%
X148590000Y-134620000D03*
D12*
X151130000Y-134620000D03*
%TD*%
D11*
%TO.C,J402*%
X123190000Y-91440000D03*
D12*
X123190000Y-93980000D03*
X123190000Y-96520000D03*
X123190000Y-99060000D03*
X123190000Y-101600000D03*
X123190000Y-104140000D03*
%TD*%
D11*
%TO.C,J206*%
X163830000Y-111760000D03*
D12*
X163830000Y-114300000D03*
%TD*%
D13*
%TO.C,J201*%
X123610000Y-132817500D03*
X129390000Y-132817500D03*
D14*
X122180000Y-132287500D03*
D15*
X122180000Y-136497500D03*
D14*
X130820000Y-132287500D03*
D15*
X130820000Y-136497500D03*
%TD*%
D11*
%TO.C,J403*%
X123190000Y-106680000D03*
D12*
X123190000Y-109220000D03*
%TD*%
D11*
%TO.C,J401*%
X135890000Y-91440000D03*
D12*
X135890000Y-88900000D03*
X135890000Y-86360000D03*
X135890000Y-83820000D03*
%TD*%
D16*
%TO.C,TP403*%
X140970000Y-83820000D03*
%TD*%
%TO.C,TP405*%
X140970000Y-76200000D03*
%TD*%
%TO.C,TP404*%
X140970000Y-81280000D03*
%TD*%
%TO.C,TP408*%
X163830000Y-129540000D03*
%TD*%
%TO.C,TP409*%
X163830000Y-132080000D03*
%TD*%
%TO.C,TP407*%
X163830000Y-134620000D03*
%TD*%
%TO.C,TP410*%
X123700000Y-71650000D03*
%TD*%
%TO.C,TP406*%
X140970000Y-78740000D03*
%TD*%
%TO.C,TP401*%
X140970000Y-88900000D03*
%TD*%
%TO.C,TP402*%
X140970000Y-86360000D03*
%TD*%
D17*
%TO.C,H404*%
X168100000Y-123100000D03*
%TD*%
D18*
%TO.C,H402*%
X157000000Y-63000000D03*
%TD*%
M02*
