M48
; DRILL file {KiCad 9.0.2} date 2026-03-16T14:15:29+0100
; FORMAT={-:-/ absolute / inch / decimal}
; #@! TF.CreationDate,2026-03-16T14:15:29+01:00
; #@! TF.GenerationSoftware,Kicad,Pcbnew,9.0.2
; #@! TF.FileFunction,Plated,1,2,PTH
FMAT,2
INCH
; #@! TA.AperFunction,Plated,PTH,ViaDrill
T1C0.0118
; #@! TA.AperFunction,Plated,PTH,ViaDrill
T2C0.0157
; #@! TA.AperFunction,Plated,PTH,ComponentDrill
T3C0.0236
; #@! TA.AperFunction,Plated,PTH,ComponentDrill
T4C0.0276
; #@! TA.AperFunction,Plated,PTH,ComponentDrill
T5C0.0394
%
G90
G05
T1
X4.9907Y-4.9337
X5.0163Y-4.912
X5.0281Y-4.9648
X5.1246Y-4.9844
X5.1525Y-5.1906
X5.1719Y-5.1207
X5.1998Y-5.1604
X5.2073Y-5.0222
X5.2073Y-5.1109
X5.227Y-5.1906
X5.3504Y-2.9035
X5.3504Y-2.937
X5.3504Y-2.9764
X5.3726Y-5.0459
X5.4022Y-5.1344
X5.4474Y-4.9691
X5.4488Y-2.937
X5.4724Y-2.9764
X5.4803Y-2.9035
X5.4825Y-4.6641
X5.5065Y-5.0065
X5.5131Y-4.6567
X5.5276Y-3.1374
X5.5419Y-5.0104
X5.5658Y-5.0869
X5.5774Y-5.0104
X5.5898Y-5.0394
X5.6181Y-3.1929
X5.6417Y-3.0079
X5.6929Y-2.9785
X5.7022Y-2.7154
X5.7545Y-4.9907
X5.7715Y-4.9061
X5.7836Y-4.9666
X5.7891Y-4.9356
X5.8071Y-2.7921
X5.81Y-5.0305
X5.8136Y-4.7033
X5.8195Y-4.8805
X5.8195Y-4.912
X5.8248Y-4.5205
X5.8248Y-4.548
X5.8248Y-4.5756
X5.8411Y-4.9593
X5.8524Y-4.5598
X5.8524Y-4.5874
X5.8667Y-4.91
X5.8766Y-4.9671
X5.8766Y-5.0341
X5.8829Y-4.801
X5.8839Y-4.8236
X5.89Y-4.5612
X5.8907Y-4.5856
X5.9059Y-4.7756
X5.9061Y-4.7553
X5.912Y-4.549
X5.912Y-4.5978
X5.9124Y-4.5734
X5.9278Y-5.1128
X5.9319Y-4.8008
X5.9319Y-4.8228
X5.9514Y-4.5474
X5.9518Y-4.5722
X5.953Y-4.597
X5.9533Y-5.0906
X5.9555Y-4.7762
X5.9561Y-4.7557
X5.9606Y-2.7913
X5.9642Y-5.18
X5.9724Y-4.1811
X5.9738Y-4.5581
X5.9738Y-4.5827
X5.9744Y-4.8197
X5.9882Y-4.2165
X5.9907Y-5.0813
X5.994Y-5.1698
X6.0138Y-4.5559
X6.0138Y-4.5835
X6.0144Y-4.897
X6.0163Y-5.1476
X6.0222Y-5.0498
X6.0276Y-4.0945
X6.0276Y-4.1496
X6.036Y-5.1118
X6.0372Y-4.9278
X6.0374Y-4.5126
X6.0374Y-4.5402
X6.0374Y-4.5677
X6.0598Y-4.7744
X6.0616Y-5.0341
X6.0642Y-4.8819
X6.0734Y-4.8451
X6.0738Y-4.8041
X6.0748Y-2.7205
X6.097Y-5.101
X6.1128Y-5.0537
X6.122Y-4.1378
X6.122Y-4.185
X6.1625Y-4.9588
X6.177Y-4.8155
X6.1994Y-4.9907
X6.2045Y-4.0941
X6.2085Y-4.8159
X6.2205Y-4.1732
X6.2333Y-4.9163
X6.2717Y-4.1142
X6.311Y-4.1417
X6.315Y-2.9803
X6.315Y-3.0197
X6.3701Y-4.0984
X6.3701Y-4.1299
X6.3701Y-4.1614
X6.4002Y-5.1443
X6.5197Y-3.0591
T2
X4.7992Y-2.863
X4.8268Y-2.863
X4.8268Y-3.811
X4.8819Y-2.7874
X4.8819Y-2.8228
X4.8884Y-4.4278
X4.9278Y-4.4278
X4.9671Y-4.4278
X4.9691Y-4.8274
X4.9691Y-4.8687
X4.9691Y-5.0852
X4.9691Y-5.1266
X5.0161Y-4.4632
X5.0161Y-4.5026
X5.0161Y-4.5419
X5.1614Y-3.4921
X5.1654Y-2.8504
X5.3037Y-5.2152
X5.3451Y-5.2152
X5.4081Y-4.9278
X5.428Y-3.3779
X5.4396Y-4.9278
X5.5Y-2.5709
X5.5394Y-2.5709
X5.5813Y-4.477
X5.6226Y-4.477
X5.6364Y-4.8791
X5.664Y-4.477
X5.6679Y-4.8791
X5.7053Y-4.475
X5.7126Y-2.5866
X5.7126Y-2.626
X5.7126Y-2.6693
X5.7441Y-3.2638
X5.7441Y-3.4134
X5.7441Y-3.5669
X5.7441Y-3.7126
X5.7441Y-3.8661
X5.7467Y-4.475
X5.8976Y-3.2638
X5.8976Y-3.563
X5.8976Y-3.8661
X5.9055Y-3.0197
X5.9075Y-4.8136
X5.9252Y-2.9843
X5.9449Y-3.0197
X5.9646Y-2.9843
X5.9843Y-3.0197
X6.0433Y-2.8307
X6.0433Y-2.8819
X6.0433Y-2.9331
X6.0433Y-3.2638
X6.0433Y-3.4173
X6.0433Y-3.7126
X6.0433Y-3.8661
X6.0866Y-2.9843
X6.0866Y-3.0236
X6.0945Y-2.5866
X6.1142Y-2.8583
X6.1246Y-4.4691
X6.1417Y-2.5866
X6.1659Y-4.4691
X6.1679Y-4.9238
X6.1738Y-5.1561
X6.189Y-2.5866
X6.1929Y-3.563
X6.1969Y-3.2638
X6.1969Y-3.563
X6.1969Y-3.8661
X6.2073Y-4.4691
X6.2152Y-5.1561
X6.2362Y-2.5866
X6.2486Y-4.4671
X6.2565Y-5.1561
X6.2781Y-4.8096
X6.29Y-4.4671
X6.2947Y-5.1593
X6.3096Y-4.8096
X6.336Y-5.1593
X6.3386Y-2.626
X6.3386Y-2.6614
X6.3386Y-2.6969
X6.3425Y-3.2638
X6.3425Y-3.4173
X6.3425Y-3.713
X6.3425Y-3.8661
X6.3465Y-3.563
X6.3923Y-4.4474
X6.3923Y-4.4868
X6.3923Y-4.5262
T4
X5.0334Y-4.8628
X5.0334Y-5.0904
T5
X4.752Y-2.5994
X4.752Y-2.6994
X4.9238Y-4.5167
X4.9238Y-4.6167
X5.0451Y-5.2986
X5.1451Y-5.2986
X5.2451Y-5.2986
X5.3451Y-5.2986
X6.29Y-5.2703
X6.3923Y-5.2703
X6.4819Y-4.5081
X6.4819Y-4.6081
X6.4986Y-4.9081
T3
G00X4.9003Y-4.8065
M15
G01X4.8767Y-4.8065
M16
G05
G00X4.9003Y-5.1467
M15
G01X4.8767Y-5.1467
M16
G05
G00X5.0719Y-4.8065
M15
G01X5.0365Y-4.8065
M16
G05
G00X5.0719Y-5.1467
M15
G01X5.0365Y-5.1467
M16
G05
M30
