%TF.GenerationSoftware,KiCad,Pcbnew,9.0.2*%
%TF.CreationDate,2026-03-16T14:15:29+01:00*%
%TF.ProjectId,Communication_pcb_main,436f6d6d-756e-4696-9361-74696f6e5f70,rev?*%
%TF.SameCoordinates,Original*%
%TF.FileFunction,Copper,L1,Top*%
%TF.FilePolarity,Positive*%
%FSLAX46Y46*%
G04 Gerber Fmt 4.6, Leading zero omitted, Abs format (unit mm)*
G04 Created by KiCad (PCBNEW 9.0.2) date 2026-03-16 14:15:29*
%MOMM*%
%LPD*%
G01*
G04 APERTURE LIST*
G04 Aperture macros list*
%AMRoundRect*
0 Rectangle with rounded corners*
0 $1 Rounding radius*
0 $2 $3 $4 $5 $6 $7 $8 $9 X,Y pos of 4 corners*
0 Add a 4 corners polygon primitive as box body*
4,1,4,$2,$3,$4,$5,$6,$7,$8,$9,$2,$3,0*
0 Add four circle primitives for the rounded corners*
1,1,$1+$1,$2,$3*
1,1,$1+$1,$4,$5*
1,1,$1+$1,$6,$7*
1,1,$1+$1,$8,$9*
0 Add four rect primitives between the rounded corners*
20,1,$1+$1,$2,$3,$4,$5,0*
20,1,$1+$1,$4,$5,$6,$7,0*
20,1,$1+$1,$6,$7,$8,$9,0*
20,1,$1+$1,$8,$9,$2,$3,0*%
%AMFreePoly0*
4,1,17,0.505355,0.395355,0.520000,0.360000,0.520000,-0.350000,0.505355,-0.385355,0.470000,-0.400000,-0.480000,-0.400000,-0.515355,-0.385355,-0.530000,-0.350000,-0.530000,-0.140000,-0.515355,-0.104645,-0.480000,-0.090000,0.220000,-0.090000,0.220000,0.360000,0.234645,0.395355,0.270000,0.410000,0.470000,0.410000,0.505355,0.395355,0.505355,0.395355,$1*%
%AMFreePoly1*
4,1,9,0.004619,0.001913,0.004619,-0.001913,0.001913,-0.004619,-0.001913,-0.004619,-0.004619,-0.001913,-0.004619,0.001913,-0.001913,0.004619,0.001913,0.004619,0.004619,0.001913,0.004619,0.001913,$1*%
%AMFreePoly2*
4,1,17,0.485355,0.395355,0.500000,0.360000,0.500000,-0.340000,0.485355,-0.375355,0.450000,-0.390000,0.250000,-0.390000,0.214645,-0.375355,0.200000,-0.340000,0.200000,0.100000,-0.450000,0.100000,-0.485355,0.114645,-0.500000,0.150000,-0.500000,0.360000,-0.485355,0.395355,-0.450000,0.410000,0.450000,0.410000,0.485355,0.395355,0.485355,0.395355,$1*%
%AMFreePoly3*
4,1,17,0.485355,0.395355,0.500000,0.360000,0.500000,0.150000,0.485355,0.114645,0.450000,0.100000,-0.200000,0.100000,-0.200000,-0.340000,-0.214645,-0.375355,-0.250000,-0.390000,-0.450000,-0.390000,-0.485355,-0.375355,-0.500000,-0.340000,-0.500000,0.360000,-0.485355,0.395355,-0.450000,0.410000,0.450000,0.410000,0.485355,0.395355,0.485355,0.395355,$1*%
%AMFreePoly4*
4,1,17,-0.244645,0.385355,-0.230000,0.350000,-0.230000,-0.100000,0.470000,-0.100000,0.505355,-0.114645,0.520000,-0.150000,0.520000,-0.350000,0.505355,-0.385355,0.470000,-0.400000,-0.480000,-0.400000,-0.515355,-0.385355,-0.530000,-0.350000,-0.530000,0.350000,-0.515355,0.385355,-0.480000,0.400000,-0.280000,0.400000,-0.244645,0.385355,-0.244645,0.385355,$1*%
G04 Aperture macros list end*
%TA.AperFunction,SMDPad,CuDef*%
%ADD10R,1.200000X1.400000*%
%TD*%
%TA.AperFunction,SMDPad,CuDef*%
%ADD11O,2.200000X0.610000*%
%TD*%
%TA.AperFunction,SMDPad,CuDef*%
%ADD12R,1.100000X0.600000*%
%TD*%
%TA.AperFunction,ComponentPad*%
%ADD13R,1.700000X1.700000*%
%TD*%
%TA.AperFunction,ComponentPad*%
%ADD14O,1.800000X1.200000*%
%TD*%
%TA.AperFunction,ComponentPad*%
%ADD15O,2.000000X1.100000*%
%TD*%
%TA.AperFunction,SMDPad,CuDef*%
%ADD16R,1.100000X0.550000*%
%TD*%
%TA.AperFunction,SMDPad,CuDef*%
%ADD17R,1.100000X0.300000*%
%TD*%
%TA.AperFunction,ComponentPad*%
%ADD18C,0.700000*%
%TD*%
%TA.AperFunction,SMDPad,CuDef*%
%ADD19RoundRect,0.150000X-0.590000X-0.150000X0.590000X-0.150000X0.590000X0.150000X-0.590000X0.150000X0*%
%TD*%
%TA.AperFunction,SMDPad,CuDef*%
%ADD20RoundRect,0.140000X0.170000X-0.140000X0.170000X0.140000X-0.170000X0.140000X-0.170000X-0.140000X0*%
%TD*%
%TA.AperFunction,SMDPad,CuDef*%
%ADD21RoundRect,0.140000X-0.170000X0.140000X-0.170000X-0.140000X0.170000X-0.140000X0.170000X0.140000X0*%
%TD*%
%TA.AperFunction,SMDPad,CuDef*%
%ADD22RoundRect,0.140000X0.140000X0.170000X-0.140000X0.170000X-0.140000X-0.170000X0.140000X-0.170000X0*%
%TD*%
%TA.AperFunction,SMDPad,CuDef*%
%ADD23RoundRect,0.250000X-0.650000X0.325000X-0.650000X-0.325000X0.650000X-0.325000X0.650000X0.325000X0*%
%TD*%
%TA.AperFunction,SMDPad,CuDef*%
%ADD24RoundRect,0.140000X-0.140000X-0.170000X0.140000X-0.170000X0.140000X0.170000X-0.140000X0.170000X0*%
%TD*%
%TA.AperFunction,SMDPad,CuDef*%
%ADD25R,1.000000X0.750000*%
%TD*%
%TA.AperFunction,SMDPad,CuDef*%
%ADD26RoundRect,0.242500X-0.242500X-0.457500X0.242500X-0.457500X0.242500X0.457500X-0.242500X0.457500X0*%
%TD*%
%TA.AperFunction,SMDPad,CuDef*%
%ADD27R,0.800000X0.400000*%
%TD*%
%TA.AperFunction,SMDPad,CuDef*%
%ADD28R,0.400000X0.800000*%
%TD*%
%TA.AperFunction,SMDPad,CuDef*%
%ADD29R,1.450000X1.450000*%
%TD*%
%TA.AperFunction,SMDPad,CuDef*%
%ADD30R,0.700000X0.700000*%
%TD*%
%TA.AperFunction,SMDPad,CuDef*%
%ADD31RoundRect,0.200000X-0.200000X-0.275000X0.200000X-0.275000X0.200000X0.275000X-0.200000X0.275000X0*%
%TD*%
%TA.AperFunction,SMDPad,CuDef*%
%ADD32R,0.530000X1.050000*%
%TD*%
%TA.AperFunction,SMDPad,CuDef*%
%ADD33O,2.000000X0.600000*%
%TD*%
%TA.AperFunction,SMDPad,CuDef*%
%ADD34O,0.600000X2.000000*%
%TD*%
%TA.AperFunction,SMDPad,CuDef*%
%ADD35R,2.100000X2.100000*%
%TD*%
%TA.AperFunction,SMDPad,CuDef*%
%ADD36R,1.120000X0.900000*%
%TD*%
%TA.AperFunction,SMDPad,CuDef*%
%ADD37R,0.900000X1.100000*%
%TD*%
%TA.AperFunction,SMDPad,CuDef*%
%ADD38R,1.100000X0.900000*%
%TD*%
%TA.AperFunction,SMDPad,CuDef*%
%ADD39RoundRect,0.200000X0.200000X0.275000X-0.200000X0.275000X-0.200000X-0.275000X0.200000X-0.275000X0*%
%TD*%
%TA.AperFunction,SMDPad,CuDef*%
%ADD40RoundRect,0.248780X-0.261220X-0.451220X0.261220X-0.451220X0.261220X0.451220X-0.261220X0.451220X0*%
%TD*%
%TA.AperFunction,SMDPad,CuDef*%
%ADD41R,1.360000X1.230000*%
%TD*%
%TA.AperFunction,SMDPad,CuDef*%
%ADD42RoundRect,0.249056X0.925944X-0.410944X0.925944X0.410944X-0.925944X0.410944X-0.925944X-0.410944X0*%
%TD*%
%TA.AperFunction,ComponentPad*%
%ADD43C,1.700000*%
%TD*%
%TA.AperFunction,SMDPad,CuDef*%
%ADD44RoundRect,0.250000X0.650000X-0.325000X0.650000X0.325000X-0.650000X0.325000X-0.650000X-0.325000X0*%
%TD*%
%TA.AperFunction,SMDPad,CuDef*%
%ADD45RoundRect,0.225000X-0.225000X-0.250000X0.225000X-0.250000X0.225000X0.250000X-0.225000X0.250000X0*%
%TD*%
%TA.AperFunction,SMDPad,CuDef*%
%ADD46R,1.500000X3.200000*%
%TD*%
%TA.AperFunction,SMDPad,CuDef*%
%ADD47R,1.250000X0.700000*%
%TD*%
%TA.AperFunction,SMDPad,CuDef*%
%ADD48RoundRect,0.250000X0.475000X-0.250000X0.475000X0.250000X-0.475000X0.250000X-0.475000X-0.250000X0*%
%TD*%
%TA.AperFunction,SMDPad,CuDef*%
%ADD49RoundRect,0.225000X0.225000X0.250000X-0.225000X0.250000X-0.225000X-0.250000X0.225000X-0.250000X0*%
%TD*%
%TA.AperFunction,SMDPad,CuDef*%
%ADD50R,1.380000X1.130000*%
%TD*%
%TA.AperFunction,SMDPad,CuDef*%
%ADD51R,1.000000X3.500000*%
%TD*%
%TA.AperFunction,SMDPad,CuDef*%
%ADD52R,1.500000X3.500000*%
%TD*%
%TA.AperFunction,SMDPad,CuDef*%
%ADD53R,0.700000X1.250000*%
%TD*%
%TA.AperFunction,SMDPad,CuDef*%
%ADD54RoundRect,0.250000X-0.250000X-0.475000X0.250000X-0.475000X0.250000X0.475000X-0.250000X0.475000X0*%
%TD*%
%TA.AperFunction,SMDPad,CuDef*%
%ADD55R,1.000000X1.050000*%
%TD*%
%TA.AperFunction,SMDPad,CuDef*%
%ADD56R,1.050000X2.200000*%
%TD*%
%TA.AperFunction,SMDPad,CuDef*%
%ADD57RoundRect,0.248780X-0.451220X0.261220X-0.451220X-0.261220X0.451220X-0.261220X0.451220X0.261220X0*%
%TD*%
%TA.AperFunction,SMDPad,CuDef*%
%ADD58FreePoly0,0.000000*%
%TD*%
%TA.AperFunction,SMDPad,CuDef*%
%ADD59FreePoly1,0.000000*%
%TD*%
%TA.AperFunction,SMDPad,CuDef*%
%ADD60R,0.600000X0.200000*%
%TD*%
%TA.AperFunction,SMDPad,CuDef*%
%ADD61FreePoly2,0.000000*%
%TD*%
%TA.AperFunction,SMDPad,CuDef*%
%ADD62R,0.200000X0.600000*%
%TD*%
%TA.AperFunction,SMDPad,CuDef*%
%ADD63FreePoly3,0.000000*%
%TD*%
%TA.AperFunction,SMDPad,CuDef*%
%ADD64R,0.700000X0.200000*%
%TD*%
%TA.AperFunction,SMDPad,CuDef*%
%ADD65R,0.650000X0.200000*%
%TD*%
%TA.AperFunction,SMDPad,CuDef*%
%ADD66R,0.680000X0.200000*%
%TD*%
%TA.AperFunction,SMDPad,CuDef*%
%ADD67FreePoly4,0.000000*%
%TD*%
%TA.AperFunction,SMDPad,CuDef*%
%ADD68R,0.220000X1.000000*%
%TD*%
%TA.AperFunction,SMDPad,CuDef*%
%ADD69R,0.220000X0.950000*%
%TD*%
%TA.AperFunction,SMDPad,CuDef*%
%ADD70RoundRect,0.248780X0.261220X0.451220X-0.261220X0.451220X-0.261220X-0.451220X0.261220X-0.451220X0*%
%TD*%
%TA.AperFunction,SMDPad,CuDef*%
%ADD71RoundRect,0.225000X0.250000X-0.225000X0.250000X0.225000X-0.250000X0.225000X-0.250000X-0.225000X0*%
%TD*%
%TA.AperFunction,SMDPad,CuDef*%
%ADD72RoundRect,0.150000X0.150000X-0.590000X0.150000X0.590000X-0.150000X0.590000X-0.150000X-0.590000X0*%
%TD*%
%TA.AperFunction,SMDPad,CuDef*%
%ADD73R,0.550000X0.350000*%
%TD*%
%TA.AperFunction,SMDPad,CuDef*%
%ADD74RoundRect,0.242500X0.457500X-0.242500X0.457500X0.242500X-0.457500X0.242500X-0.457500X-0.242500X0*%
%TD*%
%TA.AperFunction,SMDPad,CuDef*%
%ADD75RoundRect,0.200000X-0.275000X0.200000X-0.275000X-0.200000X0.275000X-0.200000X0.275000X0.200000X0*%
%TD*%
%TA.AperFunction,SMDPad,CuDef*%
%ADD76RoundRect,0.225000X-0.250000X0.225000X-0.250000X-0.225000X0.250000X-0.225000X0.250000X0.225000X0*%
%TD*%
%TA.AperFunction,SMDPad,CuDef*%
%ADD77R,1.300000X1.800000*%
%TD*%
%TA.AperFunction,SMDPad,CuDef*%
%ADD78R,0.900000X1.200000*%
%TD*%
%TA.AperFunction,SMDPad,CuDef*%
%ADD79RoundRect,0.150000X-0.150000X0.590000X-0.150000X-0.590000X0.150000X-0.590000X0.150000X0.590000X0*%
%TD*%
%TA.AperFunction,SMDPad,CuDef*%
%ADD80O,2.050000X0.590000*%
%TD*%
%TA.AperFunction,ViaPad*%
%ADD81C,0.600000*%
%TD*%
%TA.AperFunction,ViaPad*%
%ADD82C,0.800000*%
%TD*%
%TA.AperFunction,Conductor*%
%ADD83C,0.600000*%
%TD*%
%TA.AperFunction,Conductor*%
%ADD84C,0.200000*%
%TD*%
%TA.AperFunction,Conductor*%
%ADD85C,0.500000*%
%TD*%
%TA.AperFunction,Conductor*%
%ADD86C,0.400000*%
%TD*%
%TA.AperFunction,Conductor*%
%ADD87C,1.000000*%
%TD*%
%TA.AperFunction,Conductor*%
%ADD88C,0.800000*%
%TD*%
%TA.AperFunction,Conductor*%
%ADD89C,0.300000*%
%TD*%
%TA.AperFunction,Conductor*%
%ADD90C,0.100000*%
%TD*%
G04 APERTURE END LIST*
D10*
%TO.P,D210,1,1*%
%TO.N,GND*%
X129200000Y-112060000D03*
%TO.P,D210,2,2*%
%TO.N,/PowerManagament/Solar 5-20V*%
X129200000Y-115540000D03*
%TD*%
D11*
%TO.P,U602,1,~{CS}*%
%TO.N,/MCU/CS_flash*%
X128240000Y-90110000D03*
%TO.P,U602,2,SO(IO1)*%
%TO.N,/MCU/SO*%
X128240000Y-88830000D03*
%TO.P,U602,3,WP#(IO2)*%
%TO.N,/MCU/3V3_esp32*%
X128240000Y-87570000D03*
%TO.P,U602,4,VSS*%
%TO.N,GND*%
X128240000Y-86300000D03*
%TO.P,U602,8,VCC*%
%TO.N,/MCU/3V3_esp32*%
X121160000Y-90110000D03*
%TO.P,U602,7,~{HOLD}/RESET#(IO3)*%
X121160000Y-88830000D03*
%TO.P,U602,6,SCLK*%
%TO.N,/MCU/SCLK*%
X121160000Y-87570000D03*
%TO.P,U602,5,SI(IO0)*%
%TO.N,/MCU/SI*%
X121160000Y-86300000D03*
%TD*%
D12*
%TO.P,TV402,3,3*%
%TO.N,unconnected-(TV402-Pad3)*%
X124300000Y-106400000D03*
%TO.P,TV402,2,2*%
%TO.N,unconnected-(TV402-Pad2)*%
X124300000Y-107350000D03*
%TO.P,TV402,1,1*%
%TO.N,unconnected-(TV402-Pad1)*%
X124300000Y-108300000D03*
%TO.P,TV402,6,6*%
%TO.N,unconnected-(TV402-Pad6)*%
X121600000Y-108300000D03*
%TO.P,TV402,5,5*%
%TO.N,unconnected-(TV402-Pad5)*%
X121600000Y-107350000D03*
%TO.P,TV402,4,4*%
%TO.N,unconnected-(TV402-Pad4)*%
X121600000Y-106400000D03*
%TD*%
%TO.P,TV401,4,4*%
%TO.N,Net-(Card401-RST)*%
X154100000Y-104800000D03*
%TO.P,TV401,5,5*%
%TO.N,Net-(Card401-VCC)*%
X154100000Y-105750000D03*
%TO.P,TV401,6,6*%
%TO.N,unconnected-(TV401-Pad6)*%
X154100000Y-106700000D03*
%TO.P,TV401,1,1*%
%TO.N,Net-(Card401-CLK)*%
X156800000Y-106700000D03*
%TO.P,TV401,2,2*%
%TO.N,GND*%
X156800000Y-105750000D03*
%TO.P,TV401,3,3*%
%TO.N,Net-(Card401-I{slash}O)*%
X156800000Y-104800000D03*
%TD*%
D13*
%TO.P,J209,1,Pin_1*%
%TO.N,/PowerManagament/TS*%
X162365000Y-133865000D03*
%TD*%
%TO.P,J208,1,Pin_1*%
%TO.N,GND*%
X159765000Y-133865000D03*
%TD*%
%TO.P,J207,1,Pin_1*%
%TO.N,/PowerManagament/VBAT*%
X165065000Y-124665000D03*
%TD*%
D14*
%TO.P,J201,14,SHELL*%
%TO.N,GND*%
X124167500Y-130725000D03*
D15*
X128377500Y-130725000D03*
D14*
%TO.P,J201,13,SHELL*%
X124167500Y-122085000D03*
D15*
X128377500Y-122085000D03*
D16*
%TO.P,J201,12,GND*%
X128927500Y-129605000D03*
%TO.P,J201,11,VBUS*%
%TO.N,/PowerManagament/VUSB*%
X128927500Y-128805000D03*
D17*
%TO.P,J201,10,CC2*%
%TO.N,unconnected-(J201-CC2-Pad10)*%
X128927500Y-128155000D03*
%TO.P,J201,9,SBU1*%
%TO.N,unconnected-(J201-SBU1-Pad9)*%
X128927500Y-127655000D03*
%TO.P,J201,8,DP2*%
%TO.N,Net-(J201-DP1)*%
X128927500Y-127155000D03*
%TO.P,J201,7,DN1*%
%TO.N,Net-(J201-DN1)*%
X128927500Y-126655000D03*
%TO.P,J201,6,DP1*%
%TO.N,Net-(J201-DP1)*%
X128927500Y-126155000D03*
%TO.P,J201,5,DN2*%
%TO.N,Net-(J201-DN1)*%
X128927500Y-125655000D03*
%TO.P,J201,4,CC1*%
%TO.N,unconnected-(J201-CC1-Pad4)*%
X128927500Y-125155000D03*
%TO.P,J201,3,SBU2*%
%TO.N,unconnected-(J201-SBU2-Pad3)*%
X128927500Y-124655000D03*
D16*
%TO.P,J201,2,VBUS*%
%TO.N,/PowerManagament/VUSB*%
X128927500Y-124005000D03*
%TO.P,J201,1,GND*%
%TO.N,GND*%
X128927500Y-123205000D03*
D18*
%TO.P,J201,*%
%TO.N,*%
X127847500Y-129295000D03*
X127847500Y-123515000D03*
%TD*%
D19*
%TO.P,Q406,1,G*%
%TO.N,Net-(Q406-G)*%
X163720000Y-74450000D03*
%TO.P,Q406,2,S*%
%TO.N,GND*%
X163720000Y-76350000D03*
%TO.P,Q406,3,D*%
%TO.N,Net-(Q406-D)*%
X165600000Y-75400000D03*
%TD*%
D20*
%TO.P,C606,1*%
%TO.N,Net-(U405-EN)*%
X139700000Y-67200000D03*
%TO.P,C606,2*%
%TO.N,GND*%
X139700000Y-66200000D03*
%TD*%
D21*
%TO.P,C605,1*%
%TO.N,GND*%
X140600000Y-66200000D03*
%TO.P,C605,2*%
%TO.N,Net-(U405-EN)*%
X140600000Y-67200000D03*
%TD*%
D20*
%TO.P,C607,1*%
%TO.N,/MCU/3V3_esp32*%
X124000000Y-74000000D03*
%TO.P,C607,2*%
%TO.N,GND*%
X124000000Y-73000000D03*
%TD*%
D21*
%TO.P,C604,1*%
%TO.N,GND*%
X131100000Y-89500000D03*
%TO.P,C604,2*%
%TO.N,/MCU/3V3_esp32*%
X131100000Y-90500000D03*
%TD*%
D22*
%TO.P,C603,1*%
%TO.N,GND*%
X125515000Y-92975000D03*
%TO.P,C603,2*%
%TO.N,/MCU/3V3_esp32*%
X124515000Y-92975000D03*
%TD*%
%TO.P,C403,1*%
%TO.N,/SimCom/Vin*%
X156500000Y-76800000D03*
%TO.P,C403,2*%
%TO.N,GND*%
X155500000Y-76800000D03*
%TD*%
D23*
%TO.P,C204,1*%
%TO.N,GND*%
X143965000Y-115085000D03*
%TO.P,C204,2*%
%TO.N,Net-(U202-PMID)*%
X143965000Y-118045000D03*
%TD*%
D22*
%TO.P,C402,1*%
%TO.N,/SimCom/Vin*%
X156500000Y-75800000D03*
%TO.P,C402,2*%
%TO.N,GND*%
X155500000Y-75800000D03*
%TD*%
D24*
%TO.P,C404,1*%
%TO.N,/SimCom/Vin*%
X158500000Y-76800000D03*
%TO.P,C404,2*%
%TO.N,GND*%
X159500000Y-76800000D03*
%TD*%
D25*
%TO.P,D204,1,K*%
%TO.N,Net-(D204-K)*%
X136985000Y-115165000D03*
%TO.P,D204,2,A*%
%TO.N,Net-(D204-A)*%
X134645000Y-115165000D03*
%TD*%
D22*
%TO.P,R201,1*%
%TO.N,/PowerManagament/REGN*%
X143865000Y-126865000D03*
%TO.P,R201,2*%
%TO.N,Net-(D201-Pad2)*%
X142865000Y-126865000D03*
%TD*%
D26*
%TO.P,D201,1*%
%TO.N,Net-(U202-STAT)*%
X139625000Y-125795000D03*
%TO.P,D201,2*%
%TO.N,Net-(D201-Pad2)*%
X141505000Y-125795000D03*
%TD*%
D21*
%TO.P,R604,1*%
%TO.N,Net-(U405-EN)*%
X140400000Y-68800000D03*
%TO.P,R604,2*%
%TO.N,/MCU/3V3_esp32*%
X140400000Y-69800000D03*
%TD*%
D23*
%TO.P,C207,1*%
%TO.N,GND*%
X154900000Y-114985000D03*
%TO.P,C207,2*%
%TO.N,/MCU/VSYS*%
X154900000Y-117945000D03*
%TD*%
D20*
%TO.P,R602,1*%
%TO.N,/MCU/3V3_esp32*%
X129800000Y-83400000D03*
%TO.P,R602,2*%
%TO.N,/MCU/SCL*%
X129800000Y-82400000D03*
%TD*%
D27*
%TO.P,U405,1,GND*%
%TO.N,GND*%
X125280000Y-72170000D03*
%TO.P,U405,2,GND*%
X125280000Y-72980000D03*
%TO.P,U405,3,3V3*%
%TO.N,/MCU/3V3_esp32*%
X125280000Y-73780000D03*
%TO.P,U405,4,NC*%
%TO.N,unconnected-(U405-NC-Pad4)*%
X125280000Y-74570000D03*
%TO.P,U405,5,IO2*%
%TO.N,/MCU/SO*%
X125280000Y-75380000D03*
%TO.P,U405,6,IO3*%
%TO.N,/MCU/SCLK*%
X125280000Y-76170000D03*
%TO.P,U405,7,NC*%
%TO.N,unconnected-(U405-NC-Pad7)*%
X125280000Y-76970000D03*
%TO.P,U405,8,EN*%
%TO.N,Net-(U405-EN)*%
X125280000Y-77780000D03*
%TO.P,U405,9,IO4*%
%TO.N,/MCU/CS_flash*%
X125280000Y-78570000D03*
%TO.P,U405,10,IO5*%
%TO.N,/MCU/CS_periferal*%
X125280000Y-79380000D03*
%TO.P,U405,11,GND*%
%TO.N,unconnected-(U405-GND-Pad11)*%
X125280000Y-80180000D03*
D28*
%TO.P,U405,12,IO0*%
%TO.N,unconnected-(U405-IO0-Pad12)*%
X126380000Y-81050000D03*
%TO.P,U405,13,IO1*%
%TO.N,unconnected-(U405-IO1-Pad13)*%
X127180000Y-81050000D03*
%TO.P,U405,14,GND*%
%TO.N,unconnected-(U405-GND-Pad14)*%
X127980000Y-81050000D03*
%TO.P,U405,15,IO6*%
%TO.N,/MCU/SDA*%
X128780000Y-81050000D03*
%TO.P,U405,16,IO7*%
%TO.N,/MCU/SCL*%
X129580000Y-81050000D03*
%TO.P,U405,17,IO12*%
%TO.N,Net-(U405-IO12)*%
X130380000Y-81050000D03*
%TO.P,U405,18,IO13*%
%TO.N,Net-(U405-IO13)*%
X131180000Y-81050000D03*
%TO.P,U405,19,IO14*%
%TO.N,unconnected-(U405-IO14-Pad19)*%
X131980000Y-81050000D03*
%TO.P,U405,20,IO15*%
%TO.N,unconnected-(U405-IO15-Pad20)*%
X132780000Y-81050000D03*
%TO.P,U405,21,NC*%
%TO.N,unconnected-(U405-NC-Pad21)*%
X133580000Y-81050000D03*
%TO.P,U405,22,IO8*%
%TO.N,Net-(U405-IO8)*%
X134380000Y-81050000D03*
%TO.P,U405,23,IO9*%
%TO.N,unconnected-(U405-IO9-Pad23)*%
X135180000Y-81050000D03*
%TO.P,U405,24,IO18*%
%TO.N,/MCU/SI*%
X135980000Y-81050000D03*
D27*
%TO.P,U405,25,IO19*%
%TO.N,unconnected-(U405-IO19-Pad25)*%
X137080000Y-80180000D03*
%TO.P,U405,26,IO20*%
%TO.N,/MCU/INT*%
X137080000Y-79380000D03*
%TO.P,U405,27,IO21*%
%TO.N,/MCU/QON*%
X137080000Y-78570000D03*
%TO.P,U405,28,IO22*%
%TO.N,/MCU/PWRKEY*%
X137080000Y-77780000D03*
%TO.P,U405,29,IO23*%
%TO.N,/MCU/MOSFET_a7670g*%
X137080000Y-76970000D03*
%TO.P,U405,30,RXD0*%
%TO.N,/MCU/TX*%
X137080000Y-76180000D03*
%TO.P,U405,31,TXD0*%
%TO.N,/MCU/RX*%
X137080000Y-75380000D03*
%TO.P,U405,32,NC*%
%TO.N,unconnected-(U405-NC-Pad32)*%
X137080000Y-74570000D03*
%TO.P,U405,33,NC*%
%TO.N,unconnected-(U405-NC-Pad33)*%
X137080000Y-73780000D03*
%TO.P,U405,34,NC*%
%TO.N,unconnected-(U405-NC-Pad34)*%
X137080000Y-72980000D03*
%TO.P,U405,35,NC*%
%TO.N,unconnected-(U405-NC-Pad35)*%
X137080000Y-72170000D03*
D28*
%TO.P,U405,36,GND*%
%TO.N,GND*%
X135980000Y-71250000D03*
%TO.P,U405,37,GND*%
X135180000Y-71250000D03*
%TO.P,U405,38,GND*%
X134380000Y-71250000D03*
%TO.P,U405,39,GND*%
X133580000Y-71250000D03*
%TO.P,U405,40,GND*%
X132780000Y-71250000D03*
%TO.P,U405,41,GND*%
X131980000Y-71250000D03*
%TO.P,U405,42,GND*%
X131180000Y-71250000D03*
%TO.P,U405,43,GND*%
X130380000Y-71250000D03*
%TO.P,U405,44,GND*%
X129580000Y-71250000D03*
%TO.P,U405,45,GND*%
X128780000Y-71250000D03*
%TO.P,U405,46,GND*%
X127980000Y-71250000D03*
%TO.P,U405,47,GND*%
X127180000Y-71250000D03*
%TO.P,U405,48,GND*%
X126380000Y-71250000D03*
D29*
%TO.P,U405,49,GND*%
X129400000Y-74300000D03*
X129400000Y-76100000D03*
X129400000Y-77900000D03*
X131200000Y-74300000D03*
X131200000Y-76100000D03*
X131200000Y-77900000D03*
X133000000Y-74300000D03*
X133000000Y-76100000D03*
X133000000Y-77900000D03*
D30*
%TO.P,U405,50,GND*%
X137130000Y-71200000D03*
%TO.P,U405,51,GND*%
X137130000Y-81100000D03*
%TO.P,U405,52,GND*%
X125230000Y-81100000D03*
%TO.P,U405,53,GND*%
X125230000Y-71200000D03*
%TD*%
D31*
%TO.P,R223,1*%
%TO.N,Net-(R222-Pad2)*%
X138775000Y-130665000D03*
%TO.P,R223,2*%
%TO.N,/PowerManagament/TS*%
X140415000Y-130665000D03*
%TD*%
D32*
%TO.P,U603,1,VIN*%
%TO.N,/MCU/Vsys*%
X120750000Y-100300000D03*
%TO.P,U603,2,GND*%
%TO.N,GND*%
X121700000Y-100300000D03*
%TO.P,U603,3,EN*%
%TO.N,/MCU/Vsys*%
X122650000Y-100300000D03*
%TO.P,U603,4,NC*%
%TO.N,unconnected-(U603-NC-Pad4)*%
X122650000Y-98000000D03*
%TO.P,U603,5,VOUT*%
%TO.N,/MCU/3V3_esp32*%
X120750000Y-98000000D03*
%TD*%
D33*
%TO.P,U402,1,PWRKEY*%
%TO.N,/MCU/PWRKEY*%
X141500000Y-82500000D03*
%TO.P,U402,2,GND*%
%TO.N,GND*%
X141500000Y-83500000D03*
%TO.P,U402,3,DTR*%
%TO.N,unconnected-(U402-DTR-Pad3)*%
X141500000Y-84500000D03*
%TO.P,U402,4,RI*%
%TO.N,unconnected-(U402-RI-Pad4)*%
X141500000Y-85500000D03*
%TO.P,U402,5,DCD*%
%TO.N,unconnected-(U402-DCD-Pad5)*%
X141500000Y-86500000D03*
%TO.P,U402,6,USB_BOOT\u25CF*%
%TO.N,unconnected-(U402-USB_BOOT\u25CF-Pad6)*%
X141500000Y-87500000D03*
%TO.P,U402,7,CTS*%
%TO.N,unconnected-(U402-CTS-Pad7)*%
X141500000Y-88500000D03*
%TO.P,U402,8,RTS*%
%TO.N,unconnected-(U402-RTS-Pad8)*%
X141500000Y-89500000D03*
%TO.P,U402,9,TXD*%
%TO.N,Net-(Q403-S)*%
X141500000Y-90500000D03*
%TO.P,U402,10,RXD*%
%TO.N,Net-(Q402-S)*%
X141500000Y-91500000D03*
%TO.P,U402,11,SPI_CLK*%
%TO.N,unconnected-(U402-SPI_CLK-Pad11)*%
X141500000Y-92500000D03*
%TO.P,U402,12,SPI_CS*%
%TO.N,unconnected-(U402-SPI_CS-Pad12)*%
X141500000Y-93500000D03*
%TO.P,U402,13,SPI_MOSI*%
%TO.N,unconnected-(U402-SPI_MOSI-Pad13)*%
X141500000Y-94500000D03*
%TO.P,U402,14,SPI_MISO*%
%TO.N,unconnected-(U402-SPI_MISO-Pad14)*%
X141500000Y-95500000D03*
%TO.P,U402,15,VDD_EXT*%
%TO.N,/SimCom/VDD_1V8*%
X141500000Y-96500000D03*
%TO.P,U402,16,RESET*%
%TO.N,/MCU/RESET*%
X141500000Y-97500000D03*
%TO.P,U402,17,GND*%
%TO.N,GND*%
X141500000Y-98500000D03*
D34*
%TO.P,U402,18,GND*%
X145500000Y-102500000D03*
%TO.P,U402,19,GPIO1*%
%TO.N,unconnected-(U402-GPIO1-Pad19)*%
X146500000Y-102500000D03*
%TO.P,U402,20,MK_IN_3*%
%TO.N,unconnected-(U402-MK_IN_3-Pad20)*%
X147500000Y-102500000D03*
%TO.P,U402,21,MK_OUT_3*%
%TO.N,unconnected-(U402-MK_OUT_3-Pad21)*%
X148500000Y-102500000D03*
%TO.P,U402,22,UART_LOG_RX*%
%TO.N,unconnected-(U402-UART_LOG_RX-Pad22)*%
X149500000Y-102500000D03*
%TO.P,U402,23,UART_LOG_TX*%
%TO.N,unconnected-(U402-UART_LOG_TX-Pad23)*%
X150500000Y-102500000D03*
%TO.P,U402,24,VBUS*%
%TO.N,unconnected-(U402-VBUS-Pad24)*%
X151500000Y-102500000D03*
%TO.P,U402,25,ADC*%
%TO.N,unconnected-(U402-ADC-Pad25)*%
X152500000Y-102500000D03*
%TO.P,U402,26,GPIO2*%
%TO.N,unconnected-(U402-GPIO2-Pad26)*%
X153500000Y-102500000D03*
%TO.P,U402,27,USB_DP*%
%TO.N,unconnected-(U402-USB_DP-Pad27)*%
X154500000Y-102500000D03*
%TO.P,U402,28,USB_DM*%
%TO.N,unconnected-(U402-USB_DM-Pad28)*%
X155500000Y-102500000D03*
%TO.P,U402,29,GND*%
%TO.N,GND*%
X156500000Y-102500000D03*
%TO.P,U402,30,USIM1_VDD*%
%TO.N,Net-(Card401-VCC)*%
X157500000Y-102500000D03*
%TO.P,U402,31,USIM1_DATA*%
%TO.N,Net-(U402-USIM1_DATA)*%
X158500000Y-102500000D03*
%TO.P,U402,32,USIM1_CLK*%
%TO.N,Net-(U402-USIM1_CLK)*%
X159500000Y-102500000D03*
%TO.P,U402,33,USIM1_RST*%
%TO.N,Net-(U402-USIM1_RST)*%
X160500000Y-102500000D03*
%TO.P,U402,34,USIM1_DET*%
%TO.N,unconnected-(U402-USIM1_DET-Pad34)*%
X161500000Y-102500000D03*
D33*
%TO.P,U402,35,MK_OUT_6*%
%TO.N,unconnected-(U402-MK_OUT_6-Pad35)*%
X165500000Y-98500000D03*
%TO.P,U402,36,MK_IN_6*%
%TO.N,unconnected-(U402-MK_IN_6-Pad36)*%
X165500000Y-97500000D03*
%TO.P,U402,37,I2C_SDA*%
%TO.N,unconnected-(U402-I2C_SDA-Pad37)*%
X165500000Y-96500000D03*
%TO.P,U402,38,I2C_SCL*%
%TO.N,unconnected-(U402-I2C_SCL-Pad38)*%
X165500000Y-95500000D03*
%TO.P,U402,39,GND*%
%TO.N,GND*%
X165500000Y-94500000D03*
%TO.P,U402,40,EAR_P*%
%TO.N,unconnected-(U402-EAR_P-Pad40)*%
X165500000Y-93500000D03*
%TO.P,U402,41,EAR_N*%
%TO.N,unconnected-(U402-EAR_N-Pad41)*%
X165500000Y-92500000D03*
%TO.P,U402,42,MIC_P*%
%TO.N,unconnected-(U402-MIC_P-Pad42)*%
X165500000Y-91500000D03*
%TO.P,U402,43,MIC_N*%
%TO.N,unconnected-(U402-MIC_N-Pad43)*%
X165500000Y-90500000D03*
%TO.P,U402,44,MK_OUT_2*%
%TO.N,unconnected-(U402-MK_OUT_2-Pad44)*%
X165500000Y-89500000D03*
%TO.P,U402,45,GND*%
%TO.N,GND*%
X165500000Y-88500000D03*
%TO.P,U402,46,GND*%
X165500000Y-87500000D03*
%TO.P,U402,47,MK_IN_2*%
%TO.N,unconnected-(U402-MK_IN_2-Pad47)*%
X165500000Y-86500000D03*
%TO.P,U402,48,GPIO3*%
%TO.N,unconnected-(U402-GPIO3-Pad48)*%
X165500000Y-85500000D03*
%TO.P,U402,49,UART3_RXD*%
%TO.N,unconnected-(U402-UART3_RXD-Pad49)*%
X165500000Y-84500000D03*
%TO.P,U402,50,UART3_TXD*%
%TO.N,unconnected-(U402-UART3_TXD-Pad50)*%
X165500000Y-83500000D03*
%TO.P,U402,51,VBAT_ADC*%
%TO.N,/SimCom/VBAT_ADC*%
X165500000Y-82500000D03*
D34*
%TO.P,U402,52,NETLIGHT*%
%TO.N,/SimCom/NETLIGHT*%
X161500000Y-78500000D03*
%TO.P,U402,53,GPIO4*%
%TO.N,unconnected-(U402-GPIO4-Pad53)*%
X160500000Y-78500000D03*
%TO.P,U402,54,GND*%
%TO.N,GND*%
X159500000Y-78500000D03*
%TO.P,U402,55,VBAT*%
%TO.N,/SimCom/Vin*%
X158500000Y-78500000D03*
%TO.P,U402,56,VBAT*%
X157500000Y-78500000D03*
%TO.P,U402,57,VBAT*%
X156500000Y-78500000D03*
%TO.P,U402,58,GND*%
%TO.N,GND*%
X155500000Y-78500000D03*
%TO.P,U402,59,GND*%
X154500000Y-78500000D03*
%TO.P,U402,60,RF_ANT*%
%TO.N,Net-(U402-RF_ANT)*%
X153500000Y-78500000D03*
%TO.P,U402,61,GND*%
%TO.N,GND*%
X152500000Y-78500000D03*
%TO.P,U402,62,GND*%
X151500000Y-78500000D03*
%TO.P,U402,63,GND*%
X150500000Y-78500000D03*
%TO.P,U402,64,GND*%
X149500000Y-78500000D03*
%TO.P,U402,65,GND*%
X148500000Y-78500000D03*
%TO.P,U402,66,STATUS*%
%TO.N,unconnected-(U402-STATUS-Pad66)*%
X147500000Y-78500000D03*
%TO.P,U402,67,MK_OUT_5*%
%TO.N,unconnected-(U402-MK_OUT_5-Pad67)*%
X146500000Y-78500000D03*
%TO.P,U402,68,MK_IN_5*%
%TO.N,unconnected-(U402-MK_IN_5-Pad68)*%
X145500000Y-78500000D03*
D35*
%TO.P,U402,69,GND*%
%TO.N,GND*%
X145900000Y-82900000D03*
%TO.P,U402,70,GND*%
X145900000Y-86700000D03*
%TO.P,U402,71,GND*%
X145900000Y-90500000D03*
%TO.P,U402,72,GND*%
X145900000Y-94300000D03*
%TO.P,U402,73,GND*%
X145900000Y-98100000D03*
%TO.P,U402,74,GND*%
X149700000Y-98100000D03*
%TO.P,U402,75,GND*%
X153500000Y-98100000D03*
%TO.P,U402,76,GND*%
X157300000Y-98100000D03*
%TO.P,U402,77,GND*%
X161100000Y-98100000D03*
%TO.P,U402,78,GND*%
X161100000Y-94310000D03*
%TO.P,U402,79,GND*%
X161100000Y-90500000D03*
%TO.P,U402,80,GND*%
X161100000Y-86700000D03*
%TO.P,U402,81,GND*%
X161100000Y-82900000D03*
%TO.P,U402,82,GND*%
X157300000Y-82900000D03*
%TO.P,U402,83,GND*%
X153500000Y-82900000D03*
%TO.P,U402,84,GND*%
X149700000Y-82900000D03*
%TO.P,U402,85,GND*%
X149700000Y-90500000D03*
%TO.P,U402,86,GND*%
X153500000Y-94300000D03*
%TO.P,U402,87,GND*%
X157300000Y-90500000D03*
%TO.P,U402,88,GND*%
X153500000Y-86700000D03*
D34*
%TO.P,U402,89,GND*%
X142500000Y-102500000D03*
%TO.P,U402,90,NC*%
X143500000Y-102500000D03*
%TO.P,U402,91,GND*%
X144500000Y-102500000D03*
%TO.P,U402,92,GND*%
X162500000Y-102500000D03*
%TO.P,U402,93,NC*%
X163500000Y-102500000D03*
%TO.P,U402,94,GND*%
X164500000Y-102500000D03*
%TO.P,U402,95,NC*%
%TO.N,unconnected-(U402-NC-Pad95)*%
X164500000Y-78500000D03*
%TO.P,U402,96,NC*%
%TO.N,unconnected-(U402-NC-Pad96)*%
X163500000Y-78500000D03*
%TO.P,U402,97,NC*%
%TO.N,unconnected-(U402-NC-Pad97)*%
X162500000Y-78500000D03*
%TO.P,U402,98,NC*%
%TO.N,unconnected-(U402-NC-Pad98)*%
X144500000Y-78500000D03*
%TO.P,U402,99,VDD_AUX*%
%TO.N,unconnected-(U402-VDD_AUX-Pad99)*%
X143500000Y-78500000D03*
%TO.P,U402,100,NC*%
%TO.N,unconnected-(U402-NC-Pad100)*%
X142500000Y-78500000D03*
D36*
%TO.P,U402,101,LCD_BL_PWM*%
%TO.N,unconnected-(U402-LCD_BL_PWM-Pad101)*%
X143700000Y-87000000D03*
%TO.P,U402,102,LCD_SPI_CLK*%
%TO.N,unconnected-(U402-LCD_SPI_CLK-Pad102)*%
X143700000Y-88400000D03*
%TO.P,U402,103,LCD_SPI_TXD*%
%TO.N,unconnected-(U402-LCD_SPI_TXD-Pad103)*%
X143700000Y-89800000D03*
%TO.P,U402,104,LCD_SPI_RXD*%
%TO.N,unconnected-(U402-LCD_SPI_RXD-Pad104)*%
X143700000Y-91200000D03*
%TO.P,U402,105,LCD_SPI_CS*%
%TO.N,unconnected-(U402-LCD_SPI_CS-Pad105)*%
X143700000Y-92600000D03*
%TO.P,U402,106,LCD_RST*%
%TO.N,unconnected-(U402-LCD_RST-Pad106)*%
X143700000Y-94000000D03*
D37*
%TO.P,U402,107,LCD_DCX*%
%TO.N,unconnected-(U402-LCD_DCX-Pad107)*%
X150000000Y-100300000D03*
%TO.P,U402,108,USIM2_DATA*%
%TO.N,unconnected-(U402-USIM2_DATA-Pad108)*%
X151400000Y-100300000D03*
%TO.P,U402,109,USIM2_CLK*%
%TO.N,unconnected-(U402-USIM2_CLK-Pad109)*%
X152800000Y-100300000D03*
%TO.P,U402,110,USIM2_VDD*%
%TO.N,unconnected-(U402-USIM2_VDD-Pad110)*%
X154200000Y-100300000D03*
%TO.P,U402,111,USIM2_RST*%
%TO.N,unconnected-(U402-USIM2_RST-Pad111)*%
X155600000Y-100300000D03*
%TO.P,U402,112,USIM2_DET*%
%TO.N,unconnected-(U402-USIM2_DET-Pad112)*%
X157000000Y-100300000D03*
D38*
%TO.P,U402,113,NC*%
%TO.N,unconnected-(U402-NC-Pad113)*%
X163300000Y-94000000D03*
%TO.P,U402,114,NC*%
%TO.N,unconnected-(U402-NC-Pad114)*%
X163300000Y-92600000D03*
%TO.P,U402,115,NC*%
%TO.N,unconnected-(U402-NC-Pad115)*%
X163300000Y-91200000D03*
%TO.P,U402,116,NC*%
%TO.N,unconnected-(U402-NC-Pad116)*%
X163300000Y-89800000D03*
%TO.P,U402,117,CAM_I2C_SDA*%
%TO.N,unconnected-(U402-CAM_I2C_SDA-Pad117)*%
X163300000Y-88400000D03*
%TO.P,U402,118,CAM_I2C_SCL*%
%TO.N,unconnected-(U402-CAM_I2C_SCL-Pad118)*%
X163300000Y-87000000D03*
D37*
%TO.P,U402,119,CAM_PWDN*%
%TO.N,unconnected-(U402-CAM_PWDN-Pad119)*%
X157000000Y-80700000D03*
%TO.P,U402,120,CAM_RST*%
%TO.N,unconnected-(U402-CAM_RST-Pad120)*%
X155600000Y-80700000D03*
%TO.P,U402,121,CAM_MCLK*%
%TO.N,unconnected-(U402-CAM_MCLK-Pad121)*%
X154200000Y-80700000D03*
%TO.P,U402,122,CAM_SPI_D0*%
%TO.N,unconnected-(U402-CAM_SPI_D0-Pad122)*%
X152800000Y-80700000D03*
%TO.P,U402,123,CAM_SPI_D1*%
%TO.N,unconnected-(U402-CAM_SPI_D1-Pad123)*%
X151400000Y-80700000D03*
%TO.P,U402,124,CAM_SPI_CLK*%
%TO.N,unconnected-(U402-CAM_SPI_CLK-Pad124)*%
X150000000Y-80700000D03*
%TD*%
D22*
%TO.P,C407,1*%
%TO.N,GND*%
X163700000Y-107200000D03*
%TO.P,C407,2*%
%TO.N,Net-(U402-USIM1_RST)*%
X162700000Y-107200000D03*
%TD*%
D21*
%TO.P,R651,1*%
%TO.N,/MCU/DP*%
X130900000Y-82400000D03*
%TO.P,R651,2*%
%TO.N,Net-(U405-IO12)*%
X130900000Y-83400000D03*
%TD*%
D39*
%TO.P,R212,1*%
%TO.N,Net-(U202-ILIM_HIZ)*%
X146585000Y-127915000D03*
%TO.P,R212,2*%
%TO.N,/PowerManagament/REGN*%
X144945000Y-127915000D03*
%TD*%
D40*
%TO.P,R215,1*%
%TO.N,Net-(C216-Pad2)*%
X134990000Y-112900000D03*
%TO.P,R215,2*%
%TO.N,/PowerManagament/Solar 5-20V*%
X136810000Y-112900000D03*
%TD*%
%TO.P,R401,1*%
%TO.N,Net-(U402-RF_ANT)*%
X151390000Y-69500000D03*
%TO.P,R401,2*%
X153210000Y-69500000D03*
%TD*%
D41*
%TO.P,SW603,1,1*%
%TO.N,Net-(U405-EN)*%
X142700000Y-70180000D03*
%TO.P,SW603,2,2*%
%TO.N,GND*%
X142700000Y-65820000D03*
%TD*%
D22*
%TO.P,R405,1*%
%TO.N,/MCU/3V3_esp32*%
X146780000Y-70920000D03*
%TO.P,R405,2*%
%TO.N,/MCU/TX*%
X145780000Y-70920000D03*
%TD*%
D25*
%TO.P,D203,1,K*%
%TO.N,Net-(D203-K)*%
X135635000Y-125715000D03*
%TO.P,D203,2,A*%
%TO.N,Net-(D203-A)*%
X133295000Y-125715000D03*
%TD*%
D24*
%TO.P,C411,1*%
%TO.N,/SimCom/Vin*%
X158500000Y-75800000D03*
%TO.P,C411,2*%
%TO.N,GND*%
X159500000Y-75800000D03*
%TD*%
D20*
%TO.P,R410,1*%
%TO.N,Net-(Card401-RST)*%
X160600000Y-107100000D03*
%TO.P,R410,2*%
%TO.N,Net-(U402-USIM1_RST)*%
X160600000Y-106100000D03*
%TD*%
%TO.P,R411,1*%
%TO.N,Net-(Card401-CLK)*%
X159500000Y-106400000D03*
%TO.P,R411,2*%
%TO.N,Net-(U402-USIM1_CLK)*%
X159500000Y-105400000D03*
%TD*%
D22*
%TO.P,R408,1*%
%TO.N,/MCU/RX*%
X149180000Y-70920000D03*
%TO.P,R408,2*%
%TO.N,/MCU/3V3_esp32*%
X148180000Y-70920000D03*
%TD*%
D24*
%TO.P,C610,1*%
%TO.N,GND*%
X129900000Y-84600000D03*
%TO.P,C610,2*%
%TO.N,/MCU/DP*%
X130900000Y-84600000D03*
%TD*%
D42*
%TO.P,C410,1*%
%TO.N,/SimCom/Vin*%
X159200000Y-74140000D03*
%TO.P,C410,2*%
%TO.N,GND*%
X159200000Y-71060000D03*
%TD*%
D13*
%TO.P,J204,1,Pin_1*%
%TO.N,/PowerManagament/VUSB*%
X128145000Y-134585000D03*
D43*
%TO.P,J204,2,Pin_2*%
%TO.N,Net-(J201-DN1)*%
X130685000Y-134585000D03*
%TO.P,J204,3,Pin_3*%
%TO.N,Net-(J201-DP1)*%
X133225000Y-134585000D03*
%TO.P,J204,4,Pin_4*%
%TO.N,GND*%
X135765000Y-134585000D03*
%TD*%
D23*
%TO.P,C201,1*%
%TO.N,GND*%
X143620000Y-122450000D03*
%TO.P,C201,2*%
%TO.N,/PowerManagament/REGN*%
X143620000Y-125410000D03*
%TD*%
D24*
%TO.P,R416,1*%
%TO.N,/MCU/MOSFET_a7670g*%
X154600000Y-67400000D03*
%TO.P,R416,2*%
%TO.N,Net-(Q401-G)*%
X155600000Y-67400000D03*
%TD*%
D22*
%TO.P,C408,1*%
%TO.N,GND*%
X163700000Y-106200000D03*
%TO.P,C408,2*%
%TO.N,Net-(U402-USIM1_CLK)*%
X162700000Y-106200000D03*
%TD*%
D23*
%TO.P,C205,1*%
%TO.N,GND*%
X146365000Y-115085000D03*
%TO.P,C205,2*%
%TO.N,Net-(U202-PMID)*%
X146365000Y-118045000D03*
%TD*%
D44*
%TO.P,C218,1*%
%TO.N,GND*%
X138590000Y-123790000D03*
%TO.P,C218,2*%
%TO.N,/PowerManagament/VBUS*%
X138590000Y-120830000D03*
%TD*%
D24*
%TO.P,C221,1*%
%TO.N,Net-(D204-A)*%
X138100000Y-113615000D03*
%TO.P,C221,2*%
%TO.N,Net-(D204-K)*%
X139100000Y-113615000D03*
%TD*%
D45*
%TO.P,C206,1*%
%TO.N,GND*%
X151420000Y-117970000D03*
%TO.P,C206,2*%
%TO.N,/MCU/VSYS*%
X152980000Y-117970000D03*
%TD*%
D24*
%TO.P,R402,1*%
%TO.N,/SimCom/NETLIGHT*%
X161200000Y-76700000D03*
%TO.P,R402,2*%
%TO.N,Net-(Q406-G)*%
X162200000Y-76700000D03*
%TD*%
D22*
%TO.P,C609,1*%
%TO.N,GND*%
X133000000Y-84600000D03*
%TO.P,C609,2*%
%TO.N,/MCU/DN*%
X132000000Y-84600000D03*
%TD*%
D44*
%TO.P,C211,1*%
%TO.N,GND*%
X157290000Y-123530000D03*
%TO.P,C211,2*%
%TO.N,Net-(Q204-S)*%
X157290000Y-120570000D03*
%TD*%
D24*
%TO.P,R418,1*%
%TO.N,Net-(Q401-D)*%
X160000000Y-65800000D03*
%TO.P,R418,2*%
%TO.N,/SimCom/VSYS*%
X161000000Y-65800000D03*
%TD*%
D22*
%TO.P,C406,1*%
%TO.N,GND*%
X163700000Y-105200000D03*
%TO.P,C406,2*%
%TO.N,Net-(U402-USIM1_DATA)*%
X162700000Y-105200000D03*
%TD*%
D13*
%TO.P,J205,1,Pin_1*%
%TO.N,GND*%
X125065000Y-114725000D03*
D43*
%TO.P,J205,2,Pin_2*%
%TO.N,/PowerManagament/Solar 5-20V*%
X125065000Y-117265000D03*
%TD*%
D22*
%TO.P,R404,1*%
%TO.N,Net-(D402-Pad1)*%
X166100000Y-73200000D03*
%TO.P,R404,2*%
%TO.N,Net-(Q406-D)*%
X165100000Y-73200000D03*
%TD*%
D31*
%TO.P,R208,1*%
%TO.N,Net-(U202-BATP)*%
X159485000Y-125215000D03*
%TO.P,R208,2*%
%TO.N,/PowerManagament/VBAT*%
X161125000Y-125215000D03*
%TD*%
D22*
%TO.P,R225,1*%
%TO.N,Net-(R224-Pad2)*%
X137765000Y-132265000D03*
%TO.P,R225,2*%
%TO.N,GND*%
X136765000Y-132265000D03*
%TD*%
D44*
%TO.P,C219,1*%
%TO.N,GND*%
X141080000Y-123790000D03*
%TO.P,C219,2*%
%TO.N,/PowerManagament/VBUS*%
X141080000Y-120830000D03*
%TD*%
D46*
%TO.P,L201,1,1*%
%TO.N,Net-(U202-SW1)*%
X149455000Y-113295000D03*
%TO.P,L201,2,2*%
%TO.N,Net-(U202-SW2)*%
X151755000Y-113295000D03*
%TD*%
D22*
%TO.P,C409,1*%
%TO.N,GND*%
X163700000Y-104200000D03*
%TO.P,C409,2*%
%TO.N,Net-(Card401-VCC)*%
X162700000Y-104200000D03*
%TD*%
D47*
%TO.P,Q201,1,G*%
%TO.N,Net-(D203-K)*%
X132515000Y-122015000D03*
%TO.P,Q201,2,S*%
%TO.N,Net-(D203-A)*%
X132515000Y-120115000D03*
%TO.P,Q201,3,D*%
%TO.N,/PowerManagament/VUSB*%
X130515000Y-121065000D03*
%TD*%
D24*
%TO.P,C220,1*%
%TO.N,Net-(D203-A)*%
X133965000Y-127115000D03*
%TO.P,C220,2*%
%TO.N,Net-(D203-K)*%
X134965000Y-127115000D03*
%TD*%
D48*
%TO.P,C405,1*%
%TO.N,Net-(U402-RF_ANT)*%
X153000000Y-67650000D03*
%TO.P,C405,2*%
%TO.N,GND*%
X153000000Y-65750000D03*
%TD*%
D49*
%TO.P,C214,1*%
%TO.N,Net-(U202-SW2)*%
X154445000Y-126365000D03*
%TO.P,C214,2*%
%TO.N,Net-(U202-BTST2)*%
X152885000Y-126365000D03*
%TD*%
D20*
%TO.P,R655,1*%
%TO.N,/MCU/3V3_esp32*%
X134400000Y-83400000D03*
%TO.P,R655,2*%
%TO.N,Net-(U405-IO8)*%
X134400000Y-82400000D03*
%TD*%
D21*
%TO.P,R652,1*%
%TO.N,/MCU/CS_periferal*%
X124100000Y-79500000D03*
%TO.P,R652,2*%
%TO.N,/MCU/3V3_esp32*%
X124100000Y-80500000D03*
%TD*%
D13*
%TO.P,J206,1,Pin_1*%
%TO.N,GND*%
X164640000Y-114505000D03*
D43*
%TO.P,J206,2,Pin_2*%
%TO.N,/MCU/VSYS*%
X164640000Y-117045000D03*
%TD*%
D50*
%TO.P,L401,1,1*%
%TO.N,Net-(Q404-D)*%
X163400000Y-70466282D03*
%TO.P,L401,2,2*%
%TO.N,/SimCom/Vin*%
X163400000Y-72406282D03*
%TD*%
D51*
%TO.P,J202,1,1*%
%TO.N,GND*%
X158935000Y-128195000D03*
%TO.P,J202,2,2*%
%TO.N,/PowerManagament/TS*%
X160935000Y-128195000D03*
%TO.P,J202,3,3*%
%TO.N,/PowerManagament/VBAT*%
X162935000Y-128195000D03*
D52*
%TO.P,J202,4,4*%
%TO.N,GND*%
X165285000Y-133895000D03*
%TO.P,J202,5,5*%
X156585000Y-133895000D03*
%TD*%
D53*
%TO.P,Q204,1,G*%
%TO.N,Net-(Q204-G)*%
X163865000Y-120515000D03*
%TO.P,Q204,2,S*%
%TO.N,Net-(Q204-S)*%
X161965000Y-120515000D03*
%TO.P,Q204,3,D*%
%TO.N,/PowerManagament/VBAT*%
X162915000Y-122515000D03*
%TD*%
D22*
%TO.P,C601,1*%
%TO.N,GND*%
X121700000Y-101600000D03*
%TO.P,C601,2*%
%TO.N,/MCU/Vsys*%
X120700000Y-101600000D03*
%TD*%
D20*
%TO.P,R409,1*%
%TO.N,Net-(Card401-I{slash}O)*%
X158400000Y-105200000D03*
%TO.P,R409,2*%
%TO.N,Net-(U402-USIM1_DATA)*%
X158400000Y-104200000D03*
%TD*%
D22*
%TO.P,R406,1*%
%TO.N,/SimCom/VDD_1V8*%
X146500000Y-75820000D03*
%TO.P,R406,2*%
%TO.N,Net-(Q402-S)*%
X145500000Y-75820000D03*
%TD*%
D21*
%TO.P,R209,1*%
%TO.N,Net-(U202-ILIM_HIZ)*%
X148465000Y-126865000D03*
%TO.P,R209,2*%
%TO.N,GND*%
X148465000Y-127865000D03*
%TD*%
D47*
%TO.P,Q203,1,G*%
%TO.N,Net-(D204-K)*%
X132615000Y-116915000D03*
%TO.P,Q203,2,S*%
%TO.N,Net-(D204-A)*%
X132615000Y-115015000D03*
%TO.P,Q203,3,D*%
%TO.N,/PowerManagament/Solar 5-20V*%
X130615000Y-115965000D03*
%TD*%
D54*
%TO.P,C216,1*%
%TO.N,GND*%
X131450000Y-112900000D03*
%TO.P,C216,2*%
%TO.N,Net-(C216-Pad2)*%
X133350000Y-112900000D03*
%TD*%
D55*
%TO.P,U401,1,1*%
%TO.N,Net-(U402-RF_ANT)*%
X149900000Y-68080000D03*
D56*
%TO.P,U401,2,2*%
%TO.N,GND*%
X151200000Y-66560000D03*
%TO.P,U401,3,3*%
X148600000Y-66560000D03*
%TD*%
D57*
%TO.P,R213,1*%
%TO.N,Net-(D204-K)*%
X138965000Y-115335000D03*
%TO.P,R213,2*%
%TO.N,Net-(U202-ACDRV2)*%
X138965000Y-117155000D03*
%TD*%
D58*
%TO.P,U202,1,STAT*%
%TO.N,Net-(U202-STAT)*%
X148895000Y-119675000D03*
D59*
X148895000Y-119675000D03*
D60*
%TO.P,U202,2,VBUS*%
%TO.N,/PowerManagament/VBUS*%
X148715000Y-120325000D03*
%TO.P,U202,3,VBUS*%
X148715000Y-120725000D03*
%TO.P,U202,4,BTST1*%
%TO.N,Net-(U202-BTST1)*%
X148715000Y-121125000D03*
%TO.P,U202,5,REGN*%
%TO.N,/PowerManagament/REGN*%
X148715000Y-121525000D03*
%TO.P,U202,6,D+*%
%TO.N,Net-(J201-DP1)*%
X148715000Y-121925000D03*
%TO.P,U202,7,D-*%
%TO.N,Net-(J201-DN1)*%
X148715000Y-122325000D03*
%TO.P,U202,8,VAC2*%
%TO.N,/PowerManagament/Solar 5-20V*%
X148715000Y-122725000D03*
D61*
%TO.P,U202,9,VAC1*%
%TO.N,/PowerManagament/VUSB*%
X148865000Y-123375000D03*
D59*
X148865000Y-123375000D03*
D62*
%TO.P,U202,10,ACDRV2*%
%TO.N,Net-(U202-ACDRV2)*%
X149665000Y-123425000D03*
%TO.P,U202,11,ACDRV1*%
%TO.N,Net-(U202-ACDRV1)*%
X150065000Y-123425000D03*
%TO.P,U202,12,~{QON}*%
%TO.N,/MCU/QON*%
X150465000Y-123425000D03*
%TO.P,U202,13,~{CE}*%
%TO.N,GND*%
X150865000Y-123425000D03*
%TO.P,U202,14,SCL*%
%TO.N,/MCU/SCL*%
X151265000Y-123425000D03*
%TO.P,U202,15,SDA*%
%TO.N,/MCU/SDA*%
X151665000Y-123425000D03*
D63*
%TO.P,U202,16,TS*%
%TO.N,/PowerManagament/TS*%
X152465000Y-123375000D03*
D59*
X152465000Y-123375000D03*
D64*
%TO.P,U202,17,ILIM_HIZ*%
%TO.N,Net-(U202-ILIM_HIZ)*%
X152565000Y-122725000D03*
D65*
%TO.P,U202,18,BATP*%
%TO.N,Net-(U202-BATP)*%
X152585000Y-122325000D03*
D66*
%TO.P,U202,19,BTST2*%
%TO.N,Net-(U202-BTST2)*%
X152575000Y-121925000D03*
D60*
%TO.P,U202,20,PROG*%
%TO.N,Net-(U202-PROG)*%
X152615000Y-121525000D03*
%TO.P,U202,21,~{INT}*%
%TO.N,/MCU/INT*%
X152615000Y-121125000D03*
%TO.P,U202,22,BAT*%
%TO.N,Net-(Q204-S)*%
X152615000Y-120725000D03*
%TO.P,U202,23,BAT*%
X152615000Y-120325000D03*
D67*
%TO.P,U202,24,SDRV*%
%TO.N,Net-(Q204-G)*%
X152445000Y-119675000D03*
D59*
X152445000Y-119675000D03*
D68*
%TO.P,U202,25,SYS*%
%TO.N,/MCU/VSYS*%
X151565000Y-119825000D03*
%TO.P,U202,26,SW2*%
%TO.N,Net-(U202-SW2)*%
X151115000Y-119825000D03*
%TO.P,U202,27,GND*%
%TO.N,GND*%
X150665000Y-119825000D03*
%TO.P,U202,28,SW1*%
%TO.N,Net-(U202-SW1)*%
X150215000Y-119825000D03*
D69*
%TO.P,U202,29,PMID*%
%TO.N,Net-(U202-PMID)*%
X149765000Y-119795000D03*
%TD*%
D23*
%TO.P,C210,1*%
%TO.N,GND*%
X159765000Y-114985000D03*
%TO.P,C210,2*%
%TO.N,/MCU/VSYS*%
X159765000Y-117945000D03*
%TD*%
D13*
%TO.P,J403,1,Pin_1*%
%TO.N,/MCU/QON*%
X120700000Y-66025000D03*
D43*
%TO.P,J403,2,Pin_2*%
%TO.N,GND*%
X120700000Y-68565000D03*
%TD*%
D22*
%TO.P,C602,1*%
%TO.N,GND*%
X121700000Y-96775000D03*
%TO.P,C602,2*%
%TO.N,/MCU/3V3_esp32*%
X120700000Y-96775000D03*
%TD*%
D48*
%TO.P,C412,1*%
%TO.N,Net-(U402-RF_ANT)*%
X146800000Y-67650000D03*
%TO.P,C412,2*%
%TO.N,GND*%
X146800000Y-65750000D03*
%TD*%
D42*
%TO.P,C401,1*%
%TO.N,/SimCom/Vin*%
X155800000Y-74140000D03*
%TO.P,C401,2*%
%TO.N,GND*%
X155800000Y-71060000D03*
%TD*%
D23*
%TO.P,C209,1*%
%TO.N,GND*%
X157365000Y-114985000D03*
%TO.P,C209,2*%
%TO.N,/MCU/VSYS*%
X157365000Y-117945000D03*
%TD*%
D70*
%TO.P,R214,1*%
%TO.N,Net-(U202-ACDRV1)*%
X135375000Y-128615000D03*
%TO.P,R214,2*%
%TO.N,Net-(D203-K)*%
X133555000Y-128615000D03*
%TD*%
D71*
%TO.P,C217,1*%
%TO.N,GND*%
X145465000Y-122240000D03*
%TO.P,C217,2*%
%TO.N,/PowerManagament/VBUS*%
X145465000Y-120680000D03*
%TD*%
D72*
%TO.P,Q402,1,G*%
%TO.N,/SimCom/VDD_1V8*%
X144830000Y-74300000D03*
%TO.P,Q402,2,S*%
%TO.N,Net-(Q402-S)*%
X146730000Y-74300000D03*
%TO.P,Q402,3,D*%
%TO.N,/MCU/TX*%
X145780000Y-72420000D03*
%TD*%
D73*
%TO.P,U404,1,K*%
%TO.N,GND*%
X161600000Y-71480000D03*
%TO.P,U404,2,A*%
%TO.N,/SimCom/Vin*%
X161600000Y-72120000D03*
%TD*%
D39*
%TO.P,R224,1*%
%TO.N,/PowerManagament/TS*%
X140415000Y-132065000D03*
%TO.P,R224,2*%
%TO.N,Net-(R224-Pad2)*%
X138775000Y-132065000D03*
%TD*%
D44*
%TO.P,C212,1*%
%TO.N,GND*%
X159820000Y-123540000D03*
%TO.P,C212,2*%
%TO.N,Net-(Q204-S)*%
X159820000Y-120580000D03*
%TD*%
D19*
%TO.P,Q401,1,G*%
%TO.N,Net-(Q401-G)*%
X157100000Y-67300000D03*
%TO.P,Q401,2,S*%
%TO.N,GND*%
X157100000Y-69200000D03*
%TO.P,Q401,3,D*%
%TO.N,Net-(Q401-D)*%
X158980000Y-68250000D03*
%TD*%
D21*
%TO.P,R653,1*%
%TO.N,/MCU/3V3_esp32*%
X124100000Y-77500000D03*
%TO.P,R653,2*%
%TO.N,/MCU/CS_flash*%
X124100000Y-78500000D03*
%TD*%
D23*
%TO.P,C203,1*%
%TO.N,GND*%
X141565000Y-115085000D03*
%TO.P,C203,2*%
%TO.N,Net-(U202-PMID)*%
X141565000Y-118045000D03*
%TD*%
D24*
%TO.P,R603,1*%
%TO.N,/MCU/3V3_esp32*%
X137000000Y-82400000D03*
%TO.P,R603,2*%
%TO.N,/MCU/INT*%
X138000000Y-82400000D03*
%TD*%
D20*
%TO.P,R601,1*%
%TO.N,/MCU/3V3_esp32*%
X128700000Y-83400000D03*
%TO.P,R601,2*%
%TO.N,/MCU/SDA*%
X128700000Y-82400000D03*
%TD*%
D47*
%TO.P,Q206,1,G*%
%TO.N,Net-(D203-K)*%
X134365000Y-122015000D03*
%TO.P,Q206,2,S*%
%TO.N,Net-(D203-A)*%
X134365000Y-123915000D03*
%TO.P,Q206,3,D*%
%TO.N,/PowerManagament/VBUS*%
X136365000Y-122965000D03*
%TD*%
D74*
%TO.P,D402,1*%
%TO.N,Net-(D402-Pad1)*%
X165600000Y-71900000D03*
%TO.P,D402,2*%
%TO.N,/SimCom/Vin*%
X165600000Y-70020000D03*
%TD*%
D23*
%TO.P,C608,1*%
%TO.N,GND*%
X122400000Y-71240000D03*
%TO.P,C608,2*%
%TO.N,/MCU/3V3_esp32*%
X122400000Y-74200000D03*
%TD*%
D71*
%TO.P,C208,1*%
%TO.N,GND*%
X155465000Y-123720000D03*
%TO.P,C208,2*%
%TO.N,Net-(U202-BATP)*%
X155465000Y-122160000D03*
%TD*%
D21*
%TO.P,R650,1*%
%TO.N,/MCU/DN*%
X132000000Y-82400000D03*
%TO.P,R650,2*%
%TO.N,Net-(U405-IO13)*%
X132000000Y-83400000D03*
%TD*%
D75*
%TO.P,R202,1*%
%TO.N,Net-(U202-PROG)*%
X154765000Y-130545000D03*
%TO.P,R202,2*%
%TO.N,GND*%
X154765000Y-132185000D03*
%TD*%
D72*
%TO.P,Q403,1,G*%
%TO.N,/SimCom/VDD_1V8*%
X148330000Y-74300000D03*
%TO.P,Q403,2,S*%
%TO.N,Net-(Q403-S)*%
X150230000Y-74300000D03*
%TO.P,Q403,3,D*%
%TO.N,/MCU/RX*%
X149280000Y-72420000D03*
%TD*%
D76*
%TO.P,C213,1*%
%TO.N,Net-(U202-BTST1)*%
X145465000Y-123585000D03*
%TO.P,C213,2*%
%TO.N,Net-(U202-SW1)*%
X145465000Y-125145000D03*
%TD*%
D77*
%TO.P,Card401,1,EP*%
%TO.N,GND*%
X127480000Y-92700000D03*
%TO.P,Card401,2,EP*%
X139180000Y-92700000D03*
%TO.P,Card401,3,EP*%
X127480000Y-101500000D03*
%TO.P,Card401,4,EP*%
X139180000Y-101500000D03*
D78*
%TO.P,Card401,C1,VCC*%
%TO.N,Net-(Card401-VCC)*%
X136510000Y-105600000D03*
%TO.P,Card401,C2,RST*%
%TO.N,Net-(Card401-RST)*%
X133970000Y-105600000D03*
%TO.P,Card401,C3,CLK*%
%TO.N,Net-(Card401-CLK)*%
X131430000Y-105600000D03*
%TO.P,Card401,C5,GND*%
%TO.N,GND*%
X135240000Y-105600000D03*
%TO.P,Card401,C6,Vpp*%
%TO.N,unconnected-(Card401-Vpp-PadC6)*%
X132700000Y-105600000D03*
%TO.P,Card401,C7,I/O*%
%TO.N,Net-(Card401-I{slash}O)*%
X130160000Y-105600000D03*
%TD*%
D22*
%TO.P,R407,1*%
%TO.N,Net-(Q403-S)*%
X148480000Y-75820000D03*
%TO.P,R407,2*%
%TO.N,/SimCom/VDD_1V8*%
X147480000Y-75820000D03*
%TD*%
D21*
%TO.P,R417,1*%
%TO.N,Net-(Q401-G)*%
X155600000Y-68300000D03*
%TO.P,R417,2*%
%TO.N,GND*%
X155600000Y-69300000D03*
%TD*%
D22*
%TO.P,R222,1*%
%TO.N,/PowerManagament/REGN*%
X143865000Y-127865000D03*
%TO.P,R222,2*%
%TO.N,Net-(R222-Pad2)*%
X142865000Y-127865000D03*
%TD*%
D79*
%TO.P,Q404,1,G*%
%TO.N,Net-(Q401-D)*%
X164250000Y-66320000D03*
%TO.P,Q404,2,S*%
%TO.N,/SimCom/VSYS*%
X162350000Y-66320000D03*
%TO.P,Q404,3,D*%
%TO.N,Net-(Q404-D)*%
X163300000Y-68200000D03*
%TD*%
D24*
%TO.P,R403,1*%
%TO.N,GND*%
X161200000Y-75700000D03*
%TO.P,R403,2*%
%TO.N,Net-(Q406-G)*%
X162200000Y-75700000D03*
%TD*%
D47*
%TO.P,Q202,1,G*%
%TO.N,Net-(D204-K)*%
X134715000Y-116965000D03*
%TO.P,Q202,2,S*%
%TO.N,Net-(D204-A)*%
X134715000Y-118865000D03*
%TO.P,Q202,3,D*%
%TO.N,/PowerManagament/VBUS*%
X136715000Y-117915000D03*
%TD*%
D80*
%TO.P,U604,1,NC*%
%TO.N,unconnected-(U604-NC-Pad1)*%
X137870000Y-90537500D03*
%TO.P,U604,2,NC*%
%TO.N,unconnected-(U604-NC-Pad2)*%
X137870000Y-89257500D03*
%TO.P,U604,3,NC*%
%TO.N,unconnected-(U604-NC-Pad3)*%
X137870000Y-87997500D03*
%TO.P,U604,4,GND*%
%TO.N,GND*%
X137870000Y-86727500D03*
%TO.P,U604,5,SDA*%
%TO.N,/MCU/SDA*%
X132730000Y-86727500D03*
%TO.P,U604,6,SCL*%
%TO.N,/MCU/SCL*%
X132730000Y-87997500D03*
%TO.P,U604,7,NC*%
%TO.N,unconnected-(U604-NC-Pad7)*%
X132730000Y-89257500D03*
%TO.P,U604,8,VCC*%
%TO.N,/MCU/3V3_esp32*%
X132730000Y-90537500D03*
%TD*%
D49*
%TO.P,C202,1*%
%TO.N,GND*%
X149930000Y-117970000D03*
%TO.P,C202,2*%
%TO.N,Net-(U202-PMID)*%
X148370000Y-117970000D03*
%TD*%
D81*
%TO.N,GND*%
X165600000Y-77700000D03*
D82*
X158400000Y-65700000D03*
X157200000Y-65700000D03*
X140700000Y-65300000D03*
X139700000Y-65300000D03*
X122600000Y-72720000D03*
X121900000Y-72720000D03*
X159885000Y-131045000D03*
X157400000Y-82900000D03*
X161100000Y-94310000D03*
X162365000Y-114965000D03*
X145100000Y-65700000D03*
X156665000Y-125065000D03*
X161100000Y-82900000D03*
X152000000Y-76700000D03*
X155565000Y-113515000D03*
X145900000Y-90600000D03*
X158915000Y-130965000D03*
X126215000Y-129165000D03*
X161100000Y-98200000D03*
X157400000Y-90500000D03*
X145100000Y-66700000D03*
D81*
X150670000Y-122500000D03*
X152750000Y-116420000D03*
D82*
X162365000Y-113965000D03*
X126215000Y-130215000D03*
X155300000Y-72600000D03*
X143865000Y-113715000D03*
X158715000Y-113465000D03*
X126165000Y-112465000D03*
X124000000Y-70800000D03*
X143165000Y-123930000D03*
X142815000Y-113715000D03*
X153500000Y-74500000D03*
D81*
X160400000Y-76700000D03*
D82*
X126215000Y-122615000D03*
D81*
X148650000Y-116520000D03*
X151215000Y-129300000D03*
D82*
X137870000Y-85797500D03*
X150050000Y-122265000D03*
X127410000Y-114365000D03*
D81*
X149425000Y-121945000D03*
D82*
X153500000Y-98200000D03*
X154800000Y-65700000D03*
D81*
X149450000Y-122520000D03*
D82*
X127410000Y-115365000D03*
X137365000Y-125165000D03*
X161100000Y-86800000D03*
X127410000Y-113365000D03*
X143965000Y-123930000D03*
X156000000Y-65700000D03*
D81*
X157695000Y-122325000D03*
X153350000Y-115320000D03*
D82*
X156615000Y-113515000D03*
X157665000Y-113515000D03*
X145900000Y-86700000D03*
X150500000Y-75800000D03*
X149800000Y-82900000D03*
D81*
X147950000Y-114820000D03*
X147950000Y-116220000D03*
D82*
X154600000Y-76800000D03*
X144915000Y-113665000D03*
D81*
X147950000Y-115520000D03*
D82*
X126215000Y-123665000D03*
X153500000Y-94300000D03*
X162365000Y-112965000D03*
X124165000Y-112465000D03*
D81*
X152750000Y-115720000D03*
D82*
X156815000Y-130965000D03*
X134715000Y-132465000D03*
X141765000Y-113715000D03*
X153500000Y-73200000D03*
D81*
X153350000Y-114620000D03*
D82*
X151000000Y-76700000D03*
X160935000Y-131045000D03*
D81*
X150670000Y-121940000D03*
D82*
X151500000Y-75800000D03*
X157300000Y-90500000D03*
X145900000Y-94300000D03*
X149800000Y-98200000D03*
X157865000Y-130965000D03*
D81*
X148650000Y-115820000D03*
D82*
X125165000Y-112465000D03*
X150000000Y-76700000D03*
X131200000Y-72400000D03*
X153500000Y-82900000D03*
X159765000Y-113465000D03*
D81*
X160400000Y-75700000D03*
D82*
X153500000Y-86800000D03*
D81*
X153350000Y-116020000D03*
D82*
X145900000Y-98200000D03*
X149800000Y-90500000D03*
X160265000Y-122165000D03*
X154600000Y-75800000D03*
D81*
X149265000Y-127865000D03*
X158000242Y-106000000D03*
D82*
X131100000Y-88700000D03*
X122600000Y-96800000D03*
X153500000Y-71900000D03*
X161200000Y-90500000D03*
X135765000Y-132465000D03*
X159465000Y-122165000D03*
X145100000Y-67800000D03*
X145965000Y-113665000D03*
X124000000Y-71700000D03*
X138165000Y-125165000D03*
X157400000Y-98200000D03*
X145900000Y-82900000D03*
D81*
%TO.N,Net-(R222-Pad2)*%
X141980136Y-128000318D03*
X141371106Y-129207424D03*
%TO.N,Net-(U202-BATP)*%
X156895073Y-122314042D03*
X158325000Y-124875000D03*
%TO.N,Net-(U202-SW1)*%
X150015000Y-120785000D03*
X150175000Y-116165000D03*
X150165000Y-115545000D03*
X146904130Y-126152659D03*
X150165000Y-116785000D03*
X150010000Y-121300000D03*
X149605000Y-115855000D03*
X149625000Y-116475000D03*
%TO.N,Net-(U202-BTST2)*%
X151750000Y-122420000D03*
X152765000Y-124385000D03*
%TO.N,Net-(U202-SW2)*%
X151175000Y-116135000D03*
X151735000Y-115775000D03*
X151735000Y-116400000D03*
X151165000Y-115505000D03*
X151285000Y-120795000D03*
X151205000Y-116765000D03*
X151270000Y-121315000D03*
X153345000Y-125165000D03*
%TO.N,Net-(U202-STAT)*%
X138365000Y-126215000D03*
X147665000Y-119465000D03*
%TO.N,Net-(U202-PROG)*%
X156527098Y-125954372D03*
X154265000Y-123065000D03*
X157465000Y-126765000D03*
X154275000Y-122025000D03*
%TO.N,Net-(U202-ACDRV2)*%
X147815000Y-124765000D03*
X139255761Y-118467229D03*
%TO.N,Net-(U202-ACDRV1)*%
X136465000Y-128165000D03*
X147574265Y-127774265D03*
X149265000Y-126165000D03*
X137215000Y-130415000D03*
%TO.N,Net-(J201-DN1)*%
X126765000Y-125315000D03*
X127715000Y-126105000D03*
X140765000Y-127265000D03*
X147044019Y-125364982D03*
X131365000Y-130065000D03*
%TO.N,Net-(J201-DP1)*%
X132266000Y-129817000D03*
X146595227Y-124615000D03*
X127415000Y-124765000D03*
X132074620Y-131074620D03*
X132266000Y-127565000D03*
X139865000Y-127165000D03*
X130165000Y-126605000D03*
%TO.N,/PowerManagament/VUSB*%
X149015000Y-124715000D03*
X146165000Y-126765000D03*
X132765000Y-131840735D03*
X148365000Y-125965000D03*
X130873620Y-131840735D03*
X141665000Y-127265000D03*
%TO.N,/PowerManagament/TS*%
X153315000Y-129840735D03*
X153965000Y-127865000D03*
X162565000Y-130665000D03*
%TO.N,/PowerManagament/Solar 5-20V*%
X147815000Y-123965000D03*
X140033449Y-118279598D03*
%TO.N,/MCU/SDA*%
X152813243Y-130748243D03*
X152965000Y-128265000D03*
%TO.N,/MCU/SCL*%
X152165000Y-129065000D03*
X152247557Y-131313931D03*
%TO.N,Net-(U405-EN)*%
X138400000Y-74600000D03*
X135900000Y-74600000D03*
%TO.N,/MCU/3V3_esp32*%
X144836629Y-68970865D03*
X147500000Y-70920000D03*
X139200000Y-73750000D03*
X135900000Y-73750000D03*
D82*
%TO.N,/SimCom/VSYS*%
X161000000Y-68500000D03*
X161000000Y-66700000D03*
X161000000Y-67600000D03*
D81*
%TO.N,/MCU/INT*%
X153918379Y-121269160D03*
X154030000Y-124000000D03*
X155265000Y-128365000D03*
X154865000Y-129565000D03*
%TO.N,/MCU/QON*%
X151490452Y-131572380D03*
X150565000Y-129865000D03*
%TO.N,/MCU/PWRKEY*%
X140400000Y-79690380D03*
X142700000Y-81100000D03*
%TO.N,Net-(U402-USIM1_DATA)*%
X159300000Y-104500000D03*
X161800000Y-104900000D03*
%TO.N,Net-(U402-USIM1_CLK)*%
X160300000Y-105200000D03*
X161800000Y-105700003D03*
%TO.N,Net-(Card401-VCC)*%
X153101000Y-105400000D03*
X153100000Y-104000000D03*
X157593298Y-103988875D03*
X161800000Y-104099997D03*
%TO.N,Net-(Card401-CLK)*%
X155500000Y-106300000D03*
X152100000Y-107100000D03*
%TO.N,Net-(Card401-I{slash}O)*%
X151700000Y-106200000D03*
X155500000Y-105100000D03*
%TO.N,Net-(Q402-S)*%
X144600000Y-75655025D03*
X143300000Y-76400000D03*
%TO.N,/MCU/MOSFET_a7670g*%
X135900000Y-75600000D03*
X139000000Y-75600000D03*
X151400000Y-70900000D03*
X154300000Y-69100000D03*
%TD*%
D83*
%TO.N,Net-(D204-A)*%
X134495000Y-115015000D02*
X132615000Y-115015000D01*
X134645000Y-115165000D02*
X134495000Y-115015000D01*
D84*
%TO.N,/PowerManagament/Solar 5-20V*%
X131150000Y-114150000D02*
X130600000Y-114700000D01*
X133900000Y-114000000D02*
X133750000Y-114150000D01*
X135710000Y-114000000D02*
X133900000Y-114000000D01*
X136810000Y-112900000D02*
X135710000Y-114000000D01*
X133750000Y-114150000D02*
X131150000Y-114150000D01*
%TO.N,Net-(D204-A)*%
X134265000Y-115165000D02*
X134175000Y-115165000D01*
X135030000Y-114400000D02*
X134265000Y-115165000D01*
X137315000Y-114400000D02*
X135030000Y-114400000D01*
X138100000Y-113615000D02*
X137315000Y-114400000D01*
D83*
%TO.N,Net-(C216-Pad2)*%
X134990000Y-112900000D02*
X133350000Y-112900000D01*
D84*
%TO.N,/PowerManagament/Solar 5-20V*%
X139600000Y-113000000D02*
X136875000Y-113000000D01*
X140065000Y-118184196D02*
X140065000Y-113465000D01*
X139969598Y-118279598D02*
X140065000Y-118184196D01*
X140065000Y-113465000D02*
X139600000Y-113000000D01*
X136875000Y-113000000D02*
X136810000Y-113065000D01*
X140033449Y-118279598D02*
X139969598Y-118279598D01*
D85*
%TO.N,GND*%
X165600000Y-76900000D02*
X165600000Y-77700000D01*
X165050000Y-76350000D02*
X165600000Y-76900000D01*
X163720000Y-76350000D02*
X165050000Y-76350000D01*
D86*
%TO.N,Net-(Q401-D)*%
X159100000Y-68130000D02*
X158980000Y-68250000D01*
X159100000Y-66456441D02*
X159100000Y-68130000D01*
X160555441Y-65001000D02*
X159100000Y-66456441D01*
X163364718Y-65001000D02*
X160555441Y-65001000D01*
X164250000Y-65886282D02*
X163364718Y-65001000D01*
D83*
%TO.N,Net-(Q401-G)*%
X157206282Y-67300000D02*
X155700000Y-67300000D01*
X155700000Y-67300000D02*
X155600000Y-67400000D01*
%TO.N,/MCU/MOSFET_a7670g*%
X154600000Y-68800000D02*
X154600000Y-68400000D01*
X154300000Y-69100000D02*
X154600000Y-68800000D01*
X154600000Y-68400000D02*
X154600000Y-67400000D01*
D87*
%TO.N,Net-(U405-EN)*%
X139980000Y-67480000D02*
X141380000Y-67480000D01*
D83*
%TO.N,Net-(U402-RF_ANT)*%
X153210000Y-69500000D02*
X151390000Y-69500000D01*
D86*
%TO.N,/MCU/3V3_esp32*%
X125310000Y-73750000D02*
X125280000Y-73780000D01*
X126950000Y-73750000D02*
X125310000Y-73750000D01*
X127600000Y-78352000D02*
X127600000Y-74400000D01*
X134100000Y-79200000D02*
X128448000Y-79200000D01*
X128448000Y-79200000D02*
X127600000Y-78352000D01*
X134400000Y-78900000D02*
X134100000Y-79200000D01*
X134400000Y-74400000D02*
X134400000Y-78900000D01*
X135050000Y-73750000D02*
X134400000Y-74400000D01*
X127600000Y-74400000D02*
X126950000Y-73750000D01*
X135900000Y-73750000D02*
X135050000Y-73750000D01*
D88*
%TO.N,GND*%
X131100000Y-88700000D02*
X131100000Y-89500000D01*
D84*
X151215000Y-129100000D02*
X151215000Y-129300000D01*
X150870000Y-128755000D02*
X151215000Y-129100000D01*
X150670000Y-119750000D02*
X150670000Y-121940000D01*
X150870000Y-123450000D02*
X150870000Y-128755000D01*
D83*
X160400000Y-76700000D02*
X160400000Y-75700000D01*
D86*
X157900000Y-106000000D02*
X157600000Y-105700000D01*
D83*
X137897500Y-85825000D02*
X137897500Y-86700000D01*
X156665000Y-125065000D02*
X156665000Y-124155000D01*
X137897500Y-86700000D02*
X137870000Y-86727500D01*
D86*
X158000242Y-106000000D02*
X157900000Y-106000000D01*
D83*
X160400000Y-75700000D02*
X159900000Y-75700000D01*
X159500000Y-78500000D02*
X159500000Y-75800000D01*
X161300000Y-75700000D02*
X160400000Y-75700000D01*
X159900000Y-75700000D02*
X159500000Y-76100000D01*
X137870000Y-85797500D02*
X137897500Y-85825000D01*
D84*
X148465000Y-127865000D02*
X149265000Y-127865000D01*
X150670000Y-121940000D02*
X150670000Y-122500000D01*
D86*
X157600000Y-105700000D02*
X156850000Y-105700000D01*
D89*
%TO.N,Net-(D201-Pad2)*%
X142575000Y-126865000D02*
X141505000Y-125795000D01*
X142865000Y-126865000D02*
X142575000Y-126865000D01*
%TO.N,Net-(D203-A)*%
X132815000Y-123915000D02*
X132865000Y-123915000D01*
X132825000Y-125975000D02*
X132825000Y-123955000D01*
X131539000Y-120591000D02*
X131539000Y-122639000D01*
X132865000Y-123915000D02*
X134365000Y-123915000D01*
X132015000Y-120115000D02*
X131539000Y-120591000D01*
X132825000Y-123955000D02*
X132865000Y-123915000D01*
X133965000Y-127115000D02*
X132825000Y-125975000D01*
X131539000Y-122639000D02*
X132815000Y-123915000D01*
X132515000Y-120115000D02*
X132015000Y-120115000D01*
D83*
%TO.N,Net-(D203-K)*%
X135115000Y-127115000D02*
X135635000Y-126595000D01*
D89*
X135815000Y-124039000D02*
X135815000Y-125535000D01*
X134365000Y-122015000D02*
X134365000Y-122315000D01*
X135815000Y-125535000D02*
X135635000Y-125715000D01*
D83*
X135635000Y-126595000D02*
X135635000Y-125715000D01*
D89*
X135341000Y-123565000D02*
X135815000Y-124039000D01*
X133555000Y-128615000D02*
X134965000Y-127205000D01*
D83*
X134965000Y-127115000D02*
X135115000Y-127115000D01*
D89*
X135341000Y-123291000D02*
X135341000Y-123565000D01*
X134965000Y-127205000D02*
X134965000Y-127115000D01*
X134365000Y-122315000D02*
X135341000Y-123291000D01*
%TO.N,Net-(R222-Pad2)*%
X142115454Y-127865000D02*
X142865000Y-127865000D01*
X141322576Y-129207424D02*
X140716000Y-129814000D01*
X139626000Y-129814000D02*
X138775000Y-130665000D01*
X141371106Y-129207424D02*
X141322576Y-129207424D01*
X140716000Y-129814000D02*
X139626000Y-129814000D01*
X141980136Y-128000318D02*
X142115454Y-127865000D01*
%TO.N,Net-(R224-Pad2)*%
X137965000Y-132065000D02*
X137765000Y-132265000D01*
X138775000Y-132065000D02*
X137965000Y-132065000D01*
%TO.N,Net-(D204-A)*%
X132115000Y-118865000D02*
X134715000Y-118865000D01*
X131639000Y-115491000D02*
X131639000Y-118389000D01*
X132115000Y-115015000D02*
X131639000Y-115491000D01*
X132615000Y-115015000D02*
X132115000Y-115015000D01*
X131639000Y-118389000D02*
X132115000Y-118865000D01*
%TO.N,Net-(Q204-G)*%
X163875000Y-120045000D02*
X163015000Y-119185000D01*
X153445000Y-119185000D02*
X152756000Y-119874000D01*
X163015000Y-119185000D02*
X153445000Y-119185000D01*
X152756000Y-119874000D02*
X152246000Y-119874000D01*
D84*
%TO.N,Net-(U202-BATP)*%
X156797613Y-122314042D02*
X156643571Y-122160000D01*
X155320000Y-122160000D02*
X154960000Y-122520000D01*
X156895073Y-122314042D02*
X156797613Y-122314042D01*
X153340000Y-122330000D02*
X152670000Y-122330000D01*
X158665000Y-125215000D02*
X159485000Y-125215000D01*
X156643571Y-122160000D02*
X155320000Y-122160000D01*
X154960000Y-122520000D02*
X153530000Y-122520000D01*
X153530000Y-122520000D02*
X153340000Y-122330000D01*
X158325000Y-124875000D02*
X158665000Y-125215000D01*
%TO.N,Net-(U202-BTST1)*%
X147434556Y-121119000D02*
X148516100Y-121119000D01*
X146265000Y-122665000D02*
X146265000Y-122288556D01*
X145465000Y-123465000D02*
X146265000Y-122665000D01*
X148516100Y-121119000D02*
X148527100Y-121130000D01*
X146265000Y-122288556D02*
X147434556Y-121119000D01*
%TO.N,Net-(U202-SW1)*%
X146621422Y-126115000D02*
X146315000Y-126115000D01*
X146315000Y-126115000D02*
X145465000Y-125265000D01*
X146883260Y-126131789D02*
X146638211Y-126131789D01*
X146638211Y-126131789D02*
X146621422Y-126115000D01*
X146904130Y-126152659D02*
X146883260Y-126131789D01*
%TO.N,Net-(U202-BTST2)*%
X152745000Y-124405000D02*
X152745000Y-126175000D01*
X152250000Y-121920000D02*
X151750000Y-122420000D01*
X152765000Y-124385000D02*
X152745000Y-124405000D01*
X152670000Y-121920000D02*
X152250000Y-121920000D01*
%TO.N,Net-(U202-SW2)*%
X153565000Y-125365000D02*
X154495000Y-126295000D01*
X153345000Y-125165000D02*
X153545000Y-125365000D01*
X153545000Y-125365000D02*
X153565000Y-125365000D01*
%TO.N,Net-(U202-STAT)*%
X148900000Y-119930000D02*
X148180000Y-119930000D01*
X138365000Y-126215000D02*
X139205000Y-126215000D01*
X139205000Y-126215000D02*
X139625000Y-125795000D01*
X148180000Y-119930000D02*
X147715000Y-119465000D01*
%TO.N,Net-(U202-PROG)*%
X154265000Y-123265000D02*
X154265000Y-123065000D01*
X156474262Y-125954372D02*
X154665000Y-124145110D01*
X156527098Y-125954372D02*
X156474262Y-125954372D01*
X154665000Y-123665000D02*
X154265000Y-123265000D01*
X153829729Y-122029039D02*
X154270961Y-122029039D01*
X157465000Y-126765000D02*
X156965000Y-127265000D01*
X154665000Y-124145110D02*
X154665000Y-123665000D01*
X156965000Y-128665000D02*
X155085000Y-130545000D01*
X153320690Y-121520000D02*
X153829729Y-122029039D01*
X154270961Y-122029039D02*
X154275000Y-122025000D01*
X156965000Y-127265000D02*
X156965000Y-128665000D01*
X152670000Y-121520000D02*
X153320690Y-121520000D01*
%TO.N,Net-(U202-ILIM_HIZ)*%
X154023635Y-128565000D02*
X153665000Y-128565000D01*
X154166000Y-128564000D02*
X154024635Y-128564000D01*
X153665000Y-128565000D02*
X152766000Y-129464000D01*
X153366000Y-123866000D02*
X153366000Y-124266000D01*
X154081127Y-124765000D02*
X155265000Y-125948873D01*
X153366000Y-124266000D02*
X153865000Y-124765000D01*
X149964000Y-127714057D02*
X149114943Y-126865000D01*
X150313057Y-130563000D02*
X149964000Y-130213943D01*
X155265000Y-125948873D02*
X155265000Y-127465000D01*
X154024635Y-128564000D02*
X154023635Y-128565000D01*
X152632450Y-129464000D02*
X151533450Y-130563000D01*
X153865000Y-124765000D02*
X154081127Y-124765000D01*
X149114943Y-126865000D02*
X148465000Y-126865000D01*
X153362448Y-122932448D02*
X153362448Y-123862448D01*
X151533450Y-130563000D02*
X150313057Y-130563000D01*
X153362448Y-123862448D02*
X153366000Y-123866000D01*
X154166000Y-128564000D02*
X155265000Y-127465000D01*
X152675000Y-122725000D02*
X153155000Y-122725000D01*
X153155000Y-122725000D02*
X153362448Y-122932448D01*
X152766000Y-129464000D02*
X152632450Y-129464000D01*
X147635000Y-126865000D02*
X146585000Y-127915000D01*
X148165000Y-126865000D02*
X147635000Y-126865000D01*
X149964000Y-130213943D02*
X149964000Y-127714057D01*
D86*
%TO.N,Net-(U202-ACDRV2)*%
X138965000Y-118176468D02*
X138965000Y-117155000D01*
D84*
X149265000Y-125365000D02*
X148465000Y-125365000D01*
X149670000Y-124960000D02*
X149265000Y-125365000D01*
X148465000Y-125365000D02*
X147865000Y-124765000D01*
D86*
X139255761Y-118467229D02*
X138965000Y-118176468D01*
D84*
X149670000Y-123450000D02*
X149670000Y-124960000D01*
X147865000Y-124765000D02*
X147815000Y-124765000D01*
%TO.N,Net-(U202-ACDRV1)*%
X141701318Y-128601318D02*
X141990000Y-128890000D01*
D89*
X137215000Y-130344510D02*
X137215000Y-130415000D01*
D84*
X135825000Y-128165000D02*
X135175000Y-128815000D01*
X149265000Y-126165000D02*
X150070000Y-125360000D01*
X141990000Y-128890000D02*
X146799064Y-128890000D01*
X138294510Y-129265000D02*
X140465000Y-129265000D01*
X136465000Y-128165000D02*
X135825000Y-128165000D01*
X146799064Y-128890000D02*
X147574265Y-128114799D01*
X141128682Y-128601318D02*
X141701318Y-128601318D01*
X147574265Y-128114799D02*
X147574265Y-127774265D01*
X150070000Y-125360000D02*
X150070000Y-123450000D01*
X137215000Y-130344510D02*
X138294510Y-129265000D01*
X135175000Y-128815000D02*
X135025000Y-128815000D01*
X140465000Y-129265000D02*
X141128682Y-128601318D01*
%TO.N,Net-(J201-DN1)*%
X147044019Y-125364982D02*
X147044019Y-125297006D01*
D89*
X127733740Y-126105000D02*
X128183740Y-125655000D01*
D84*
X130685000Y-134585000D02*
X130685000Y-133045000D01*
X130685000Y-133045000D02*
X131473620Y-132256380D01*
X137815000Y-128315000D02*
X135713000Y-130417000D01*
X140765000Y-127265000D02*
X139715000Y-128315000D01*
X131365000Y-130065000D02*
X131717000Y-130417000D01*
X131473620Y-130660380D02*
X131717000Y-130417000D01*
X148669000Y-122329000D02*
X148670000Y-122330000D01*
X139715000Y-128315000D02*
X137815000Y-128315000D01*
X147195227Y-123667673D02*
X147615000Y-123247900D01*
D89*
X127715000Y-126105000D02*
X127733740Y-126105000D01*
D84*
X135713000Y-130417000D02*
X131717000Y-130417000D01*
D89*
X128183740Y-125655000D02*
X128927500Y-125655000D01*
D84*
X147615000Y-122811866D02*
X148097866Y-122329000D01*
X147615000Y-123247900D02*
X147615000Y-122811866D01*
X131473620Y-132256380D02*
X131473620Y-130660380D01*
X148097866Y-122329000D02*
X148669000Y-122329000D01*
D89*
X128210000Y-126655000D02*
X128927500Y-126655000D01*
X127715000Y-126160000D02*
X128210000Y-126655000D01*
D84*
X147195227Y-123667673D02*
X147195227Y-125213774D01*
X147195227Y-125213774D02*
X147044019Y-125364982D01*
%TO.N,Net-(J201-DP1)*%
X139865000Y-127165000D02*
X139165000Y-127865000D01*
X148670000Y-121920000D02*
X148084670Y-121920000D01*
X147854000Y-121926000D02*
X148084670Y-121926000D01*
X146674389Y-123455611D02*
X147202335Y-122927665D01*
D89*
X130165000Y-126705000D02*
X129715000Y-127155000D01*
D84*
X133225000Y-133425000D02*
X133225000Y-134585000D01*
D89*
X132266000Y-127565000D02*
X132266000Y-129817000D01*
X129715000Y-127155000D02*
X128927500Y-127155000D01*
X130165000Y-126605000D02*
X129715000Y-126155000D01*
D84*
X137665000Y-127865000D02*
X135614000Y-129916000D01*
X135614000Y-129916000D02*
X132365000Y-129916000D01*
X132365000Y-129916000D02*
X132266000Y-129817000D01*
X146674389Y-124535838D02*
X146674389Y-123455611D01*
X132074620Y-132274620D02*
X133225000Y-133425000D01*
X147202335Y-122927665D02*
X147202335Y-122577665D01*
D89*
X129715000Y-126155000D02*
X128927500Y-126155000D01*
D84*
X147202335Y-122577665D02*
X147854000Y-121926000D01*
X132074620Y-131074620D02*
X132074620Y-132274620D01*
X139165000Y-127865000D02*
X137665000Y-127865000D01*
X146595227Y-124615000D02*
X146674389Y-124535838D01*
D89*
X130165000Y-126605000D02*
X130065000Y-126705000D01*
D84*
%TO.N,/PowerManagament/REGN*%
X144665000Y-124365000D02*
X143620000Y-125410000D01*
X146665000Y-122865198D02*
X146241000Y-123289198D01*
X146241000Y-124034110D02*
X145910110Y-124365000D01*
X146665000Y-122465000D02*
X146665000Y-122865198D01*
D85*
X144745000Y-127865000D02*
X144945000Y-128065000D01*
X143865000Y-126865000D02*
X143865000Y-125655000D01*
D84*
X147605000Y-121525000D02*
X146665000Y-122465000D01*
X145910110Y-124365000D02*
X144665000Y-124365000D01*
D85*
X143865000Y-126865000D02*
X143865000Y-127865000D01*
X143865000Y-127865000D02*
X144745000Y-127865000D01*
D84*
X146241000Y-123289198D02*
X146241000Y-124034110D01*
X148715000Y-121525000D02*
X147605000Y-121525000D01*
%TO.N,/PowerManagament/VBUS*%
X140250000Y-120330000D02*
X140220000Y-120360000D01*
%TO.N,/PowerManagament/VUSB*%
X149215000Y-124515000D02*
X148915000Y-124515000D01*
X132765000Y-131840735D02*
X132765000Y-131665000D01*
X140165000Y-128765000D02*
X141615057Y-127314943D01*
X147165000Y-126765000D02*
X146165000Y-126765000D01*
D87*
X128145000Y-134085000D02*
X130265000Y-131965000D01*
D84*
X147965000Y-125965000D02*
X147165000Y-126765000D01*
D87*
X130265000Y-129465000D02*
X131165000Y-128565000D01*
D83*
X131165000Y-128565000D02*
X130925000Y-128805000D01*
D87*
X130265000Y-131965000D02*
X130265000Y-129465000D01*
X128145000Y-134585000D02*
X128145000Y-134085000D01*
D84*
X149240000Y-123490000D02*
X149240000Y-124490000D01*
X148365000Y-125965000D02*
X147965000Y-125965000D01*
X149240000Y-124490000D02*
X149215000Y-124515000D01*
X132765000Y-131665000D02*
X133565000Y-130865000D01*
D83*
X130925000Y-128805000D02*
X129265000Y-128805000D01*
D84*
X137965000Y-128765000D02*
X140165000Y-128765000D01*
D87*
X131165000Y-124515000D02*
X130415000Y-123765000D01*
D84*
X135865000Y-130865000D02*
X137965000Y-128765000D01*
D87*
X130415000Y-121165000D02*
X130415000Y-123815000D01*
X130415000Y-123765000D02*
X130415000Y-123265000D01*
D84*
X133565000Y-130865000D02*
X135865000Y-130865000D01*
X141615057Y-127314943D02*
X141714943Y-127314943D01*
X141714943Y-127314943D02*
X141665000Y-127265000D01*
D87*
X131165000Y-128565000D02*
X131165000Y-124515000D01*
D83*
X128927500Y-124005000D02*
X130205000Y-124005000D01*
D84*
X148870000Y-123120000D02*
X149240000Y-123490000D01*
D83*
X130205000Y-124005000D02*
X130215000Y-124015000D01*
D87*
X130515000Y-121065000D02*
X130415000Y-121165000D01*
D84*
%TO.N,/PowerManagament/TS*%
X156565000Y-126765000D02*
X156565000Y-128365000D01*
X160935000Y-129435000D02*
X162165000Y-130665000D01*
X142230000Y-129300000D02*
X140865000Y-130665000D01*
X152847957Y-129865000D02*
X151748957Y-130964000D01*
X156565000Y-128365000D02*
X155965000Y-128965000D01*
D89*
X140365000Y-130315000D02*
X140365000Y-131715000D01*
D84*
X155965000Y-128965000D02*
X154190735Y-128965000D01*
X152100000Y-123490000D02*
X152470000Y-123120000D01*
X153465000Y-127365000D02*
X152365000Y-127365000D01*
X157265000Y-126065000D02*
X156565000Y-126765000D01*
X153315000Y-129840735D02*
X153290735Y-129865000D01*
X140865000Y-130665000D02*
X140415000Y-130665000D01*
X152100000Y-127100000D02*
X152100000Y-123490000D01*
X153965000Y-127865000D02*
X153465000Y-127365000D01*
X152365000Y-127365000D02*
X152100000Y-127100000D01*
X153290735Y-129865000D02*
X152847957Y-129865000D01*
X151748957Y-130964000D02*
X150079000Y-130964000D01*
X160055000Y-126065000D02*
X157265000Y-126065000D01*
X154190735Y-128965000D02*
X153315000Y-129840735D01*
X160935000Y-126945000D02*
X160055000Y-126065000D01*
X148415000Y-129300000D02*
X142230000Y-129300000D01*
X162165000Y-130665000D02*
X162565000Y-130665000D01*
X150079000Y-130964000D02*
X148415000Y-129300000D01*
%TO.N,/PowerManagament/Solar 5-20V*%
X147815000Y-123615000D02*
X148054000Y-123376000D01*
X148054000Y-123376000D02*
X148054000Y-122943100D01*
X147815000Y-123965000D02*
X147815000Y-123615000D01*
X148054000Y-122943100D02*
X148267100Y-122730000D01*
X148267100Y-122730000D02*
X148670000Y-122730000D01*
%TO.N,/MCU/SDA*%
X151965000Y-128265000D02*
X152965000Y-128265000D01*
X151670000Y-123450000D02*
X151670000Y-127970000D01*
X151670000Y-127970000D02*
X151965000Y-128265000D01*
%TO.N,/MCU/SCL*%
X151270000Y-123450000D02*
X151270000Y-128370000D01*
X151965000Y-129065000D02*
X152165000Y-129065000D01*
X151270000Y-128370000D02*
X151965000Y-129065000D01*
D86*
%TO.N,/MCU/CS_flash*%
X124170000Y-78570000D02*
X124100000Y-78500000D01*
X125280000Y-78570000D02*
X124170000Y-78570000D01*
D89*
%TO.N,Net-(U405-EN)*%
X138400000Y-74600000D02*
X138400000Y-73600000D01*
X139700000Y-72300000D02*
X139700000Y-69190001D01*
X135200000Y-75300000D02*
X135200000Y-78879232D01*
X135900000Y-74600000D02*
X135200000Y-75300000D01*
X140090001Y-68800000D02*
X140400000Y-68800000D01*
X139700000Y-69190001D02*
X140090001Y-68800000D01*
D87*
X142700000Y-68800000D02*
X142700000Y-70280000D01*
D89*
X125792000Y-77780000D02*
X125280000Y-77780000D01*
X134328232Y-79751000D02*
X127763000Y-79751000D01*
D83*
X140400000Y-68460000D02*
X141380000Y-67480000D01*
D89*
X135200000Y-78879232D02*
X134328232Y-79751000D01*
D87*
X141380000Y-67480000D02*
X142700000Y-68800000D01*
D89*
X127763000Y-79751000D02*
X125792000Y-77780000D01*
X138400000Y-73600000D02*
X139700000Y-72300000D01*
D83*
X140400000Y-68800000D02*
X140400000Y-68460000D01*
D89*
%TO.N,/MCU/3V3_esp32*%
X144836629Y-68970865D02*
X144829135Y-68970865D01*
X140400000Y-69900000D02*
X140400000Y-69800000D01*
X144829135Y-68970865D02*
X143800000Y-70000000D01*
D86*
X139200000Y-73750000D02*
X139250000Y-73750000D01*
X141700000Y-71300000D02*
X141700000Y-71200000D01*
D89*
X143800000Y-70945740D02*
X143545740Y-71200000D01*
X143545740Y-71200000D02*
X141700000Y-71200000D01*
X140950000Y-70450000D02*
X140400000Y-69900000D01*
D83*
X148180000Y-70920000D02*
X147500000Y-70920000D01*
X147500000Y-70920000D02*
X146780000Y-70920000D01*
D86*
X139250000Y-73750000D02*
X141700000Y-71300000D01*
D89*
X143800000Y-70000000D02*
X143800000Y-70945740D01*
X141700000Y-71200000D02*
X140950000Y-70450000D01*
D86*
%TO.N,/MCU/CS_periferal*%
X124220000Y-79380000D02*
X124100000Y-79500000D01*
X125280000Y-79380000D02*
X124220000Y-79380000D01*
D84*
%TO.N,/MCU/INT*%
X155865000Y-125932100D02*
X154030000Y-124097100D01*
X154865000Y-129565000D02*
X154465000Y-129565000D01*
X152670000Y-121130000D02*
X153426742Y-121130000D01*
X153465000Y-130565000D02*
X153465000Y-131750000D01*
X153918379Y-121269160D02*
X153888826Y-121269160D01*
X153465000Y-131750000D02*
X153515000Y-131800000D01*
X154030000Y-124097100D02*
X154030000Y-124000000D01*
X155265000Y-128365000D02*
X155865000Y-127765000D01*
X153888826Y-121269160D02*
X153746408Y-121126742D01*
D90*
X153426742Y-121130000D02*
X153430000Y-121126742D01*
D84*
X153746408Y-121126742D02*
X153430000Y-121126742D01*
X154465000Y-129565000D02*
X153465000Y-130565000D01*
X155865000Y-127765000D02*
X155865000Y-125932100D01*
D89*
%TO.N,/MCU/TX*%
X138400000Y-76980000D02*
X138380000Y-76980000D01*
X145780000Y-70920000D02*
X145780000Y-71620000D01*
X140420000Y-76980000D02*
X138420000Y-76980000D01*
X145780000Y-71620000D02*
X140420000Y-76980000D01*
X138380000Y-76980000D02*
X137580000Y-76180000D01*
D83*
X145780000Y-72420000D02*
X145780000Y-70920000D01*
D89*
X137580000Y-76180000D02*
X137080000Y-76180000D01*
D84*
%TO.N,/MCU/QON*%
X150565000Y-129365000D02*
X150470000Y-129270000D01*
X150565000Y-129965000D02*
X150565000Y-129365000D01*
X150470000Y-129270000D02*
X150470000Y-123450000D01*
D89*
%TO.N,/MCU/RX*%
X144950000Y-71550000D02*
X140200000Y-76300000D01*
D83*
X149280000Y-71020000D02*
X149180000Y-70920000D01*
D89*
X149180000Y-70920000D02*
X149180000Y-70320000D01*
D83*
X149280000Y-72420000D02*
X149280000Y-71020000D01*
D89*
X144950000Y-70550000D02*
X144950000Y-71550000D01*
X149180000Y-70320000D02*
X149060000Y-70200000D01*
X137700000Y-75380000D02*
X137080000Y-75380000D01*
X149060000Y-70200000D02*
X145300000Y-70200000D01*
X138620000Y-76300000D02*
X137700000Y-75380000D01*
X140200000Y-76300000D02*
X138620000Y-76300000D01*
X145300000Y-70200000D02*
X144950000Y-70550000D01*
%TO.N,/MCU/PWRKEY*%
X142700000Y-81100000D02*
X142700000Y-81900000D01*
X142100000Y-82500000D02*
X141500000Y-82500000D01*
X140400000Y-78300000D02*
X139880000Y-77780000D01*
X139880000Y-77780000D02*
X137080000Y-77780000D01*
X140400000Y-79690380D02*
X140400000Y-78300000D01*
X142700000Y-81900000D02*
X142100000Y-82500000D01*
%TO.N,Net-(U402-USIM1_DATA)*%
X162500000Y-105000000D02*
X161900000Y-105000000D01*
X159000000Y-104200000D02*
X159300000Y-104500000D01*
X158400000Y-104200000D02*
X159000000Y-104200000D01*
D86*
X158500000Y-104100000D02*
X158400000Y-104200000D01*
D89*
X158500000Y-102500000D02*
X158500000Y-104100000D01*
X162700000Y-105200000D02*
X162500000Y-105000000D01*
X161900000Y-105000000D02*
X161800000Y-104900000D01*
%TO.N,Net-(U402-USIM1_RST)*%
X160500000Y-103200000D02*
X161100000Y-103800000D01*
X161100000Y-103800000D02*
X161100000Y-105600000D01*
X161100000Y-106160328D02*
X161100000Y-105600000D01*
X162139672Y-107200000D02*
X161100000Y-106160328D01*
X161100000Y-105600000D02*
X160600000Y-106100000D01*
X162700000Y-107200000D02*
X162139672Y-107200000D01*
X160500000Y-102500000D02*
X160500000Y-103200000D01*
%TO.N,Net-(U402-USIM1_CLK)*%
X159500000Y-102500000D02*
X159500000Y-103200000D01*
X159951000Y-103651000D02*
X159951000Y-104949000D01*
X159500000Y-103200000D02*
X159951000Y-103651000D01*
X162299997Y-106200000D02*
X161800000Y-105700003D01*
X160049000Y-104949000D02*
X159951000Y-104949000D01*
X162700000Y-106200000D02*
X162299997Y-106200000D01*
X160300000Y-105200000D02*
X160049000Y-104949000D01*
X159951000Y-104949000D02*
X159500000Y-105400000D01*
%TO.N,Net-(Card401-VCC)*%
X161900003Y-104200000D02*
X161800000Y-104099997D01*
X157593298Y-103893298D02*
X157593298Y-103988875D01*
X154150000Y-105700000D02*
X153401000Y-105700000D01*
X157500000Y-103500000D02*
X157500000Y-102500000D01*
X153401000Y-105700000D02*
X153101000Y-105400000D01*
X157688875Y-103988875D02*
X157700000Y-104000000D01*
X157000000Y-104000000D02*
X157350000Y-103650000D01*
X152600000Y-104000000D02*
X150500000Y-104000000D01*
X157700000Y-104000000D02*
X157700000Y-104100000D01*
X157350000Y-103650000D02*
X157593298Y-103893298D01*
X156100000Y-104000000D02*
X157000000Y-104000000D01*
X156100000Y-104000000D02*
X152600000Y-104000000D01*
X157593298Y-103988875D02*
X157688875Y-103988875D01*
X157350000Y-103650000D02*
X157500000Y-103500000D01*
X162700000Y-104200000D02*
X161900003Y-104200000D01*
%TO.N,Net-(Card401-CLK)*%
X156850000Y-106650000D02*
X155850000Y-106650000D01*
X158300000Y-106650000D02*
X158550000Y-106400000D01*
X150500000Y-106200000D02*
X149800000Y-106200000D01*
X152100000Y-107100000D02*
X151400000Y-107100000D01*
X155850000Y-106650000D02*
X155500000Y-106300000D01*
X156850000Y-106650000D02*
X158300000Y-106650000D01*
X151400000Y-107100000D02*
X150500000Y-106200000D01*
X158550000Y-106400000D02*
X159500000Y-106400000D01*
%TO.N,Net-(Card401-I{slash}O)*%
X156850000Y-104750000D02*
X155850000Y-104750000D01*
X157550000Y-104750000D02*
X158000000Y-105200000D01*
X155850000Y-104750000D02*
X155500000Y-105100000D01*
D86*
X158000000Y-105200000D02*
X158400000Y-105200000D01*
D89*
X156850000Y-104750000D02*
X157550000Y-104750000D01*
X151700000Y-106200000D02*
X150900000Y-105400000D01*
X150900000Y-105400000D02*
X150400000Y-105400000D01*
%TO.N,Net-(Card401-RST)*%
X152400000Y-105100000D02*
X152750000Y-104750000D01*
X160600000Y-107100000D02*
X158900000Y-107100000D01*
X152400000Y-106400000D02*
X152400000Y-105100000D01*
X153400000Y-107400000D02*
X152400000Y-106400000D01*
X152750000Y-104750000D02*
X150750000Y-104750000D01*
X152750000Y-104750000D02*
X154150000Y-104750000D01*
X158600000Y-107400000D02*
X153400000Y-107400000D01*
X158900000Y-107100000D02*
X158600000Y-107400000D01*
D83*
%TO.N,Net-(D402-Pad1)*%
X165500000Y-71740000D02*
X166100000Y-72340000D01*
X166100000Y-72340000D02*
X166100000Y-73200000D01*
%TO.N,Net-(Q406-G)*%
X162200000Y-76600000D02*
X162200000Y-75800000D01*
X162850000Y-74550000D02*
X162200000Y-75200000D01*
X162200000Y-75200000D02*
X162200000Y-75700000D01*
X163720000Y-74550000D02*
X162850000Y-74550000D01*
%TO.N,Net-(Q406-D)*%
X165600000Y-74300000D02*
X165600000Y-75500000D01*
X165100000Y-73800000D02*
X165600000Y-74300000D01*
X165100000Y-73200000D02*
X165100000Y-73800000D01*
D86*
%TO.N,/SimCom/VDD_1V8*%
X143900000Y-76000000D02*
X144449000Y-76549000D01*
X145849970Y-76549000D02*
X146500000Y-75898970D01*
X146500000Y-75898970D02*
X146500000Y-75820000D01*
X143900000Y-75230000D02*
X143900000Y-76000000D01*
X144449000Y-76549000D02*
X145849970Y-76549000D01*
D83*
X148330000Y-74577293D02*
X147480000Y-75427293D01*
X148330000Y-74300000D02*
X148330000Y-74577293D01*
D86*
X144830000Y-74300000D02*
X143900000Y-75230000D01*
D83*
X147480000Y-75820000D02*
X146500000Y-75820000D01*
X147480000Y-75427293D02*
X147480000Y-75820000D01*
X141500000Y-96500000D02*
X140667215Y-96500000D01*
D89*
%TO.N,Net-(Q402-S)*%
X142000000Y-76400000D02*
X141050000Y-77350000D01*
D83*
X146730000Y-74300000D02*
X146730000Y-74345383D01*
D86*
X144655025Y-75655025D02*
X144600000Y-75655025D01*
X144600000Y-75655025D02*
X145335025Y-75655025D01*
X145335025Y-75655025D02*
X145500000Y-75820000D01*
D89*
X139400000Y-90600000D02*
X140300000Y-91500000D01*
D83*
X146730000Y-74345383D02*
X145480000Y-75595383D01*
D89*
X141050000Y-77350000D02*
X141050000Y-80150000D01*
D83*
X145480000Y-75595383D02*
X145480000Y-75820000D01*
D89*
X139400000Y-81800000D02*
X139400000Y-90600000D01*
X140300000Y-91500000D02*
X141500000Y-91500000D01*
X143300000Y-76400000D02*
X142000000Y-76400000D01*
X141050000Y-80150000D02*
X139400000Y-81800000D01*
D83*
%TO.N,Net-(Q403-S)*%
X148480000Y-75820000D02*
X150000000Y-74300000D01*
X150000000Y-74300000D02*
X150230000Y-74300000D01*
D89*
X142100000Y-77100000D02*
X141650000Y-77550000D01*
X148480000Y-75820000D02*
X148480000Y-76520000D01*
X140000000Y-90000000D02*
X140500000Y-90500000D01*
X141650000Y-77550000D02*
X141650000Y-80450000D01*
X140500000Y-90500000D02*
X141500000Y-90500000D01*
X140000000Y-82100000D02*
X140000000Y-90000000D01*
X147900000Y-77100000D02*
X142100000Y-77100000D01*
X141650000Y-80450000D02*
X140000000Y-82100000D01*
X148480000Y-76520000D02*
X147900000Y-77100000D01*
D83*
%TO.N,/SimCom/NETLIGHT*%
X161200000Y-76700000D02*
X161200000Y-77220392D01*
X161500000Y-77520392D02*
X161200000Y-77220392D01*
X161500000Y-78500000D02*
X161500000Y-77520392D01*
D89*
%TO.N,/SimCom/Vin*%
X163400000Y-72406282D02*
X163453718Y-72406282D01*
X163453718Y-72406282D02*
X165600000Y-70260000D01*
X165600000Y-70260000D02*
X165600000Y-70020000D01*
D83*
%TO.N,Net-(Q401-D)*%
X164250000Y-66496282D02*
X164250000Y-65886282D01*
%TO.N,Net-(Q401-G)*%
X155600000Y-67400000D02*
X155600000Y-68300000D01*
D89*
%TO.N,/MCU/MOSFET_a7670g*%
X136568000Y-76970000D02*
X137080000Y-76970000D01*
X135900000Y-76302000D02*
X136568000Y-76970000D01*
X149576780Y-69600000D02*
X150876780Y-70900000D01*
X144300000Y-70300000D02*
X145000000Y-69600000D01*
X150876780Y-70900000D02*
X151400000Y-70900000D01*
X139000000Y-75600000D02*
X139900000Y-75600000D01*
X139900000Y-75600000D02*
X144300000Y-71200000D01*
X144300000Y-71200000D02*
X144300000Y-70300000D01*
X145000000Y-69600000D02*
X149576780Y-69600000D01*
X135900000Y-75600000D02*
X135900000Y-76302000D01*
D87*
%TO.N,Net-(U402-RF_ANT)*%
X153210000Y-69500000D02*
X153210000Y-67860000D01*
D83*
X152100000Y-74900000D02*
X152100000Y-71500000D01*
X153210000Y-69940000D02*
X153210000Y-69500000D01*
X152100000Y-71500000D02*
X153210000Y-70390000D01*
X153210000Y-69870000D02*
X153210000Y-69500000D01*
X153500000Y-76300000D02*
X152100000Y-74900000D01*
D87*
X153210000Y-67860000D02*
X153000000Y-67650000D01*
D83*
X153500000Y-78500000D02*
X153500000Y-76300000D01*
X153210000Y-70390000D02*
X153210000Y-69500000D01*
D87*
X149890000Y-68500000D02*
X149900000Y-68510000D01*
X146800000Y-67650000D02*
X147650000Y-68500000D01*
X150890000Y-69500000D02*
X151390000Y-69500000D01*
X147650000Y-68500000D02*
X149890000Y-68500000D01*
X149900000Y-68510000D02*
X150890000Y-69500000D01*
X149900000Y-67780000D02*
X149900000Y-68510000D01*
D84*
%TO.N,/PowerManagament/Solar 5-20V*%
X130615000Y-115965000D02*
X130465000Y-115815000D01*
%TD*%
%TA.AperFunction,Conductor*%
%TO.N,GND*%
G36*
X158481448Y-126585185D02*
G01*
X158527203Y-126637989D01*
X158532227Y-126650836D01*
X159495000Y-129585000D01*
X159911823Y-129589434D01*
X159978645Y-129609829D01*
X160023836Y-129663117D01*
X160034500Y-129713426D01*
X160034500Y-129976517D01*
X160043592Y-130033921D01*
X160049354Y-130070304D01*
X160106950Y-130183342D01*
X160106952Y-130183344D01*
X160106954Y-130183347D01*
X160196652Y-130273045D01*
X160196654Y-130273046D01*
X160196658Y-130273050D01*
X160309694Y-130330645D01*
X160309698Y-130330647D01*
X160403475Y-130345499D01*
X160403481Y-130345500D01*
X161086323Y-130345499D01*
X161153362Y-130365183D01*
X161174004Y-130381818D01*
X161764500Y-130972314D01*
X161857686Y-131065500D01*
X161971814Y-131131392D01*
X162033869Y-131148019D01*
X162089455Y-131180111D01*
X162118455Y-131209111D01*
X162118459Y-131209115D01*
X162233182Y-131285771D01*
X162233195Y-131285778D01*
X162340064Y-131330044D01*
X162360672Y-131338580D01*
X162360676Y-131338580D01*
X162360677Y-131338581D01*
X162496004Y-131365500D01*
X162496007Y-131365500D01*
X162633995Y-131365500D01*
X162734544Y-131345499D01*
X162769328Y-131338580D01*
X162896811Y-131285775D01*
X163011542Y-131209114D01*
X163109114Y-131111542D01*
X163185775Y-130996811D01*
X163238580Y-130869328D01*
X163265500Y-130733993D01*
X163265500Y-130596007D01*
X163265500Y-130596004D01*
X163245148Y-130493691D01*
X163251375Y-130424099D01*
X163294238Y-130368922D01*
X163360127Y-130345677D01*
X163366765Y-130345499D01*
X163466517Y-130345499D01*
X163466518Y-130345499D01*
X163560304Y-130330646D01*
X163673342Y-130273050D01*
X163763050Y-130183342D01*
X163820646Y-130070304D01*
X163820646Y-130070302D01*
X163820647Y-130070301D01*
X163835499Y-129976524D01*
X163835500Y-129976519D01*
X163835499Y-129756498D01*
X163855183Y-129689462D01*
X163907987Y-129643707D01*
X163960816Y-129632508D01*
X166276823Y-129657146D01*
X166343645Y-129677542D01*
X166388836Y-129730829D01*
X166399500Y-129781138D01*
X166399500Y-136075500D01*
X166379815Y-136142539D01*
X166327011Y-136188294D01*
X166275500Y-136199500D01*
X154607866Y-136199500D01*
X154540827Y-136179815D01*
X154495072Y-136127011D01*
X154483870Y-136074547D01*
X154491353Y-135100647D01*
X154507618Y-132983475D01*
X161114500Y-132983475D01*
X161114500Y-134746517D01*
X161125292Y-134814657D01*
X161129354Y-134840304D01*
X161186950Y-134953342D01*
X161186952Y-134953344D01*
X161186954Y-134953347D01*
X161276652Y-135043045D01*
X161276654Y-135043046D01*
X161276658Y-135043050D01*
X161389694Y-135100645D01*
X161389698Y-135100647D01*
X161483475Y-135115499D01*
X161483481Y-135115500D01*
X163246518Y-135115499D01*
X163340304Y-135100646D01*
X163453342Y-135043050D01*
X163543050Y-134953342D01*
X163600646Y-134840304D01*
X163600646Y-134840302D01*
X163600647Y-134840301D01*
X163615499Y-134746524D01*
X163615500Y-134746519D01*
X163615499Y-132983482D01*
X163600646Y-132889696D01*
X163543050Y-132776658D01*
X163543046Y-132776654D01*
X163543045Y-132776652D01*
X163453347Y-132686954D01*
X163453344Y-132686952D01*
X163453342Y-132686950D01*
X163376517Y-132647805D01*
X163340301Y-132629352D01*
X163246524Y-132614500D01*
X161483482Y-132614500D01*
X161402519Y-132627323D01*
X161389696Y-132629354D01*
X161276658Y-132686950D01*
X161276657Y-132686951D01*
X161276652Y-132686954D01*
X161186954Y-132776652D01*
X161186951Y-132776657D01*
X161129352Y-132889698D01*
X161114500Y-132983475D01*
X154507618Y-132983475D01*
X154519257Y-131468544D01*
X154539456Y-131401660D01*
X154592610Y-131356312D01*
X154643249Y-131345499D01*
X155079360Y-131345499D01*
X155079363Y-131345499D01*
X155196753Y-131330046D01*
X155196757Y-131330044D01*
X155196762Y-131330044D01*
X155342841Y-131269536D01*
X155468282Y-131173282D01*
X155564536Y-131047841D01*
X155625044Y-130901762D01*
X155640500Y-130784361D01*
X155640499Y-130748675D01*
X155660182Y-130681638D01*
X155676813Y-130660999D01*
X157365499Y-128972315D01*
X157367640Y-128968608D01*
X157431392Y-128858186D01*
X157465500Y-128730892D01*
X157465500Y-127580888D01*
X157485185Y-127513849D01*
X157537989Y-127468094D01*
X157565309Y-127459271D01*
X157590071Y-127454345D01*
X157669328Y-127438580D01*
X157796811Y-127385775D01*
X157911542Y-127309114D01*
X158009114Y-127211542D01*
X158085775Y-127096811D01*
X158138580Y-126969328D01*
X158165500Y-126833993D01*
X158165500Y-126743999D01*
X158173235Y-126717655D01*
X158177612Y-126690547D01*
X158184010Y-126680958D01*
X158185185Y-126676960D01*
X158197204Y-126661190D01*
X158246101Y-126606691D01*
X158305522Y-126569937D01*
X158338397Y-126565500D01*
X158414409Y-126565500D01*
X158481448Y-126585185D01*
G37*
%TD.AperFunction*%
%TD*%
%TA.AperFunction,Conductor*%
%TO.N,/MCU/Vsys*%
G36*
X123243039Y-98794685D02*
G01*
X123288794Y-98847489D01*
X123300000Y-98899000D01*
X123300000Y-102351000D01*
X123280315Y-102418039D01*
X123227511Y-102463794D01*
X123176000Y-102475000D01*
X120024000Y-102475000D01*
X119956961Y-102455315D01*
X119911206Y-102402511D01*
X119900000Y-102351000D01*
X119900000Y-99404500D01*
X119919685Y-99337461D01*
X119972489Y-99291706D01*
X120024000Y-99280500D01*
X120876000Y-99280500D01*
X120943039Y-99300185D01*
X120988794Y-99352989D01*
X121000000Y-99404500D01*
X121000000Y-101975000D01*
X121232098Y-101975000D01*
X121299137Y-101994685D01*
X121319779Y-102011319D01*
X121361684Y-102053224D01*
X121470513Y-102103972D01*
X121520099Y-102110500D01*
X121879900Y-102110499D01*
X121929487Y-102103972D01*
X122038316Y-102053224D01*
X122080221Y-102011319D01*
X122141544Y-101977834D01*
X122167902Y-101975000D01*
X122400000Y-101975000D01*
X122400000Y-98899000D01*
X122419685Y-98831961D01*
X122472489Y-98786206D01*
X122524000Y-98775000D01*
X123176000Y-98775000D01*
X123243039Y-98794685D01*
G37*
%TD.AperFunction*%
%TD*%
%TA.AperFunction,Conductor*%
%TO.N,GND*%
G36*
X139430272Y-111073414D02*
G01*
X140210489Y-111074991D01*
X140215000Y-111075010D01*
X140219511Y-111075050D01*
X144397854Y-111121191D01*
X147356257Y-111153860D01*
X147361065Y-111154150D01*
X147527773Y-111172498D01*
X147549498Y-111174889D01*
X147558927Y-111176880D01*
X147737345Y-111233396D01*
X147746190Y-111237193D01*
X147888068Y-111315422D01*
X147910070Y-111327554D01*
X147918016Y-111333019D01*
X148061018Y-111453726D01*
X148067740Y-111460642D01*
X148184330Y-111607022D01*
X148189567Y-111615121D01*
X148275224Y-111781497D01*
X148278774Y-111790465D01*
X148330185Y-111970403D01*
X148331909Y-111979892D01*
X148347276Y-112168828D01*
X148347430Y-112173653D01*
X148311528Y-114235024D01*
X148311528Y-114235025D01*
X148344310Y-114234965D01*
X148378985Y-114249253D01*
X148393400Y-114283875D01*
X148393400Y-114537487D01*
X148393868Y-114554396D01*
X148394630Y-114568130D01*
X148396040Y-114585042D01*
X148418268Y-114784557D01*
X148418269Y-114784565D01*
X148423884Y-114817988D01*
X148429923Y-114844751D01*
X148439198Y-114877327D01*
X148439210Y-114877364D01*
X148502535Y-115060531D01*
X148515353Y-115091859D01*
X148515363Y-115091883D01*
X148527150Y-115116674D01*
X148527158Y-115116690D01*
X148539768Y-115139810D01*
X148543373Y-115146420D01*
X148649120Y-115317067D01*
X148658442Y-115331218D01*
X148663193Y-115338012D01*
X148666326Y-115342493D01*
X148676402Y-115356082D01*
X148827164Y-115548060D01*
X148827166Y-115548062D01*
X148969154Y-115728867D01*
X148994523Y-115761171D01*
X149004959Y-115789821D01*
X149011922Y-116001036D01*
X149011923Y-116001071D01*
X149012800Y-116027659D01*
X149013749Y-116043675D01*
X149014858Y-116056619D01*
X149014860Y-116056634D01*
X149016645Y-116072551D01*
X149037219Y-116220799D01*
X149043284Y-116252270D01*
X149049532Y-116277489D01*
X149049536Y-116277503D01*
X149049539Y-116277514D01*
X149058861Y-116308153D01*
X149107633Y-116442680D01*
X149120377Y-116472798D01*
X149120255Y-116472849D01*
X149124500Y-116492442D01*
X149124500Y-116540895D01*
X149158607Y-116668184D01*
X149158608Y-116668188D01*
X149224500Y-116782314D01*
X149317686Y-116875500D01*
X149326130Y-116880375D01*
X149431811Y-116941391D01*
X149431814Y-116941392D01*
X149548817Y-116972743D01*
X149567636Y-116982540D01*
X149699121Y-117092894D01*
X149718561Y-117107920D01*
X149734804Y-117119462D01*
X149734814Y-117119469D01*
X149750090Y-117129424D01*
X149755381Y-117132872D01*
X149827617Y-117175915D01*
X149871669Y-117197574D01*
X149890306Y-117204942D01*
X149896777Y-117208069D01*
X149912604Y-117217207D01*
X149971811Y-117251391D01*
X149971813Y-117251391D01*
X149971814Y-117251392D01*
X150039395Y-117269500D01*
X150099104Y-117285499D01*
X150099105Y-117285500D01*
X150099108Y-117285500D01*
X150230895Y-117285500D01*
X150230895Y-117285499D01*
X150358186Y-117251392D01*
X150472314Y-117185500D01*
X150565500Y-117092314D01*
X150568220Y-117087601D01*
X150576008Y-117077452D01*
X150576625Y-117076834D01*
X150607306Y-117048281D01*
X150630077Y-117023385D01*
X150630840Y-117022623D01*
X150647236Y-117015831D01*
X150663304Y-117008321D01*
X150664404Y-117008720D01*
X150665488Y-117008272D01*
X150681883Y-117015063D01*
X150698557Y-117021115D01*
X150700014Y-117022574D01*
X150700136Y-117022625D01*
X150700186Y-117022747D01*
X150701700Y-117024263D01*
X150728351Y-117053511D01*
X150780289Y-117102022D01*
X150780299Y-117102031D01*
X150801869Y-117119469D01*
X150814190Y-117129430D01*
X150837942Y-117145977D01*
X150843164Y-117149615D01*
X150858221Y-117159458D01*
X150858226Y-117159461D01*
X150858229Y-117159462D01*
X150861561Y-117160734D01*
X150867998Y-117163742D01*
X150894740Y-117178691D01*
X150894744Y-117178693D01*
X150894748Y-117178695D01*
X150894755Y-117178699D01*
X150959344Y-117208255D01*
X150959355Y-117208259D01*
X150959365Y-117208264D01*
X150959376Y-117208268D01*
X150959381Y-117208270D01*
X150973614Y-117213443D01*
X150988778Y-117218955D01*
X150996539Y-117222573D01*
X151011809Y-117231390D01*
X151011812Y-117231391D01*
X151011814Y-117231392D01*
X151086452Y-117251391D01*
X151139104Y-117265499D01*
X151139105Y-117265500D01*
X151139108Y-117265500D01*
X151270895Y-117265500D01*
X151270895Y-117265499D01*
X151398186Y-117231392D01*
X151442148Y-117206009D01*
X151448640Y-117202875D01*
X151453849Y-117200819D01*
X151497958Y-117179148D01*
X151567728Y-117137593D01*
X151588327Y-117124173D01*
X151604591Y-117112619D01*
X151624062Y-117097572D01*
X151829533Y-116925122D01*
X151841546Y-116914489D01*
X151851057Y-116905615D01*
X151862476Y-116894387D01*
X151866551Y-116890163D01*
X151889131Y-116876855D01*
X151928186Y-116866392D01*
X152042314Y-116800500D01*
X152135500Y-116707314D01*
X152201392Y-116593186D01*
X152235499Y-116465895D01*
X152235500Y-116465895D01*
X152235500Y-116334106D01*
X152235132Y-116331310D01*
X152237646Y-116308217D01*
X152248659Y-116277843D01*
X152257986Y-116247185D01*
X152264234Y-116221967D01*
X152270300Y-116190493D01*
X152296410Y-116002356D01*
X152298196Y-115986431D01*
X152299306Y-115973471D01*
X152300254Y-115957468D01*
X152311509Y-115616057D01*
X152321944Y-115587410D01*
X152502484Y-115357516D01*
X152512579Y-115343900D01*
X152520459Y-115332631D01*
X152529779Y-115318483D01*
X152635526Y-115147836D01*
X152651748Y-115118092D01*
X152663539Y-115093292D01*
X152671956Y-115072716D01*
X152676363Y-115061947D01*
X152676857Y-115060520D01*
X152739697Y-114878754D01*
X152748973Y-114846176D01*
X152755017Y-114819390D01*
X152760630Y-114785974D01*
X152782859Y-114586454D01*
X152784269Y-114569556D01*
X152785031Y-114555826D01*
X152785500Y-114538897D01*
X152785500Y-114275755D01*
X152799852Y-114241107D01*
X152834405Y-114226757D01*
X161496967Y-114210922D01*
X161531263Y-115691870D01*
X161535195Y-115861652D01*
X161539024Y-116027007D01*
X161538584Y-116034789D01*
X161525902Y-116127394D01*
X161521379Y-116142261D01*
X161482076Y-116222682D01*
X161473124Y-116235386D01*
X161410616Y-116299451D01*
X161398137Y-116308713D01*
X161318708Y-116349985D01*
X161303955Y-116354873D01*
X161211689Y-116369829D01*
X161203920Y-116370460D01*
X153656048Y-116381468D01*
X153656047Y-116381468D01*
X152512695Y-117364349D01*
X152508234Y-117368183D01*
X152501780Y-117371472D01*
X152485681Y-117387570D01*
X152484271Y-117388783D01*
X151180000Y-118509998D01*
X151179999Y-118510000D01*
X151097213Y-118647189D01*
X151097210Y-118647194D01*
X151095206Y-118650515D01*
X151095203Y-118650520D01*
X150830000Y-119089998D01*
X150830000Y-119211152D01*
X150821742Y-119238374D01*
X150816133Y-119246769D01*
X150804500Y-119305252D01*
X150804500Y-119305255D01*
X150804500Y-119810301D01*
X150801001Y-119827593D01*
X150801116Y-119827629D01*
X150800766Y-119828755D01*
X150800646Y-119829349D01*
X150800402Y-119829926D01*
X150784241Y-119908456D01*
X150784241Y-119908465D01*
X150781979Y-120250000D01*
X150525500Y-120250000D01*
X150525500Y-119305252D01*
X150519431Y-119274742D01*
X150518493Y-119264779D01*
X150518996Y-119206440D01*
X150519871Y-119200205D01*
X150519105Y-119193760D01*
X150520000Y-119090000D01*
X150519999Y-119089998D01*
X150200001Y-118510001D01*
X148057128Y-116520191D01*
X144519495Y-116510983D01*
X141082038Y-116502035D01*
X141077232Y-116501786D01*
X140889220Y-116482757D01*
X140879797Y-116480855D01*
X140701436Y-116426190D01*
X140692566Y-116422485D01*
X140528306Y-116334041D01*
X140520329Y-116328675D01*
X140383293Y-116215470D01*
X140365721Y-116182338D01*
X140365500Y-116177693D01*
X140365500Y-113425436D01*
X140346763Y-113355513D01*
X140345021Y-113349011D01*
X140345020Y-113349009D01*
X140345020Y-113349008D01*
X140305459Y-113280488D01*
X139784511Y-112759540D01*
X139715990Y-112719979D01*
X139639564Y-112699500D01*
X139639562Y-112699500D01*
X137569500Y-112699500D01*
X137534852Y-112685148D01*
X137520500Y-112650500D01*
X137520500Y-112394669D01*
X137520500Y-112394660D01*
X137517654Y-112364310D01*
X137472922Y-112236474D01*
X137472920Y-112236471D01*
X137472921Y-112236471D01*
X137392498Y-112127501D01*
X137283528Y-112047079D01*
X137283526Y-112047078D01*
X137245156Y-112033651D01*
X137155692Y-112002346D01*
X137155683Y-112002345D01*
X137125351Y-111999501D01*
X137125350Y-111999500D01*
X137125340Y-111999500D01*
X136733826Y-111999500D01*
X136731399Y-111998494D01*
X136728885Y-111999250D01*
X136714387Y-111991448D01*
X136699178Y-111985148D01*
X136698173Y-111982722D01*
X136695861Y-111981478D01*
X136691127Y-111965711D01*
X136684826Y-111950500D01*
X136685076Y-111945559D01*
X136692040Y-111876845D01*
X136693936Y-111867448D01*
X136748498Y-111689327D01*
X136752195Y-111680471D01*
X136840440Y-111516408D01*
X136845790Y-111508448D01*
X136964328Y-111364746D01*
X136971133Y-111357974D01*
X137001690Y-111333019D01*
X137115417Y-111240141D01*
X137123397Y-111234836D01*
X137287893Y-111147395D01*
X137296761Y-111143744D01*
X137475147Y-111090057D01*
X137484560Y-111088205D01*
X137672405Y-111070097D01*
X137677171Y-111069872D01*
X139430272Y-111073414D01*
G37*
%TD.AperFunction*%
%TD*%
%TA.AperFunction,Conductor*%
%TO.N,GND*%
G36*
X145653519Y-121915831D02*
G01*
X145699439Y-121968492D01*
X145709598Y-122037619D01*
X145706581Y-122052450D01*
X145705423Y-122056770D01*
X145705423Y-122056771D01*
X145664499Y-122209499D01*
X145664499Y-122209501D01*
X145664499Y-122364903D01*
X145655854Y-122394343D01*
X145649331Y-122424330D01*
X145645576Y-122429345D01*
X145644814Y-122431942D01*
X145628180Y-122452585D01*
X145482582Y-122598182D01*
X145421259Y-122631666D01*
X145394902Y-122634500D01*
X145166663Y-122634500D01*
X145166644Y-122634501D01*
X145067292Y-122644650D01*
X145067289Y-122644651D01*
X144906305Y-122697996D01*
X144906294Y-122698001D01*
X144761959Y-122787029D01*
X144761955Y-122787032D01*
X144642032Y-122906955D01*
X144642029Y-122906959D01*
X144553001Y-123051294D01*
X144552996Y-123051305D01*
X144499651Y-123212290D01*
X144489500Y-123311647D01*
X144489500Y-123701335D01*
X144486117Y-123712852D01*
X144487259Y-123724802D01*
X144476456Y-123745755D01*
X144469815Y-123768374D01*
X144459943Y-123777787D01*
X144455243Y-123786904D01*
X144427501Y-123808722D01*
X144406249Y-123820992D01*
X144406247Y-123820992D01*
X144296287Y-123884477D01*
X144296282Y-123884481D01*
X144233313Y-123947451D01*
X144184480Y-123996284D01*
X144184478Y-123996286D01*
X144111164Y-124069600D01*
X143894638Y-124286125D01*
X143833315Y-124319609D01*
X143806358Y-124322442D01*
X143463138Y-124320785D01*
X142700000Y-124317098D01*
X142699997Y-124317098D01*
X142699995Y-124317097D01*
X142498864Y-124316126D01*
X142497885Y-124316122D01*
X142497884Y-124316122D01*
X142497883Y-124316122D01*
X142389609Y-124474755D01*
X142376996Y-124490356D01*
X142312806Y-124557772D01*
X142280916Y-124581911D01*
X142207610Y-124620631D01*
X142169693Y-124633363D01*
X142077813Y-124648377D01*
X142057817Y-124650000D01*
X142054896Y-124650000D01*
X142015892Y-124643706D01*
X141898771Y-124604896D01*
X141797017Y-124594500D01*
X141797010Y-124594500D01*
X141212990Y-124594500D01*
X141212982Y-124594500D01*
X141111228Y-124604896D01*
X140994108Y-124643706D01*
X140955104Y-124650000D01*
X140174896Y-124650000D01*
X140135892Y-124643706D01*
X140018771Y-124604896D01*
X139917017Y-124594500D01*
X139917010Y-124594500D01*
X139332990Y-124594500D01*
X139332982Y-124594500D01*
X139231228Y-124604896D01*
X139114108Y-124643706D01*
X139075104Y-124650000D01*
X138765000Y-124650000D01*
X138765000Y-124888153D01*
X138746538Y-124953251D01*
X138704531Y-125021352D01*
X138704528Y-125021359D01*
X138649896Y-125186228D01*
X138639500Y-125287982D01*
X138639500Y-125302324D01*
X138619815Y-125369363D01*
X138567011Y-125415118D01*
X138497853Y-125425062D01*
X138491309Y-125423941D01*
X138443846Y-125414500D01*
X138443842Y-125414500D01*
X138286158Y-125414500D01*
X138286155Y-125414500D01*
X138131510Y-125445261D01*
X138131498Y-125445264D01*
X137985827Y-125505602D01*
X137985814Y-125505609D01*
X137854711Y-125593210D01*
X137854707Y-125593213D01*
X137819242Y-125628680D01*
X137757920Y-125662166D01*
X137731560Y-125665000D01*
X137468901Y-125665000D01*
X137452716Y-125663939D01*
X137434255Y-125661508D01*
X137348642Y-125650237D01*
X137317376Y-125641859D01*
X137227972Y-125604827D01*
X137199937Y-125588641D01*
X137123160Y-125529727D01*
X137100272Y-125506839D01*
X137041358Y-125430062D01*
X137025172Y-125402027D01*
X136988140Y-125312623D01*
X136979762Y-125281356D01*
X136966061Y-125177285D01*
X136965000Y-125161100D01*
X136965000Y-124963079D01*
X136967255Y-124939540D01*
X136981344Y-124866698D01*
X136984170Y-124859667D01*
X136984180Y-124855079D01*
X136998903Y-124823008D01*
X137032575Y-124770846D01*
X137065161Y-124736854D01*
X137115852Y-124701012D01*
X137158767Y-124681622D01*
X137230950Y-124664470D01*
X137254375Y-124661223D01*
X137520000Y-124650000D01*
X137518034Y-124336495D01*
X137512068Y-123384958D01*
X137521277Y-123337286D01*
X137658026Y-123002597D01*
X137701604Y-122947985D01*
X137767791Y-122925602D01*
X137772813Y-122925500D01*
X141918102Y-122925500D01*
X141918114Y-122925500D01*
X141956045Y-122924075D01*
X141974597Y-122922679D01*
X141974612Y-122922677D01*
X141974616Y-122922677D01*
X142012295Y-122918415D01*
X142132429Y-122900237D01*
X142132429Y-122900236D01*
X142132442Y-122900235D01*
X142206354Y-122883299D01*
X142241793Y-122872324D01*
X142312352Y-122844517D01*
X142413249Y-122795717D01*
X142478861Y-122757662D01*
X142509468Y-122736692D01*
X142568632Y-122689262D01*
X142650574Y-122612798D01*
X142701979Y-122557050D01*
X142725013Y-122527965D01*
X142767507Y-122465143D01*
X142827847Y-122359668D01*
X142845444Y-122326039D01*
X142853444Y-122309244D01*
X142868461Y-122274407D01*
X142981166Y-121983367D01*
X143023729Y-121927964D01*
X143089492Y-121904365D01*
X143096373Y-121904152D01*
X145586420Y-121896357D01*
X145653519Y-121915831D01*
G37*
%TD.AperFunction*%
%TD*%
%TA.AperFunction,Conductor*%
%TO.N,/SimCom/Vin*%
G36*
X164442539Y-71819685D02*
G01*
X164488294Y-71872489D01*
X164499500Y-71924000D01*
X164499500Y-72207451D01*
X164502367Y-72243885D01*
X164502368Y-72243891D01*
X164547691Y-72399891D01*
X164547692Y-72399894D01*
X164599393Y-72487316D01*
X164616576Y-72555040D01*
X164594416Y-72621303D01*
X164579190Y-72637189D01*
X164580216Y-72638214D01*
X164574214Y-72644215D01*
X164484437Y-72762605D01*
X164484436Y-72762607D01*
X164429930Y-72900824D01*
X164429930Y-72900826D01*
X164419500Y-72987680D01*
X164419500Y-72987686D01*
X164419500Y-73018248D01*
X164417117Y-73042439D01*
X164399500Y-73131003D01*
X164399500Y-73625500D01*
X164379815Y-73692539D01*
X164327011Y-73738294D01*
X164275500Y-73749500D01*
X163086898Y-73749500D01*
X163047853Y-73754188D01*
X162998438Y-73760122D01*
X162857656Y-73815639D01*
X162845693Y-73824712D01*
X162786872Y-73847763D01*
X162786981Y-73848311D01*
X162783924Y-73848919D01*
X162782924Y-73849311D01*
X162781001Y-73849500D01*
X162645677Y-73876418D01*
X162645667Y-73876421D01*
X162518191Y-73929223D01*
X162473471Y-73959104D01*
X162443541Y-73979102D01*
X162376865Y-73999980D01*
X162374652Y-74000000D01*
X161700000Y-74000000D01*
X160828263Y-74958911D01*
X160768602Y-74995275D01*
X160736510Y-74999500D01*
X159831003Y-74999500D01*
X159729425Y-75019705D01*
X159729419Y-75019706D01*
X159722591Y-75021065D01*
X159695671Y-75026420D01*
X159658162Y-75041957D01*
X159653339Y-75043954D01*
X159653335Y-75043956D01*
X159566171Y-75080061D01*
X159518718Y-75089500D01*
X159317680Y-75089500D01*
X159252539Y-75097322D01*
X159230824Y-75099930D01*
X159092608Y-75154436D01*
X159092604Y-75154438D01*
X159065278Y-75175159D01*
X158999966Y-75199979D01*
X158997639Y-75200138D01*
X158800000Y-75211765D01*
X158800000Y-75719839D01*
X158799500Y-75730017D01*
X158799500Y-79269992D01*
X158800000Y-79280160D01*
X158800000Y-79376000D01*
X158780315Y-79443039D01*
X158727511Y-79488794D01*
X158676000Y-79500000D01*
X156367040Y-79500000D01*
X156300001Y-79480315D01*
X156254246Y-79427511D01*
X156246892Y-79406667D01*
X156239065Y-79376000D01*
X156217964Y-79293329D01*
X156216508Y-79286914D01*
X156207381Y-79241028D01*
X156205000Y-79216846D01*
X156205000Y-77783151D01*
X156207382Y-77758964D01*
X156213954Y-77725921D01*
X156221003Y-77702681D01*
X156257624Y-77614273D01*
X156257623Y-77614272D01*
X156273331Y-77576351D01*
X156276297Y-77569744D01*
X156276936Y-77568425D01*
X156297747Y-77504140D01*
X156321972Y-77367210D01*
X156306795Y-77224132D01*
X156289612Y-77156408D01*
X156237951Y-77031182D01*
X156233504Y-77018489D01*
X156229924Y-77006167D01*
X156225000Y-76971571D01*
X156225000Y-76628428D01*
X156229922Y-76593838D01*
X156247016Y-76535001D01*
X156252352Y-76520214D01*
X156258733Y-76505528D01*
X156264664Y-76485330D01*
X156275909Y-76447030D01*
X156275908Y-76447030D01*
X156275912Y-76447020D01*
X156296038Y-76323397D01*
X156280869Y-76180318D01*
X156263690Y-76112594D01*
X156256634Y-76095490D01*
X156252191Y-76082807D01*
X156229924Y-76006165D01*
X156225000Y-75971569D01*
X156225000Y-75627805D01*
X156228788Y-75597390D01*
X156236765Y-75565859D01*
X156240428Y-75548907D01*
X156246684Y-75514087D01*
X156246685Y-75514083D01*
X156246684Y-75370203D01*
X156236740Y-75301045D01*
X156207111Y-75200138D01*
X156205023Y-75193026D01*
X156200000Y-75158091D01*
X156200000Y-73563295D01*
X156219685Y-73496256D01*
X156272489Y-73450501D01*
X156284828Y-73445645D01*
X156337504Y-73428113D01*
X156458543Y-73350325D01*
X156511347Y-73304570D01*
X156605567Y-73195836D01*
X156665338Y-73064959D01*
X156685023Y-72997920D01*
X156685024Y-72997916D01*
X156705500Y-72855500D01*
X156705500Y-72724000D01*
X156725185Y-72656961D01*
X156777989Y-72611206D01*
X156829500Y-72600000D01*
X160085714Y-72600000D01*
X160118465Y-72554148D01*
X160173446Y-72511038D01*
X160207615Y-72502781D01*
X160274347Y-72496433D01*
X160320266Y-72487617D01*
X160412145Y-72460748D01*
X160536854Y-72388990D01*
X160590867Y-72346641D01*
X160591705Y-72345998D01*
X160591840Y-72345879D01*
X160591842Y-72345877D01*
X160691282Y-72241890D01*
X160751614Y-72157426D01*
X160806598Y-72114316D01*
X160852517Y-72105500D01*
X160909442Y-72105500D01*
X160927422Y-72105179D01*
X160927432Y-72105178D01*
X160927467Y-72105178D01*
X160936314Y-72104862D01*
X160954333Y-72103896D01*
X161094925Y-72073312D01*
X161157095Y-72050123D01*
X161219820Y-72043833D01*
X161293481Y-72055500D01*
X161906518Y-72055499D01*
X162000304Y-72040646D01*
X162113342Y-71983050D01*
X162203050Y-71893342D01*
X162216113Y-71867703D01*
X162264086Y-71816909D01*
X162326597Y-71800000D01*
X164375500Y-71800000D01*
X164442539Y-71819685D01*
G37*
%TD.AperFunction*%
%TD*%
%TA.AperFunction,Conductor*%
%TO.N,GND*%
G36*
X135785943Y-131465501D02*
G01*
X135863995Y-131465501D01*
X135876148Y-131466098D01*
X136047941Y-131483018D01*
X136071769Y-131487757D01*
X136236001Y-131537576D01*
X136258453Y-131546877D01*
X136409798Y-131627772D01*
X136430010Y-131641277D01*
X136562666Y-131750145D01*
X136579854Y-131767333D01*
X136688722Y-131899989D01*
X136702227Y-131920201D01*
X136783121Y-132071543D01*
X136792424Y-132094001D01*
X136842240Y-132258224D01*
X136846982Y-132282065D01*
X136864403Y-132458938D01*
X136865000Y-132471092D01*
X136865000Y-135558907D01*
X136864403Y-135571061D01*
X136846982Y-135747934D01*
X136842240Y-135771775D01*
X136792424Y-135935998D01*
X136783121Y-135958456D01*
X136702227Y-136109798D01*
X136688723Y-136130009D01*
X136668900Y-136154164D01*
X136611155Y-136193499D01*
X136573046Y-136199500D01*
X134356954Y-136199500D01*
X134355301Y-136199014D01*
X134353636Y-136199456D01*
X134321891Y-136189204D01*
X134289915Y-136179815D01*
X134288262Y-136178344D01*
X134287147Y-136177984D01*
X134261102Y-136154166D01*
X134241278Y-136130011D01*
X134227772Y-136109798D01*
X134146878Y-135958456D01*
X134137575Y-135935998D01*
X134087757Y-135771769D01*
X134083018Y-135747943D01*
X134078808Y-135705198D01*
X134091827Y-135636555D01*
X134114530Y-135605366D01*
X134160989Y-135558907D01*
X134255104Y-135464792D01*
X134255106Y-135464788D01*
X134255109Y-135464786D01*
X134380048Y-135292820D01*
X134380047Y-135292820D01*
X134380051Y-135292816D01*
X134476557Y-135103412D01*
X134542246Y-134901243D01*
X134575500Y-134691287D01*
X134575500Y-134478713D01*
X134542246Y-134268757D01*
X134476557Y-134066588D01*
X134380051Y-133877184D01*
X134380049Y-133877181D01*
X134380048Y-133877179D01*
X134255109Y-133705213D01*
X134101347Y-133551451D01*
X134103022Y-133549775D01*
X134070212Y-133499319D01*
X134065000Y-133463746D01*
X134065000Y-132471092D01*
X134065597Y-132458938D01*
X134083018Y-132282056D01*
X134087757Y-132258232D01*
X134137577Y-132093994D01*
X134146875Y-132071549D01*
X134227775Y-131920195D01*
X134241272Y-131899995D01*
X134350149Y-131767328D01*
X134367328Y-131750149D01*
X134499995Y-131641272D01*
X134520195Y-131627775D01*
X134671549Y-131546875D01*
X134693994Y-131537577D01*
X134858232Y-131487757D01*
X134882056Y-131483018D01*
X135053862Y-131466096D01*
X135066016Y-131465500D01*
X135778332Y-131465500D01*
X135785939Y-131465500D01*
X135785943Y-131465501D01*
G37*
%TD.AperFunction*%
%TD*%
%TA.AperFunction,Conductor*%
%TO.N,Net-(Q204-S)*%
G36*
X162169975Y-119555185D02*
G01*
X162179663Y-119562089D01*
X162255176Y-119621568D01*
X162278146Y-119645247D01*
X162337457Y-119725451D01*
X162353370Y-119754352D01*
X162389430Y-119847355D01*
X162397159Y-119879432D01*
X162408275Y-119986969D01*
X162408875Y-120003491D01*
X162380047Y-120950651D01*
X162378000Y-120969624D01*
X162355145Y-121092109D01*
X162342510Y-121127999D01*
X162288167Y-121229262D01*
X162265244Y-121259632D01*
X162182753Y-121339651D01*
X162151699Y-121361640D01*
X162048833Y-121412875D01*
X162012575Y-121424413D01*
X161913477Y-121439800D01*
X161889440Y-121443532D01*
X161870417Y-121445000D01*
X156406385Y-121445000D01*
X156339346Y-121425315D01*
X156318816Y-121408794D01*
X156309999Y-121399999D01*
X156287500Y-121399732D01*
X155707287Y-121392824D01*
X155702087Y-121392762D01*
X155609790Y-121391663D01*
X155593869Y-121390445D01*
X155490462Y-121375791D01*
X155459741Y-121367301D01*
X155363477Y-121326769D01*
X155349189Y-121319637D01*
X154755539Y-120973885D01*
X154755536Y-120973882D01*
X154560000Y-120859999D01*
X154427867Y-120858189D01*
X154427812Y-120858189D01*
X154234517Y-120855540D01*
X154174217Y-120838940D01*
X154111565Y-120802768D01*
X153984271Y-120768660D01*
X153852487Y-120768660D01*
X153725190Y-120802768D01*
X153713311Y-120809628D01*
X153651309Y-120826242D01*
X153390438Y-120826242D01*
X153390436Y-120826242D01*
X153382382Y-120827303D01*
X153382318Y-120826819D01*
X153361955Y-120829500D01*
X152972097Y-120829500D01*
X152947905Y-120827117D01*
X152934749Y-120824500D01*
X152934748Y-120824500D01*
X152354576Y-120824500D01*
X152329183Y-120821872D01*
X152276477Y-120810844D01*
X152232744Y-120792415D01*
X152175283Y-120753828D01*
X152141676Y-120720321D01*
X152102918Y-120662973D01*
X152084362Y-120619298D01*
X152070064Y-120551960D01*
X152069952Y-120543748D01*
X152068029Y-120539062D01*
X152069403Y-120503798D01*
X152081345Y-120438824D01*
X152099486Y-120393431D01*
X152133288Y-120341684D01*
X152186431Y-120296325D01*
X152237101Y-120285500D01*
X152915001Y-120285500D01*
X152915001Y-120285499D01*
X152993641Y-120269858D01*
X153032532Y-120253749D01*
X153090826Y-120217120D01*
X153143749Y-120142532D01*
X153159858Y-120103641D01*
X153161015Y-120097822D01*
X153193395Y-120035910D01*
X153204420Y-120025786D01*
X153730157Y-119598624D01*
X153747611Y-119586758D01*
X153810596Y-119551383D01*
X153871316Y-119535500D01*
X162102936Y-119535500D01*
X162169975Y-119555185D01*
G37*
%TD.AperFunction*%
%TD*%
%TA.AperFunction,Conductor*%
%TO.N,Net-(U202-SW1)*%
G36*
X149561816Y-111665397D02*
G01*
X149588605Y-111671444D01*
X149709618Y-111713304D01*
X149714984Y-111715161D01*
X149739793Y-111726963D01*
X149784085Y-111754427D01*
X149853444Y-111797434D01*
X149875044Y-111814410D01*
X149970386Y-111908177D01*
X149987717Y-111929489D01*
X150060076Y-112041954D01*
X150072288Y-112066560D01*
X150118100Y-112192184D01*
X150124596Y-112218879D01*
X150142505Y-112358390D01*
X150143497Y-112372112D01*
X150181067Y-114626348D01*
X150266491Y-114814281D01*
X150266490Y-114814281D01*
X150266505Y-114814313D01*
X150413833Y-115138434D01*
X150418819Y-115151243D01*
X150481126Y-115341984D01*
X150486708Y-115368857D01*
X150505527Y-115568621D01*
X150506056Y-115582355D01*
X150488984Y-116588300D01*
X150487046Y-116608132D01*
X150472172Y-116690887D01*
X150471186Y-116693684D01*
X150471301Y-116695280D01*
X150458975Y-116728352D01*
X150423542Y-116793280D01*
X150399174Y-116824649D01*
X150345038Y-116875033D01*
X150312002Y-116897089D01*
X150244703Y-116927774D01*
X150206388Y-116938251D01*
X150132847Y-116946081D01*
X150093185Y-116943906D01*
X150020936Y-116928079D01*
X149983997Y-116913474D01*
X149911761Y-116870431D01*
X149895518Y-116858889D01*
X149854721Y-116824649D01*
X149611377Y-116620413D01*
X149601875Y-116611549D01*
X149497936Y-116503844D01*
X149481958Y-116483368D01*
X149406210Y-116361928D01*
X149394846Y-116338567D01*
X149346067Y-116204023D01*
X149339819Y-116178804D01*
X149319245Y-116030556D01*
X149318135Y-116017600D01*
X149317257Y-115990964D01*
X149317256Y-115990962D01*
X149306470Y-115663763D01*
X149274817Y-115623456D01*
X149064083Y-115355110D01*
X149064080Y-115355108D01*
X149053774Y-115341984D01*
X148916678Y-115167409D01*
X148908802Y-115156146D01*
X148803055Y-114985499D01*
X148791264Y-114960699D01*
X148727934Y-114777517D01*
X148721890Y-114750731D01*
X148699662Y-114551211D01*
X148698900Y-114537481D01*
X148698900Y-112372286D01*
X148699680Y-112358403D01*
X148715293Y-112219828D01*
X148721471Y-112192757D01*
X148765219Y-112067732D01*
X148777265Y-112042717D01*
X148847739Y-111930558D01*
X148865044Y-111908859D01*
X148958707Y-111815196D01*
X148980406Y-111797891D01*
X149092565Y-111727417D01*
X149117580Y-111715371D01*
X149242605Y-111671623D01*
X149269673Y-111665445D01*
X149401363Y-111650607D01*
X149428981Y-111650591D01*
X149561816Y-111665397D01*
G37*
%TD.AperFunction*%
%TD*%
%TA.AperFunction,Conductor*%
%TO.N,GND*%
G36*
X150676099Y-121697172D02*
G01*
X150696516Y-121717588D01*
X150725881Y-121761536D01*
X150725883Y-121761538D01*
X150725886Y-121761542D01*
X150823458Y-121859114D01*
X150938189Y-121935775D01*
X150938190Y-121935775D01*
X150938191Y-121935776D01*
X151029461Y-121973581D01*
X151065672Y-121988580D01*
X151074067Y-121990249D01*
X151121159Y-122021714D01*
X151132211Y-122077262D01*
X151127999Y-122091146D01*
X151076421Y-122215667D01*
X151076418Y-122215677D01*
X151060701Y-122294694D01*
X151049500Y-122351007D01*
X151049500Y-122488993D01*
X151054031Y-122511773D01*
X151076418Y-122624322D01*
X151076420Y-122624327D01*
X151083423Y-122641235D01*
X151083421Y-122697872D01*
X151044782Y-122736509D01*
X151044885Y-122736711D01*
X151044265Y-122737026D01*
X151043372Y-122737920D01*
X151040257Y-122739069D01*
X151039698Y-122739353D01*
X151039696Y-122739354D01*
X150944665Y-122787775D01*
X150926656Y-122796951D01*
X150917326Y-122806282D01*
X150865000Y-122827956D01*
X150812674Y-122806282D01*
X150803343Y-122796951D01*
X150803342Y-122796950D01*
X150690304Y-122739354D01*
X150690302Y-122739353D01*
X150690301Y-122739353D01*
X150596519Y-122724500D01*
X150333481Y-122724500D01*
X150333478Y-122724501D01*
X150276575Y-122733512D01*
X150253426Y-122733512D01*
X150196521Y-122724500D01*
X149933481Y-122724500D01*
X149933478Y-122724501D01*
X149876575Y-122733512D01*
X149853426Y-122733512D01*
X149796521Y-122724500D01*
X149796519Y-122724500D01*
X149699814Y-122724500D01*
X149647488Y-122702826D01*
X149643544Y-122698559D01*
X149617245Y-122667767D01*
X149617242Y-122667765D01*
X149617241Y-122667763D01*
X149573951Y-122641235D01*
X149509071Y-122601476D01*
X149470165Y-122585360D01*
X149456214Y-122580214D01*
X149414624Y-122541769D01*
X149408737Y-122499213D01*
X149415500Y-122456519D01*
X149415499Y-122193482D01*
X149406486Y-122136573D01*
X149406486Y-122113427D01*
X149415500Y-122056519D01*
X149415499Y-121874805D01*
X149437173Y-121822480D01*
X149489499Y-121800806D01*
X149541823Y-121822479D01*
X149563458Y-121844114D01*
X149678189Y-121920775D01*
X149678190Y-121920775D01*
X149678191Y-121920776D01*
X149780484Y-121963147D01*
X149805672Y-121973580D01*
X149941007Y-122000500D01*
X149941009Y-122000500D01*
X150078991Y-122000500D01*
X150078993Y-122000500D01*
X150214328Y-121973580D01*
X150341811Y-121920775D01*
X150456542Y-121844114D01*
X150554114Y-121746542D01*
X150573459Y-121717589D01*
X150620550Y-121686123D01*
X150676099Y-121697172D01*
G37*
%TD.AperFunction*%
%TD*%
%TA.AperFunction,Conductor*%
%TO.N,/PowerManagament/VBUS*%
G36*
X137387211Y-117339685D02*
G01*
X137423804Y-117375909D01*
X138665000Y-119265000D01*
X137350000Y-122420000D01*
X137344047Y-122425952D01*
X137340788Y-122442547D01*
X137019001Y-123230110D01*
X136975422Y-123284724D01*
X136909235Y-123307107D01*
X136908075Y-123307149D01*
X136117991Y-123331768D01*
X136050371Y-123314181D01*
X136002994Y-123262827D01*
X135992512Y-123232019D01*
X135966502Y-123101263D01*
X135966501Y-123101256D01*
X135917465Y-122982873D01*
X135917464Y-122982870D01*
X135846277Y-122876331D01*
X135846271Y-122876324D01*
X135736319Y-122766372D01*
X135702834Y-122705049D01*
X135700000Y-122678691D01*
X135700000Y-119610537D01*
X135719685Y-119543498D01*
X135724709Y-119536260D01*
X135783796Y-119457331D01*
X135834091Y-119322483D01*
X135840500Y-119262873D01*
X135840499Y-118467128D01*
X135834091Y-118407517D01*
X135783796Y-118272669D01*
X135724733Y-118193771D01*
X135700316Y-118128307D01*
X135700000Y-118119460D01*
X135700000Y-117710537D01*
X135719685Y-117643498D01*
X135724709Y-117636260D01*
X135783796Y-117557331D01*
X135834091Y-117422483D01*
X135834091Y-117422478D01*
X135835743Y-117415490D01*
X135870314Y-117354772D01*
X135932224Y-117322384D01*
X135956421Y-117320000D01*
X137320172Y-117320000D01*
X137387211Y-117339685D01*
G37*
%TD.AperFunction*%
%TD*%
%TA.AperFunction,Conductor*%
%TO.N,Net-(U202-SW2)*%
G36*
X151774318Y-111671555D02*
G01*
X151906721Y-111686474D01*
X151933793Y-111692652D01*
X152059498Y-111736638D01*
X152084515Y-111748686D01*
X152197275Y-111819538D01*
X152218984Y-111836851D01*
X152313148Y-111931015D01*
X152330461Y-111952724D01*
X152401313Y-112065484D01*
X152413361Y-112090501D01*
X152457347Y-112216206D01*
X152463525Y-112243277D01*
X152479220Y-112382568D01*
X152480000Y-112396452D01*
X152480000Y-114538897D01*
X152479238Y-114552627D01*
X152457009Y-114752147D01*
X152450965Y-114778933D01*
X152387635Y-114962115D01*
X152375844Y-114986915D01*
X152270097Y-115157562D01*
X152262217Y-115168831D01*
X152010000Y-115489999D01*
X151999213Y-115817202D01*
X151994920Y-115947401D01*
X151993810Y-115960361D01*
X151967700Y-116148498D01*
X151961452Y-116173716D01*
X151898945Y-116346125D01*
X151887581Y-116369486D01*
X151790524Y-116525088D01*
X151774540Y-116545570D01*
X151642646Y-116682243D01*
X151633135Y-116691117D01*
X151427664Y-116863567D01*
X151411400Y-116875121D01*
X151341630Y-116916676D01*
X151304642Y-116931284D01*
X151235212Y-116946451D01*
X151195498Y-116948598D01*
X151124835Y-116941004D01*
X151086487Y-116930469D01*
X151021862Y-116900896D01*
X151019368Y-116899225D01*
X151017779Y-116898936D01*
X150988819Y-116878761D01*
X150936881Y-116830250D01*
X150912548Y-116798796D01*
X150878637Y-116736337D01*
X150865512Y-116698797D01*
X150851349Y-116618823D01*
X150849463Y-116598978D01*
X150832945Y-115437117D01*
X150833438Y-115424169D01*
X150849493Y-115247044D01*
X150854508Y-115221649D01*
X150907009Y-115051700D01*
X150911470Y-115039555D01*
X150987835Y-114861048D01*
X151028912Y-112396278D01*
X151029904Y-112382560D01*
X151047784Y-112243277D01*
X151047907Y-112242321D01*
X151054400Y-112215637D01*
X151100466Y-112089318D01*
X151112673Y-112064722D01*
X151185427Y-111951641D01*
X151202754Y-111930333D01*
X151298617Y-111836054D01*
X151320213Y-111819083D01*
X151434484Y-111748227D01*
X151459284Y-111736429D01*
X151586360Y-111692472D01*
X151613142Y-111686426D01*
X151746701Y-111671539D01*
X151774318Y-111671555D01*
G37*
%TD.AperFunction*%
%TD*%
%TA.AperFunction,Conductor*%
%TO.N,/MCU/3V3_esp32*%
G36*
X134823039Y-90142185D02*
G01*
X134868794Y-90194989D01*
X134880000Y-90246500D01*
X134880000Y-91098500D01*
X134860315Y-91165539D01*
X134807511Y-91211294D01*
X134756000Y-91222500D01*
X131886451Y-91222500D01*
X131819412Y-91202815D01*
X131773657Y-91150011D01*
X131763713Y-91080853D01*
X131779719Y-91035379D01*
X131862031Y-90896195D01*
X131904504Y-90750000D01*
X131224000Y-90750000D01*
X131156961Y-90730315D01*
X131111206Y-90677511D01*
X131100000Y-90626000D01*
X131100000Y-90374000D01*
X131119685Y-90306961D01*
X131172489Y-90261206D01*
X131224000Y-90250000D01*
X131904505Y-90250000D01*
X131913661Y-90237803D01*
X131913738Y-90211225D01*
X131951681Y-90152555D01*
X132015319Y-90123712D01*
X132032615Y-90122500D01*
X134756000Y-90122500D01*
X134823039Y-90142185D01*
G37*
%TD.AperFunction*%
%TD*%
%TA.AperFunction,Conductor*%
%TO.N,/PowerManagament/VBAT*%
G36*
X166343608Y-118978223D02*
G01*
X166388818Y-119031495D01*
X166399500Y-119081844D01*
X166399500Y-129027596D01*
X166379815Y-129094635D01*
X166327011Y-129140390D01*
X166274181Y-129151589D01*
X163966197Y-129127037D01*
X163966182Y-129127037D01*
X163855990Y-129137996D01*
X163803155Y-129149196D01*
X163697994Y-129183887D01*
X163697991Y-129183888D01*
X163576960Y-129261671D01*
X163576949Y-129261680D01*
X163524157Y-129307424D01*
X163429932Y-129416163D01*
X163429928Y-129416169D01*
X163370161Y-129547039D01*
X163350475Y-129614082D01*
X163329903Y-129757163D01*
X163300878Y-129820719D01*
X163242099Y-129858493D01*
X163231360Y-129861133D01*
X163191945Y-129868974D01*
X163126068Y-129892215D01*
X163126053Y-129892221D01*
X163029423Y-129942768D01*
X162960896Y-129956398D01*
X162924497Y-129947453D01*
X162798501Y-129895264D01*
X162798489Y-129895261D01*
X162643845Y-129864500D01*
X162643842Y-129864500D01*
X162486158Y-129864500D01*
X162486156Y-129864500D01*
X162325530Y-129896451D01*
X162325051Y-129894046D01*
X162265944Y-129894544D01*
X162212194Y-129862958D01*
X161971818Y-129622582D01*
X161938333Y-129561259D01*
X161935499Y-129534901D01*
X161935499Y-126397129D01*
X161935498Y-126397123D01*
X161929091Y-126337516D01*
X161878797Y-126202671D01*
X161878793Y-126202664D01*
X161792547Y-126087455D01*
X161792544Y-126087452D01*
X161677335Y-126001206D01*
X161677328Y-126001202D01*
X161542482Y-125950908D01*
X161542483Y-125950908D01*
X161482883Y-125944501D01*
X161482881Y-125944500D01*
X161482873Y-125944500D01*
X161482865Y-125944500D01*
X161072486Y-125944500D01*
X161005447Y-125924815D01*
X160959692Y-125872011D01*
X160948514Y-125817843D01*
X160957105Y-125416938D01*
X160975507Y-124558376D01*
X160996623Y-124491780D01*
X161013059Y-124472115D01*
X161080271Y-124406810D01*
X161131774Y-124348405D01*
X161154692Y-124317980D01*
X161196616Y-124252354D01*
X161250900Y-124150919D01*
X161282247Y-124079630D01*
X161294848Y-124043684D01*
X161314872Y-123968434D01*
X161337568Y-123845781D01*
X161343174Y-123807236D01*
X161345193Y-123788242D01*
X161347816Y-123749350D01*
X161382965Y-122527887D01*
X161382818Y-122494381D01*
X161382202Y-122477974D01*
X161379841Y-122444598D01*
X161368725Y-122337821D01*
X161357404Y-122271860D01*
X161349736Y-122240005D01*
X161329796Y-122176106D01*
X161307803Y-122119192D01*
X161302003Y-122049565D01*
X161334767Y-121987853D01*
X161395693Y-121953651D01*
X161423470Y-121950500D01*
X161870419Y-121950500D01*
X161875973Y-121950286D01*
X161909311Y-121949002D01*
X161928334Y-121947534D01*
X161966999Y-121943047D01*
X162090134Y-121923928D01*
X162165861Y-121906112D01*
X162202119Y-121894574D01*
X162274202Y-121865356D01*
X162377068Y-121814121D01*
X162443820Y-121774188D01*
X162474874Y-121752199D01*
X162534718Y-121702489D01*
X162617209Y-121622470D01*
X162668714Y-121564168D01*
X162691637Y-121533798D01*
X162691643Y-121533787D01*
X162691655Y-121533771D01*
X162733566Y-121468317D01*
X162733581Y-121468294D01*
X162787924Y-121367031D01*
X162815264Y-121305063D01*
X162860333Y-121251678D01*
X162927114Y-121231131D01*
X162994401Y-121249951D01*
X163040832Y-121302161D01*
X163044893Y-121311788D01*
X163071202Y-121382328D01*
X163071206Y-121382335D01*
X163157452Y-121497544D01*
X163157455Y-121497547D01*
X163272664Y-121583793D01*
X163272671Y-121583797D01*
X163407517Y-121634091D01*
X163407516Y-121634091D01*
X163414444Y-121634835D01*
X163467127Y-121640500D01*
X164262872Y-121640499D01*
X164322483Y-121634091D01*
X164457331Y-121583796D01*
X164572546Y-121497546D01*
X164658796Y-121382331D01*
X164709091Y-121247483D01*
X164715500Y-121187873D01*
X164715499Y-119842128D01*
X164709091Y-119782517D01*
X164708152Y-119780000D01*
X164658797Y-119647671D01*
X164658793Y-119647664D01*
X164572547Y-119532455D01*
X164572544Y-119532452D01*
X164457335Y-119446206D01*
X164457328Y-119446202D01*
X164322482Y-119395908D01*
X164322483Y-119395908D01*
X164262883Y-119389501D01*
X164262881Y-119389500D01*
X164262873Y-119389500D01*
X164262865Y-119389500D01*
X164190808Y-119389500D01*
X164161367Y-119380855D01*
X164131381Y-119374332D01*
X164126365Y-119370577D01*
X164123769Y-119369815D01*
X164103127Y-119353181D01*
X164087368Y-119337422D01*
X164053883Y-119276099D01*
X164058867Y-119206407D01*
X164100739Y-119150474D01*
X164166203Y-119126057D01*
X164174917Y-119125741D01*
X165681815Y-119124410D01*
X165715096Y-119123284D01*
X165731381Y-119122195D01*
X165764488Y-119118883D01*
X165870279Y-119104772D01*
X165935513Y-119091653D01*
X165966954Y-119083143D01*
X166029896Y-119061570D01*
X166120748Y-119023580D01*
X166120750Y-119023580D01*
X166120752Y-119023578D01*
X166120759Y-119023576D01*
X166180321Y-118993924D01*
X166208462Y-118977520D01*
X166208468Y-118977515D01*
X166208473Y-118977513D01*
X166209537Y-118976845D01*
X166209697Y-118976799D01*
X166210227Y-118976491D01*
X166210306Y-118976627D01*
X166276775Y-118957851D01*
X166343608Y-118978223D01*
G37*
%TD.AperFunction*%
%TD*%
%TA.AperFunction,Conductor*%
%TO.N,Net-(U202-PMID)*%
G36*
X140822009Y-116677950D02*
G01*
X140839138Y-116682292D01*
X140848561Y-116684194D01*
X140868527Y-116687212D01*
X141056539Y-116706241D01*
X141066599Y-116707011D01*
X141069482Y-116707160D01*
X141071401Y-116707260D01*
X141072753Y-116707296D01*
X141081503Y-116707534D01*
X147957035Y-116725430D01*
X147990249Y-116738523D01*
X148291021Y-117017811D01*
X149245201Y-117903835D01*
X149263842Y-117921144D01*
X149279466Y-117955237D01*
X149279500Y-117957051D01*
X149279500Y-118253488D01*
X149295281Y-118353126D01*
X149295281Y-118353127D01*
X149295282Y-118353129D01*
X149356467Y-118473213D01*
X149356472Y-118473220D01*
X149451779Y-118568527D01*
X149451786Y-118568532D01*
X149516630Y-118601571D01*
X149571874Y-118629719D01*
X149671512Y-118645500D01*
X149830356Y-118645500D01*
X149865004Y-118659852D01*
X149879356Y-118694500D01*
X149879356Y-119261948D01*
X149878472Y-119271214D01*
X149855213Y-119391987D01*
X149848330Y-119409194D01*
X149786759Y-119505092D01*
X149767044Y-119522641D01*
X149745553Y-119533146D01*
X149711648Y-119536532D01*
X149692826Y-119531614D01*
X149664908Y-119512071D01*
X149648511Y-119488354D01*
X149641337Y-119472602D01*
X149627021Y-119416489D01*
X149625500Y-119404376D01*
X149625500Y-119315003D01*
X149625500Y-119315000D01*
X149609858Y-119236359D01*
X149593749Y-119197468D01*
X149587537Y-119187582D01*
X149559778Y-119143403D01*
X149553788Y-119129446D01*
X149545000Y-119095000D01*
X149544999Y-119094999D01*
X149491114Y-119087979D01*
X149478695Y-119084661D01*
X149462887Y-119078114D01*
X149443641Y-119070142D01*
X149365000Y-119054500D01*
X149237285Y-119054500D01*
X149230955Y-119054089D01*
X149061710Y-119032041D01*
X149057368Y-119031276D01*
X148976094Y-119013140D01*
X148967703Y-119010456D01*
X148890995Y-118978061D01*
X148887014Y-118976164D01*
X148460543Y-118748905D01*
X148460531Y-118748898D01*
X148460531Y-118748899D01*
X148459467Y-118748332D01*
X148350000Y-118690000D01*
X148225961Y-118689596D01*
X148225958Y-118689596D01*
X148225955Y-118689595D01*
X141166580Y-118666631D01*
X141160198Y-118666192D01*
X141040659Y-118650091D01*
X141028338Y-118646754D01*
X140920004Y-118601571D01*
X140908963Y-118595165D01*
X140815972Y-118523531D01*
X140806960Y-118514490D01*
X140775381Y-118473220D01*
X140735625Y-118421263D01*
X140729256Y-118410202D01*
X140705670Y-118353129D01*
X140684424Y-118301719D01*
X140681129Y-118289396D01*
X140665417Y-118169797D01*
X140665000Y-118163415D01*
X140665000Y-116999855D01*
X140665415Y-116993494D01*
X140681019Y-116874305D01*
X140684292Y-116862019D01*
X140728830Y-116753837D01*
X140735153Y-116742811D01*
X140770992Y-116695756D01*
X140803399Y-116676891D01*
X140822009Y-116677950D01*
G37*
%TD.AperFunction*%
%TD*%
%TA.AperFunction,Conductor*%
%TO.N,/MCU/3V3_esp32*%
G36*
X126943039Y-73525185D02*
G01*
X126988794Y-73577989D01*
X127000000Y-73629500D01*
X127000000Y-73976000D01*
X126980315Y-74043039D01*
X126927511Y-74088794D01*
X126876000Y-74100000D01*
X125838622Y-74100000D01*
X125788535Y-74089434D01*
X125749992Y-74072415D01*
X125724865Y-74069500D01*
X124835143Y-74069500D01*
X124835117Y-74069502D01*
X124810012Y-74072413D01*
X124810008Y-74072415D01*
X124707235Y-74117793D01*
X124627794Y-74197234D01*
X124582415Y-74300006D01*
X124582415Y-74300008D01*
X124579500Y-74325131D01*
X124579500Y-74533411D01*
X124567386Y-74586867D01*
X124355928Y-75029456D01*
X124309266Y-75081460D01*
X124244042Y-75100000D01*
X119824000Y-75100000D01*
X119756961Y-75080315D01*
X119711206Y-75027511D01*
X119700000Y-74976000D01*
X119700000Y-73924000D01*
X119719685Y-73856961D01*
X119772489Y-73811206D01*
X119824000Y-73800000D01*
X120700000Y-73800000D01*
X120784160Y-73732672D01*
X120848806Y-73706164D01*
X120861622Y-73705500D01*
X121430350Y-73705500D01*
X121430353Y-73705500D01*
X121487390Y-73700128D01*
X121532880Y-73691483D01*
X121532891Y-73691479D01*
X121532895Y-73691479D01*
X121585157Y-73676354D01*
X121587918Y-73675555D01*
X121679069Y-73639608D01*
X121709778Y-73631848D01*
X121717818Y-73630883D01*
X121732589Y-73630000D01*
X123067413Y-73630000D01*
X123082179Y-73630882D01*
X123090227Y-73631848D01*
X123120935Y-73639609D01*
X123212081Y-73675554D01*
X123267120Y-73691483D01*
X123312610Y-73700128D01*
X123369647Y-73705500D01*
X123369650Y-73705500D01*
X124075990Y-73705500D01*
X124076000Y-73705500D01*
X124140941Y-73698518D01*
X124192452Y-73687312D01*
X124230658Y-73676354D01*
X124327571Y-73619675D01*
X124380375Y-73573920D01*
X124408178Y-73544433D01*
X124468491Y-73509161D01*
X124498398Y-73505500D01*
X126876000Y-73505500D01*
X126943039Y-73525185D01*
G37*
%TD.AperFunction*%
%TD*%
%TA.AperFunction,Conductor*%
%TO.N,GND*%
G36*
X166293907Y-111469685D02*
G01*
X166339662Y-111522489D01*
X166350732Y-111579797D01*
X166173118Y-115374766D01*
X166150321Y-115440812D01*
X166095436Y-115484048D01*
X166025888Y-115490748D01*
X166008627Y-115485907D01*
X166008572Y-115486072D01*
X166006672Y-115485432D01*
X166006663Y-115485428D01*
X165944441Y-115464461D01*
X165929795Y-115460564D01*
X165913385Y-115456198D01*
X165848942Y-115443469D01*
X165744446Y-115429808D01*
X165711772Y-115426613D01*
X165695708Y-115425568D01*
X165695702Y-115425567D01*
X165695690Y-115425567D01*
X165662865Y-115424500D01*
X162127803Y-115424500D01*
X162094822Y-115426076D01*
X162079594Y-115426804D01*
X162056078Y-115429056D01*
X162056072Y-115429057D01*
X162008265Y-115435953D01*
X161948078Y-115447595D01*
X161948073Y-115447596D01*
X161855581Y-115474856D01*
X161855564Y-115474862D01*
X161811871Y-115492423D01*
X161726226Y-115536759D01*
X161684919Y-115563424D01*
X161684912Y-115563428D01*
X161609243Y-115623222D01*
X161586877Y-115644661D01*
X161586870Y-115644668D01*
X161575246Y-115655812D01*
X161542380Y-115693973D01*
X161531263Y-115691871D01*
X161496967Y-114210922D01*
X153776617Y-114225034D01*
X153776611Y-114225033D01*
X153776614Y-114225033D01*
X153758094Y-114221530D01*
X153750000Y-114220000D01*
X153749999Y-114220000D01*
X153745635Y-114225090D01*
X153745634Y-114225091D01*
X153005499Y-114226444D01*
X153005499Y-111647128D01*
X152999091Y-111587517D01*
X152999063Y-111587253D01*
X153011470Y-111518494D01*
X153059081Y-111467357D01*
X153122353Y-111450000D01*
X166226868Y-111450000D01*
X166293907Y-111469685D01*
G37*
%TD.AperFunction*%
%TD*%
%TA.AperFunction,Conductor*%
%TO.N,/MCU/3V3_esp32*%
G36*
X120943039Y-96294685D02*
G01*
X120988794Y-96347489D01*
X121000000Y-96399000D01*
X121000000Y-98951000D01*
X120980315Y-99018039D01*
X120927511Y-99063794D01*
X120876000Y-99075000D01*
X120024000Y-99075000D01*
X119956961Y-99055315D01*
X119911206Y-99002511D01*
X119900000Y-98951000D01*
X119900000Y-96399000D01*
X119919685Y-96331961D01*
X119972489Y-96286206D01*
X120024000Y-96275000D01*
X120876000Y-96275000D01*
X120943039Y-96294685D01*
G37*
%TD.AperFunction*%
%TD*%
%TA.AperFunction,Conductor*%
%TO.N,/PowerManagament/Solar 5-20V*%
G36*
X130731164Y-114466150D02*
G01*
X130790255Y-114464387D01*
X130837551Y-114488500D01*
X130912666Y-114550145D01*
X130929854Y-114567333D01*
X131038722Y-114699989D01*
X131052227Y-114720201D01*
X131133121Y-114871543D01*
X131142424Y-114894001D01*
X131192240Y-115058224D01*
X131196982Y-115082065D01*
X131214403Y-115258938D01*
X131215000Y-115271092D01*
X131215000Y-115316466D01*
X131210775Y-115348559D01*
X131188500Y-115431691D01*
X131188500Y-118349862D01*
X131168815Y-118416901D01*
X131128626Y-118455993D01*
X131122349Y-118459785D01*
X131070197Y-118506295D01*
X131070191Y-118506300D01*
X131028660Y-118551626D01*
X130993752Y-118622777D01*
X130971098Y-118647501D01*
X130949047Y-118672743D01*
X130947582Y-118673166D01*
X130946551Y-118674292D01*
X130914138Y-118682840D01*
X130881929Y-118692157D01*
X130879932Y-118691861D01*
X130878991Y-118692110D01*
X130847015Y-118686993D01*
X130812496Y-118676706D01*
X130811030Y-118676243D01*
X130810595Y-118676140D01*
X130810589Y-118676139D01*
X130771314Y-118670331D01*
X130668258Y-118655091D01*
X122703830Y-118623105D01*
X122590932Y-118635409D01*
X122590929Y-118635409D01*
X122590926Y-118635410D01*
X122537143Y-118647501D01*
X122536912Y-118647553D01*
X122429618Y-118684747D01*
X122309989Y-118764683D01*
X122258009Y-118811374D01*
X122165752Y-118921766D01*
X122165747Y-118921773D01*
X122108323Y-119053697D01*
X122108322Y-119053700D01*
X122100793Y-119081144D01*
X122088433Y-119101150D01*
X122080105Y-119123142D01*
X122070411Y-119130322D01*
X122064071Y-119140586D01*
X122042857Y-119150734D01*
X122023962Y-119164732D01*
X122011925Y-119165532D01*
X122001043Y-119170738D01*
X121977709Y-119167806D01*
X121954246Y-119169366D01*
X121943687Y-119163531D01*
X121931718Y-119162028D01*
X121913673Y-119146946D01*
X121893092Y-119135574D01*
X121881754Y-119120269D01*
X121878107Y-119117221D01*
X121872083Y-119107214D01*
X121818324Y-119007576D01*
X121808931Y-118985144D01*
X121758465Y-118821036D01*
X121753630Y-118797200D01*
X121735542Y-118620287D01*
X121734901Y-118608154D01*
X121728703Y-116915882D01*
X121729259Y-116903697D01*
X121746135Y-116726231D01*
X121750818Y-116702304D01*
X121800328Y-116537449D01*
X121809600Y-116514904D01*
X121890416Y-116362917D01*
X121903920Y-116342625D01*
X121998431Y-116227092D01*
X122056113Y-116187669D01*
X122125955Y-116185688D01*
X122150603Y-116195073D01*
X122235889Y-116238439D01*
X122235891Y-116238439D01*
X122235892Y-116238440D01*
X122289064Y-116254053D01*
X122302928Y-116258124D01*
X122389000Y-116270500D01*
X122389003Y-116270500D01*
X128040990Y-116270500D01*
X128041000Y-116270500D01*
X128105941Y-116263518D01*
X128157452Y-116252312D01*
X128195658Y-116241354D01*
X128292571Y-116184675D01*
X128345375Y-116138920D01*
X128345382Y-116138912D01*
X128345387Y-116138908D01*
X128387548Y-116094192D01*
X128387553Y-116094187D01*
X128438439Y-115994111D01*
X128438442Y-115994099D01*
X128439738Y-115990838D01*
X128440781Y-115989502D01*
X128441037Y-115989001D01*
X128441135Y-115989050D01*
X128482772Y-115935794D01*
X128548734Y-115912755D01*
X128555101Y-115912597D01*
X128555496Y-115912598D01*
X128510643Y-115095990D01*
X128510689Y-115081603D01*
X128512123Y-115058224D01*
X128520439Y-114922609D01*
X128525507Y-114894336D01*
X128569492Y-114748792D01*
X128580932Y-114722443D01*
X128657235Y-114590927D01*
X128674430Y-114567921D01*
X128729961Y-114509256D01*
X128790343Y-114474102D01*
X128820014Y-114470500D01*
X130658668Y-114470500D01*
X130660588Y-114470397D01*
X130691326Y-114468749D01*
X130717684Y-114465915D01*
X130724689Y-114465080D01*
X130724698Y-114465076D01*
X130730640Y-114463769D01*
X130731164Y-114466150D01*
G37*
%TD.AperFunction*%
%TD*%
%TA.AperFunction,Conductor*%
%TO.N,Net-(Q404-D)*%
G36*
X163523621Y-67455967D02*
G01*
X163569376Y-67508771D01*
X163577752Y-67533941D01*
X164097170Y-69923263D01*
X164100000Y-69949604D01*
X164100000Y-70912282D01*
X164080315Y-70979321D01*
X164027511Y-71025076D01*
X163976000Y-71036282D01*
X162824000Y-71036282D01*
X162756961Y-71016597D01*
X162711206Y-70963793D01*
X162700000Y-70912282D01*
X162700000Y-69944331D01*
X162701042Y-69928293D01*
X163012005Y-67544244D01*
X163040195Y-67480314D01*
X163098473Y-67441773D01*
X163134963Y-67436282D01*
X163456582Y-67436282D01*
X163523621Y-67455967D01*
G37*
%TD.AperFunction*%
%TD*%
%TA.AperFunction,Conductor*%
%TO.N,GND*%
G36*
X123043039Y-96294685D02*
G01*
X123088794Y-96347489D01*
X123100000Y-96399000D01*
X123100000Y-97156275D01*
X123080315Y-97223314D01*
X123027511Y-97269069D01*
X122958353Y-97279013D01*
X122951814Y-97277893D01*
X122934754Y-97274500D01*
X122934748Y-97274500D01*
X122365252Y-97274500D01*
X122365247Y-97274500D01*
X122306770Y-97286131D01*
X122296081Y-97290560D01*
X122248626Y-97300000D01*
X122000000Y-97300000D01*
X122000000Y-101551000D01*
X121980315Y-101618039D01*
X121927511Y-101663794D01*
X121876000Y-101675000D01*
X121524000Y-101675000D01*
X121456961Y-101655315D01*
X121411206Y-101602511D01*
X121400000Y-101551000D01*
X121400000Y-96399000D01*
X121419685Y-96331961D01*
X121472489Y-96286206D01*
X121524000Y-96275000D01*
X122976000Y-96275000D01*
X123043039Y-96294685D01*
G37*
%TD.AperFunction*%
%TD*%
%TA.AperFunction,Conductor*%
%TO.N,Net-(U202-SW1)*%
G36*
X150242995Y-120285914D02*
G01*
X150290606Y-120337051D01*
X150303720Y-120391736D01*
X150309173Y-121215179D01*
X150289933Y-121282347D01*
X150237433Y-121328451D01*
X150185176Y-121340000D01*
X149834000Y-121340000D01*
X149766961Y-121320315D01*
X149721206Y-121267511D01*
X149710000Y-121216000D01*
X149710000Y-120703800D01*
X149719203Y-120672456D01*
X149727208Y-120640781D01*
X149729253Y-120638229D01*
X149729685Y-120636761D01*
X149749285Y-120613249D01*
X149877977Y-120492859D01*
X149938496Y-120461797D01*
X149953231Y-120458867D01*
X150019552Y-120414552D01*
X150063867Y-120348231D01*
X150063868Y-120348225D01*
X150065161Y-120345106D01*
X150069810Y-120339335D01*
X150070652Y-120338077D01*
X150070764Y-120338152D01*
X150109002Y-120290702D01*
X150175295Y-120268636D01*
X150242995Y-120285914D01*
G37*
%TD.AperFunction*%
%TD*%
%TA.AperFunction,Conductor*%
%TO.N,GND*%
G36*
X160374667Y-121990691D02*
G01*
X160391025Y-121991933D01*
X160497315Y-122007133D01*
X160528846Y-122016014D01*
X160619817Y-122055234D01*
X160647924Y-122072065D01*
X160725444Y-122133739D01*
X160748165Y-122157347D01*
X160806826Y-122237174D01*
X160822569Y-122265907D01*
X160858274Y-122358308D01*
X160865942Y-122390163D01*
X160877058Y-122496940D01*
X160877674Y-122513347D01*
X160845243Y-123640380D01*
X160845243Y-123640381D01*
X160842525Y-123734810D01*
X160840506Y-123753804D01*
X160817810Y-123876457D01*
X160805209Y-123912403D01*
X160750925Y-124013838D01*
X160728007Y-124044263D01*
X160645500Y-124124430D01*
X160614428Y-124146464D01*
X160511474Y-124197807D01*
X160475181Y-124209369D01*
X160351920Y-124228529D01*
X160332874Y-124230000D01*
X155284758Y-124230000D01*
X155265359Y-124228473D01*
X155257026Y-124227153D01*
X155195806Y-124217456D01*
X155132672Y-124187526D01*
X155127525Y-124182664D01*
X155001819Y-124056958D01*
X154968334Y-123995635D01*
X154965500Y-123969277D01*
X154965500Y-123625439D01*
X154965500Y-123625438D01*
X154945021Y-123549011D01*
X154936128Y-123533608D01*
X154901397Y-123473450D01*
X154903891Y-123472009D01*
X154896465Y-123452383D01*
X154884037Y-123420241D01*
X154884130Y-123419785D01*
X154883965Y-123419348D01*
X154891156Y-123385516D01*
X154898071Y-123351795D01*
X154898428Y-123351308D01*
X154898493Y-123351006D01*
X154919502Y-123322660D01*
X154990080Y-123251410D01*
X155021133Y-123228578D01*
X155133283Y-123170493D01*
X155151079Y-123162973D01*
X156501402Y-122712865D01*
X156571222Y-122710341D01*
X156602606Y-122723114D01*
X156701887Y-122780434D01*
X156829181Y-122814542D01*
X156829183Y-122814542D01*
X156960963Y-122814542D01*
X156960965Y-122814542D01*
X157088259Y-122780434D01*
X157202387Y-122714542D01*
X157295573Y-122621356D01*
X157361465Y-122507228D01*
X157368043Y-122482676D01*
X157404404Y-122423017D01*
X157448600Y-122397133D01*
X158631255Y-122002914D01*
X158641107Y-122000078D01*
X158706506Y-121984148D01*
X158726767Y-121980960D01*
X158793887Y-121976032D01*
X158804146Y-121975706D01*
X160374667Y-121990691D01*
G37*
%TD.AperFunction*%
%TD*%
%TA.AperFunction,Conductor*%
%TO.N,Net-(U202-SW2)*%
G36*
X151039792Y-119861156D02*
G01*
X151158947Y-119863928D01*
X151193251Y-119879082D01*
X151206770Y-119911032D01*
X151225000Y-120385000D01*
X151277889Y-120425526D01*
X151288828Y-120437196D01*
X151310447Y-120469552D01*
X151349726Y-120495797D01*
X151376769Y-120513867D01*
X151387749Y-120516051D01*
X151407990Y-120525214D01*
X151590802Y-120665290D01*
X151609576Y-120697756D01*
X151610000Y-120704185D01*
X151610000Y-121321000D01*
X151595648Y-121355648D01*
X151561000Y-121370000D01*
X151029392Y-121370000D01*
X150994744Y-121355648D01*
X150980392Y-121321000D01*
X150980393Y-121320676D01*
X150989736Y-119909821D01*
X151004317Y-119875268D01*
X151039059Y-119861146D01*
X151039792Y-119861156D01*
G37*
%TD.AperFunction*%
%TD*%
%TA.AperFunction,Conductor*%
%TO.N,/MCU/VSYS*%
G36*
X165678939Y-115931046D02*
G01*
X165688194Y-115932256D01*
X165783412Y-115944704D01*
X165814474Y-115952968D01*
X165904394Y-115989931D01*
X165932290Y-116005904D01*
X166009679Y-116064738D01*
X166032535Y-116087350D01*
X166092199Y-116164105D01*
X166108472Y-116191830D01*
X166146397Y-116281339D01*
X166154997Y-116312319D01*
X166169777Y-116416630D01*
X166170996Y-116432692D01*
X166176024Y-116900177D01*
X166176024Y-116900178D01*
X166188983Y-118105349D01*
X166188084Y-118121646D01*
X166175203Y-118227602D01*
X166167059Y-118259141D01*
X166130126Y-118350436D01*
X166114051Y-118378764D01*
X166054618Y-118457294D01*
X166031720Y-118480460D01*
X165953889Y-118540802D01*
X165925748Y-118557206D01*
X165834885Y-118595200D01*
X165803444Y-118603710D01*
X165697653Y-118617821D01*
X165681368Y-118618910D01*
X153356708Y-118629808D01*
X153356705Y-118629808D01*
X153194176Y-118629952D01*
X153139999Y-118630000D01*
X153025645Y-118769305D01*
X153002500Y-118797500D01*
X152990504Y-118812112D01*
X152980298Y-118823111D01*
X152909202Y-118890986D01*
X152885166Y-118908920D01*
X152806432Y-118953978D01*
X152778795Y-118965616D01*
X152684262Y-118992528D01*
X152669592Y-118995758D01*
X152557494Y-119013403D01*
X152216798Y-119067030D01*
X152173334Y-119066157D01*
X152165002Y-119064500D01*
X152165000Y-119064500D01*
X151965000Y-119064500D01*
X151964996Y-119064500D01*
X151886366Y-119080140D01*
X151886363Y-119080141D01*
X151886359Y-119080142D01*
X151847468Y-119096251D01*
X151847465Y-119096253D01*
X151819223Y-119113998D01*
X151819220Y-119113999D01*
X151789174Y-119132880D01*
X151788005Y-119134526D01*
X151785000Y-119135000D01*
X151783827Y-119140414D01*
X151762953Y-119169835D01*
X151762947Y-119169841D01*
X151736250Y-119207469D01*
X151720143Y-119246355D01*
X151720140Y-119246365D01*
X151711115Y-119291738D01*
X151678730Y-119353649D01*
X151618014Y-119388223D01*
X151548244Y-119384482D01*
X151491572Y-119343616D01*
X151465991Y-119278597D01*
X151465498Y-119267365D01*
X151465991Y-118953978D01*
X151466281Y-118769305D01*
X151486071Y-118702297D01*
X151538947Y-118656625D01*
X151590281Y-118645500D01*
X151678493Y-118645500D01*
X151778121Y-118629720D01*
X151778121Y-118629719D01*
X151778126Y-118629719D01*
X151898220Y-118568528D01*
X151993528Y-118473220D01*
X152054719Y-118353126D01*
X152069605Y-118259141D01*
X152070500Y-118253493D01*
X152070500Y-118072398D01*
X152090185Y-118005359D01*
X152113666Y-117978367D01*
X152619644Y-117543404D01*
X152629097Y-117534637D01*
X152639405Y-117526488D01*
X152639238Y-117526268D01*
X152642180Y-117524028D01*
X152642197Y-117524017D01*
X153697581Y-116616758D01*
X153761248Y-116587984D01*
X153778230Y-116586790D01*
X161204220Y-116575960D01*
X161220556Y-116575286D01*
X161228325Y-116574655D01*
X161228327Y-116574654D01*
X161228336Y-116574654D01*
X161241032Y-116573110D01*
X161244571Y-116572681D01*
X161336837Y-116557725D01*
X161368587Y-116549945D01*
X161383340Y-116545057D01*
X161413460Y-116532337D01*
X161492889Y-116491065D01*
X161520612Y-116473728D01*
X161533091Y-116464466D01*
X161549422Y-116450197D01*
X161612855Y-116420914D01*
X161631244Y-116419578D01*
X161850000Y-116420000D01*
X161859850Y-116186875D01*
X161863098Y-116163443D01*
X161877269Y-116103808D01*
X161896661Y-116060890D01*
X161900995Y-116054759D01*
X161925058Y-116020726D01*
X161959056Y-115988135D01*
X162000383Y-115961458D01*
X162044078Y-115943896D01*
X162104263Y-115932255D01*
X162127803Y-115930000D01*
X165662865Y-115930000D01*
X165678939Y-115931046D01*
G37*
%TD.AperFunction*%
%TD*%
%TA.AperFunction,Conductor*%
%TO.N,GND*%
G36*
X138043039Y-70519685D02*
G01*
X138088794Y-70572489D01*
X138100000Y-70624000D01*
X138100000Y-73076000D01*
X138097449Y-73084685D01*
X138098738Y-73093647D01*
X138087759Y-73117687D01*
X138080315Y-73143039D01*
X138073474Y-73148966D01*
X138069713Y-73157203D01*
X138047478Y-73171492D01*
X138027511Y-73188794D01*
X138016996Y-73191081D01*
X138010935Y-73194977D01*
X137976000Y-73200000D01*
X137904500Y-73200000D01*
X137837461Y-73180315D01*
X137791706Y-73127511D01*
X137780500Y-73076000D01*
X137780499Y-72735143D01*
X137780499Y-72735136D01*
X137780497Y-72735117D01*
X137777586Y-72710012D01*
X137777585Y-72710010D01*
X137777585Y-72710009D01*
X137740088Y-72625086D01*
X137731016Y-72555808D01*
X137740088Y-72524913D01*
X137777584Y-72439993D01*
X137777585Y-72439991D01*
X137780500Y-72414865D01*
X137780499Y-71925136D01*
X137780497Y-71925117D01*
X137777586Y-71900012D01*
X137777585Y-71900010D01*
X137777585Y-71900009D01*
X137732206Y-71797235D01*
X137652765Y-71717794D01*
X137652763Y-71717793D01*
X137549992Y-71672415D01*
X137524865Y-71669500D01*
X136635143Y-71669500D01*
X136635117Y-71669502D01*
X136610012Y-71672413D01*
X136610008Y-71672415D01*
X136507235Y-71717793D01*
X136427794Y-71797234D01*
X136382415Y-71900006D01*
X136382415Y-71900008D01*
X136379500Y-71925131D01*
X136379500Y-72414856D01*
X136379502Y-72414882D01*
X136382413Y-72439986D01*
X136419912Y-72524913D01*
X136428983Y-72594192D01*
X136419912Y-72625084D01*
X136382415Y-72710006D01*
X136382415Y-72710008D01*
X136379500Y-72735131D01*
X136379500Y-72735136D01*
X136379501Y-73076000D01*
X136376950Y-73084686D01*
X136378239Y-73093647D01*
X136367261Y-73117683D01*
X136359817Y-73143039D01*
X136352974Y-73148967D01*
X136349214Y-73157203D01*
X136326982Y-73171489D01*
X136307013Y-73188794D01*
X136296497Y-73191081D01*
X136290436Y-73194977D01*
X136255501Y-73200000D01*
X136179570Y-73200000D01*
X136139754Y-73192080D01*
X136139635Y-73192527D01*
X136132821Y-73190701D01*
X136132121Y-73190562D01*
X136131790Y-73190425D01*
X136131785Y-73190423D01*
X136131784Y-73190423D01*
X135979057Y-73149500D01*
X135820943Y-73149500D01*
X135668209Y-73190425D01*
X135667879Y-73190562D01*
X135667178Y-73190701D01*
X135660365Y-73192527D01*
X135660245Y-73192080D01*
X135620430Y-73200000D01*
X124200000Y-73200000D01*
X124200000Y-73276000D01*
X124180315Y-73343039D01*
X124127511Y-73388794D01*
X124076000Y-73400000D01*
X123369647Y-73400000D01*
X123324157Y-73391355D01*
X123322342Y-73390639D01*
X123181564Y-73335123D01*
X123181563Y-73335122D01*
X123181561Y-73335122D01*
X123135926Y-73329642D01*
X123093102Y-73324500D01*
X121706898Y-73324500D01*
X121667853Y-73329188D01*
X121618438Y-73335122D01*
X121573699Y-73352765D01*
X121477658Y-73390639D01*
X121477657Y-73390639D01*
X121475843Y-73391355D01*
X121430353Y-73400000D01*
X119474500Y-73400000D01*
X119407461Y-73380315D01*
X119361706Y-73327511D01*
X119350500Y-73276000D01*
X119350500Y-70624000D01*
X119370185Y-70556961D01*
X119422989Y-70511206D01*
X119474500Y-70500000D01*
X137976000Y-70500000D01*
X138043039Y-70519685D01*
G37*
%TD.AperFunction*%
%TD*%
%TA.AperFunction,Conductor*%
%TO.N,Net-(D203-K)*%
G36*
X135137539Y-119534685D02*
G01*
X135183294Y-119587489D01*
X135194500Y-119639000D01*
X135194500Y-122678693D01*
X135197397Y-122732741D01*
X135197397Y-122732742D01*
X135200229Y-122759075D01*
X135200232Y-122759102D01*
X135208885Y-122812498D01*
X135208885Y-122812500D01*
X135259166Y-122947305D01*
X135259168Y-122947310D01*
X135292653Y-123008633D01*
X135378875Y-123123813D01*
X135444992Y-123189930D01*
X135460408Y-123208714D01*
X135462710Y-123212159D01*
X135474174Y-123233610D01*
X135475642Y-123237153D01*
X135475760Y-123237438D01*
X135482808Y-123260679D01*
X135496723Y-123330628D01*
X135496732Y-123330669D01*
X135513945Y-123394816D01*
X135513954Y-123394845D01*
X135516069Y-123401062D01*
X135517294Y-123429988D01*
X135521415Y-123458647D01*
X135518755Y-123464471D01*
X135519026Y-123470869D01*
X135504418Y-123495864D01*
X135492390Y-123522203D01*
X135487002Y-123525665D01*
X135483772Y-123531193D01*
X135457972Y-123544321D01*
X135433612Y-123559977D01*
X135424685Y-123561260D01*
X135421501Y-123562881D01*
X135398677Y-123565000D01*
X135294126Y-123565000D01*
X135227087Y-123545315D01*
X135181332Y-123492511D01*
X135179566Y-123488456D01*
X135178867Y-123486768D01*
X135134552Y-123420447D01*
X135068230Y-123376132D01*
X135068229Y-123376131D01*
X135009752Y-123364500D01*
X135009748Y-123364500D01*
X133720252Y-123364500D01*
X133720247Y-123364500D01*
X133661770Y-123376131D01*
X133661769Y-123376132D01*
X133595447Y-123420447D01*
X133551131Y-123486771D01*
X133550640Y-123487957D01*
X133548878Y-123490142D01*
X133544348Y-123496923D01*
X133543741Y-123496517D01*
X133506797Y-123542359D01*
X133440502Y-123564421D01*
X133436081Y-123564500D01*
X133011544Y-123564500D01*
X132944505Y-123544815D01*
X132923863Y-123528181D01*
X131925819Y-122530137D01*
X131892334Y-122468814D01*
X131889500Y-122442456D01*
X131889500Y-120789500D01*
X131909185Y-120722461D01*
X131961989Y-120676706D01*
X132013500Y-120665500D01*
X133159750Y-120665500D01*
X133159751Y-120665499D01*
X133174568Y-120662552D01*
X133218229Y-120653868D01*
X133218229Y-120653867D01*
X133218231Y-120653867D01*
X133284552Y-120609552D01*
X133328867Y-120543231D01*
X133328867Y-120543229D01*
X133328868Y-120543229D01*
X133340499Y-120484752D01*
X133340500Y-120484750D01*
X133340500Y-119745249D01*
X133340499Y-119745247D01*
X133328868Y-119686771D01*
X133328738Y-119686457D01*
X133328658Y-119685715D01*
X133326485Y-119674790D01*
X133327462Y-119674595D01*
X133321266Y-119616988D01*
X133352539Y-119554508D01*
X133412626Y-119518853D01*
X133443297Y-119515000D01*
X135070500Y-119515000D01*
X135137539Y-119534685D01*
G37*
%TD.AperFunction*%
%TD*%
%TA.AperFunction,Conductor*%
%TO.N,/PowerManagament/VBUS*%
G36*
X146588984Y-119261799D02*
G01*
X146724777Y-119285190D01*
X146764441Y-119299272D01*
X146884596Y-119366756D01*
X146902048Y-119378619D01*
X147154201Y-119583493D01*
X147193817Y-119641044D01*
X147195780Y-119647634D01*
X147198607Y-119658183D01*
X147198607Y-119658185D01*
X147198608Y-119658186D01*
X147264500Y-119772314D01*
X147357686Y-119865500D01*
X147471814Y-119931392D01*
X147599108Y-119965500D01*
X147599109Y-119965500D01*
X147606958Y-119967603D01*
X147606316Y-119969995D01*
X147656471Y-119991588D01*
X147949901Y-120230000D01*
X148128514Y-120230000D01*
X148129155Y-120230002D01*
X148138764Y-120230051D01*
X148140438Y-120230500D01*
X148219562Y-120230500D01*
X148225434Y-120230500D01*
X148225821Y-120230502D01*
X148258976Y-120240423D01*
X148292219Y-120250185D01*
X148292715Y-120250520D01*
X148292758Y-120250533D01*
X148292790Y-120250571D01*
X148296919Y-120253360D01*
X148297468Y-120253749D01*
X148336359Y-120269858D01*
X148414997Y-120285499D01*
X148414999Y-120285500D01*
X149092799Y-120285500D01*
X149101039Y-120287919D01*
X149109533Y-120286634D01*
X149134060Y-120297615D01*
X149159838Y-120305185D01*
X149167128Y-120312421D01*
X149173303Y-120315186D01*
X149196613Y-120341687D01*
X149230413Y-120393431D01*
X149248556Y-120438827D01*
X149260497Y-120503792D01*
X149259836Y-120551964D01*
X149245539Y-120619298D01*
X149226981Y-120662976D01*
X149188226Y-120720320D01*
X149154617Y-120753829D01*
X149097156Y-120792416D01*
X149089973Y-120795442D01*
X149086588Y-120798775D01*
X149053422Y-120810846D01*
X149039971Y-120813660D01*
X149000721Y-120821872D01*
X148975330Y-120824500D01*
X148594379Y-120824500D01*
X148562288Y-120820275D01*
X148555666Y-120818500D01*
X148555662Y-120818500D01*
X147394994Y-120818500D01*
X147318567Y-120838979D01*
X147318565Y-120838979D01*
X147318561Y-120838981D01*
X147311059Y-120842089D01*
X147310220Y-120840065D01*
X147262296Y-120853253D01*
X146902089Y-120858189D01*
X146902031Y-120858189D01*
X146769901Y-120859999D01*
X146656421Y-120926093D01*
X145982854Y-121318389D01*
X145968315Y-121325626D01*
X145870345Y-121366623D01*
X145839067Y-121375120D01*
X145733812Y-121389330D01*
X145717610Y-121390444D01*
X145150682Y-121392219D01*
X143006724Y-121398930D01*
X143006336Y-121398931D01*
X143006277Y-121398931D01*
X142665000Y-121400000D01*
X142664998Y-121400001D01*
X142446855Y-121963309D01*
X142397073Y-122091860D01*
X142389073Y-122108655D01*
X142328733Y-122214130D01*
X142305699Y-122243215D01*
X142223757Y-122319679D01*
X142193150Y-122340649D01*
X142092253Y-122389449D01*
X142056814Y-122400424D01*
X141936666Y-122418604D01*
X141918114Y-122420000D01*
X137350000Y-122420000D01*
X138665000Y-119265000D01*
X138661715Y-119260000D01*
X138661716Y-119260000D01*
X146567936Y-119260000D01*
X146588984Y-119261799D01*
G37*
%TD.AperFunction*%
%TD*%
%TA.AperFunction,Conductor*%
%TO.N,GND*%
G36*
X151526080Y-75319685D02*
G01*
X151551500Y-75342313D01*
X151551578Y-75342236D01*
X151552917Y-75343575D01*
X151554894Y-75345335D01*
X151555887Y-75346545D01*
X152763181Y-76553838D01*
X152796666Y-76615161D01*
X152799500Y-76641519D01*
X152799500Y-77731007D01*
X152799500Y-79268993D01*
X152799500Y-79268995D01*
X152799499Y-79268995D01*
X152826418Y-79404322D01*
X152826421Y-79404332D01*
X152877873Y-79528548D01*
X152885342Y-79598017D01*
X152854067Y-79660496D01*
X152793978Y-79696148D01*
X152763312Y-79700000D01*
X148236688Y-79700000D01*
X148169649Y-79680315D01*
X148123894Y-79627511D01*
X148113950Y-79558353D01*
X148122127Y-79528548D01*
X148173578Y-79404332D01*
X148173580Y-79404328D01*
X148200500Y-79268993D01*
X148200500Y-77731007D01*
X148187636Y-77666336D01*
X148193863Y-77596746D01*
X148233768Y-77543768D01*
X148238006Y-77540515D01*
X148238015Y-77540510D01*
X148920510Y-76858015D01*
X148992984Y-76732485D01*
X149030500Y-76592474D01*
X149030500Y-76447526D01*
X149030500Y-76384891D01*
X149045574Y-76325637D01*
X149050043Y-76317420D01*
X149095562Y-76257395D01*
X149129466Y-76171418D01*
X149133103Y-76164734D01*
X149140702Y-76157109D01*
X149154346Y-76136309D01*
X149828671Y-75461984D01*
X149889992Y-75428501D01*
X149940491Y-75429343D01*
X149940541Y-75428929D01*
X149944560Y-75429411D01*
X149946737Y-75429448D01*
X149948432Y-75429876D01*
X149948434Y-75429876D01*
X149948436Y-75429877D01*
X150036898Y-75440500D01*
X150036903Y-75440500D01*
X150423097Y-75440500D01*
X150423102Y-75440500D01*
X150511564Y-75429877D01*
X150652342Y-75374361D01*
X150689023Y-75346545D01*
X150717176Y-75325196D01*
X150782487Y-75300373D01*
X150792101Y-75300000D01*
X151459041Y-75300000D01*
X151526080Y-75319685D01*
G37*
%TD.AperFunction*%
%TD*%
%TA.AperFunction,Conductor*%
%TO.N,GND*%
G36*
X128486061Y-121335597D02*
G01*
X128662941Y-121353018D01*
X128686769Y-121357757D01*
X128851001Y-121407576D01*
X128873453Y-121416877D01*
X129024798Y-121497772D01*
X129045010Y-121511277D01*
X129177666Y-121620145D01*
X129194854Y-121637333D01*
X129303722Y-121769989D01*
X129317227Y-121790201D01*
X129398123Y-121941546D01*
X129407422Y-121963994D01*
X129409160Y-121969725D01*
X129414500Y-122005718D01*
X129414500Y-123080500D01*
X129394815Y-123147539D01*
X129342011Y-123193294D01*
X129290500Y-123204500D01*
X128848658Y-123204500D01*
X128755191Y-123223090D01*
X128685600Y-123216861D01*
X128630423Y-123173997D01*
X128616441Y-123148924D01*
X128601205Y-123112141D01*
X128601204Y-123112139D01*
X128508126Y-122972837D01*
X128389662Y-122854373D01*
X128250360Y-122761295D01*
X128095582Y-122697184D01*
X128095574Y-122697182D01*
X127931271Y-122664500D01*
X127931267Y-122664500D01*
X127763733Y-122664500D01*
X127763728Y-122664500D01*
X127599425Y-122697182D01*
X127599417Y-122697184D01*
X127444639Y-122761295D01*
X127305337Y-122854373D01*
X127186873Y-122972837D01*
X127093795Y-123112139D01*
X127029684Y-123266917D01*
X127029682Y-123266925D01*
X126997000Y-123431228D01*
X126997000Y-123598771D01*
X127029682Y-123763074D01*
X127029684Y-123763082D01*
X127086991Y-123901433D01*
X127094460Y-123970903D01*
X127063185Y-124033382D01*
X127040153Y-124051124D01*
X127040886Y-124052221D01*
X126904711Y-124143210D01*
X126904707Y-124143213D01*
X126793213Y-124254707D01*
X126793210Y-124254711D01*
X126705609Y-124385814D01*
X126705606Y-124385820D01*
X126674629Y-124460605D01*
X126630787Y-124515008D01*
X126584261Y-124534768D01*
X126531507Y-124545262D01*
X126531498Y-124545264D01*
X126385827Y-124605602D01*
X126385814Y-124605609D01*
X126254711Y-124693210D01*
X126254707Y-124693213D01*
X126143213Y-124804707D01*
X126143210Y-124804711D01*
X126055609Y-124935814D01*
X126055602Y-124935827D01*
X125995264Y-125081498D01*
X125995261Y-125081510D01*
X125964500Y-125236153D01*
X125964500Y-125393846D01*
X125995261Y-125548489D01*
X125995264Y-125548501D01*
X126055602Y-125694172D01*
X126055609Y-125694185D01*
X126143210Y-125825288D01*
X126143213Y-125825292D01*
X126254707Y-125936786D01*
X126254711Y-125936789D01*
X126385814Y-126024390D01*
X126385827Y-126024397D01*
X126531498Y-126084735D01*
X126531503Y-126084737D01*
X126686153Y-126115499D01*
X126686156Y-126115500D01*
X126799142Y-126115500D01*
X126866181Y-126135185D01*
X126911936Y-126187989D01*
X126920759Y-126215309D01*
X126945261Y-126338489D01*
X126945264Y-126338501D01*
X127005602Y-126484172D01*
X127005609Y-126484185D01*
X127093210Y-126615288D01*
X127093213Y-126615292D01*
X127204707Y-126726786D01*
X127204711Y-126726789D01*
X127335814Y-126814390D01*
X127335827Y-126814397D01*
X127394011Y-126838497D01*
X127481503Y-126874737D01*
X127481506Y-126874737D01*
X127487338Y-126876507D01*
X127486867Y-126878056D01*
X127541830Y-126906804D01*
X127543413Y-126908359D01*
X127795325Y-127160272D01*
X127795328Y-127160274D01*
X127795331Y-127160277D01*
X127821891Y-127178024D01*
X127825392Y-127182212D01*
X127830444Y-127184283D01*
X127847557Y-127208734D01*
X127866695Y-127231634D01*
X127868206Y-127238238D01*
X127870507Y-127241525D01*
X127874416Y-127265368D01*
X127876904Y-127276235D01*
X127877000Y-127278679D01*
X127877001Y-127352872D01*
X127881627Y-127395914D01*
X127881793Y-127400107D01*
X127881179Y-127402550D01*
X127881179Y-127418250D01*
X127877000Y-127457122D01*
X127877000Y-127852869D01*
X127877001Y-127852878D01*
X127881179Y-127891745D01*
X127881179Y-127918250D01*
X127877000Y-127957122D01*
X127877000Y-128320956D01*
X127857315Y-128387995D01*
X127804511Y-128433750D01*
X127769674Y-128443142D01*
X127769708Y-128443311D01*
X127767197Y-128443810D01*
X127765170Y-128444357D01*
X127763740Y-128444497D01*
X127599425Y-128477182D01*
X127599417Y-128477184D01*
X127444639Y-128541295D01*
X127305337Y-128634373D01*
X127186873Y-128752837D01*
X127093795Y-128892139D01*
X127029684Y-129046917D01*
X127029682Y-129046925D01*
X126997000Y-129211228D01*
X126997000Y-129378771D01*
X127029682Y-129543074D01*
X127029684Y-129543082D01*
X127093795Y-129697860D01*
X127186873Y-129837162D01*
X127305337Y-129955626D01*
X127397994Y-130017537D01*
X127444637Y-130048703D01*
X127599418Y-130112816D01*
X127763728Y-130145499D01*
X127763732Y-130145500D01*
X127763733Y-130145500D01*
X127931268Y-130145500D01*
X127931269Y-130145499D01*
X128095582Y-130112816D01*
X128250363Y-130048703D01*
X128389662Y-129955626D01*
X128508126Y-129837162D01*
X128601203Y-129697863D01*
X128618109Y-129657045D01*
X128661949Y-129602644D01*
X128728242Y-129580578D01*
X128732670Y-129580499D01*
X129048260Y-129580499D01*
X129072452Y-129582882D01*
X129164692Y-129601230D01*
X129226603Y-129633615D01*
X129261177Y-129694331D01*
X129264500Y-129722847D01*
X129264500Y-131499217D01*
X129244815Y-131566256D01*
X129228181Y-131586898D01*
X127616897Y-133198181D01*
X127555574Y-133231666D01*
X127529216Y-133234500D01*
X127247130Y-133234500D01*
X127247123Y-133234501D01*
X127187516Y-133240908D01*
X127052671Y-133291202D01*
X127052664Y-133291206D01*
X126937455Y-133377452D01*
X126937452Y-133377455D01*
X126851206Y-133492664D01*
X126851202Y-133492671D01*
X126800908Y-133627517D01*
X126794501Y-133687116D01*
X126794500Y-133687135D01*
X126794500Y-135482870D01*
X126794501Y-135482876D01*
X126800908Y-135542483D01*
X126851202Y-135677328D01*
X126851206Y-135677335D01*
X126937452Y-135792544D01*
X126937455Y-135792547D01*
X127052664Y-135878793D01*
X127052671Y-135878797D01*
X127187517Y-135929091D01*
X127187516Y-135929091D01*
X127193888Y-135929776D01*
X127247127Y-135935500D01*
X129042872Y-135935499D01*
X129102483Y-135929091D01*
X129237331Y-135878796D01*
X129237334Y-135878793D01*
X129244969Y-135874625D01*
X129267134Y-135869802D01*
X129287849Y-135860565D01*
X129300618Y-135862517D01*
X129313241Y-135859771D01*
X129334493Y-135867696D01*
X129356916Y-135871125D01*
X129366602Y-135879670D01*
X129378707Y-135884185D01*
X129392300Y-135902342D01*
X129409310Y-135917349D01*
X129412838Y-135929776D01*
X129420580Y-135940117D01*
X129422198Y-135962740D01*
X129428395Y-135984562D01*
X129425238Y-136005210D01*
X129425567Y-136009808D01*
X129423061Y-136019450D01*
X129407424Y-136070998D01*
X129398122Y-136093454D01*
X129376477Y-136133951D01*
X129327516Y-136183796D01*
X129267118Y-136199500D01*
X122717882Y-136199500D01*
X122650843Y-136179815D01*
X122608524Y-136133953D01*
X122586878Y-136093456D01*
X122577575Y-136070998D01*
X122527757Y-135906769D01*
X122523018Y-135882941D01*
X122505597Y-135706061D01*
X122505000Y-135693907D01*
X122505000Y-122341092D01*
X122505597Y-122328938D01*
X122523018Y-122152056D01*
X122527757Y-122128232D01*
X122577577Y-121963994D01*
X122586877Y-121941546D01*
X122667775Y-121790195D01*
X122681272Y-121769995D01*
X122790149Y-121637328D01*
X122807328Y-121620149D01*
X122939995Y-121511272D01*
X122960195Y-121497775D01*
X123111549Y-121416875D01*
X123133994Y-121407577D01*
X123298232Y-121357757D01*
X123322056Y-121353018D01*
X123498939Y-121335597D01*
X123511093Y-121335000D01*
X128473907Y-121335000D01*
X128486061Y-121335597D01*
G37*
%TD.AperFunction*%
%TD*%
%TA.AperFunction,Conductor*%
%TO.N,/SimCom/VSYS*%
G36*
X162643039Y-65421185D02*
G01*
X162688794Y-65473989D01*
X162700000Y-65525500D01*
X162700000Y-67232363D01*
X162680315Y-67299402D01*
X162680236Y-67299525D01*
X162669167Y-67316703D01*
X162669164Y-67316709D01*
X162640974Y-67380638D01*
X162609911Y-67491796D01*
X162609908Y-67491808D01*
X162425249Y-68907528D01*
X162397059Y-68971458D01*
X162338781Y-69009999D01*
X162268917Y-69010914D01*
X162221088Y-68985202D01*
X162116339Y-68894435D01*
X162116331Y-68894430D01*
X161985465Y-68834664D01*
X161985460Y-68834662D01*
X161985459Y-68834662D01*
X161918420Y-68814977D01*
X161918422Y-68814977D01*
X161918417Y-68814976D01*
X161843556Y-68804213D01*
X161776000Y-68794500D01*
X161446414Y-68794500D01*
X161424867Y-68796622D01*
X161347797Y-68804212D01*
X161300347Y-68813651D01*
X161300342Y-68813652D01*
X161205517Y-68842417D01*
X161167688Y-68858085D01*
X161126492Y-68875148D01*
X161103238Y-68882202D01*
X161087417Y-68885349D01*
X161050879Y-68892617D01*
X161026691Y-68895000D01*
X160973310Y-68895000D01*
X160949119Y-68892617D01*
X160896760Y-68882201D01*
X160873503Y-68875147D01*
X160794483Y-68842417D01*
X160768918Y-68834662D01*
X160699658Y-68813652D01*
X160676572Y-68809060D01*
X160652202Y-68804212D01*
X160577774Y-68796882D01*
X160553586Y-68794500D01*
X160553584Y-68794500D01*
X160038540Y-68794500D01*
X160010158Y-68786166D01*
X159981136Y-68780413D01*
X159975566Y-68776008D01*
X159971501Y-68774815D01*
X159952495Y-68759788D01*
X159948478Y-68755917D01*
X159933952Y-68739153D01*
X159905486Y-68714487D01*
X159903135Y-68712221D01*
X159887380Y-68684596D01*
X159870203Y-68657867D01*
X159870203Y-68654475D01*
X159868522Y-68651528D01*
X159870203Y-68619785D01*
X159870203Y-68587997D01*
X159872152Y-68582973D01*
X159872217Y-68581756D01*
X159873101Y-68580527D01*
X159877780Y-68568472D01*
X159910573Y-68501393D01*
X159920500Y-68433260D01*
X159920500Y-68066740D01*
X159910573Y-67998607D01*
X159859198Y-67893517D01*
X159795266Y-67829585D01*
X159761783Y-67768265D01*
X159758998Y-67745331D01*
X159723490Y-66454158D01*
X159731737Y-66422914D01*
X159738608Y-66391329D01*
X159740876Y-66388299D01*
X159741323Y-66386606D01*
X159759753Y-66363079D01*
X159776015Y-66346817D01*
X159837333Y-66313334D01*
X159863686Y-66310499D01*
X160179900Y-66310499D01*
X160229487Y-66303972D01*
X160338316Y-66253224D01*
X160423224Y-66168316D01*
X160473972Y-66059487D01*
X160480500Y-66009901D01*
X160480499Y-65693695D01*
X160489145Y-65664249D01*
X160495667Y-65634269D01*
X160499420Y-65629255D01*
X160500183Y-65626657D01*
X160516813Y-65606019D01*
X160685016Y-65437816D01*
X160746338Y-65404334D01*
X160772696Y-65401500D01*
X162576000Y-65401500D01*
X162643039Y-65421185D01*
G37*
%TD.AperFunction*%
%TD*%
%TA.AperFunction,Conductor*%
%TO.N,Net-(D204-K)*%
G36*
X138047505Y-114155580D02*
G01*
X138080490Y-114156869D01*
X138082195Y-114158061D01*
X138084272Y-114158210D01*
X138110704Y-114177997D01*
X138137749Y-114196908D01*
X138139153Y-114199293D01*
X138140206Y-114200081D01*
X138155655Y-114227317D01*
X138167523Y-114256239D01*
X138211849Y-114323058D01*
X138640911Y-114754976D01*
X138640914Y-114754978D01*
X138708056Y-114800003D01*
X138708058Y-114800004D01*
X138708059Y-114800004D01*
X138708060Y-114800005D01*
X138742708Y-114814357D01*
X138793701Y-114824500D01*
X138821346Y-114829999D01*
X138821350Y-114830000D01*
X138821351Y-114830000D01*
X139436573Y-114830000D01*
X139440661Y-114830694D01*
X139442895Y-114830161D01*
X139477528Y-114836959D01*
X139513779Y-114849644D01*
X139546455Y-114866913D01*
X139564375Y-114880138D01*
X139622167Y-114909995D01*
X139651264Y-114919570D01*
X139663548Y-114921894D01*
X139725759Y-114953695D01*
X139760903Y-115014082D01*
X139764500Y-115043733D01*
X139764500Y-115957756D01*
X139757552Y-115981416D01*
X139754763Y-116005923D01*
X139746157Y-116020221D01*
X139744815Y-116024795D01*
X139736564Y-116036163D01*
X139716390Y-116060880D01*
X139691612Y-116083934D01*
X139607899Y-116142751D01*
X139577809Y-116158247D01*
X139473217Y-116195088D01*
X139456870Y-116199616D01*
X137715000Y-116555909D01*
X136463073Y-116811985D01*
X136438224Y-116814500D01*
X135956421Y-116814500D01*
X135931639Y-116815718D01*
X135906843Y-116816936D01*
X135882643Y-116819321D01*
X135833592Y-116826599D01*
X135833584Y-116826601D01*
X135697901Y-116874474D01*
X135697898Y-116874475D01*
X135636989Y-116906340D01*
X135636114Y-116906787D01*
X135635991Y-116906861D01*
X135519287Y-116991025D01*
X135431035Y-117104646D01*
X135431031Y-117104651D01*
X135431028Y-117104656D01*
X135431026Y-117104660D01*
X135396458Y-117165370D01*
X135396455Y-117165377D01*
X135384079Y-117196830D01*
X135382770Y-117200025D01*
X135362872Y-117246729D01*
X135360462Y-117245831D01*
X135340815Y-117298504D01*
X135339693Y-117301140D01*
X135337395Y-117303933D01*
X135324888Y-117326841D01*
X135320052Y-117333302D01*
X135309443Y-117348015D01*
X135304425Y-117355244D01*
X135294432Y-117370202D01*
X135234663Y-117501074D01*
X135214976Y-117568119D01*
X135194500Y-117710538D01*
X135194500Y-118119479D01*
X135194820Y-118137459D01*
X135195139Y-118146380D01*
X135196104Y-118164373D01*
X135196769Y-118169308D01*
X135195672Y-118169455D01*
X135191074Y-118233824D01*
X135149208Y-118289761D01*
X135083746Y-118314183D01*
X135074889Y-118314500D01*
X134070247Y-118314500D01*
X134011770Y-118326131D01*
X134011769Y-118326132D01*
X133945447Y-118370447D01*
X133901131Y-118436771D01*
X133900640Y-118437957D01*
X133898878Y-118440142D01*
X133894348Y-118446923D01*
X133893741Y-118446517D01*
X133856797Y-118492359D01*
X133790502Y-118514421D01*
X133786081Y-118514500D01*
X132311544Y-118514500D01*
X132244505Y-118494815D01*
X132223863Y-118478181D01*
X132025819Y-118280137D01*
X131992334Y-118218814D01*
X131989500Y-118192456D01*
X131989500Y-115689500D01*
X132009185Y-115622461D01*
X132061989Y-115576706D01*
X132113500Y-115565500D01*
X133259750Y-115565500D01*
X133259751Y-115565499D01*
X133279418Y-115561587D01*
X133318228Y-115553868D01*
X133318228Y-115553867D01*
X133318231Y-115553867D01*
X133344375Y-115536397D01*
X133411052Y-115515520D01*
X133413266Y-115515500D01*
X133833934Y-115515500D01*
X133900973Y-115535185D01*
X133946728Y-115587989D01*
X133955551Y-115615309D01*
X133956131Y-115618229D01*
X133956132Y-115618230D01*
X134000447Y-115684552D01*
X134066769Y-115728867D01*
X134066770Y-115728868D01*
X134125247Y-115740499D01*
X134125250Y-115740500D01*
X134125252Y-115740500D01*
X135164750Y-115740500D01*
X135164751Y-115740499D01*
X135179568Y-115737552D01*
X135223229Y-115728868D01*
X135223229Y-115728867D01*
X135223231Y-115728867D01*
X135289552Y-115684552D01*
X135333867Y-115618231D01*
X135333867Y-115618229D01*
X135333868Y-115618229D01*
X135345499Y-115559752D01*
X135345500Y-115559750D01*
X135345500Y-114824500D01*
X135365185Y-114757461D01*
X135417989Y-114711706D01*
X135469500Y-114700500D01*
X137354560Y-114700500D01*
X137354562Y-114700500D01*
X137430989Y-114680021D01*
X137499511Y-114640460D01*
X137555460Y-114584511D01*
X137953260Y-114186709D01*
X137982218Y-114170897D01*
X138010674Y-114154142D01*
X138012754Y-114154223D01*
X138014581Y-114153226D01*
X138047505Y-114155580D01*
G37*
%TD.AperFunction*%
%TA.AperFunction,Conductor*%
G36*
X139318038Y-113434685D02*
G01*
X139363793Y-113487489D01*
X139374999Y-113539000D01*
X139374999Y-113787440D01*
X139372558Y-113798446D01*
X139373592Y-113806064D01*
X139363379Y-113839848D01*
X139361529Y-113843815D01*
X139336830Y-113879088D01*
X139334088Y-113881830D01*
X139318350Y-113892850D01*
X139315355Y-113896253D01*
X139312214Y-113897148D01*
X139298826Y-113906524D01*
X139294860Y-113908374D01*
X139242441Y-113919999D01*
X138957558Y-113919999D01*
X138946547Y-113917557D01*
X138938924Y-113918591D01*
X138905142Y-113908375D01*
X138901176Y-113906526D01*
X138865929Y-113881847D01*
X138863184Y-113879103D01*
X138852153Y-113863352D01*
X138848742Y-113860348D01*
X138847845Y-113857200D01*
X138838465Y-113843806D01*
X138836619Y-113839848D01*
X138830654Y-113827054D01*
X138789715Y-113768590D01*
X138789712Y-113768586D01*
X138766014Y-113744890D01*
X138717862Y-113709120D01*
X138671657Y-113696430D01*
X138648288Y-113681984D01*
X138623296Y-113670571D01*
X138618993Y-113663875D01*
X138612225Y-113659692D01*
X138600376Y-113634906D01*
X138585522Y-113611793D01*
X138583885Y-113600412D01*
X138582090Y-113596656D01*
X138580499Y-113576858D01*
X138580499Y-113539000D01*
X138600184Y-113471961D01*
X138652988Y-113426206D01*
X138704499Y-113415000D01*
X139250999Y-113415000D01*
X139318038Y-113434685D01*
G37*
%TD.AperFunction*%
%TD*%
%TA.AperFunction,Conductor*%
%TO.N,/PowerManagament/VUSB*%
G36*
X130666226Y-119160587D02*
G01*
X130733182Y-119180540D01*
X130778724Y-119233527D01*
X130785937Y-119254175D01*
X130801939Y-119317433D01*
X130801943Y-119317447D01*
X130814242Y-119353877D01*
X130814243Y-119353879D01*
X130845094Y-119426160D01*
X130845096Y-119426163D01*
X130863668Y-119461729D01*
X130877251Y-119530266D01*
X130864966Y-119573965D01*
X130858725Y-119586620D01*
X130858715Y-119586641D01*
X130821266Y-119677053D01*
X130821262Y-119677064D01*
X130800008Y-119739675D01*
X130791630Y-119770944D01*
X130778730Y-119835800D01*
X130764887Y-119940949D01*
X130761644Y-119973867D01*
X130760583Y-119990056D01*
X130759500Y-120023139D01*
X130759500Y-120069975D01*
X130759820Y-120087957D01*
X130760139Y-120096873D01*
X130761103Y-120114859D01*
X130761105Y-120114874D01*
X130791686Y-120255450D01*
X130791688Y-120255457D01*
X130806847Y-120296101D01*
X130816105Y-120320922D01*
X130816107Y-120320926D01*
X130877642Y-120433619D01*
X130892494Y-120501892D01*
X130890429Y-120517232D01*
X130888500Y-120526932D01*
X130888500Y-121791000D01*
X130868815Y-121858039D01*
X130816011Y-121903794D01*
X130764500Y-121915000D01*
X130012699Y-121915000D01*
X129945660Y-121895315D01*
X129899905Y-121842511D01*
X129893707Y-121825160D01*
X129893566Y-121825204D01*
X129891164Y-121817283D01*
X129881760Y-121791000D01*
X129874438Y-121770534D01*
X129865139Y-121748086D01*
X129843934Y-121703254D01*
X129763038Y-121551909D01*
X129737537Y-121509364D01*
X129724032Y-121489152D01*
X129694479Y-121449303D01*
X129585611Y-121316647D01*
X129585604Y-121316639D01*
X129552295Y-121279889D01*
X129535109Y-121262703D01*
X129498359Y-121229394D01*
X129365704Y-121120526D01*
X129365688Y-121120514D01*
X129325858Y-121090975D01*
X129325855Y-121090973D01*
X129325847Y-121090967D01*
X129305635Y-121077462D01*
X129305624Y-121077455D01*
X129305619Y-121077452D01*
X129305615Y-121077449D01*
X129263122Y-121051979D01*
X129263079Y-121051955D01*
X129111770Y-120971079D01*
X129111758Y-120971072D01*
X129101282Y-120966117D01*
X129066919Y-120949864D01*
X129066912Y-120949861D01*
X129044473Y-120940565D01*
X128997736Y-120923841D01*
X128833504Y-120874022D01*
X128809351Y-120867972D01*
X128785373Y-120861967D01*
X128761545Y-120857228D01*
X128761540Y-120857227D01*
X128761543Y-120857227D01*
X128712494Y-120849952D01*
X128712474Y-120849950D01*
X128535598Y-120832530D01*
X128510876Y-120830707D01*
X128510871Y-120830706D01*
X128510861Y-120830706D01*
X128505602Y-120830447D01*
X128498714Y-120830109D01*
X128491473Y-120829931D01*
X128473907Y-120829500D01*
X123511093Y-120829500D01*
X123494229Y-120829914D01*
X123486285Y-120830109D01*
X123474126Y-120830706D01*
X123449399Y-120832530D01*
X123272523Y-120849950D01*
X123272503Y-120849952D01*
X123223449Y-120857228D01*
X123207347Y-120860431D01*
X123199612Y-120861970D01*
X123183490Y-120866008D01*
X123151502Y-120874021D01*
X122987259Y-120923842D01*
X122940541Y-120940558D01*
X122940504Y-120940573D01*
X122918103Y-120949853D01*
X122918079Y-120949863D01*
X122873263Y-120971061D01*
X122873259Y-120971063D01*
X122809425Y-121005183D01*
X122789294Y-121015943D01*
X122720891Y-121030184D01*
X122655648Y-121005183D01*
X122614278Y-120948878D01*
X122606863Y-120908805D01*
X122577327Y-119254811D01*
X122595811Y-119187434D01*
X122647790Y-119140743D01*
X122701800Y-119128601D01*
X130666226Y-119160587D01*
G37*
%TD.AperFunction*%
%TD*%
%TA.AperFunction,Conductor*%
%TO.N,GND*%
G36*
X157682539Y-68120185D02*
G01*
X157728294Y-68172989D01*
X157739500Y-68224500D01*
X157739500Y-68465701D01*
X157742401Y-68502567D01*
X157742402Y-68502573D01*
X157788254Y-68660393D01*
X157788255Y-68660396D01*
X157788256Y-68660398D01*
X157812539Y-68701459D01*
X157871917Y-68801862D01*
X157871923Y-68801870D01*
X157988129Y-68918076D01*
X157988133Y-68918079D01*
X157988135Y-68918081D01*
X158129602Y-69001744D01*
X158171224Y-69013836D01*
X158287426Y-69047597D01*
X158287429Y-69047597D01*
X158287431Y-69047598D01*
X158324306Y-69050500D01*
X158324314Y-69050500D01*
X159484882Y-69050500D01*
X159551921Y-69070185D01*
X159597676Y-69122989D01*
X159608846Y-69171547D01*
X159611905Y-69300000D01*
X160553586Y-69300000D01*
X160601038Y-69309439D01*
X160737334Y-69365894D01*
X160737336Y-69365894D01*
X160737341Y-69365896D01*
X160911304Y-69400499D01*
X160911307Y-69400500D01*
X160911309Y-69400500D01*
X161088693Y-69400500D01*
X161088694Y-69400499D01*
X161146682Y-69388964D01*
X161262658Y-69365896D01*
X161262661Y-69365894D01*
X161262666Y-69365894D01*
X161398962Y-69309439D01*
X161446414Y-69300000D01*
X161776000Y-69300000D01*
X161843039Y-69319685D01*
X161888794Y-69372489D01*
X161900000Y-69424000D01*
X161900000Y-71320500D01*
X161880315Y-71387539D01*
X161827511Y-71433294D01*
X161776000Y-71444500D01*
X161277129Y-71444500D01*
X161277123Y-71444501D01*
X161217516Y-71450908D01*
X161082671Y-71501202D01*
X161082669Y-71501203D01*
X160983734Y-71575267D01*
X160918270Y-71599684D01*
X160909423Y-71600000D01*
X160528565Y-71600000D01*
X160279940Y-71948074D01*
X160224956Y-71991184D01*
X160179037Y-72000000D01*
X156200000Y-72000000D01*
X156200000Y-72855500D01*
X156180315Y-72922539D01*
X156127511Y-72968294D01*
X156076000Y-72979500D01*
X154824100Y-72979500D01*
X154721450Y-72989988D01*
X154555125Y-73045102D01*
X154555114Y-73045107D01*
X154405993Y-73137087D01*
X154405989Y-73137090D01*
X154282090Y-73260989D01*
X154282087Y-73260993D01*
X154190107Y-73410114D01*
X154190102Y-73410125D01*
X154134988Y-73576450D01*
X154124500Y-73679100D01*
X154124500Y-74600899D01*
X154134988Y-74703549D01*
X154190102Y-74869874D01*
X154190107Y-74869885D01*
X154282087Y-75019006D01*
X154282090Y-75019010D01*
X154405989Y-75142909D01*
X154405993Y-75142912D01*
X154555114Y-75234892D01*
X154555117Y-75234893D01*
X154555123Y-75234897D01*
X154721451Y-75290012D01*
X154824108Y-75300500D01*
X155623592Y-75300500D01*
X155690631Y-75320185D01*
X155736386Y-75372989D01*
X155746330Y-75442147D01*
X155742668Y-75459095D01*
X155722357Y-75529002D01*
X155722356Y-75529008D01*
X155719500Y-75565302D01*
X155719500Y-76034697D01*
X155722356Y-76070991D01*
X155722357Y-76070997D01*
X155767505Y-76226394D01*
X155773708Y-76236884D01*
X155790887Y-76304608D01*
X155773708Y-76363116D01*
X155767505Y-76373605D01*
X155722357Y-76529002D01*
X155722356Y-76529008D01*
X155719500Y-76565302D01*
X155719500Y-77034697D01*
X155722356Y-77070991D01*
X155722357Y-77070997D01*
X155767504Y-77226390D01*
X155767505Y-77226393D01*
X155799637Y-77280725D01*
X155816820Y-77348449D01*
X155796009Y-77412734D01*
X155790610Y-77420814D01*
X155790602Y-77420828D01*
X155730264Y-77566498D01*
X155730261Y-77566510D01*
X155699500Y-77721153D01*
X155699500Y-79278846D01*
X155730261Y-79433489D01*
X155730264Y-79433501D01*
X155748716Y-79478048D01*
X155756185Y-79547517D01*
X155724909Y-79609996D01*
X155664820Y-79645648D01*
X155634155Y-79649500D01*
X155102129Y-79649500D01*
X155102123Y-79649501D01*
X155042516Y-79655908D01*
X154945264Y-79692182D01*
X154939634Y-79693197D01*
X154936866Y-79694977D01*
X154901931Y-79700000D01*
X154898069Y-79700000D01*
X154854736Y-79692182D01*
X154757482Y-79655908D01*
X154757483Y-79655908D01*
X154697883Y-79649501D01*
X154697881Y-79649500D01*
X154697873Y-79649500D01*
X154697865Y-79649500D01*
X154365845Y-79649500D01*
X154298806Y-79629815D01*
X154253051Y-79577011D01*
X154243107Y-79507853D01*
X154251284Y-79478048D01*
X154269735Y-79433501D01*
X154269737Y-79433497D01*
X154300500Y-79278842D01*
X154300500Y-77721158D01*
X154300500Y-76221158D01*
X154300500Y-76221155D01*
X154300499Y-76221153D01*
X154270630Y-76070993D01*
X154269737Y-76066503D01*
X154250427Y-76019883D01*
X154209397Y-75920827D01*
X154209390Y-75920814D01*
X154121790Y-75789712D01*
X154081578Y-75749500D01*
X154010289Y-75678211D01*
X153078488Y-74746410D01*
X153061555Y-74725301D01*
X152919886Y-74502677D01*
X152900500Y-74436105D01*
X152900500Y-71882940D01*
X152920185Y-71815901D01*
X152936819Y-71795259D01*
X153831786Y-70900292D01*
X153831789Y-70900289D01*
X153919394Y-70769179D01*
X153979737Y-70623497D01*
X154002481Y-70509151D01*
X154034864Y-70447245D01*
X154036391Y-70445690D01*
X154062968Y-70419114D01*
X154154921Y-70270035D01*
X154210016Y-70103769D01*
X154219402Y-70011896D01*
X154245798Y-69947206D01*
X154302979Y-69907054D01*
X154342760Y-69900500D01*
X154378844Y-69900500D01*
X154378845Y-69900499D01*
X154533497Y-69869737D01*
X154679179Y-69809394D01*
X154810289Y-69721789D01*
X154921789Y-69610289D01*
X155221789Y-69310289D01*
X155309394Y-69179179D01*
X155316679Y-69161590D01*
X155360519Y-69107188D01*
X155426812Y-69085122D01*
X155455430Y-69087425D01*
X155476142Y-69091545D01*
X155521156Y-69100500D01*
X155521158Y-69100500D01*
X155678843Y-69100500D01*
X155724398Y-69091438D01*
X155767408Y-69082882D01*
X155791599Y-69080500D01*
X155834682Y-69080500D01*
X155834690Y-69080500D01*
X155870993Y-69077643D01*
X155870995Y-69077642D01*
X155870997Y-69077642D01*
X155911975Y-69065736D01*
X156026395Y-69032494D01*
X156165687Y-68950117D01*
X156280117Y-68835687D01*
X156362494Y-68696395D01*
X156407643Y-68540993D01*
X156410500Y-68504690D01*
X156410500Y-68224500D01*
X156430185Y-68157461D01*
X156482989Y-68111706D01*
X156534500Y-68100500D01*
X157615500Y-68100500D01*
X157682539Y-68120185D01*
G37*
%TD.AperFunction*%
%TA.AperFunction,Conductor*%
G36*
X159450730Y-64820185D02*
G01*
X159496485Y-64872989D01*
X159507656Y-64921549D01*
X159509568Y-65001867D01*
X159491484Y-65069356D01*
X159473284Y-65092499D01*
X158555888Y-66009894D01*
X158555887Y-66009895D01*
X158479222Y-66124633D01*
X158426421Y-66252108D01*
X158426418Y-66252120D01*
X158403829Y-66365684D01*
X158403829Y-66365687D01*
X158399500Y-66387447D01*
X158399500Y-66640191D01*
X158379815Y-66707230D01*
X158327011Y-66752985D01*
X158257853Y-66762929D01*
X158194297Y-66733904D01*
X158187819Y-66727872D01*
X158091870Y-66631923D01*
X158091862Y-66631917D01*
X157950396Y-66548255D01*
X157950393Y-66548254D01*
X157792573Y-66502402D01*
X157792567Y-66502401D01*
X157755701Y-66499500D01*
X157755694Y-66499500D01*
X157285124Y-66499500D01*
X155778842Y-66499500D01*
X155621157Y-66499500D01*
X155621154Y-66499500D01*
X155466509Y-66530261D01*
X155466497Y-66530264D01*
X155423832Y-66547936D01*
X155423833Y-66547937D01*
X155320818Y-66590606D01*
X155320815Y-66590608D01*
X155302714Y-66602702D01*
X155281052Y-66614252D01*
X155274845Y-66616808D01*
X155203605Y-66637506D01*
X155155462Y-66665977D01*
X155147222Y-66669371D01*
X155120974Y-66672139D01*
X155095394Y-66678629D01*
X155085894Y-66675839D01*
X155077738Y-66676700D01*
X155062195Y-66668881D01*
X155036881Y-66661448D01*
X154996395Y-66637506D01*
X154996390Y-66637504D01*
X154840997Y-66592357D01*
X154840991Y-66592356D01*
X154804697Y-66589500D01*
X154804690Y-66589500D01*
X154395310Y-66589500D01*
X154395302Y-66589500D01*
X154359008Y-66592356D01*
X154359002Y-66592357D01*
X154203609Y-66637504D01*
X154203606Y-66637505D01*
X154064315Y-66719881D01*
X154064307Y-66719887D01*
X154033551Y-66750644D01*
X153972228Y-66784129D01*
X153902536Y-66779145D01*
X153880774Y-66768502D01*
X153794340Y-66715189D01*
X153794335Y-66715187D01*
X153794334Y-66715186D01*
X153627797Y-66660001D01*
X153627795Y-66660000D01*
X153525016Y-66649500D01*
X153525009Y-66649500D01*
X153098542Y-66649500D01*
X153098540Y-66649500D01*
X152901460Y-66649500D01*
X152901457Y-66649500D01*
X152474998Y-66649500D01*
X152474980Y-66649501D01*
X152372203Y-66660000D01*
X152372200Y-66660001D01*
X152205668Y-66715185D01*
X152205663Y-66715187D01*
X152056342Y-66807289D01*
X151932289Y-66931342D01*
X151840187Y-67080663D01*
X151840185Y-67080668D01*
X151824563Y-67127812D01*
X151785001Y-67247203D01*
X151785001Y-67247204D01*
X151785000Y-67247204D01*
X151774500Y-67349983D01*
X151774500Y-67950001D01*
X151774501Y-67950019D01*
X151785000Y-68052796D01*
X151785001Y-68052799D01*
X151812736Y-68136496D01*
X151815138Y-68206324D01*
X151779406Y-68266366D01*
X151716886Y-68297559D01*
X151695030Y-68299500D01*
X151155783Y-68299500D01*
X151126342Y-68290855D01*
X151096356Y-68284332D01*
X151091340Y-68280577D01*
X151088744Y-68279815D01*
X151068102Y-68263181D01*
X150936819Y-68131898D01*
X150903334Y-68070575D01*
X150900500Y-68044217D01*
X150900500Y-67675346D01*
X150900499Y-67675324D01*
X150900499Y-67507129D01*
X150900498Y-67507123D01*
X150894091Y-67447516D01*
X150843797Y-67312671D01*
X150843793Y-67312664D01*
X150757547Y-67197455D01*
X150664517Y-67127812D01*
X150651153Y-67116232D01*
X150537782Y-67002861D01*
X150537781Y-67002860D01*
X150537780Y-67002859D01*
X150373920Y-66893371D01*
X150373907Y-66893364D01*
X150191839Y-66817950D01*
X150191829Y-66817947D01*
X149998543Y-66779500D01*
X149998541Y-66779500D01*
X149801459Y-66779500D01*
X149801457Y-66779500D01*
X149608170Y-66817947D01*
X149608160Y-66817950D01*
X149426092Y-66893364D01*
X149426079Y-66893371D01*
X149262221Y-67002858D01*
X149262216Y-67002862D01*
X149148845Y-67116232D01*
X149135476Y-67127816D01*
X149042460Y-67197448D01*
X149042451Y-67197457D01*
X148956206Y-67312664D01*
X148956202Y-67312671D01*
X148916607Y-67418833D01*
X148874736Y-67474767D01*
X148809272Y-67499184D01*
X148800425Y-67499500D01*
X148149499Y-67499500D01*
X148082460Y-67479815D01*
X148036705Y-67427011D01*
X148025499Y-67375500D01*
X148025499Y-67349998D01*
X148025498Y-67349981D01*
X148014999Y-67247203D01*
X148014998Y-67247200D01*
X147998512Y-67197448D01*
X147959814Y-67080666D01*
X147867712Y-66931344D01*
X147743656Y-66807288D01*
X147624681Y-66733904D01*
X147594336Y-66715187D01*
X147594331Y-66715185D01*
X147570324Y-66707230D01*
X147427797Y-66660001D01*
X147427795Y-66660000D01*
X147325016Y-66649500D01*
X147325009Y-66649500D01*
X146898542Y-66649500D01*
X146898540Y-66649500D01*
X146701460Y-66649500D01*
X146701457Y-66649500D01*
X146274998Y-66649500D01*
X146274980Y-66649501D01*
X146172203Y-66660000D01*
X146172200Y-66660001D01*
X146005668Y-66715185D01*
X146005663Y-66715187D01*
X145856342Y-66807289D01*
X145732289Y-66931342D01*
X145640187Y-67080663D01*
X145640185Y-67080668D01*
X145624563Y-67127812D01*
X145585001Y-67247203D01*
X145585001Y-67247204D01*
X145585000Y-67247204D01*
X145574500Y-67349983D01*
X145574500Y-67950001D01*
X145574501Y-67950019D01*
X145585000Y-68052796D01*
X145585001Y-68052799D01*
X145623959Y-68170365D01*
X145640186Y-68219334D01*
X145720212Y-68349078D01*
X145732289Y-68368657D01*
X145751951Y-68388319D01*
X145762563Y-68407755D01*
X145777064Y-68424489D01*
X145778980Y-68437820D01*
X145785436Y-68449642D01*
X145783856Y-68471728D01*
X145787008Y-68493647D01*
X145781412Y-68505898D01*
X145780452Y-68519334D01*
X145767181Y-68537060D01*
X145757983Y-68557203D01*
X145746651Y-68564485D01*
X145738580Y-68575267D01*
X145717834Y-68583004D01*
X145699205Y-68594977D01*
X145677286Y-68598128D01*
X145673116Y-68599684D01*
X145664270Y-68600000D01*
X145617857Y-68600000D01*
X145550818Y-68580315D01*
X145514756Y-68544892D01*
X145458418Y-68460576D01*
X145458416Y-68460573D01*
X145346921Y-68349078D01*
X145346917Y-68349075D01*
X145215814Y-68261474D01*
X145215801Y-68261467D01*
X145070130Y-68201129D01*
X145070118Y-68201126D01*
X144915474Y-68170365D01*
X144915471Y-68170365D01*
X144757787Y-68170365D01*
X144757784Y-68170365D01*
X144603139Y-68201126D01*
X144603127Y-68201129D01*
X144457456Y-68261467D01*
X144457443Y-68261474D01*
X144326340Y-68349075D01*
X144326336Y-68349078D01*
X144214841Y-68460573D01*
X144186782Y-68502567D01*
X144158502Y-68544891D01*
X144104892Y-68589696D01*
X144055401Y-68600000D01*
X143781874Y-68600000D01*
X143762175Y-68594215D01*
X143741665Y-68593300D01*
X143729330Y-68584571D01*
X143714835Y-68580315D01*
X143701391Y-68564800D01*
X143684631Y-68552940D01*
X143674755Y-68534060D01*
X143669080Y-68527511D01*
X143666893Y-68522427D01*
X143662941Y-68512640D01*
X143662051Y-68508164D01*
X143625872Y-68420821D01*
X143604265Y-68368656D01*
X143586635Y-68326093D01*
X143586634Y-68326092D01*
X143586632Y-68326086D01*
X143567571Y-68297559D01*
X143477139Y-68162217D01*
X143334686Y-68019764D01*
X143334655Y-68019735D01*
X142161479Y-66846559D01*
X142161459Y-66846537D01*
X142017785Y-66702863D01*
X142017781Y-66702860D01*
X141853920Y-66593371D01*
X141853907Y-66593364D01*
X141709913Y-66533721D01*
X141709911Y-66533720D01*
X141701564Y-66530263D01*
X141671836Y-66517949D01*
X141559842Y-66495672D01*
X141556734Y-66495053D01*
X141556731Y-66495053D01*
X141478543Y-66479500D01*
X141478541Y-66479500D01*
X141079790Y-66479500D01*
X141030539Y-66469299D01*
X141026393Y-66467505D01*
X140870997Y-66422357D01*
X140870991Y-66422356D01*
X140834697Y-66419500D01*
X140834690Y-66419500D01*
X140365310Y-66419500D01*
X140365302Y-66419500D01*
X140329008Y-66422356D01*
X140329002Y-66422357D01*
X140184595Y-66464312D01*
X140115405Y-66464312D01*
X139970997Y-66422357D01*
X139970991Y-66422356D01*
X139934697Y-66419500D01*
X139934690Y-66419500D01*
X139465310Y-66419500D01*
X139465302Y-66419500D01*
X139429008Y-66422356D01*
X139429002Y-66422357D01*
X139358595Y-66442813D01*
X139288725Y-66442614D01*
X139230055Y-66404672D01*
X139201212Y-66341033D01*
X139200000Y-66323737D01*
X139200000Y-64924500D01*
X139219685Y-64857461D01*
X139272489Y-64811706D01*
X139324000Y-64800500D01*
X159383691Y-64800500D01*
X159450730Y-64820185D01*
G37*
%TD.AperFunction*%
%TD*%
%TA.AperFunction,Conductor*%
%TO.N,GND*%
G36*
X132208039Y-111384685D02*
G01*
X132253794Y-111437489D01*
X132265000Y-111489000D01*
X132265000Y-113725500D01*
X132245315Y-113792539D01*
X132192511Y-113838294D01*
X132141000Y-113849500D01*
X131110438Y-113849500D01*
X131072224Y-113859739D01*
X131034009Y-113869979D01*
X131034004Y-113869982D01*
X130965495Y-113909535D01*
X130965487Y-113909541D01*
X130746348Y-114128681D01*
X130685025Y-114162166D01*
X130658667Y-114165000D01*
X128165000Y-114165000D01*
X128165000Y-115841000D01*
X128145315Y-115908039D01*
X128092511Y-115953794D01*
X128041000Y-115965000D01*
X122389000Y-115965000D01*
X122321961Y-115945315D01*
X122276206Y-115892511D01*
X122265000Y-115841000D01*
X122265000Y-111489000D01*
X122284685Y-111421961D01*
X122337489Y-111376206D01*
X122389000Y-111365000D01*
X132141000Y-111365000D01*
X132208039Y-111384685D01*
G37*
%TD.AperFunction*%
%TD*%
M02*
