%TF.GenerationSoftware,KiCad,Pcbnew,9.0.2*%
%TF.CreationDate,2026-03-16T14:15:29+01:00*%
%TF.ProjectId,Communication_pcb_main,436f6d6d-756e-4696-9361-74696f6e5f70,rev?*%
%TF.SameCoordinates,Original*%
%TF.FileFunction,Copper,L2,Bot*%
%TF.FilePolarity,Positive*%
%FSLAX46Y46*%
G04 Gerber Fmt 4.6, Leading zero omitted, Abs format (unit mm)*
G04 Created by KiCad (PCBNEW 9.0.2) date 2026-03-16 14:15:29*
%MOMM*%
%LPD*%
G01*
G04 APERTURE LIST*
%TA.AperFunction,ComponentPad*%
%ADD10R,1.700000X1.700000*%
%TD*%
%TA.AperFunction,ComponentPad*%
%ADD11O,1.800000X1.200000*%
%TD*%
%TA.AperFunction,ComponentPad*%
%ADD12O,2.000000X1.100000*%
%TD*%
%TA.AperFunction,ComponentPad*%
%ADD13C,0.700000*%
%TD*%
%TA.AperFunction,ComponentPad*%
%ADD14C,1.700000*%
%TD*%
%TA.AperFunction,ViaPad*%
%ADD15C,0.600000*%
%TD*%
%TA.AperFunction,ViaPad*%
%ADD16C,0.800000*%
%TD*%
%TA.AperFunction,Conductor*%
%ADD17C,0.300000*%
%TD*%
%TA.AperFunction,Conductor*%
%ADD18C,0.200000*%
%TD*%
%TA.AperFunction,Conductor*%
%ADD19C,0.400000*%
%TD*%
G04 APERTURE END LIST*
D10*
%TO.P,J209,1,Pin_1*%
%TO.N,/PowerManagament/TS*%
X162365000Y-133865000D03*
%TD*%
%TO.P,J208,1,Pin_1*%
%TO.N,GND*%
X159765000Y-133865000D03*
%TD*%
%TO.P,J207,1,Pin_1*%
%TO.N,/PowerManagament/VBAT*%
X165065000Y-124665000D03*
%TD*%
D11*
%TO.P,J201,14,SHELL*%
%TO.N,GND*%
X124167500Y-130725000D03*
D12*
X128377500Y-130725000D03*
D11*
%TO.P,J201,13,SHELL*%
X124167500Y-122085000D03*
D12*
X128377500Y-122085000D03*
D13*
%TO.P,J201,*%
%TO.N,*%
X127847500Y-129295000D03*
X127847500Y-123515000D03*
%TD*%
D10*
%TO.P,J204,1,Pin_1*%
%TO.N,/PowerManagament/VUSB*%
X128145000Y-134585000D03*
D14*
%TO.P,J204,2,Pin_2*%
%TO.N,Net-(J201-DN1)*%
X130685000Y-134585000D03*
%TO.P,J204,3,Pin_3*%
%TO.N,Net-(J201-DP1)*%
X133225000Y-134585000D03*
%TO.P,J204,4,Pin_4*%
%TO.N,GND*%
X135765000Y-134585000D03*
%TD*%
D10*
%TO.P,J205,1,Pin_1*%
%TO.N,GND*%
X125065000Y-114725000D03*
D14*
%TO.P,J205,2,Pin_2*%
%TO.N,/PowerManagament/Solar 5-20V*%
X125065000Y-117265000D03*
%TD*%
D10*
%TO.P,J206,1,Pin_1*%
%TO.N,GND*%
X164640000Y-114505000D03*
D14*
%TO.P,J206,2,Pin_2*%
%TO.N,/MCU/VSYS*%
X164640000Y-117045000D03*
%TD*%
D10*
%TO.P,J403,1,Pin_1*%
%TO.N,/MCU/QON*%
X120700000Y-66025000D03*
D14*
%TO.P,J403,2,Pin_2*%
%TO.N,GND*%
X120700000Y-68565000D03*
%TD*%
D15*
%TO.N,GND*%
X165600000Y-77700000D03*
D16*
X158400000Y-65700000D03*
X157200000Y-65700000D03*
X140700000Y-65300000D03*
X139700000Y-65300000D03*
X122600000Y-72720000D03*
X121900000Y-72720000D03*
X159885000Y-131045000D03*
X157400000Y-82900000D03*
X161100000Y-94310000D03*
X162365000Y-114965000D03*
X145100000Y-65700000D03*
X156665000Y-125065000D03*
X161100000Y-82900000D03*
X152000000Y-76700000D03*
X155565000Y-113515000D03*
X145900000Y-90600000D03*
X158915000Y-130965000D03*
X126215000Y-129165000D03*
X161100000Y-98200000D03*
X157400000Y-90500000D03*
X145100000Y-66700000D03*
D15*
X150670000Y-122500000D03*
X152750000Y-116420000D03*
D16*
X162365000Y-113965000D03*
X126215000Y-130215000D03*
X155300000Y-72600000D03*
X143865000Y-113715000D03*
X158715000Y-113465000D03*
X126165000Y-112465000D03*
X124000000Y-70800000D03*
X143165000Y-123930000D03*
X142815000Y-113715000D03*
X153500000Y-74500000D03*
D15*
X160400000Y-76700000D03*
D16*
X126215000Y-122615000D03*
D15*
X148650000Y-116520000D03*
X151215000Y-129300000D03*
D16*
X137870000Y-85797500D03*
X150050000Y-122265000D03*
X127410000Y-114365000D03*
D15*
X149425000Y-121945000D03*
D16*
X153500000Y-98200000D03*
X154800000Y-65700000D03*
D15*
X149450000Y-122520000D03*
D16*
X127410000Y-115365000D03*
X137365000Y-125165000D03*
X161100000Y-86800000D03*
X127410000Y-113365000D03*
X143965000Y-123930000D03*
X156000000Y-65700000D03*
D15*
X157695000Y-122325000D03*
X153350000Y-115320000D03*
D16*
X156615000Y-113515000D03*
X157665000Y-113515000D03*
X145900000Y-86700000D03*
X150500000Y-75800000D03*
X149800000Y-82900000D03*
D15*
X147950000Y-114820000D03*
X147950000Y-116220000D03*
D16*
X154600000Y-76800000D03*
X144915000Y-113665000D03*
D15*
X147950000Y-115520000D03*
D16*
X126215000Y-123665000D03*
X153500000Y-94300000D03*
X162365000Y-112965000D03*
X124165000Y-112465000D03*
D15*
X152750000Y-115720000D03*
D16*
X156815000Y-130965000D03*
X134715000Y-132465000D03*
X141765000Y-113715000D03*
X153500000Y-73200000D03*
D15*
X153350000Y-114620000D03*
D16*
X151000000Y-76700000D03*
X160935000Y-131045000D03*
D15*
X150670000Y-121940000D03*
D16*
X151500000Y-75800000D03*
X157300000Y-90500000D03*
X145900000Y-94300000D03*
X149800000Y-98200000D03*
X157865000Y-130965000D03*
D15*
X148650000Y-115820000D03*
D16*
X125165000Y-112465000D03*
X150000000Y-76700000D03*
X131200000Y-72400000D03*
X153500000Y-82900000D03*
X159765000Y-113465000D03*
D15*
X160400000Y-75700000D03*
D16*
X153500000Y-86800000D03*
D15*
X153350000Y-116020000D03*
D16*
X145900000Y-98200000D03*
X149800000Y-90500000D03*
X160265000Y-122165000D03*
X154600000Y-75800000D03*
D15*
X149265000Y-127865000D03*
X158000242Y-106000000D03*
D16*
X131100000Y-88700000D03*
X122600000Y-96800000D03*
X153500000Y-71900000D03*
X161200000Y-90500000D03*
X135765000Y-132465000D03*
X159465000Y-122165000D03*
X145100000Y-67800000D03*
X145965000Y-113665000D03*
X124000000Y-71700000D03*
X138165000Y-125165000D03*
X157400000Y-98200000D03*
X145900000Y-82900000D03*
D15*
%TO.N,Net-(R222-Pad2)*%
X141980136Y-128000318D03*
X141371106Y-129207424D03*
%TO.N,Net-(U202-BATP)*%
X156895073Y-122314042D03*
X158325000Y-124875000D03*
%TO.N,Net-(U202-SW1)*%
X150015000Y-120785000D03*
X150175000Y-116165000D03*
X150165000Y-115545000D03*
X146904130Y-126152659D03*
X150165000Y-116785000D03*
X150010000Y-121300000D03*
X149605000Y-115855000D03*
X149625000Y-116475000D03*
%TO.N,Net-(U202-BTST2)*%
X151750000Y-122420000D03*
X152765000Y-124385000D03*
%TO.N,Net-(U202-SW2)*%
X151175000Y-116135000D03*
X151735000Y-115775000D03*
X151735000Y-116400000D03*
X151165000Y-115505000D03*
X151285000Y-120795000D03*
X151205000Y-116765000D03*
X151270000Y-121315000D03*
X153345000Y-125165000D03*
%TO.N,Net-(U202-STAT)*%
X138365000Y-126215000D03*
X147665000Y-119465000D03*
%TO.N,Net-(U202-PROG)*%
X156527098Y-125954372D03*
X154265000Y-123065000D03*
X157465000Y-126765000D03*
X154275000Y-122025000D03*
%TO.N,Net-(U202-ACDRV2)*%
X147815000Y-124765000D03*
X139255761Y-118467229D03*
%TO.N,Net-(U202-ACDRV1)*%
X136465000Y-128165000D03*
X147574265Y-127774265D03*
X149265000Y-126165000D03*
X137215000Y-130415000D03*
%TO.N,Net-(J201-DN1)*%
X126765000Y-125315000D03*
X127715000Y-126105000D03*
X140765000Y-127265000D03*
X147044019Y-125364982D03*
X131365000Y-130065000D03*
%TO.N,Net-(J201-DP1)*%
X132266000Y-129817000D03*
X146595227Y-124615000D03*
X127415000Y-124765000D03*
X132074620Y-131074620D03*
X132266000Y-127565000D03*
X139865000Y-127165000D03*
X130165000Y-126605000D03*
%TO.N,/PowerManagament/VUSB*%
X149015000Y-124715000D03*
X146165000Y-126765000D03*
X132765000Y-131840735D03*
X148365000Y-125965000D03*
X130873620Y-131840735D03*
X141665000Y-127265000D03*
%TO.N,/PowerManagament/TS*%
X153315000Y-129840735D03*
X153965000Y-127865000D03*
X162565000Y-130665000D03*
%TO.N,/PowerManagament/Solar 5-20V*%
X147815000Y-123965000D03*
X140033449Y-118279598D03*
%TO.N,/MCU/SDA*%
X152813243Y-130748243D03*
X152965000Y-128265000D03*
%TO.N,/MCU/SCL*%
X152165000Y-129065000D03*
X152247557Y-131313931D03*
%TO.N,Net-(U405-EN)*%
X138400000Y-74600000D03*
X135900000Y-74600000D03*
%TO.N,/MCU/3V3_esp32*%
X144836629Y-68970865D03*
X147500000Y-70920000D03*
X139200000Y-73750000D03*
X135900000Y-73750000D03*
D16*
%TO.N,/SimCom/VSYS*%
X161000000Y-68500000D03*
X161000000Y-66700000D03*
X161000000Y-67600000D03*
D15*
%TO.N,/MCU/INT*%
X153918379Y-121269160D03*
X154030000Y-124000000D03*
X155265000Y-128365000D03*
X154865000Y-129565000D03*
%TO.N,/MCU/QON*%
X151490452Y-131572380D03*
X150565000Y-129865000D03*
%TO.N,/MCU/PWRKEY*%
X140400000Y-79690380D03*
X142700000Y-81100000D03*
%TO.N,Net-(U402-USIM1_DATA)*%
X159300000Y-104500000D03*
X161800000Y-104900000D03*
%TO.N,Net-(U402-USIM1_CLK)*%
X160300000Y-105200000D03*
X161800000Y-105700003D03*
%TO.N,Net-(Card401-VCC)*%
X153101000Y-105400000D03*
X153100000Y-104000000D03*
X157593298Y-103988875D03*
X161800000Y-104099997D03*
%TO.N,Net-(Card401-CLK)*%
X155500000Y-106300000D03*
X152100000Y-107100000D03*
%TO.N,Net-(Card401-I{slash}O)*%
X151700000Y-106200000D03*
X155500000Y-105100000D03*
%TO.N,Net-(Q402-S)*%
X144600000Y-75655025D03*
X143300000Y-76400000D03*
%TO.N,/MCU/MOSFET_a7670g*%
X135900000Y-75600000D03*
X139000000Y-75600000D03*
X151400000Y-70900000D03*
X154300000Y-69100000D03*
%TD*%
D17*
%TO.N,/MCU/MOSFET_a7670g*%
X153200000Y-69100000D02*
X151400000Y-70900000D01*
X154300000Y-69100000D02*
X153200000Y-69100000D01*
%TO.N,Net-(R222-Pad2)*%
X141980136Y-128598394D02*
X141980136Y-128000318D01*
X141371106Y-129207424D02*
X141980136Y-128598394D01*
D18*
%TO.N,Net-(U202-BATP)*%
X156900271Y-122319240D02*
X156900271Y-122870271D01*
X156900271Y-122870271D02*
X158325000Y-124295000D01*
X156895073Y-122314042D02*
X156900271Y-122319240D01*
X158325000Y-124295000D02*
X158325000Y-124875000D01*
%TO.N,Net-(U202-SW1)*%
X149170000Y-121300000D02*
X150010000Y-121300000D01*
X148415000Y-125065000D02*
X148415000Y-123915000D01*
X146904130Y-126152659D02*
X146965000Y-126091789D01*
X148765000Y-121705000D02*
X149170000Y-121300000D01*
X148765000Y-123565000D02*
X148765000Y-121705000D01*
X146965000Y-126091789D02*
X147388211Y-126091789D01*
X147388211Y-126091789D02*
X148415000Y-125065000D01*
X148415000Y-123915000D02*
X148765000Y-123565000D01*
X150220000Y-121260000D02*
X150190000Y-121230000D01*
%TO.N,Net-(U202-BTST2)*%
X152755000Y-124385000D02*
X151750000Y-123380000D01*
X151750000Y-123380000D02*
X151750000Y-122420000D01*
X152765000Y-124385000D02*
X152755000Y-124385000D01*
%TO.N,Net-(U202-SW2)*%
X152351000Y-122171057D02*
X151494943Y-121315000D01*
X153461794Y-124231851D02*
X152351000Y-123121057D01*
X153461794Y-125048206D02*
X153461794Y-124231851D01*
X151494943Y-121315000D02*
X151270000Y-121315000D01*
X153345000Y-125165000D02*
X153461794Y-125048206D01*
X152351000Y-123121057D02*
X152351000Y-122171057D01*
%TO.N,Net-(U202-STAT)*%
X144215000Y-125665000D02*
X147315000Y-122565000D01*
X147315000Y-119815000D02*
X147665000Y-119465000D01*
X138365000Y-126215000D02*
X138915000Y-125665000D01*
X138915000Y-125665000D02*
X144215000Y-125665000D01*
X147315000Y-122565000D02*
X147315000Y-119815000D01*
%TO.N,Net-(U202-PROG)*%
X154275000Y-122025000D02*
X154275000Y-123055000D01*
X157415000Y-126715000D02*
X157287726Y-126715000D01*
X154275000Y-123055000D02*
X154265000Y-123065000D01*
X157287726Y-126715000D02*
X156537726Y-125965000D01*
X157465000Y-126765000D02*
X157415000Y-126715000D01*
%TO.N,Net-(U202-ACDRV2)*%
X147965000Y-120465000D02*
X147965000Y-122565000D01*
X140465000Y-118865000D02*
X148065000Y-118865000D01*
X140365000Y-118965000D02*
X140465000Y-118865000D01*
X139753532Y-118965000D02*
X140365000Y-118965000D01*
X147165000Y-123365000D02*
X147165000Y-124365000D01*
X148465000Y-119965000D02*
X147965000Y-120465000D01*
X147165000Y-124365000D02*
X147565000Y-124765000D01*
X148065000Y-118865000D02*
X148465000Y-119265000D01*
X147965000Y-122565000D02*
X147165000Y-123365000D01*
X148465000Y-119265000D02*
X148465000Y-119965000D01*
X147565000Y-124765000D02*
X147815000Y-124765000D01*
X139255761Y-118467229D02*
X139753532Y-118965000D01*
%TO.N,Net-(U202-ACDRV1)*%
X136465000Y-128165000D02*
X136465000Y-129565000D01*
X136465000Y-129565000D02*
X137215000Y-130315000D01*
X137215000Y-130315000D02*
X137215000Y-130415000D01*
X149183530Y-126165000D02*
X147574265Y-127774265D01*
D17*
%TO.N,Net-(J201-DN1)*%
X126115000Y-125965000D02*
X126115000Y-126515000D01*
X127755000Y-126105000D02*
X131365000Y-129715000D01*
D18*
X141365000Y-126665000D02*
X145315000Y-126665000D01*
D17*
X127715000Y-126105000D02*
X127755000Y-126105000D01*
X131365000Y-129715000D02*
X131365000Y-130065000D01*
D18*
X146615018Y-125364982D02*
X147044019Y-125364982D01*
D17*
X126955000Y-126865000D02*
X127705000Y-126115000D01*
X126765000Y-125315000D02*
X126115000Y-125965000D01*
D18*
X140765000Y-127265000D02*
X141365000Y-126665000D01*
D17*
X126465000Y-126865000D02*
X126955000Y-126865000D01*
X126115000Y-126515000D02*
X126465000Y-126865000D01*
D18*
X145315000Y-126665000D02*
X146615018Y-125364982D01*
%TO.N,Net-(J201-DP1)*%
X140865000Y-126215000D02*
X145015000Y-126215000D01*
D17*
X132266000Y-127565000D02*
X132266000Y-127516000D01*
D18*
X132074620Y-130008380D02*
X132074620Y-131074620D01*
D17*
X131355000Y-126605000D02*
X130165000Y-126605000D01*
D18*
X145015000Y-126215000D02*
X146595227Y-124634773D01*
X139865000Y-127165000D02*
X139915000Y-127165000D01*
D17*
X129255000Y-126605000D02*
X127415000Y-124765000D01*
D18*
X139915000Y-127165000D02*
X140865000Y-126215000D01*
X132266000Y-129817000D02*
X132074620Y-130008380D01*
D17*
X132266000Y-127516000D02*
X131355000Y-126605000D01*
X130165000Y-126605000D02*
X129255000Y-126605000D01*
D18*
X146595227Y-124634773D02*
X146595227Y-124615000D01*
%TO.N,/PowerManagament/VUSB*%
X141665000Y-127265000D02*
X141715000Y-127215000D01*
X132765000Y-131840735D02*
X130873620Y-131840735D01*
X148365000Y-125965000D02*
X148915000Y-125415000D01*
X148915000Y-125415000D02*
X148915000Y-124515000D01*
X141715000Y-127215000D02*
X145715000Y-127215000D01*
X145715000Y-127215000D02*
X146165000Y-126765000D01*
%TO.N,/PowerManagament/TS*%
X153965000Y-127865000D02*
X153965000Y-129190735D01*
X162565000Y-130665000D02*
X162565000Y-133665000D01*
X153965000Y-129190735D02*
X153315000Y-129840735D01*
%TO.N,/PowerManagament/Solar 5-20V*%
X148220000Y-118420000D02*
X148865000Y-119065000D01*
X140173851Y-118420000D02*
X148220000Y-118420000D01*
X147815000Y-123615000D02*
X147815000Y-123965000D01*
X148365000Y-123065000D02*
X147815000Y-123615000D01*
X148365000Y-120735057D02*
X148365000Y-123065000D01*
X140033449Y-118279598D02*
X140173851Y-118420000D01*
X148865000Y-119065000D02*
X148865000Y-120235057D01*
X148865000Y-120235057D02*
X148365000Y-120735057D01*
%TO.N,/MCU/SDA*%
X152965000Y-129115000D02*
X152965000Y-128265000D01*
X152665000Y-129415000D02*
X152965000Y-129115000D01*
X152813243Y-130748243D02*
X152665000Y-130600000D01*
X152665000Y-130600000D02*
X152665000Y-129415000D01*
%TO.N,/MCU/SCL*%
X152247557Y-131313931D02*
X152247557Y-131147557D01*
X152247557Y-131147557D02*
X152165000Y-131065000D01*
X152165000Y-131065000D02*
X152165000Y-129065000D01*
D17*
%TO.N,Net-(U405-EN)*%
X135900000Y-74600000D02*
X138400000Y-74600000D01*
%TO.N,/MCU/3V3_esp32*%
X144836629Y-69006221D02*
X144849030Y-69018622D01*
X144836629Y-68970865D02*
X144836629Y-69006221D01*
D19*
X139200000Y-73750000D02*
X135900000Y-73750000D01*
D17*
X145218622Y-69018622D02*
X147120000Y-70920000D01*
X147120000Y-70920000D02*
X147500000Y-70920000D01*
X144849030Y-69018622D02*
X145218622Y-69018622D01*
D18*
%TO.N,/MCU/INT*%
X154030000Y-124000000D02*
X153505000Y-123475000D01*
X153505000Y-123475000D02*
X153505000Y-121682539D01*
X153505000Y-121682539D02*
X153918379Y-121269160D01*
X155265000Y-129165000D02*
X154865000Y-129565000D01*
X155265000Y-128365000D02*
X155265000Y-129165000D01*
%TO.N,/MCU/QON*%
X151490452Y-131572380D02*
X151233072Y-131315000D01*
X150680000Y-129965000D02*
X150565000Y-129965000D01*
X151233072Y-130518072D02*
X150680000Y-129965000D01*
X151233072Y-131315000D02*
X151233072Y-130518072D01*
D17*
%TO.N,/MCU/PWRKEY*%
X142700000Y-81100000D02*
X142100000Y-80500000D01*
X141209620Y-80500000D02*
X140400000Y-79690380D01*
X142100000Y-80500000D02*
X141209620Y-80500000D01*
%TO.N,Net-(U402-USIM1_DATA)*%
X161600000Y-104900000D02*
X161800000Y-104900000D01*
X159300000Y-104500000D02*
X161200000Y-104500000D01*
X161200000Y-104500000D02*
X161600000Y-104900000D01*
%TO.N,Net-(U402-USIM1_CLK)*%
X161600003Y-105700003D02*
X161100000Y-105200000D01*
X161800000Y-105700003D02*
X161600003Y-105700003D01*
X161100000Y-105200000D02*
X160300000Y-105200000D01*
%TO.N,Net-(Card401-VCC)*%
X153101000Y-104001000D02*
X153100000Y-104000000D01*
X161449000Y-103849000D02*
X157733173Y-103849000D01*
X161699997Y-104099997D02*
X161449000Y-103849000D01*
X153101000Y-105400000D02*
X153101000Y-104001000D01*
X157733173Y-103849000D02*
X157593298Y-103988875D01*
X161800000Y-104099997D02*
X161699997Y-104099997D01*
%TO.N,Net-(Card401-CLK)*%
X155500000Y-106300000D02*
X154700000Y-107100000D01*
X154700000Y-107100000D02*
X152100000Y-107100000D01*
%TO.N,Net-(Card401-I{slash}O)*%
X154400000Y-106200000D02*
X151700000Y-106200000D01*
X155500000Y-105100000D02*
X154400000Y-106200000D01*
%TO.N,Net-(Q402-S)*%
X144044975Y-75655025D02*
X143300000Y-76400000D01*
X144600000Y-75655025D02*
X144044975Y-75655025D01*
%TO.N,/MCU/MOSFET_a7670g*%
X135900000Y-75600000D02*
X139000000Y-75600000D01*
%TD*%
%TA.AperFunction,Conductor*%
%TO.N,GND*%
G36*
X166342539Y-64820185D02*
G01*
X166388294Y-64872989D01*
X166399500Y-64924500D01*
X166399500Y-106898740D01*
X166379815Y-106965779D01*
X166327011Y-107011534D01*
X166275500Y-107022740D01*
X156067279Y-107022740D01*
X156000240Y-107003055D01*
X155954485Y-106950251D01*
X155944541Y-106881093D01*
X155973566Y-106817537D01*
X155979598Y-106811059D01*
X156044111Y-106746545D01*
X156044114Y-106746542D01*
X156120775Y-106631811D01*
X156173580Y-106504328D01*
X156193471Y-106404332D01*
X156200500Y-106368995D01*
X156200500Y-106231004D01*
X156173581Y-106095677D01*
X156173580Y-106095676D01*
X156173580Y-106095672D01*
X156147132Y-106031820D01*
X156120778Y-105968195D01*
X156120771Y-105968182D01*
X156044114Y-105853458D01*
X156044111Y-105853454D01*
X155978338Y-105787681D01*
X155944853Y-105726358D01*
X155949837Y-105656666D01*
X155978338Y-105612319D01*
X156044111Y-105546545D01*
X156044114Y-105546542D01*
X156120775Y-105431811D01*
X156173580Y-105304328D01*
X156197676Y-105183192D01*
X156200500Y-105168995D01*
X156200500Y-105031004D01*
X156173581Y-104895677D01*
X156173580Y-104895676D01*
X156173580Y-104895672D01*
X156173578Y-104895667D01*
X156120778Y-104768195D01*
X156120771Y-104768182D01*
X156044114Y-104653458D01*
X156044111Y-104653454D01*
X155946545Y-104555888D01*
X155946541Y-104555885D01*
X155831817Y-104479228D01*
X155831804Y-104479221D01*
X155704332Y-104426421D01*
X155704322Y-104426418D01*
X155568995Y-104399500D01*
X155568993Y-104399500D01*
X155431007Y-104399500D01*
X155431005Y-104399500D01*
X155295677Y-104426418D01*
X155295667Y-104426421D01*
X155168195Y-104479221D01*
X155168182Y-104479228D01*
X155053458Y-104555885D01*
X155053454Y-104555888D01*
X154955888Y-104653454D01*
X154955885Y-104653458D01*
X154879228Y-104768182D01*
X154879221Y-104768195D01*
X154826421Y-104895667D01*
X154826418Y-104895677D01*
X154809080Y-104982840D01*
X154776694Y-105044751D01*
X154775144Y-105046329D01*
X154208294Y-105613181D01*
X154181366Y-105627884D01*
X154155548Y-105644477D01*
X154149347Y-105645368D01*
X154146971Y-105646666D01*
X154120613Y-105649500D01*
X153916690Y-105649500D01*
X153849651Y-105629815D01*
X153803896Y-105577011D01*
X153793952Y-105507853D01*
X153795072Y-105501310D01*
X153801500Y-105468992D01*
X153801500Y-105331004D01*
X153774581Y-105195677D01*
X153774580Y-105195676D01*
X153774580Y-105195672D01*
X153765429Y-105173580D01*
X153721778Y-105068195D01*
X153721771Y-105068182D01*
X153672398Y-104994290D01*
X153651520Y-104927612D01*
X153651500Y-104925399D01*
X153651500Y-104473103D01*
X153671185Y-104406064D01*
X153672364Y-104404262D01*
X153720775Y-104331811D01*
X153773580Y-104204328D01*
X153800500Y-104068993D01*
X153800500Y-104057870D01*
X156892797Y-104057870D01*
X156919716Y-104193197D01*
X156919719Y-104193207D01*
X156972519Y-104320679D01*
X156972526Y-104320692D01*
X157049183Y-104435416D01*
X157049186Y-104435420D01*
X157146752Y-104532986D01*
X157146756Y-104532989D01*
X157261480Y-104609646D01*
X157261493Y-104609653D01*
X157367249Y-104653458D01*
X157388970Y-104662455D01*
X157388974Y-104662455D01*
X157388975Y-104662456D01*
X157524302Y-104689375D01*
X157524305Y-104689375D01*
X157662293Y-104689375D01*
X157753339Y-104671264D01*
X157797626Y-104662455D01*
X157925109Y-104609650D01*
X158039840Y-104532989D01*
X158072831Y-104499998D01*
X158137011Y-104435819D01*
X158198334Y-104402334D01*
X158224692Y-104399500D01*
X158475500Y-104399500D01*
X158542539Y-104419185D01*
X158588294Y-104471989D01*
X158599500Y-104523500D01*
X158599500Y-104568993D01*
X158599500Y-104568995D01*
X158599499Y-104568995D01*
X158626418Y-104704322D01*
X158626421Y-104704332D01*
X158679221Y-104831804D01*
X158679228Y-104831817D01*
X158755885Y-104946541D01*
X158755888Y-104946545D01*
X158853454Y-105044111D01*
X158853458Y-105044114D01*
X158968182Y-105120771D01*
X158968195Y-105120778D01*
X159084598Y-105168993D01*
X159095672Y-105173580D01*
X159095676Y-105173580D01*
X159095677Y-105173581D01*
X159231004Y-105200500D01*
X159231007Y-105200500D01*
X159368994Y-105200500D01*
X159384635Y-105197388D01*
X159456004Y-105183192D01*
X159525593Y-105189419D01*
X159580771Y-105232281D01*
X159601811Y-105280617D01*
X159626418Y-105404322D01*
X159626421Y-105404332D01*
X159679221Y-105531804D01*
X159679228Y-105531817D01*
X159755885Y-105646541D01*
X159755888Y-105646545D01*
X159853454Y-105744111D01*
X159853458Y-105744114D01*
X159968182Y-105820771D01*
X159968195Y-105820778D01*
X160082640Y-105868182D01*
X160095672Y-105873580D01*
X160095676Y-105873580D01*
X160095677Y-105873581D01*
X160231004Y-105900500D01*
X160231007Y-105900500D01*
X160368995Y-105900500D01*
X160460041Y-105882389D01*
X160504328Y-105873580D01*
X160631811Y-105820775D01*
X160705709Y-105771398D01*
X160723755Y-105765747D01*
X160739665Y-105755523D01*
X160770624Y-105751071D01*
X160772386Y-105750520D01*
X160774600Y-105750500D01*
X160820613Y-105750500D01*
X160887652Y-105770185D01*
X160908294Y-105786819D01*
X161222814Y-106101339D01*
X161238232Y-106120125D01*
X161255886Y-106146545D01*
X161255889Y-106146548D01*
X161255892Y-106146552D01*
X161353454Y-106244114D01*
X161353458Y-106244117D01*
X161468182Y-106320774D01*
X161468195Y-106320781D01*
X161595667Y-106373581D01*
X161595672Y-106373583D01*
X161595676Y-106373583D01*
X161595677Y-106373584D01*
X161731004Y-106400503D01*
X161731007Y-106400503D01*
X161868995Y-106400503D01*
X161960041Y-106382392D01*
X162004328Y-106373583D01*
X162131811Y-106320778D01*
X162246542Y-106244117D01*
X162344114Y-106146545D01*
X162420775Y-106031814D01*
X162473580Y-105904331D01*
X162490200Y-105820778D01*
X162500500Y-105768998D01*
X162500500Y-105631007D01*
X162473581Y-105495680D01*
X162473580Y-105495679D01*
X162473580Y-105495675D01*
X162462528Y-105468992D01*
X162420778Y-105368198D01*
X162417902Y-105362817D01*
X162419133Y-105362158D01*
X162400365Y-105302208D01*
X162418168Y-105237318D01*
X162417906Y-105237178D01*
X162418525Y-105236019D01*
X162418852Y-105234829D01*
X162420691Y-105231967D01*
X162420771Y-105231816D01*
X162420775Y-105231811D01*
X162473580Y-105104328D01*
X162495468Y-104994290D01*
X162500500Y-104968995D01*
X162500500Y-104831004D01*
X162473581Y-104695677D01*
X162473580Y-104695676D01*
X162473580Y-104695672D01*
X162459820Y-104662453D01*
X162420778Y-104568195D01*
X162417902Y-104562814D01*
X162419133Y-104562155D01*
X162400365Y-104502205D01*
X162418168Y-104437315D01*
X162417906Y-104437175D01*
X162418525Y-104436016D01*
X162418852Y-104434826D01*
X162420691Y-104431964D01*
X162420771Y-104431813D01*
X162420775Y-104431808D01*
X162473580Y-104304325D01*
X162500500Y-104168990D01*
X162500500Y-104031004D01*
X162500500Y-104031001D01*
X162473581Y-103895674D01*
X162473580Y-103895673D01*
X162473580Y-103895669D01*
X162473578Y-103895664D01*
X162420778Y-103768192D01*
X162420771Y-103768179D01*
X162344114Y-103653455D01*
X162344111Y-103653451D01*
X162246545Y-103555885D01*
X162246541Y-103555882D01*
X162131817Y-103479225D01*
X162131804Y-103479218D01*
X162004332Y-103426418D01*
X162004322Y-103426415D01*
X161868995Y-103399497D01*
X161868993Y-103399497D01*
X161804663Y-103399497D01*
X161742663Y-103382884D01*
X161736325Y-103379225D01*
X161661487Y-103336017D01*
X161661486Y-103336016D01*
X161625665Y-103326418D01*
X161521475Y-103298500D01*
X161521472Y-103298500D01*
X157725405Y-103298500D01*
X157701213Y-103296117D01*
X157662293Y-103288375D01*
X157662291Y-103288375D01*
X157524305Y-103288375D01*
X157524303Y-103288375D01*
X157388975Y-103315293D01*
X157388965Y-103315296D01*
X157261493Y-103368096D01*
X157261480Y-103368103D01*
X157146756Y-103444760D01*
X157146752Y-103444763D01*
X157049186Y-103542329D01*
X157049183Y-103542333D01*
X156972526Y-103657057D01*
X156972519Y-103657070D01*
X156919719Y-103784542D01*
X156919716Y-103784552D01*
X156892798Y-103919879D01*
X156892798Y-103919882D01*
X156892798Y-104057868D01*
X156892798Y-104057870D01*
X156892797Y-104057870D01*
X153800500Y-104057870D01*
X153800500Y-103931007D01*
X153773580Y-103795672D01*
X153768970Y-103784542D01*
X153720778Y-103668195D01*
X153720771Y-103668182D01*
X153644114Y-103553458D01*
X153644111Y-103553454D01*
X153546545Y-103455888D01*
X153546541Y-103455885D01*
X153431817Y-103379228D01*
X153431804Y-103379221D01*
X153304332Y-103326421D01*
X153304322Y-103326418D01*
X153168995Y-103299500D01*
X153168993Y-103299500D01*
X153031007Y-103299500D01*
X153031005Y-103299500D01*
X152895677Y-103326418D01*
X152895667Y-103326421D01*
X152768195Y-103379221D01*
X152768182Y-103379228D01*
X152653458Y-103455885D01*
X152653454Y-103455888D01*
X152555888Y-103553454D01*
X152555885Y-103553458D01*
X152479228Y-103668182D01*
X152479221Y-103668195D01*
X152426421Y-103795667D01*
X152426418Y-103795677D01*
X152399500Y-103931004D01*
X152399500Y-103931007D01*
X152399500Y-104068993D01*
X152399500Y-104068995D01*
X152399499Y-104068995D01*
X152426418Y-104204322D01*
X152426421Y-104204332D01*
X152479221Y-104331804D01*
X152479225Y-104331811D01*
X152529602Y-104407206D01*
X152550480Y-104473882D01*
X152550500Y-104476096D01*
X152550500Y-104925399D01*
X152530815Y-104992438D01*
X152529602Y-104994290D01*
X152480228Y-105068182D01*
X152480221Y-105068195D01*
X152427421Y-105195667D01*
X152427418Y-105195677D01*
X152400500Y-105331004D01*
X152400500Y-105468992D01*
X152406928Y-105501310D01*
X152405049Y-105522294D01*
X152408048Y-105543147D01*
X152401997Y-105556396D01*
X152400699Y-105570901D01*
X152387775Y-105587536D01*
X152379023Y-105606703D01*
X152366769Y-105614577D01*
X152357836Y-105626078D01*
X152337969Y-105633086D01*
X152320245Y-105644477D01*
X152295659Y-105648011D01*
X152291946Y-105649322D01*
X152285310Y-105649500D01*
X152174600Y-105649500D01*
X152107561Y-105629815D01*
X152105709Y-105628602D01*
X152031816Y-105579228D01*
X152031804Y-105579221D01*
X151904332Y-105526421D01*
X151904322Y-105526418D01*
X151768995Y-105499500D01*
X151768993Y-105499500D01*
X151631007Y-105499500D01*
X151631005Y-105499500D01*
X151495677Y-105526418D01*
X151495667Y-105526421D01*
X151368195Y-105579221D01*
X151368182Y-105579228D01*
X151253458Y-105655885D01*
X151253454Y-105655888D01*
X151155888Y-105753454D01*
X151155885Y-105753458D01*
X151079228Y-105868182D01*
X151079221Y-105868195D01*
X151026421Y-105995667D01*
X151026418Y-105995677D01*
X150999500Y-106131004D01*
X150999500Y-106131007D01*
X150999500Y-106268993D01*
X150999500Y-106268995D01*
X150999499Y-106268995D01*
X151026418Y-106404322D01*
X151026421Y-106404332D01*
X151079221Y-106531804D01*
X151079228Y-106531817D01*
X151155885Y-106646541D01*
X151155888Y-106646545D01*
X151253454Y-106744111D01*
X151253458Y-106744114D01*
X151330568Y-106795638D01*
X151375373Y-106849250D01*
X151384080Y-106918575D01*
X151353925Y-106981603D01*
X151294482Y-107018322D01*
X151261677Y-107022740D01*
X119474500Y-107022740D01*
X119407461Y-107003055D01*
X119361706Y-106950251D01*
X119350500Y-106898740D01*
X119350500Y-79759375D01*
X139699499Y-79759375D01*
X139726418Y-79894702D01*
X139726421Y-79894712D01*
X139779221Y-80022184D01*
X139779228Y-80022197D01*
X139855885Y-80136921D01*
X139855888Y-80136925D01*
X139953454Y-80234491D01*
X139953458Y-80234494D01*
X140068182Y-80311151D01*
X140068195Y-80311158D01*
X140195667Y-80363958D01*
X140195672Y-80363960D01*
X140282842Y-80381299D01*
X140344749Y-80413682D01*
X140346329Y-80415234D01*
X140871606Y-80940510D01*
X140997135Y-81012984D01*
X141137145Y-81050500D01*
X141137146Y-81050500D01*
X141282094Y-81050500D01*
X141820613Y-81050500D01*
X141850053Y-81059144D01*
X141880040Y-81065668D01*
X141885055Y-81069422D01*
X141887652Y-81070185D01*
X141908294Y-81086819D01*
X141975144Y-81153669D01*
X142008629Y-81214992D01*
X142009080Y-81217158D01*
X142026418Y-81304322D01*
X142026421Y-81304332D01*
X142079221Y-81431804D01*
X142079228Y-81431817D01*
X142155885Y-81546541D01*
X142155888Y-81546545D01*
X142253454Y-81644111D01*
X142253458Y-81644114D01*
X142368182Y-81720771D01*
X142368195Y-81720778D01*
X142495667Y-81773578D01*
X142495672Y-81773580D01*
X142495676Y-81773580D01*
X142495677Y-81773581D01*
X142631004Y-81800500D01*
X142631007Y-81800500D01*
X142768995Y-81800500D01*
X142860041Y-81782389D01*
X142904328Y-81773580D01*
X143031811Y-81720775D01*
X143146542Y-81644114D01*
X143244114Y-81546542D01*
X143320775Y-81431811D01*
X143373580Y-81304328D01*
X143382389Y-81260041D01*
X143400500Y-81168995D01*
X143400500Y-81031004D01*
X143373581Y-80895677D01*
X143373580Y-80895676D01*
X143373580Y-80895672D01*
X143373578Y-80895667D01*
X143320778Y-80768195D01*
X143320771Y-80768182D01*
X143244114Y-80653458D01*
X143244111Y-80653454D01*
X143146545Y-80555888D01*
X143146541Y-80555885D01*
X143031817Y-80479228D01*
X143031804Y-80479221D01*
X142904332Y-80426421D01*
X142904322Y-80426418D01*
X142817158Y-80409080D01*
X142755247Y-80376695D01*
X142753669Y-80375144D01*
X142438016Y-80059491D01*
X142438015Y-80059490D01*
X142312485Y-79987016D01*
X142312486Y-79987016D01*
X142277482Y-79977637D01*
X142172475Y-79949500D01*
X142172472Y-79949500D01*
X141489006Y-79949500D01*
X141421967Y-79929815D01*
X141401325Y-79913181D01*
X141124854Y-79636709D01*
X141091369Y-79575386D01*
X141090946Y-79573358D01*
X141073580Y-79486052D01*
X141073578Y-79486047D01*
X141020778Y-79358575D01*
X141020771Y-79358562D01*
X140944114Y-79243838D01*
X140944111Y-79243834D01*
X140846545Y-79146268D01*
X140846541Y-79146265D01*
X140731817Y-79069608D01*
X140731804Y-79069601D01*
X140604332Y-79016801D01*
X140604322Y-79016798D01*
X140468995Y-78989880D01*
X140468993Y-78989880D01*
X140331007Y-78989880D01*
X140331005Y-78989880D01*
X140195677Y-79016798D01*
X140195667Y-79016801D01*
X140068195Y-79069601D01*
X140068182Y-79069608D01*
X139953458Y-79146265D01*
X139953454Y-79146268D01*
X139855888Y-79243834D01*
X139855885Y-79243838D01*
X139779228Y-79358562D01*
X139779221Y-79358575D01*
X139726421Y-79486047D01*
X139726418Y-79486057D01*
X139699500Y-79621384D01*
X139699500Y-79621387D01*
X139699500Y-79759373D01*
X139699500Y-79759375D01*
X139699499Y-79759375D01*
X119350500Y-79759375D01*
X119350500Y-76468995D01*
X142599499Y-76468995D01*
X142626418Y-76604322D01*
X142626421Y-76604332D01*
X142679221Y-76731804D01*
X142679228Y-76731817D01*
X142755885Y-76846541D01*
X142755888Y-76846545D01*
X142853454Y-76944111D01*
X142853458Y-76944114D01*
X142968182Y-77020771D01*
X142968195Y-77020778D01*
X143095667Y-77073578D01*
X143095672Y-77073580D01*
X143095676Y-77073580D01*
X143095677Y-77073581D01*
X143231004Y-77100500D01*
X143231007Y-77100500D01*
X143368995Y-77100500D01*
X143460041Y-77082389D01*
X143504328Y-77073580D01*
X143631811Y-77020775D01*
X143746542Y-76944114D01*
X143844114Y-76846542D01*
X143920775Y-76731811D01*
X143973580Y-76604328D01*
X143990919Y-76517156D01*
X143999683Y-76500401D01*
X144003703Y-76481923D01*
X144022442Y-76456890D01*
X144023301Y-76455249D01*
X144024796Y-76453727D01*
X144163313Y-76315210D01*
X144224634Y-76281727D01*
X144294326Y-76286711D01*
X144298425Y-76288324D01*
X144395672Y-76328605D01*
X144395676Y-76328605D01*
X144395677Y-76328606D01*
X144531004Y-76355525D01*
X144531007Y-76355525D01*
X144668995Y-76355525D01*
X144792267Y-76331004D01*
X144804328Y-76328605D01*
X144931811Y-76275800D01*
X145046542Y-76199139D01*
X145144114Y-76101567D01*
X145220775Y-75986836D01*
X145273580Y-75859353D01*
X145289519Y-75779225D01*
X145300500Y-75724020D01*
X145300500Y-75586029D01*
X145273581Y-75450702D01*
X145273580Y-75450701D01*
X145273580Y-75450697D01*
X145250786Y-75395667D01*
X145220778Y-75323220D01*
X145220771Y-75323207D01*
X145144114Y-75208483D01*
X145144111Y-75208479D01*
X145046545Y-75110913D01*
X145046541Y-75110910D01*
X144931817Y-75034253D01*
X144931804Y-75034246D01*
X144804332Y-74981446D01*
X144804322Y-74981443D01*
X144668995Y-74954525D01*
X144668993Y-74954525D01*
X144531007Y-74954525D01*
X144531005Y-74954525D01*
X144395677Y-74981443D01*
X144395667Y-74981446D01*
X144268195Y-75034246D01*
X144268183Y-75034253D01*
X144194291Y-75083627D01*
X144127614Y-75104505D01*
X144125400Y-75104525D01*
X143972500Y-75104525D01*
X143867492Y-75132662D01*
X143832489Y-75142041D01*
X143706961Y-75214514D01*
X143706958Y-75214516D01*
X143246329Y-75675144D01*
X143185006Y-75708629D01*
X143182840Y-75709080D01*
X143095677Y-75726418D01*
X143095667Y-75726421D01*
X142968195Y-75779221D01*
X142968182Y-75779228D01*
X142853458Y-75855885D01*
X142853454Y-75855888D01*
X142755888Y-75953454D01*
X142755885Y-75953458D01*
X142679228Y-76068182D01*
X142679221Y-76068195D01*
X142626421Y-76195667D01*
X142626418Y-76195677D01*
X142599500Y-76331004D01*
X142599500Y-76331007D01*
X142599500Y-76468993D01*
X142599500Y-76468995D01*
X142599499Y-76468995D01*
X119350500Y-76468995D01*
X119350500Y-73818995D01*
X135199499Y-73818995D01*
X135226418Y-73954322D01*
X135226421Y-73954332D01*
X135279221Y-74081804D01*
X135279230Y-74081820D01*
X135295460Y-74106111D01*
X135316337Y-74172789D01*
X135297851Y-74240169D01*
X135295460Y-74243889D01*
X135279230Y-74268179D01*
X135279221Y-74268195D01*
X135226421Y-74395667D01*
X135226418Y-74395677D01*
X135199500Y-74531004D01*
X135199500Y-74531007D01*
X135199500Y-74668993D01*
X135199500Y-74668995D01*
X135199499Y-74668995D01*
X135226418Y-74804322D01*
X135226421Y-74804332D01*
X135279221Y-74931804D01*
X135279228Y-74931817D01*
X135345573Y-75031109D01*
X135366451Y-75097787D01*
X135347966Y-75165167D01*
X135345573Y-75168891D01*
X135279228Y-75268182D01*
X135279221Y-75268195D01*
X135226421Y-75395667D01*
X135226418Y-75395677D01*
X135199500Y-75531004D01*
X135199500Y-75531007D01*
X135199500Y-75668993D01*
X135199500Y-75668995D01*
X135199499Y-75668995D01*
X135226418Y-75804322D01*
X135226421Y-75804332D01*
X135279221Y-75931804D01*
X135279228Y-75931817D01*
X135355885Y-76046541D01*
X135355888Y-76046545D01*
X135453454Y-76144111D01*
X135453458Y-76144114D01*
X135568182Y-76220771D01*
X135568195Y-76220778D01*
X135695667Y-76273578D01*
X135695672Y-76273580D01*
X135695676Y-76273580D01*
X135695677Y-76273581D01*
X135831004Y-76300500D01*
X135831007Y-76300500D01*
X135968995Y-76300500D01*
X136060041Y-76282389D01*
X136104328Y-76273580D01*
X136231811Y-76220775D01*
X136305709Y-76171398D01*
X136372386Y-76150520D01*
X136374600Y-76150500D01*
X138525400Y-76150500D01*
X138592439Y-76170185D01*
X138594291Y-76171398D01*
X138668189Y-76220775D01*
X138668191Y-76220776D01*
X138668195Y-76220778D01*
X138795667Y-76273578D01*
X138795672Y-76273580D01*
X138795676Y-76273580D01*
X138795677Y-76273581D01*
X138931004Y-76300500D01*
X138931007Y-76300500D01*
X139068995Y-76300500D01*
X139160041Y-76282389D01*
X139204328Y-76273580D01*
X139331811Y-76220775D01*
X139331816Y-76220771D01*
X139331819Y-76220770D01*
X139370916Y-76194645D01*
X139446542Y-76144114D01*
X139544114Y-76046542D01*
X139620775Y-75931811D01*
X139673580Y-75804328D01*
X139689077Y-75726420D01*
X139700500Y-75668995D01*
X139700500Y-75531004D01*
X139673581Y-75395677D01*
X139673580Y-75395676D01*
X139673580Y-75395672D01*
X139643564Y-75323207D01*
X139620778Y-75268195D01*
X139620771Y-75268182D01*
X139544114Y-75153458D01*
X139544111Y-75153454D01*
X139446545Y-75055888D01*
X139446541Y-75055885D01*
X139331817Y-74979228D01*
X139331804Y-74979221D01*
X139204332Y-74926421D01*
X139204322Y-74926418D01*
X139176811Y-74920946D01*
X139173936Y-74919442D01*
X139170694Y-74919568D01*
X139143187Y-74903357D01*
X139114900Y-74888561D01*
X139113294Y-74885741D01*
X139110499Y-74884094D01*
X139096124Y-74855589D01*
X139080326Y-74827845D01*
X139080063Y-74823738D01*
X139079039Y-74821708D01*
X139079132Y-74809199D01*
X139077675Y-74786440D01*
X139078269Y-74780753D01*
X139100500Y-74668993D01*
X139100500Y-74568040D01*
X139101172Y-74561611D01*
X139112089Y-74535030D01*
X139120185Y-74507461D01*
X139125197Y-74503117D01*
X139127718Y-74496981D01*
X139151276Y-74480519D01*
X139172989Y-74461706D01*
X139180559Y-74460059D01*
X139184992Y-74456962D01*
X139196916Y-74456500D01*
X139224500Y-74450500D01*
X139268995Y-74450500D01*
X139360041Y-74432389D01*
X139404328Y-74423580D01*
X139531811Y-74370775D01*
X139646542Y-74294114D01*
X139744114Y-74196542D01*
X139820775Y-74081811D01*
X139873580Y-73954328D01*
X139900500Y-73818993D01*
X139900500Y-73681007D01*
X139900500Y-73681004D01*
X139873581Y-73545677D01*
X139873580Y-73545676D01*
X139873580Y-73545672D01*
X139873578Y-73545667D01*
X139820778Y-73418195D01*
X139820771Y-73418182D01*
X139744114Y-73303458D01*
X139744111Y-73303454D01*
X139646545Y-73205888D01*
X139646541Y-73205885D01*
X139531817Y-73129228D01*
X139531804Y-73129221D01*
X139404332Y-73076421D01*
X139404322Y-73076418D01*
X139268995Y-73049500D01*
X139268993Y-73049500D01*
X139131007Y-73049500D01*
X139131005Y-73049500D01*
X138995677Y-73076418D01*
X138995667Y-73076421D01*
X138868190Y-73129223D01*
X138862819Y-73132095D01*
X138862123Y-73130794D01*
X138802438Y-73149480D01*
X138800230Y-73149500D01*
X136299770Y-73149500D01*
X136237630Y-73131253D01*
X136237181Y-73132095D01*
X136233140Y-73129935D01*
X136232731Y-73129815D01*
X136231912Y-73129278D01*
X136231809Y-73129223D01*
X136104332Y-73076421D01*
X136104322Y-73076418D01*
X135968995Y-73049500D01*
X135968993Y-73049500D01*
X135831007Y-73049500D01*
X135831005Y-73049500D01*
X135695677Y-73076418D01*
X135695667Y-73076421D01*
X135568195Y-73129221D01*
X135568182Y-73129228D01*
X135453458Y-73205885D01*
X135453454Y-73205888D01*
X135355888Y-73303454D01*
X135355885Y-73303458D01*
X135279228Y-73418182D01*
X135279221Y-73418195D01*
X135226421Y-73545667D01*
X135226418Y-73545677D01*
X135199500Y-73681004D01*
X135199500Y-73681007D01*
X135199500Y-73818993D01*
X135199500Y-73818995D01*
X135199499Y-73818995D01*
X119350500Y-73818995D01*
X119350500Y-69039860D01*
X144136128Y-69039860D01*
X144163047Y-69175187D01*
X144163050Y-69175197D01*
X144215850Y-69302669D01*
X144215857Y-69302682D01*
X144292514Y-69417406D01*
X144292517Y-69417410D01*
X144390083Y-69514976D01*
X144390087Y-69514979D01*
X144504811Y-69591636D01*
X144504824Y-69591643D01*
X144631502Y-69644114D01*
X144632301Y-69644445D01*
X144632305Y-69644445D01*
X144632306Y-69644446D01*
X144767633Y-69671365D01*
X144767636Y-69671365D01*
X144905624Y-69671365D01*
X144996772Y-69653234D01*
X145066364Y-69659461D01*
X145108645Y-69687170D01*
X146781986Y-71360510D01*
X146781988Y-71360511D01*
X146781992Y-71360514D01*
X146792426Y-71366538D01*
X146792429Y-71366539D01*
X146792434Y-71366542D01*
X146907515Y-71432984D01*
X147047525Y-71470500D01*
X147047526Y-71470500D01*
X147047529Y-71470500D01*
X147053608Y-71472129D01*
X147090405Y-71488801D01*
X147168189Y-71540775D01*
X147168191Y-71540776D01*
X147168195Y-71540778D01*
X147295667Y-71593578D01*
X147295672Y-71593580D01*
X147295676Y-71593580D01*
X147295677Y-71593581D01*
X147431004Y-71620500D01*
X147431007Y-71620500D01*
X147568995Y-71620500D01*
X147669539Y-71600500D01*
X147704328Y-71593580D01*
X147831811Y-71540775D01*
X147946542Y-71464114D01*
X148044114Y-71366542D01*
X148120775Y-71251811D01*
X148173580Y-71124328D01*
X148200500Y-70988993D01*
X148200500Y-70968995D01*
X150699499Y-70968995D01*
X150726418Y-71104322D01*
X150726421Y-71104332D01*
X150779221Y-71231804D01*
X150779228Y-71231817D01*
X150855885Y-71346541D01*
X150855888Y-71346545D01*
X150953454Y-71444111D01*
X150953458Y-71444114D01*
X151068182Y-71520771D01*
X151068195Y-71520778D01*
X151195667Y-71573578D01*
X151195672Y-71573580D01*
X151195676Y-71573580D01*
X151195677Y-71573581D01*
X151331004Y-71600500D01*
X151331007Y-71600500D01*
X151468995Y-71600500D01*
X151560041Y-71582389D01*
X151604328Y-71573580D01*
X151731811Y-71520775D01*
X151846542Y-71444114D01*
X151944114Y-71346542D01*
X152020775Y-71231811D01*
X152073580Y-71104328D01*
X152090919Y-71017156D01*
X152123301Y-70955249D01*
X152124795Y-70953728D01*
X153391706Y-69686819D01*
X153453029Y-69653334D01*
X153479387Y-69650500D01*
X153825400Y-69650500D01*
X153892439Y-69670185D01*
X153894291Y-69671398D01*
X153968183Y-69720771D01*
X153968189Y-69720775D01*
X153968191Y-69720776D01*
X153968195Y-69720778D01*
X154095667Y-69773578D01*
X154095672Y-69773580D01*
X154095676Y-69773580D01*
X154095677Y-69773581D01*
X154231004Y-69800500D01*
X154231007Y-69800500D01*
X154368995Y-69800500D01*
X154460041Y-69782389D01*
X154504328Y-69773580D01*
X154631811Y-69720775D01*
X154746542Y-69644114D01*
X154844114Y-69546542D01*
X154920775Y-69431811D01*
X154973580Y-69304328D01*
X154992464Y-69209394D01*
X155000500Y-69168995D01*
X155000500Y-69031004D01*
X154973581Y-68895677D01*
X154973580Y-68895676D01*
X154973580Y-68895672D01*
X154966751Y-68879185D01*
X154920778Y-68768195D01*
X154920771Y-68768182D01*
X154844114Y-68653458D01*
X154844111Y-68653454D01*
X154746545Y-68555888D01*
X154746541Y-68555885D01*
X154631817Y-68479228D01*
X154631804Y-68479221D01*
X154504332Y-68426421D01*
X154504322Y-68426418D01*
X154368995Y-68399500D01*
X154368993Y-68399500D01*
X154231007Y-68399500D01*
X154231005Y-68399500D01*
X154095677Y-68426418D01*
X154095667Y-68426421D01*
X153968195Y-68479221D01*
X153968183Y-68479228D01*
X153894291Y-68528602D01*
X153827614Y-68549480D01*
X153825400Y-68549500D01*
X153127525Y-68549500D01*
X153022517Y-68577637D01*
X152987514Y-68587016D01*
X152861986Y-68659489D01*
X152861983Y-68659491D01*
X151346329Y-70175144D01*
X151285006Y-70208629D01*
X151282840Y-70209080D01*
X151195677Y-70226418D01*
X151195667Y-70226421D01*
X151068195Y-70279221D01*
X151068182Y-70279228D01*
X150953458Y-70355885D01*
X150953454Y-70355888D01*
X150855888Y-70453454D01*
X150855885Y-70453458D01*
X150779228Y-70568182D01*
X150779221Y-70568195D01*
X150726421Y-70695667D01*
X150726418Y-70695677D01*
X150699500Y-70831004D01*
X150699500Y-70831007D01*
X150699500Y-70968993D01*
X150699500Y-70968995D01*
X150699499Y-70968995D01*
X148200500Y-70968995D01*
X148200500Y-70851007D01*
X148200121Y-70849100D01*
X148200121Y-70849097D01*
X148173581Y-70715677D01*
X148173580Y-70715676D01*
X148173580Y-70715672D01*
X148165294Y-70695667D01*
X148120778Y-70588195D01*
X148120771Y-70588182D01*
X148044114Y-70473458D01*
X148044111Y-70473454D01*
X147946545Y-70375888D01*
X147946541Y-70375885D01*
X147831817Y-70299228D01*
X147831804Y-70299221D01*
X147704332Y-70246421D01*
X147704322Y-70246418D01*
X147568995Y-70219500D01*
X147568993Y-70219500D01*
X147431007Y-70219500D01*
X147431002Y-70219500D01*
X147301683Y-70245223D01*
X147232091Y-70238996D01*
X147189811Y-70211287D01*
X146395934Y-69417410D01*
X145556637Y-68578112D01*
X145431107Y-68505638D01*
X145431102Y-68505636D01*
X145368875Y-68488962D01*
X145313289Y-68456869D01*
X145283171Y-68426751D01*
X145283170Y-68426750D01*
X145283169Y-68426749D01*
X145168446Y-68350093D01*
X145168433Y-68350086D01*
X145040961Y-68297286D01*
X145040951Y-68297283D01*
X144905624Y-68270365D01*
X144905622Y-68270365D01*
X144767636Y-68270365D01*
X144767634Y-68270365D01*
X144632306Y-68297283D01*
X144632296Y-68297286D01*
X144504824Y-68350086D01*
X144504811Y-68350093D01*
X144390087Y-68426750D01*
X144390083Y-68426753D01*
X144292517Y-68524319D01*
X144292514Y-68524323D01*
X144215857Y-68639047D01*
X144215850Y-68639060D01*
X144163050Y-68766532D01*
X144163047Y-68766542D01*
X144136129Y-68901869D01*
X144136129Y-68901872D01*
X144136129Y-69039858D01*
X144136129Y-69039860D01*
X144136128Y-69039860D01*
X119350500Y-69039860D01*
X119350500Y-67241255D01*
X119370185Y-67174216D01*
X119422989Y-67128461D01*
X119492147Y-67118517D01*
X119555703Y-67147542D01*
X119562181Y-67153574D01*
X119611652Y-67203045D01*
X119611654Y-67203046D01*
X119611658Y-67203050D01*
X119724694Y-67260645D01*
X119724698Y-67260647D01*
X119818475Y-67275499D01*
X119818481Y-67275500D01*
X121581518Y-67275499D01*
X121675304Y-67260646D01*
X121788342Y-67203050D01*
X121878050Y-67113342D01*
X121935646Y-67000304D01*
X121935646Y-67000302D01*
X121935647Y-67000301D01*
X121950500Y-66906524D01*
X121950500Y-66621153D01*
X160199500Y-66621153D01*
X160199500Y-66778846D01*
X160230261Y-66933489D01*
X160230264Y-66933501D01*
X160290604Y-67079177D01*
X160290605Y-67079179D01*
X160291899Y-67081115D01*
X160292264Y-67082282D01*
X160293476Y-67084549D01*
X160293045Y-67084778D01*
X160312773Y-67147794D01*
X160294285Y-67215173D01*
X160291899Y-67218885D01*
X160290605Y-67220820D01*
X160290604Y-67220822D01*
X160230264Y-67366498D01*
X160230261Y-67366510D01*
X160199500Y-67521153D01*
X160199500Y-67678846D01*
X160230261Y-67833489D01*
X160230264Y-67833501D01*
X160290604Y-67979177D01*
X160290605Y-67979179D01*
X160291899Y-67981115D01*
X160292264Y-67982282D01*
X160293476Y-67984549D01*
X160293045Y-67984778D01*
X160312773Y-68047794D01*
X160294285Y-68115173D01*
X160291899Y-68118885D01*
X160290605Y-68120820D01*
X160290604Y-68120822D01*
X160230264Y-68266498D01*
X160230261Y-68266510D01*
X160199500Y-68421153D01*
X160199500Y-68578846D01*
X160230261Y-68733489D01*
X160230264Y-68733501D01*
X160290602Y-68879172D01*
X160290609Y-68879185D01*
X160378210Y-69010288D01*
X160378213Y-69010292D01*
X160489707Y-69121786D01*
X160489711Y-69121789D01*
X160620814Y-69209390D01*
X160620827Y-69209397D01*
X160766498Y-69269735D01*
X160766503Y-69269737D01*
X160921153Y-69300499D01*
X160921156Y-69300500D01*
X160921158Y-69300500D01*
X161078844Y-69300500D01*
X161078845Y-69300499D01*
X161233497Y-69269737D01*
X161379179Y-69209394D01*
X161510289Y-69121789D01*
X161621789Y-69010289D01*
X161709394Y-68879179D01*
X161769737Y-68733497D01*
X161800500Y-68578842D01*
X161800500Y-68421158D01*
X161800500Y-68421155D01*
X161800499Y-68421153D01*
X161786364Y-68350093D01*
X161769737Y-68266503D01*
X161769735Y-68266498D01*
X161709397Y-68120827D01*
X161709394Y-68120822D01*
X161709394Y-68120821D01*
X161708103Y-68118889D01*
X161707737Y-68117723D01*
X161706525Y-68115454D01*
X161706955Y-68115223D01*
X161687226Y-68052214D01*
X161705710Y-67984834D01*
X161708100Y-67981115D01*
X161709394Y-67979179D01*
X161769737Y-67833497D01*
X161800500Y-67678842D01*
X161800500Y-67521158D01*
X161800500Y-67521155D01*
X161800499Y-67521153D01*
X161769738Y-67366510D01*
X161769737Y-67366503D01*
X161732043Y-67275500D01*
X161709397Y-67220827D01*
X161709394Y-67220822D01*
X161709394Y-67220821D01*
X161708103Y-67218889D01*
X161707737Y-67217723D01*
X161706525Y-67215454D01*
X161706955Y-67215223D01*
X161687226Y-67152214D01*
X161705710Y-67084834D01*
X161708100Y-67081115D01*
X161709394Y-67079179D01*
X161769737Y-66933497D01*
X161800500Y-66778842D01*
X161800500Y-66621158D01*
X161800500Y-66621155D01*
X161800499Y-66621153D01*
X161769738Y-66466510D01*
X161769737Y-66466503D01*
X161769735Y-66466498D01*
X161709397Y-66320827D01*
X161709390Y-66320814D01*
X161621789Y-66189711D01*
X161621786Y-66189707D01*
X161510292Y-66078213D01*
X161510288Y-66078210D01*
X161379185Y-65990609D01*
X161379172Y-65990602D01*
X161233501Y-65930264D01*
X161233489Y-65930261D01*
X161078845Y-65899500D01*
X161078842Y-65899500D01*
X160921158Y-65899500D01*
X160921155Y-65899500D01*
X160766510Y-65930261D01*
X160766498Y-65930264D01*
X160620827Y-65990602D01*
X160620814Y-65990609D01*
X160489711Y-66078210D01*
X160489707Y-66078213D01*
X160378213Y-66189707D01*
X160378210Y-66189711D01*
X160290609Y-66320814D01*
X160290602Y-66320827D01*
X160230264Y-66466498D01*
X160230261Y-66466510D01*
X160199500Y-66621153D01*
X121950500Y-66621153D01*
X121950500Y-66615066D01*
X121950499Y-65143482D01*
X121950499Y-65143481D01*
X121935646Y-65049696D01*
X121900537Y-64980791D01*
X121887642Y-64912126D01*
X121913918Y-64847386D01*
X121971024Y-64807128D01*
X122011023Y-64800500D01*
X166275500Y-64800500D01*
X166342539Y-64820185D01*
G37*
%TD.AperFunction*%
%TD*%
%TA.AperFunction,Conductor*%
%TO.N,Net-(U202-SW2)*%
G36*
X151287493Y-115342977D02*
G01*
X151395143Y-115363152D01*
X151414431Y-115368408D01*
X151630670Y-115446544D01*
X151644725Y-115452630D01*
X151743149Y-115502682D01*
X151768500Y-115519808D01*
X151788497Y-115537271D01*
X151845842Y-115587350D01*
X151866230Y-115610167D01*
X151924674Y-115694588D01*
X151938854Y-115721705D01*
X151974843Y-115817865D01*
X151981951Y-115847628D01*
X151994151Y-115957365D01*
X151994900Y-115972677D01*
X151990423Y-116317349D01*
X151990382Y-116319311D01*
X151989554Y-116348036D01*
X151989378Y-116351958D01*
X151987644Y-116380595D01*
X151987510Y-116382553D01*
X151614748Y-121257891D01*
X151610972Y-121280200D01*
X151589442Y-121361451D01*
X151586725Y-121367194D01*
X151586528Y-121370907D01*
X151570178Y-121402186D01*
X151527787Y-121461009D01*
X151495239Y-121492170D01*
X151434628Y-121531961D01*
X151393091Y-121549435D01*
X151323109Y-121564753D01*
X151276420Y-121565968D01*
X151256894Y-121562749D01*
X151211770Y-121555308D01*
X151203984Y-121552380D01*
X151198844Y-121552460D01*
X151166518Y-121538294D01*
X151139057Y-121521237D01*
X151111595Y-121504178D01*
X151076290Y-121471154D01*
X151038586Y-121418626D01*
X151018594Y-121374610D01*
X151001005Y-121299543D01*
X150997809Y-121275482D01*
X150840232Y-116636841D01*
X150840023Y-116629999D01*
X150839861Y-116623156D01*
X150826520Y-115965000D01*
X150823024Y-115792546D01*
X150824233Y-115772585D01*
X150839647Y-115664165D01*
X150851534Y-115626105D01*
X150896010Y-115537271D01*
X150919359Y-115504953D01*
X150989735Y-115434822D01*
X151022135Y-115411587D01*
X151111131Y-115367419D01*
X151149224Y-115355669D01*
X151247642Y-115342030D01*
X151287493Y-115342977D01*
G37*
%TD.AperFunction*%
%TD*%
%TA.AperFunction,Conductor*%
%TO.N,Net-(U202-SW1)*%
G36*
X150170773Y-115385669D02*
G01*
X150208870Y-115397420D01*
X150253368Y-115419504D01*
X150297864Y-115441587D01*
X150300355Y-115443373D01*
X150301974Y-115443723D01*
X150330266Y-115464825D01*
X150400637Y-115534949D01*
X150423989Y-115567271D01*
X150468465Y-115656105D01*
X150480352Y-115694165D01*
X150495765Y-115802584D01*
X150496974Y-115822549D01*
X150493480Y-115994999D01*
X150493480Y-115995000D01*
X150480139Y-116653156D01*
X150480129Y-116653584D01*
X150479987Y-116659569D01*
X150479964Y-116660406D01*
X150479781Y-116666409D01*
X150479768Y-116666841D01*
X150322692Y-121290778D01*
X150319493Y-121314858D01*
X150301836Y-121390211D01*
X150298397Y-121397781D01*
X150298133Y-121402918D01*
X150281842Y-121434228D01*
X150243966Y-121486996D01*
X150208658Y-121520023D01*
X150153481Y-121554296D01*
X150108229Y-121571310D01*
X150043283Y-121582020D01*
X149996593Y-121580804D01*
X149926306Y-121565419D01*
X149884769Y-121547945D01*
X149823897Y-121507983D01*
X149791349Y-121476823D01*
X149748772Y-121417743D01*
X149729509Y-121377007D01*
X149707900Y-121295456D01*
X149704124Y-121273148D01*
X149351440Y-116660406D01*
X149332485Y-116412503D01*
X149332355Y-116410595D01*
X149330621Y-116381958D01*
X149330445Y-116378036D01*
X149329617Y-116349311D01*
X149329576Y-116347349D01*
X149325099Y-116002665D01*
X149325847Y-115987377D01*
X149338049Y-115877623D01*
X149345154Y-115847869D01*
X149381146Y-115751702D01*
X149395325Y-115724588D01*
X149416387Y-115694165D01*
X149453771Y-115640164D01*
X149474157Y-115617350D01*
X149551503Y-115549805D01*
X149576846Y-115532684D01*
X149675280Y-115482627D01*
X149689323Y-115476546D01*
X149905571Y-115398407D01*
X149924853Y-115393153D01*
X150032506Y-115372977D01*
X150072357Y-115372030D01*
X150170773Y-115385669D01*
G37*
%TD.AperFunction*%
%TD*%
%TA.AperFunction,Conductor*%
%TO.N,GND*%
G36*
X166276206Y-111447795D02*
G01*
X166343130Y-111467859D01*
X166388585Y-111520922D01*
X166399500Y-111571793D01*
X166399500Y-123433745D01*
X166379815Y-123500784D01*
X166327011Y-123546539D01*
X166257853Y-123556483D01*
X166194297Y-123527458D01*
X166187819Y-123521426D01*
X166153347Y-123486954D01*
X166153344Y-123486952D01*
X166153342Y-123486950D01*
X166072760Y-123445891D01*
X166040301Y-123429352D01*
X165946524Y-123414500D01*
X164183482Y-123414500D01*
X164102519Y-123427323D01*
X164089696Y-123429354D01*
X163976658Y-123486950D01*
X163976657Y-123486951D01*
X163976652Y-123486954D01*
X163886954Y-123576652D01*
X163886951Y-123576657D01*
X163886950Y-123576658D01*
X163870413Y-123609114D01*
X163829352Y-123689698D01*
X163814500Y-123783475D01*
X163814500Y-125546517D01*
X163822056Y-125594221D01*
X163829354Y-125640304D01*
X163886950Y-125753342D01*
X163886952Y-125753344D01*
X163886954Y-125753347D01*
X163976652Y-125843045D01*
X163976654Y-125843046D01*
X163976658Y-125843050D01*
X164073758Y-125892525D01*
X164089698Y-125900647D01*
X164183475Y-125915499D01*
X164183481Y-125915500D01*
X165946518Y-125915499D01*
X166040304Y-125900646D01*
X166153342Y-125843050D01*
X166163210Y-125833182D01*
X166187819Y-125808574D01*
X166249142Y-125775089D01*
X166318834Y-125780073D01*
X166374767Y-125821945D01*
X166399184Y-125887409D01*
X166399500Y-125896255D01*
X166399500Y-135978261D01*
X166379815Y-136045300D01*
X166327011Y-136091055D01*
X166276627Y-136102256D01*
X155578062Y-136199495D01*
X155576935Y-136199500D01*
X122639840Y-136199500D01*
X122572801Y-136179815D01*
X122527046Y-136127011D01*
X122515840Y-136075255D01*
X122520528Y-133703475D01*
X126894500Y-133703475D01*
X126894500Y-135466517D01*
X126905292Y-135534657D01*
X126909354Y-135560304D01*
X126966950Y-135673342D01*
X126966952Y-135673344D01*
X126966954Y-135673347D01*
X127056652Y-135763045D01*
X127056654Y-135763046D01*
X127056658Y-135763050D01*
X127169694Y-135820645D01*
X127169698Y-135820647D01*
X127263475Y-135835499D01*
X127263481Y-135835500D01*
X129026518Y-135835499D01*
X129120304Y-135820646D01*
X129233342Y-135763050D01*
X129323050Y-135673342D01*
X129380646Y-135560304D01*
X129380646Y-135560302D01*
X129380647Y-135560301D01*
X129395499Y-135466524D01*
X129395500Y-135466519D01*
X129395499Y-135319263D01*
X129415183Y-135252227D01*
X129467987Y-135206472D01*
X129537145Y-135196528D01*
X129600701Y-135225553D01*
X129619817Y-135246380D01*
X129731172Y-135399646D01*
X129870354Y-135538828D01*
X130029595Y-135654524D01*
X130112455Y-135696743D01*
X130204970Y-135743882D01*
X130204972Y-135743882D01*
X130204975Y-135743884D01*
X130263962Y-135763050D01*
X130392173Y-135804709D01*
X130586578Y-135835500D01*
X130586583Y-135835500D01*
X130783422Y-135835500D01*
X130977826Y-135804709D01*
X131165025Y-135743884D01*
X131340405Y-135654524D01*
X131499646Y-135538828D01*
X131638828Y-135399646D01*
X131754524Y-135240405D01*
X131818166Y-135115500D01*
X131844515Y-135063787D01*
X131892489Y-135012990D01*
X131960310Y-134996195D01*
X132026445Y-135018732D01*
X132065485Y-135063787D01*
X132155474Y-135240403D01*
X132159817Y-135246380D01*
X132271172Y-135399646D01*
X132410354Y-135538828D01*
X132569595Y-135654524D01*
X132652455Y-135696743D01*
X132744970Y-135743882D01*
X132744972Y-135743882D01*
X132744975Y-135743884D01*
X132803962Y-135763050D01*
X132932173Y-135804709D01*
X133126578Y-135835500D01*
X133126583Y-135835500D01*
X133323422Y-135835500D01*
X133517826Y-135804709D01*
X133705025Y-135743884D01*
X133880405Y-135654524D01*
X134039646Y-135538828D01*
X134178828Y-135399646D01*
X134294524Y-135240405D01*
X134383884Y-135065025D01*
X134444709Y-134877826D01*
X134465506Y-134746518D01*
X134475500Y-134683422D01*
X134475500Y-134486577D01*
X134444709Y-134292173D01*
X134383882Y-134104970D01*
X134294523Y-133929594D01*
X134290183Y-133923620D01*
X134178828Y-133770354D01*
X134039646Y-133631172D01*
X133880405Y-133515476D01*
X133705029Y-133426117D01*
X133517826Y-133365290D01*
X133323422Y-133334500D01*
X133323417Y-133334500D01*
X133126583Y-133334500D01*
X133126578Y-133334500D01*
X132932173Y-133365290D01*
X132744970Y-133426117D01*
X132569594Y-133515476D01*
X132478741Y-133581485D01*
X132410354Y-133631172D01*
X132410352Y-133631174D01*
X132410351Y-133631174D01*
X132271174Y-133770351D01*
X132271174Y-133770352D01*
X132271172Y-133770354D01*
X132221485Y-133838741D01*
X132155476Y-133929594D01*
X132065485Y-134106213D01*
X132017511Y-134157009D01*
X131949690Y-134173804D01*
X131883555Y-134151267D01*
X131844515Y-134106213D01*
X131817397Y-134052992D01*
X131754524Y-133929595D01*
X131638828Y-133770354D01*
X131499646Y-133631172D01*
X131340405Y-133515476D01*
X131165029Y-133426117D01*
X130977826Y-133365290D01*
X130783422Y-133334500D01*
X130783417Y-133334500D01*
X130586583Y-133334500D01*
X130586578Y-133334500D01*
X130392173Y-133365290D01*
X130204970Y-133426117D01*
X130029594Y-133515476D01*
X129938741Y-133581485D01*
X129870354Y-133631172D01*
X129870352Y-133631174D01*
X129870351Y-133631174D01*
X129731173Y-133770352D01*
X129619817Y-133923620D01*
X129564486Y-133966285D01*
X129494873Y-133972264D01*
X129433078Y-133939658D01*
X129398721Y-133878819D01*
X129395499Y-133850734D01*
X129395499Y-133703482D01*
X129384047Y-133631174D01*
X129380646Y-133609696D01*
X129323050Y-133496658D01*
X129323046Y-133496654D01*
X129323045Y-133496652D01*
X129233347Y-133406954D01*
X129233344Y-133406952D01*
X129233342Y-133406950D01*
X129151580Y-133365290D01*
X129120301Y-133349352D01*
X129026524Y-133334500D01*
X127263482Y-133334500D01*
X127182519Y-133347323D01*
X127169696Y-133349354D01*
X127056658Y-133406950D01*
X127056657Y-133406951D01*
X127056652Y-133406954D01*
X126966954Y-133496652D01*
X126966951Y-133496657D01*
X126909352Y-133609698D01*
X126894500Y-133703475D01*
X122520528Y-133703475D01*
X122520538Y-133698364D01*
X122521951Y-132983475D01*
X161114500Y-132983475D01*
X161114500Y-134746517D01*
X161125292Y-134814657D01*
X161129354Y-134840304D01*
X161186950Y-134953342D01*
X161186952Y-134953344D01*
X161186954Y-134953347D01*
X161276652Y-135043045D01*
X161276654Y-135043046D01*
X161276658Y-135043050D01*
X161389694Y-135100645D01*
X161389698Y-135100647D01*
X161483475Y-135115499D01*
X161483481Y-135115500D01*
X163246518Y-135115499D01*
X163340304Y-135100646D01*
X163453342Y-135043050D01*
X163543050Y-134953342D01*
X163600646Y-134840304D01*
X163600646Y-134840302D01*
X163600647Y-134840301D01*
X163615499Y-134746524D01*
X163615500Y-134746519D01*
X163615499Y-132983482D01*
X163600646Y-132889696D01*
X163543050Y-132776658D01*
X163543046Y-132776654D01*
X163543045Y-132776652D01*
X163453347Y-132686954D01*
X163453344Y-132686952D01*
X163453342Y-132686950D01*
X163376517Y-132647805D01*
X163340301Y-132629352D01*
X163246524Y-132614500D01*
X163246519Y-132614500D01*
X163189500Y-132614500D01*
X163122461Y-132594815D01*
X163076706Y-132542011D01*
X163065500Y-132490500D01*
X163065500Y-131206518D01*
X163085185Y-131139479D01*
X163101823Y-131118833D01*
X163105156Y-131115500D01*
X163109114Y-131111542D01*
X163185775Y-130996811D01*
X163238580Y-130869328D01*
X163248942Y-130817236D01*
X163265500Y-130733995D01*
X163265500Y-130596004D01*
X163238581Y-130460677D01*
X163238580Y-130460676D01*
X163238580Y-130460672D01*
X163217223Y-130409111D01*
X163185778Y-130333195D01*
X163185771Y-130333182D01*
X163109114Y-130218458D01*
X163109111Y-130218454D01*
X163011545Y-130120888D01*
X163011541Y-130120885D01*
X162896817Y-130044228D01*
X162896804Y-130044221D01*
X162769332Y-129991421D01*
X162769322Y-129991418D01*
X162633995Y-129964500D01*
X162633993Y-129964500D01*
X162496007Y-129964500D01*
X162496005Y-129964500D01*
X162360677Y-129991418D01*
X162360667Y-129991421D01*
X162233195Y-130044221D01*
X162233182Y-130044228D01*
X162118458Y-130120885D01*
X162118454Y-130120888D01*
X162020888Y-130218454D01*
X162020885Y-130218458D01*
X161944228Y-130333182D01*
X161944221Y-130333195D01*
X161891421Y-130460667D01*
X161891418Y-130460677D01*
X161864500Y-130596004D01*
X161864500Y-130596007D01*
X161864500Y-130733993D01*
X161864500Y-130733995D01*
X161864499Y-130733995D01*
X161891418Y-130869322D01*
X161891421Y-130869332D01*
X161944221Y-130996804D01*
X161944228Y-130996817D01*
X162020885Y-131111541D01*
X162028177Y-131118833D01*
X162061665Y-131180155D01*
X162064500Y-131206518D01*
X162064500Y-132490500D01*
X162044815Y-132557539D01*
X161992011Y-132603294D01*
X161940500Y-132614500D01*
X161483482Y-132614500D01*
X161402519Y-132627323D01*
X161389696Y-132629354D01*
X161276658Y-132686950D01*
X161276657Y-132686951D01*
X161276652Y-132686954D01*
X161186954Y-132776652D01*
X161186951Y-132776657D01*
X161129352Y-132889698D01*
X161114500Y-132983475D01*
X122521951Y-132983475D01*
X122521961Y-132978364D01*
X122529094Y-129368920D01*
X127096999Y-129368920D01*
X127125840Y-129513907D01*
X127125843Y-129513917D01*
X127182412Y-129650488D01*
X127182419Y-129650501D01*
X127264548Y-129773415D01*
X127264551Y-129773419D01*
X127369080Y-129877948D01*
X127369084Y-129877951D01*
X127491998Y-129960080D01*
X127492011Y-129960087D01*
X127610975Y-130009363D01*
X127628587Y-130016658D01*
X127628591Y-130016658D01*
X127628592Y-130016659D01*
X127773579Y-130045500D01*
X127773582Y-130045500D01*
X127921420Y-130045500D01*
X128018962Y-130026096D01*
X128066413Y-130016658D01*
X128202995Y-129960084D01*
X128325916Y-129877951D01*
X128430451Y-129773416D01*
X128512584Y-129650495D01*
X128569158Y-129513913D01*
X128588146Y-129418458D01*
X128598000Y-129368920D01*
X128598000Y-129221079D01*
X128569159Y-129076092D01*
X128569158Y-129076091D01*
X128569158Y-129076087D01*
X128569156Y-129076082D01*
X128512587Y-128939511D01*
X128512580Y-128939498D01*
X128430451Y-128816584D01*
X128430448Y-128816580D01*
X128325919Y-128712051D01*
X128325915Y-128712048D01*
X128203001Y-128629919D01*
X128202988Y-128629912D01*
X128066417Y-128573343D01*
X128066407Y-128573340D01*
X127921420Y-128544500D01*
X127921418Y-128544500D01*
X127773582Y-128544500D01*
X127773580Y-128544500D01*
X127628592Y-128573340D01*
X127628582Y-128573343D01*
X127492011Y-128629912D01*
X127491998Y-128629919D01*
X127369084Y-128712048D01*
X127369080Y-128712051D01*
X127264551Y-128816580D01*
X127264548Y-128816584D01*
X127182419Y-128939498D01*
X127182412Y-128939511D01*
X127125843Y-129076082D01*
X127125840Y-129076092D01*
X127097000Y-129221079D01*
X127097000Y-129221082D01*
X127097000Y-129368918D01*
X127097000Y-129368920D01*
X127096999Y-129368920D01*
X122529094Y-129368920D01*
X122529399Y-129214745D01*
X122535964Y-125892525D01*
X125564500Y-125892525D01*
X125564500Y-126587475D01*
X125588616Y-126677475D01*
X125602016Y-126727485D01*
X125674490Y-126853015D01*
X126126985Y-127305510D01*
X126229160Y-127364500D01*
X126229161Y-127364501D01*
X126229162Y-127364501D01*
X126252515Y-127377984D01*
X126392525Y-127415500D01*
X126392526Y-127415500D01*
X126392528Y-127415500D01*
X127027472Y-127415500D01*
X127027474Y-127415500D01*
X127027475Y-127415500D01*
X127167485Y-127377984D01*
X127190840Y-127364500D01*
X127293015Y-127305510D01*
X127647319Y-126951206D01*
X127708642Y-126917721D01*
X127778334Y-126922705D01*
X127822681Y-126951206D01*
X130651310Y-129779835D01*
X130684795Y-129841158D01*
X130685246Y-129891707D01*
X130664500Y-129996002D01*
X130664500Y-129996007D01*
X130664500Y-130133993D01*
X130664500Y-130133995D01*
X130664499Y-130133995D01*
X130691418Y-130269322D01*
X130691421Y-130269332D01*
X130744221Y-130396804D01*
X130744228Y-130396817D01*
X130820885Y-130511541D01*
X130820888Y-130511545D01*
X130918454Y-130609111D01*
X130918458Y-130609114D01*
X131033182Y-130685771D01*
X131033195Y-130685778D01*
X131149598Y-130733993D01*
X131160672Y-130738580D01*
X131295475Y-130765394D01*
X131297954Y-130766690D01*
X131300749Y-130766563D01*
X131328725Y-130782786D01*
X131357386Y-130797778D01*
X131358770Y-130800209D01*
X131361191Y-130801613D01*
X131375959Y-130830394D01*
X131391960Y-130858494D01*
X131392200Y-130862046D01*
X131393088Y-130863777D01*
X131393045Y-130874557D01*
X131394700Y-130899034D01*
X131394102Y-130905170D01*
X131374120Y-131005627D01*
X131374120Y-131110281D01*
X131373536Y-131116276D01*
X131362647Y-131143325D01*
X131354435Y-131171292D01*
X131349756Y-131175345D01*
X131347444Y-131181091D01*
X131323657Y-131197961D01*
X131301631Y-131217047D01*
X131295504Y-131217927D01*
X131290452Y-131221511D01*
X131261327Y-131222842D01*
X131232473Y-131226991D01*
X131223629Y-131224565D01*
X131220655Y-131224701D01*
X131217540Y-131222894D01*
X131202668Y-131218815D01*
X131161276Y-131201670D01*
X131077948Y-131167155D01*
X131077943Y-131167154D01*
X131077942Y-131167153D01*
X130942615Y-131140235D01*
X130942613Y-131140235D01*
X130804627Y-131140235D01*
X130804625Y-131140235D01*
X130669297Y-131167153D01*
X130669287Y-131167156D01*
X130541815Y-131219956D01*
X130541802Y-131219963D01*
X130427078Y-131296620D01*
X130427074Y-131296623D01*
X130329508Y-131394189D01*
X130329505Y-131394193D01*
X130252848Y-131508917D01*
X130252841Y-131508930D01*
X130200041Y-131636402D01*
X130200038Y-131636412D01*
X130173120Y-131771739D01*
X130173120Y-131771742D01*
X130173120Y-131909728D01*
X130173120Y-131909730D01*
X130173119Y-131909730D01*
X130200038Y-132045057D01*
X130200041Y-132045067D01*
X130252841Y-132172539D01*
X130252848Y-132172552D01*
X130329505Y-132287276D01*
X130329508Y-132287280D01*
X130427074Y-132384846D01*
X130427078Y-132384849D01*
X130541802Y-132461506D01*
X130541815Y-132461513D01*
X130611797Y-132490500D01*
X130669292Y-132514315D01*
X130669296Y-132514315D01*
X130669297Y-132514316D01*
X130804624Y-132541235D01*
X130804627Y-132541235D01*
X130942615Y-132541235D01*
X131033661Y-132523124D01*
X131077948Y-132514315D01*
X131205431Y-132461510D01*
X131320162Y-132384849D01*
X131320165Y-132384846D01*
X131327458Y-132377554D01*
X131388781Y-132344069D01*
X131415139Y-132341235D01*
X132223481Y-132341235D01*
X132290520Y-132360920D01*
X132311162Y-132377554D01*
X132318454Y-132384846D01*
X132318458Y-132384849D01*
X132433182Y-132461506D01*
X132433195Y-132461513D01*
X132503177Y-132490500D01*
X132560672Y-132514315D01*
X132560676Y-132514315D01*
X132560677Y-132514316D01*
X132696004Y-132541235D01*
X132696007Y-132541235D01*
X132833995Y-132541235D01*
X132925041Y-132523124D01*
X132969328Y-132514315D01*
X133096811Y-132461510D01*
X133211542Y-132384849D01*
X133309114Y-132287277D01*
X133385775Y-132172546D01*
X133438580Y-132045063D01*
X133460532Y-131934706D01*
X133465500Y-131909730D01*
X133465500Y-131771739D01*
X133438581Y-131636412D01*
X133438580Y-131636411D01*
X133438580Y-131636407D01*
X133415928Y-131581720D01*
X133385778Y-131508930D01*
X133385771Y-131508917D01*
X133309114Y-131394193D01*
X133309111Y-131394189D01*
X133211545Y-131296623D01*
X133211541Y-131296620D01*
X133096817Y-131219963D01*
X133096804Y-131219956D01*
X132969332Y-131167156D01*
X132969322Y-131167153D01*
X132874928Y-131148377D01*
X132813017Y-131115992D01*
X132778443Y-131055276D01*
X132775120Y-131026760D01*
X132775120Y-131005624D01*
X132748201Y-130870297D01*
X132748200Y-130870296D01*
X132748200Y-130870292D01*
X132747798Y-130869322D01*
X132695398Y-130742815D01*
X132695391Y-130742802D01*
X132618734Y-130628078D01*
X132618731Y-130628074D01*
X132611439Y-130620782D01*
X132596735Y-130593854D01*
X132580143Y-130568036D01*
X132579251Y-130561835D01*
X132577954Y-130559459D01*
X132575120Y-130533101D01*
X132575120Y-130519216D01*
X132594805Y-130452177D01*
X132630229Y-130416114D01*
X132712542Y-130361114D01*
X132810111Y-130263545D01*
X132810114Y-130263542D01*
X132886775Y-130148811D01*
X132939580Y-130021328D01*
X132964347Y-129896817D01*
X132966500Y-129885995D01*
X132966500Y-129748004D01*
X132939581Y-129612677D01*
X132939580Y-129612676D01*
X132939580Y-129612672D01*
X132906660Y-129533195D01*
X132886778Y-129485195D01*
X132886771Y-129485182D01*
X132810114Y-129370458D01*
X132810111Y-129370454D01*
X132712545Y-129272888D01*
X132712541Y-129272885D01*
X132597817Y-129196228D01*
X132597804Y-129196221D01*
X132470332Y-129143421D01*
X132470322Y-129143418D01*
X132334995Y-129116500D01*
X132334993Y-129116500D01*
X132197007Y-129116500D01*
X132197005Y-129116500D01*
X132061677Y-129143418D01*
X132061667Y-129143421D01*
X131934195Y-129196221D01*
X131934177Y-129196231D01*
X131833306Y-129263631D01*
X131766629Y-129284509D01*
X131699249Y-129266024D01*
X131676735Y-129248210D01*
X129933189Y-127504664D01*
X129899704Y-127443341D01*
X129904688Y-127373649D01*
X129946560Y-127317716D01*
X130012024Y-127293299D01*
X130045059Y-127295365D01*
X130082199Y-127302753D01*
X130096006Y-127305500D01*
X130096007Y-127305500D01*
X130233995Y-127305500D01*
X130325041Y-127287389D01*
X130369328Y-127278580D01*
X130476971Y-127233993D01*
X130496804Y-127225778D01*
X130496804Y-127225777D01*
X130496811Y-127225775D01*
X130570709Y-127176398D01*
X130637386Y-127155520D01*
X130639600Y-127155500D01*
X131075613Y-127155500D01*
X131142652Y-127175185D01*
X131163294Y-127191819D01*
X131529760Y-127558284D01*
X131563245Y-127619607D01*
X131565482Y-127633812D01*
X131565500Y-127633996D01*
X131592418Y-127769322D01*
X131592421Y-127769332D01*
X131645221Y-127896804D01*
X131645228Y-127896817D01*
X131721885Y-128011541D01*
X131721888Y-128011545D01*
X131819454Y-128109111D01*
X131819458Y-128109114D01*
X131934182Y-128185771D01*
X131934195Y-128185778D01*
X132018771Y-128220810D01*
X132061672Y-128238580D01*
X132061676Y-128238580D01*
X132061677Y-128238581D01*
X132197004Y-128265500D01*
X132197007Y-128265500D01*
X132334995Y-128265500D01*
X132426041Y-128247389D01*
X132470328Y-128238580D01*
X132481397Y-128233995D01*
X135764499Y-128233995D01*
X135791418Y-128369322D01*
X135791421Y-128369332D01*
X135844221Y-128496804D01*
X135844228Y-128496817D01*
X135920885Y-128611541D01*
X135928177Y-128618833D01*
X135961665Y-128680155D01*
X135964500Y-128706518D01*
X135964500Y-129499108D01*
X135964500Y-129630892D01*
X135972481Y-129660677D01*
X135998608Y-129758187D01*
X136011107Y-129779835D01*
X136064500Y-129872314D01*
X136064502Y-129872316D01*
X136478181Y-130285995D01*
X136511666Y-130347318D01*
X136514500Y-130373676D01*
X136514500Y-130483993D01*
X136514500Y-130483995D01*
X136514499Y-130483995D01*
X136541418Y-130619322D01*
X136541421Y-130619332D01*
X136594221Y-130746804D01*
X136594228Y-130746817D01*
X136670885Y-130861541D01*
X136670888Y-130861545D01*
X136768454Y-130959111D01*
X136768458Y-130959114D01*
X136883182Y-131035771D01*
X136883195Y-131035778D01*
X137010667Y-131088578D01*
X137010672Y-131088580D01*
X137010676Y-131088580D01*
X137010677Y-131088581D01*
X137146004Y-131115500D01*
X137146007Y-131115500D01*
X137283995Y-131115500D01*
X137375041Y-131097389D01*
X137419328Y-131088580D01*
X137546811Y-131035775D01*
X137661542Y-130959114D01*
X137759114Y-130861542D01*
X137835775Y-130746811D01*
X137844650Y-130725386D01*
X137859693Y-130689067D01*
X137888580Y-130619328D01*
X137910020Y-130511542D01*
X137915500Y-130483995D01*
X137915500Y-130346004D01*
X137888581Y-130210677D01*
X137888580Y-130210676D01*
X137888580Y-130210672D01*
X137878269Y-130185778D01*
X137835778Y-130083195D01*
X137835771Y-130083182D01*
X137759114Y-129968458D01*
X137759111Y-129968454D01*
X137724652Y-129933995D01*
X149864499Y-129933995D01*
X149891418Y-130069322D01*
X149891421Y-130069332D01*
X149944221Y-130196804D01*
X149944228Y-130196817D01*
X150020885Y-130311541D01*
X150020888Y-130311545D01*
X150118454Y-130409111D01*
X150118458Y-130409114D01*
X150233182Y-130485771D01*
X150233195Y-130485778D01*
X150321950Y-130522541D01*
X150360672Y-130538580D01*
X150360676Y-130538580D01*
X150360677Y-130538581D01*
X150496004Y-130565500D01*
X150496007Y-130565500D01*
X150521324Y-130565500D01*
X150550764Y-130574144D01*
X150580751Y-130580668D01*
X150585766Y-130584422D01*
X150588363Y-130585185D01*
X150609005Y-130601819D01*
X150696253Y-130689067D01*
X150729738Y-130750390D01*
X150732572Y-130776748D01*
X150732572Y-131380891D01*
X150766680Y-131508188D01*
X150773338Y-131519718D01*
X150789952Y-131581720D01*
X150789952Y-131641373D01*
X150789952Y-131641375D01*
X150789951Y-131641375D01*
X150816870Y-131776702D01*
X150816873Y-131776712D01*
X150869673Y-131904184D01*
X150869680Y-131904197D01*
X150946337Y-132018921D01*
X150946340Y-132018925D01*
X151043906Y-132116491D01*
X151043910Y-132116494D01*
X151158634Y-132193151D01*
X151158647Y-132193158D01*
X151286119Y-132245958D01*
X151286124Y-132245960D01*
X151286128Y-132245960D01*
X151286129Y-132245961D01*
X151421456Y-132272880D01*
X151421459Y-132272880D01*
X151559447Y-132272880D01*
X151650493Y-132254769D01*
X151694780Y-132245960D01*
X151822263Y-132193155D01*
X151936994Y-132116494D01*
X152015337Y-132038150D01*
X152076658Y-132004667D01*
X152127209Y-132004216D01*
X152178561Y-132014431D01*
X152178564Y-132014431D01*
X152316552Y-132014431D01*
X152407598Y-131996320D01*
X152451885Y-131987511D01*
X152579368Y-131934706D01*
X152694099Y-131858045D01*
X152791671Y-131760473D01*
X152868332Y-131645742D01*
X152921137Y-131518259D01*
X152921139Y-131518248D01*
X152922906Y-131512426D01*
X152924244Y-131512831D01*
X152953354Y-131457176D01*
X153011824Y-131423878D01*
X153011738Y-131423592D01*
X153012998Y-131423209D01*
X153014069Y-131422600D01*
X153017387Y-131421878D01*
X153017560Y-131421825D01*
X153017571Y-131421823D01*
X153145054Y-131369018D01*
X153259785Y-131292357D01*
X153357357Y-131194785D01*
X153434018Y-131080054D01*
X153486823Y-130952571D01*
X153502341Y-130874557D01*
X153513743Y-130817238D01*
X153513743Y-130679248D01*
X153503711Y-130628818D01*
X153509938Y-130559226D01*
X153552800Y-130504048D01*
X153577876Y-130490064D01*
X153646804Y-130461513D01*
X153646804Y-130461512D01*
X153646811Y-130461510D01*
X153761542Y-130384849D01*
X153859114Y-130287277D01*
X153935775Y-130172546D01*
X153988580Y-130045063D01*
X154011795Y-129928352D01*
X154044179Y-129866442D01*
X154104895Y-129831868D01*
X154174664Y-129835607D01*
X154231337Y-129876473D01*
X154242769Y-129894089D01*
X154244222Y-129896808D01*
X154320885Y-130011541D01*
X154320888Y-130011545D01*
X154418454Y-130109111D01*
X154418458Y-130109114D01*
X154533182Y-130185771D01*
X154533195Y-130185778D01*
X154660667Y-130238578D01*
X154660672Y-130238580D01*
X154660676Y-130238580D01*
X154660677Y-130238581D01*
X154796004Y-130265500D01*
X154796007Y-130265500D01*
X154933995Y-130265500D01*
X155025041Y-130247389D01*
X155069328Y-130238580D01*
X155196811Y-130185775D01*
X155311542Y-130109114D01*
X155409114Y-130011542D01*
X155485775Y-129896811D01*
X155486903Y-129894089D01*
X155514195Y-129828199D01*
X155538580Y-129769328D01*
X155560194Y-129660667D01*
X155565500Y-129633995D01*
X155565500Y-129623676D01*
X155585185Y-129556637D01*
X155601814Y-129535999D01*
X155665499Y-129472315D01*
X155693111Y-129424491D01*
X155696597Y-129418454D01*
X155731390Y-129358189D01*
X155731392Y-129358186D01*
X155731540Y-129357632D01*
X155733046Y-129352015D01*
X155750281Y-129287691D01*
X155765500Y-129230893D01*
X155765500Y-129099108D01*
X155765500Y-128906518D01*
X155785185Y-128839479D01*
X155801823Y-128818833D01*
X155804076Y-128816580D01*
X155809114Y-128811542D01*
X155885775Y-128696811D01*
X155896521Y-128670869D01*
X155938578Y-128569332D01*
X155938580Y-128569328D01*
X155950547Y-128509166D01*
X155965500Y-128433995D01*
X155965500Y-128296004D01*
X155938581Y-128160677D01*
X155938580Y-128160676D01*
X155938580Y-128160672D01*
X155900738Y-128069313D01*
X155885778Y-128033195D01*
X155885771Y-128033182D01*
X155809114Y-127918458D01*
X155809111Y-127918454D01*
X155711545Y-127820888D01*
X155711541Y-127820885D01*
X155596817Y-127744228D01*
X155596804Y-127744221D01*
X155469332Y-127691421D01*
X155469322Y-127691418D01*
X155333995Y-127664500D01*
X155333993Y-127664500D01*
X155196007Y-127664500D01*
X155196005Y-127664500D01*
X155060677Y-127691418D01*
X155060667Y-127691421D01*
X154933195Y-127744221D01*
X154933177Y-127744231D01*
X154842115Y-127805077D01*
X154775438Y-127825955D01*
X154708058Y-127807470D01*
X154661368Y-127755491D01*
X154651608Y-127726166D01*
X154638581Y-127660679D01*
X154638580Y-127660672D01*
X154631769Y-127644228D01*
X154585778Y-127533195D01*
X154585771Y-127533182D01*
X154509114Y-127418458D01*
X154509111Y-127418454D01*
X154411545Y-127320888D01*
X154411541Y-127320885D01*
X154296817Y-127244228D01*
X154296804Y-127244221D01*
X154169332Y-127191421D01*
X154169322Y-127191418D01*
X154033995Y-127164500D01*
X154033993Y-127164500D01*
X153896007Y-127164500D01*
X153896005Y-127164500D01*
X153760677Y-127191418D01*
X153760667Y-127191421D01*
X153633195Y-127244221D01*
X153633182Y-127244228D01*
X153518458Y-127320885D01*
X153518454Y-127320888D01*
X153420888Y-127418454D01*
X153420882Y-127418462D01*
X153344226Y-127533186D01*
X153341350Y-127538567D01*
X153339509Y-127537582D01*
X153301603Y-127584592D01*
X153235301Y-127606635D01*
X153183466Y-127597275D01*
X153169336Y-127591422D01*
X153169322Y-127591418D01*
X153033995Y-127564500D01*
X153033993Y-127564500D01*
X152896007Y-127564500D01*
X152896005Y-127564500D01*
X152760677Y-127591418D01*
X152760667Y-127591421D01*
X152633195Y-127644221D01*
X152633182Y-127644228D01*
X152518458Y-127720885D01*
X152518454Y-127720888D01*
X152420888Y-127818454D01*
X152420885Y-127818458D01*
X152344228Y-127933182D01*
X152344221Y-127933195D01*
X152291421Y-128060667D01*
X152291418Y-128060677D01*
X152264500Y-128196004D01*
X152264500Y-128240500D01*
X152244815Y-128307539D01*
X152192011Y-128353294D01*
X152140500Y-128364500D01*
X152096005Y-128364500D01*
X151960677Y-128391418D01*
X151960667Y-128391421D01*
X151833195Y-128444221D01*
X151833182Y-128444228D01*
X151718458Y-128520885D01*
X151718454Y-128520888D01*
X151620888Y-128618454D01*
X151620885Y-128618458D01*
X151544228Y-128733182D01*
X151544221Y-128733195D01*
X151491421Y-128860667D01*
X151491418Y-128860677D01*
X151464500Y-128996004D01*
X151464500Y-128996007D01*
X151464500Y-129133993D01*
X151464500Y-129133995D01*
X151464499Y-129133995D01*
X151491418Y-129269322D01*
X151491421Y-129269332D01*
X151544221Y-129396804D01*
X151544228Y-129396817D01*
X151620885Y-129511541D01*
X151628177Y-129518833D01*
X151629484Y-129521228D01*
X151631825Y-129522638D01*
X151646138Y-129551723D01*
X151661665Y-129580155D01*
X151661470Y-129582878D01*
X151662676Y-129585328D01*
X151664500Y-129606518D01*
X151664500Y-129942324D01*
X151644815Y-130009363D01*
X151592011Y-130055118D01*
X151522853Y-130065062D01*
X151459297Y-130036037D01*
X151452819Y-130030005D01*
X151301819Y-129879005D01*
X151300512Y-129876612D01*
X151298175Y-129875204D01*
X151283860Y-129846116D01*
X151268334Y-129817682D01*
X151267905Y-129813695D01*
X151267324Y-129812514D01*
X151267558Y-129810466D01*
X151266649Y-129802012D01*
X151266097Y-129802067D01*
X151265500Y-129796004D01*
X151238581Y-129660677D01*
X151238580Y-129660676D01*
X151238580Y-129660672D01*
X151226245Y-129630892D01*
X151185778Y-129533195D01*
X151185771Y-129533182D01*
X151109114Y-129418458D01*
X151109111Y-129418454D01*
X151011545Y-129320888D01*
X151011541Y-129320885D01*
X150896817Y-129244228D01*
X150896804Y-129244221D01*
X150769332Y-129191421D01*
X150769322Y-129191418D01*
X150633995Y-129164500D01*
X150633993Y-129164500D01*
X150496007Y-129164500D01*
X150496005Y-129164500D01*
X150360677Y-129191418D01*
X150360667Y-129191421D01*
X150233195Y-129244221D01*
X150233182Y-129244228D01*
X150118458Y-129320885D01*
X150118454Y-129320888D01*
X150020888Y-129418454D01*
X150020885Y-129418458D01*
X149944228Y-129533182D01*
X149944221Y-129533195D01*
X149891421Y-129660667D01*
X149891418Y-129660677D01*
X149864500Y-129796004D01*
X149864500Y-129796007D01*
X149864500Y-129933993D01*
X149864500Y-129933995D01*
X149864499Y-129933995D01*
X137724652Y-129933995D01*
X137661545Y-129870888D01*
X137661541Y-129870885D01*
X137546817Y-129794228D01*
X137546804Y-129794221D01*
X137419332Y-129741421D01*
X137419320Y-129741418D01*
X137368721Y-129731353D01*
X137306810Y-129698968D01*
X137305231Y-129697417D01*
X137001819Y-129394005D01*
X136968334Y-129332682D01*
X136965500Y-129306324D01*
X136965500Y-128706518D01*
X136985185Y-128639479D01*
X137001823Y-128618833D01*
X137002202Y-128618454D01*
X137009114Y-128611542D01*
X137085775Y-128496811D01*
X137138580Y-128369328D01*
X137164206Y-128240500D01*
X137165500Y-128233995D01*
X137165500Y-128096004D01*
X137138581Y-127960677D01*
X137138580Y-127960676D01*
X137138580Y-127960672D01*
X137129429Y-127938580D01*
X137085778Y-127833195D01*
X137085771Y-127833182D01*
X137009114Y-127718458D01*
X137009111Y-127718454D01*
X136911545Y-127620888D01*
X136911541Y-127620885D01*
X136796817Y-127544228D01*
X136796804Y-127544221D01*
X136669332Y-127491421D01*
X136669322Y-127491418D01*
X136533995Y-127464500D01*
X136533993Y-127464500D01*
X136396007Y-127464500D01*
X136396005Y-127464500D01*
X136260677Y-127491418D01*
X136260667Y-127491421D01*
X136133195Y-127544221D01*
X136133182Y-127544228D01*
X136018458Y-127620885D01*
X136018454Y-127620888D01*
X135920888Y-127718454D01*
X135920885Y-127718458D01*
X135844228Y-127833182D01*
X135844221Y-127833195D01*
X135791421Y-127960667D01*
X135791418Y-127960677D01*
X135764500Y-128096004D01*
X135764500Y-128096007D01*
X135764500Y-128233993D01*
X135764500Y-128233995D01*
X135764499Y-128233995D01*
X132481397Y-128233995D01*
X132597811Y-128185775D01*
X132712542Y-128109114D01*
X132810114Y-128011542D01*
X132886775Y-127896811D01*
X132939580Y-127769328D01*
X132955077Y-127691420D01*
X132966500Y-127633995D01*
X132966500Y-127496004D01*
X132939581Y-127360677D01*
X132939580Y-127360676D01*
X132939580Y-127360672D01*
X132925932Y-127327723D01*
X132886778Y-127233195D01*
X132886771Y-127233182D01*
X132810114Y-127118458D01*
X132810111Y-127118454D01*
X132712545Y-127020888D01*
X132712541Y-127020885D01*
X132597817Y-126944228D01*
X132597804Y-126944221D01*
X132470332Y-126891421D01*
X132470322Y-126891418D01*
X132444324Y-126886247D01*
X132382413Y-126853862D01*
X132380835Y-126852311D01*
X131812520Y-126283995D01*
X137664499Y-126283995D01*
X137691418Y-126419322D01*
X137691421Y-126419332D01*
X137744221Y-126546804D01*
X137744228Y-126546817D01*
X137820885Y-126661541D01*
X137820888Y-126661545D01*
X137918454Y-126759111D01*
X137918458Y-126759114D01*
X138033182Y-126835771D01*
X138033195Y-126835778D01*
X138160667Y-126888578D01*
X138160672Y-126888580D01*
X138160676Y-126888580D01*
X138160677Y-126888581D01*
X138296004Y-126915500D01*
X138296007Y-126915500D01*
X138433995Y-126915500D01*
X138555050Y-126891420D01*
X138569328Y-126888580D01*
X138696811Y-126835775D01*
X138811542Y-126759114D01*
X138909114Y-126661542D01*
X138985775Y-126546811D01*
X139038580Y-126419328D01*
X139056888Y-126327290D01*
X139065500Y-126283995D01*
X139066097Y-126277933D01*
X139068817Y-126278200D01*
X139085185Y-126222461D01*
X139137989Y-126176706D01*
X139189500Y-126165500D01*
X139907324Y-126165500D01*
X139928569Y-126171738D01*
X139950658Y-126173318D01*
X139961441Y-126181390D01*
X139974363Y-126185185D01*
X139988862Y-126201918D01*
X140006591Y-126215190D01*
X140011298Y-126227810D01*
X140020118Y-126237989D01*
X140023269Y-126259906D01*
X140031008Y-126280654D01*
X140028145Y-126293814D01*
X140030062Y-126307147D01*
X140020862Y-126327290D01*
X140016156Y-126348927D01*
X140002887Y-126366652D01*
X140001037Y-126370703D01*
X139995005Y-126377181D01*
X139944005Y-126428181D01*
X139882682Y-126461666D01*
X139856324Y-126464500D01*
X139796005Y-126464500D01*
X139660677Y-126491418D01*
X139660667Y-126491421D01*
X139533195Y-126544221D01*
X139533182Y-126544228D01*
X139418458Y-126620885D01*
X139418454Y-126620888D01*
X139320888Y-126718454D01*
X139320885Y-126718458D01*
X139244228Y-126833182D01*
X139244221Y-126833195D01*
X139191421Y-126960667D01*
X139191418Y-126960677D01*
X139164500Y-127096004D01*
X139164500Y-127096007D01*
X139164500Y-127233993D01*
X139164500Y-127233995D01*
X139164499Y-127233995D01*
X139191418Y-127369322D01*
X139191421Y-127369332D01*
X139244221Y-127496804D01*
X139244228Y-127496817D01*
X139320885Y-127611541D01*
X139320888Y-127611545D01*
X139418454Y-127709111D01*
X139418458Y-127709114D01*
X139533182Y-127785771D01*
X139533195Y-127785778D01*
X139630192Y-127825955D01*
X139660672Y-127838580D01*
X139660676Y-127838580D01*
X139660677Y-127838581D01*
X139796004Y-127865500D01*
X139796007Y-127865500D01*
X139933995Y-127865500D01*
X140045810Y-127843258D01*
X140069328Y-127838580D01*
X140190090Y-127788558D01*
X140259559Y-127781090D01*
X140313272Y-127805910D01*
X140313393Y-127805730D01*
X140314541Y-127806497D01*
X140316207Y-127807267D01*
X140318457Y-127809114D01*
X140433182Y-127885771D01*
X140433195Y-127885778D01*
X140547640Y-127933182D01*
X140560672Y-127938580D01*
X140560676Y-127938580D01*
X140560677Y-127938581D01*
X140696004Y-127965500D01*
X140696007Y-127965500D01*
X140833995Y-127965500D01*
X140925041Y-127947389D01*
X140969328Y-127938580D01*
X141096811Y-127885775D01*
X141096820Y-127885768D01*
X141097171Y-127885582D01*
X141097386Y-127885537D01*
X141102440Y-127883444D01*
X141102836Y-127884401D01*
X141165573Y-127871333D01*
X141230819Y-127896326D01*
X141272195Y-127952627D01*
X141279636Y-127994934D01*
X141279636Y-128069311D01*
X141279636Y-128069313D01*
X141279635Y-128069313D01*
X141306554Y-128204640D01*
X141306556Y-128204646D01*
X141359359Y-128332125D01*
X141359437Y-128332312D01*
X141361574Y-128352189D01*
X141368560Y-128370919D01*
X141365232Y-128386215D01*
X141366906Y-128401782D01*
X141357957Y-128419659D01*
X141353708Y-128439192D01*
X141337022Y-128461480D01*
X141335631Y-128464261D01*
X141332557Y-128467446D01*
X141317435Y-128482568D01*
X141256112Y-128516053D01*
X141253946Y-128516504D01*
X141166783Y-128533842D01*
X141166773Y-128533845D01*
X141039301Y-128586645D01*
X141039288Y-128586652D01*
X140924564Y-128663309D01*
X140924560Y-128663312D01*
X140826994Y-128760878D01*
X140826991Y-128760882D01*
X140750334Y-128875606D01*
X140750327Y-128875619D01*
X140697527Y-129003091D01*
X140697524Y-129003101D01*
X140670606Y-129138428D01*
X140670606Y-129138431D01*
X140670606Y-129276417D01*
X140670606Y-129276419D01*
X140670605Y-129276419D01*
X140697524Y-129411746D01*
X140697527Y-129411756D01*
X140750327Y-129539228D01*
X140750334Y-129539241D01*
X140826991Y-129653965D01*
X140826994Y-129653969D01*
X140924560Y-129751535D01*
X140924564Y-129751538D01*
X141039288Y-129828195D01*
X141039301Y-129828202D01*
X141159400Y-129877948D01*
X141166778Y-129881004D01*
X141166782Y-129881004D01*
X141166783Y-129881005D01*
X141302110Y-129907924D01*
X141302113Y-129907924D01*
X141440101Y-129907924D01*
X141531147Y-129889813D01*
X141575434Y-129881004D01*
X141674030Y-129840164D01*
X141702910Y-129828202D01*
X141702910Y-129828201D01*
X141702917Y-129828199D01*
X141817648Y-129751538D01*
X141837833Y-129731353D01*
X141866953Y-129702234D01*
X141915217Y-129653969D01*
X141915220Y-129653966D01*
X141991881Y-129539235D01*
X141993224Y-129535994D01*
X142014265Y-129485195D01*
X142044686Y-129411752D01*
X142062025Y-129324580D01*
X142094407Y-129262673D01*
X142095844Y-129261209D01*
X142420646Y-128936409D01*
X142493120Y-128810879D01*
X142494559Y-128805509D01*
X142530636Y-128670869D01*
X142530636Y-128474917D01*
X142550321Y-128407878D01*
X142551534Y-128406026D01*
X142557446Y-128397178D01*
X142600911Y-128332129D01*
X142653716Y-128204646D01*
X142673323Y-128106076D01*
X142680636Y-128069313D01*
X142680636Y-127931322D01*
X142667183Y-127863692D01*
X142673410Y-127794100D01*
X142716273Y-127738923D01*
X142782162Y-127715678D01*
X142788800Y-127715500D01*
X145780890Y-127715500D01*
X145780892Y-127715500D01*
X145908186Y-127681392D01*
X146022314Y-127615500D01*
X146135995Y-127501819D01*
X146197318Y-127468334D01*
X146223676Y-127465500D01*
X146233995Y-127465500D01*
X146349887Y-127442447D01*
X146369328Y-127438580D01*
X146496811Y-127385775D01*
X146611542Y-127309114D01*
X146709114Y-127211542D01*
X146785775Y-127096811D01*
X146838580Y-126969328D01*
X146841835Y-126952966D01*
X146874221Y-126891056D01*
X146934937Y-126856482D01*
X146963452Y-126853159D01*
X146973125Y-126853159D01*
X147073553Y-126833182D01*
X147108458Y-126826239D01*
X147235941Y-126773434D01*
X147350672Y-126696773D01*
X147432049Y-126615395D01*
X147452367Y-126604300D01*
X147470117Y-126589435D01*
X147487624Y-126583307D01*
X147581397Y-126558181D01*
X147695525Y-126492289D01*
X147710896Y-126476918D01*
X147772218Y-126443431D01*
X147841910Y-126448414D01*
X147886261Y-126476917D01*
X147918454Y-126509111D01*
X147918462Y-126509117D01*
X147920601Y-126510547D01*
X147921468Y-126511584D01*
X147923166Y-126512978D01*
X147922901Y-126513300D01*
X147965404Y-126564161D01*
X147974108Y-126633486D01*
X147943951Y-126696512D01*
X147939388Y-126701327D01*
X147603268Y-127037447D01*
X147582950Y-127048541D01*
X147565201Y-127063408D01*
X147552861Y-127064971D01*
X147541947Y-127070931D01*
X147515589Y-127073765D01*
X147505270Y-127073765D01*
X147369942Y-127100683D01*
X147369932Y-127100686D01*
X147242460Y-127153486D01*
X147242447Y-127153493D01*
X147127723Y-127230150D01*
X147127719Y-127230153D01*
X147030153Y-127327719D01*
X147030150Y-127327723D01*
X146953493Y-127442447D01*
X146953486Y-127442460D01*
X146900686Y-127569932D01*
X146900683Y-127569942D01*
X146873765Y-127705269D01*
X146873765Y-127705272D01*
X146873765Y-127843258D01*
X146873765Y-127843260D01*
X146873764Y-127843260D01*
X146900683Y-127978587D01*
X146900686Y-127978597D01*
X146953486Y-128106069D01*
X146953493Y-128106082D01*
X147030150Y-128220806D01*
X147030153Y-128220810D01*
X147127719Y-128318376D01*
X147127723Y-128318379D01*
X147242447Y-128395036D01*
X147242460Y-128395043D01*
X147361205Y-128444228D01*
X147369937Y-128447845D01*
X147369941Y-128447845D01*
X147369942Y-128447846D01*
X147505269Y-128474765D01*
X147505272Y-128474765D01*
X147643260Y-128474765D01*
X147734306Y-128456654D01*
X147778593Y-128447845D01*
X147889799Y-128401782D01*
X147906069Y-128395043D01*
X147906069Y-128395042D01*
X147906076Y-128395040D01*
X148020807Y-128318379D01*
X148118379Y-128220807D01*
X148195040Y-128106076D01*
X148247845Y-127978593D01*
X148259807Y-127918458D01*
X148274765Y-127843260D01*
X148274765Y-127832940D01*
X148294450Y-127765901D01*
X148311080Y-127745263D01*
X149154524Y-126901818D01*
X149215847Y-126868334D01*
X149242205Y-126865500D01*
X149333995Y-126865500D01*
X149425041Y-126847389D01*
X149469328Y-126838580D01*
X149596811Y-126785775D01*
X149711542Y-126709114D01*
X149809114Y-126611542D01*
X149885775Y-126496811D01*
X149938580Y-126369328D01*
X149954961Y-126286975D01*
X149965500Y-126233995D01*
X149965500Y-126096004D01*
X149951051Y-126023367D01*
X155826597Y-126023367D01*
X155853516Y-126158694D01*
X155853519Y-126158704D01*
X155906319Y-126286176D01*
X155906326Y-126286189D01*
X155982983Y-126400913D01*
X155982986Y-126400917D01*
X156080552Y-126498483D01*
X156080556Y-126498486D01*
X156195280Y-126575143D01*
X156195293Y-126575150D01*
X156305711Y-126620886D01*
X156322770Y-126627952D01*
X156322774Y-126627952D01*
X156322775Y-126627953D01*
X156458102Y-126654872D01*
X156458105Y-126654872D01*
X156468422Y-126654872D01*
X156535461Y-126674557D01*
X156556103Y-126691191D01*
X156754189Y-126889277D01*
X156787674Y-126950600D01*
X156788125Y-126952766D01*
X156791418Y-126969322D01*
X156791420Y-126969330D01*
X156844221Y-127096804D01*
X156844228Y-127096817D01*
X156920885Y-127211541D01*
X156920888Y-127211545D01*
X157018454Y-127309111D01*
X157018458Y-127309114D01*
X157133182Y-127385771D01*
X157133195Y-127385778D01*
X157260667Y-127438578D01*
X157260672Y-127438580D01*
X157260676Y-127438580D01*
X157260677Y-127438581D01*
X157396004Y-127465500D01*
X157396007Y-127465500D01*
X157533995Y-127465500D01*
X157649887Y-127442447D01*
X157669328Y-127438580D01*
X157796811Y-127385775D01*
X157911542Y-127309114D01*
X158009114Y-127211542D01*
X158085775Y-127096811D01*
X158138580Y-126969328D01*
X158149287Y-126915500D01*
X158165500Y-126833995D01*
X158165500Y-126696004D01*
X158138581Y-126560677D01*
X158138580Y-126560676D01*
X158138580Y-126560672D01*
X158131769Y-126544228D01*
X158085778Y-126433195D01*
X158085771Y-126433182D01*
X158009114Y-126318458D01*
X158009111Y-126318454D01*
X157911545Y-126220888D01*
X157911541Y-126220885D01*
X157796817Y-126144228D01*
X157796804Y-126144221D01*
X157669332Y-126091421D01*
X157669322Y-126091418D01*
X157533995Y-126064500D01*
X157533993Y-126064500D01*
X157396402Y-126064500D01*
X157366961Y-126055855D01*
X157336975Y-126049332D01*
X157331959Y-126045577D01*
X157329363Y-126044815D01*
X157308721Y-126028181D01*
X157263917Y-125983377D01*
X157230432Y-125922054D01*
X157227598Y-125895696D01*
X157227598Y-125885376D01*
X157200679Y-125750049D01*
X157200678Y-125750048D01*
X157200678Y-125750044D01*
X157187593Y-125718454D01*
X157147876Y-125622567D01*
X157147869Y-125622554D01*
X157071212Y-125507830D01*
X157071209Y-125507826D01*
X156973643Y-125410260D01*
X156973639Y-125410257D01*
X156858915Y-125333600D01*
X156858902Y-125333593D01*
X156731430Y-125280793D01*
X156731420Y-125280790D01*
X156596093Y-125253872D01*
X156596091Y-125253872D01*
X156458105Y-125253872D01*
X156458103Y-125253872D01*
X156322775Y-125280790D01*
X156322765Y-125280793D01*
X156195293Y-125333593D01*
X156195280Y-125333600D01*
X156080556Y-125410257D01*
X156080552Y-125410260D01*
X155982986Y-125507826D01*
X155982983Y-125507830D01*
X155906326Y-125622554D01*
X155906319Y-125622567D01*
X155853519Y-125750039D01*
X155853516Y-125750049D01*
X155826598Y-125885376D01*
X155826598Y-125885379D01*
X155826598Y-126023365D01*
X155826598Y-126023367D01*
X155826597Y-126023367D01*
X149951051Y-126023367D01*
X149938581Y-125960677D01*
X149938580Y-125960676D01*
X149938580Y-125960672D01*
X149926464Y-125931421D01*
X149885778Y-125833195D01*
X149885771Y-125833182D01*
X149809114Y-125718458D01*
X149809111Y-125718454D01*
X149711545Y-125620888D01*
X149711541Y-125620885D01*
X149596817Y-125544228D01*
X149596807Y-125544223D01*
X149492047Y-125500830D01*
X149476481Y-125488286D01*
X149458297Y-125479982D01*
X149449832Y-125466811D01*
X149437644Y-125456989D01*
X149431331Y-125438021D01*
X149420523Y-125421204D01*
X149416560Y-125393643D01*
X149415579Y-125390695D01*
X149415500Y-125386269D01*
X149415500Y-125355547D01*
X149435185Y-125288508D01*
X149457385Y-125263572D01*
X149457235Y-125263422D01*
X149459821Y-125260835D01*
X149460844Y-125259687D01*
X149461537Y-125259117D01*
X149461542Y-125259114D01*
X149559114Y-125161542D01*
X149635775Y-125046811D01*
X149688580Y-124919328D01*
X149715500Y-124783993D01*
X149715500Y-124646007D01*
X149715500Y-124646004D01*
X149688581Y-124510677D01*
X149688580Y-124510676D01*
X149688580Y-124510672D01*
X149656483Y-124433182D01*
X149635778Y-124383195D01*
X149635771Y-124383182D01*
X149559114Y-124268458D01*
X149559111Y-124268454D01*
X149461545Y-124170888D01*
X149461541Y-124170885D01*
X149346817Y-124094228D01*
X149346807Y-124094223D01*
X149227729Y-124044899D01*
X149173326Y-124001058D01*
X149151261Y-123934763D01*
X149167794Y-123868340D01*
X149231392Y-123758186D01*
X149265500Y-123630892D01*
X149265500Y-123499107D01*
X149265500Y-121963676D01*
X149274144Y-121934235D01*
X149280668Y-121904249D01*
X149284422Y-121899233D01*
X149285185Y-121896637D01*
X149301819Y-121875995D01*
X149340995Y-121836819D01*
X149402318Y-121803334D01*
X149428676Y-121800500D01*
X149468481Y-121800500D01*
X149535520Y-121820185D01*
X149556162Y-121836819D01*
X149563454Y-121844111D01*
X149563458Y-121844114D01*
X149678182Y-121920771D01*
X149678195Y-121920778D01*
X149805667Y-121973578D01*
X149805672Y-121973580D01*
X149805676Y-121973580D01*
X149805677Y-121973581D01*
X149941004Y-122000500D01*
X149941007Y-122000500D01*
X150078995Y-122000500D01*
X150191182Y-121978184D01*
X150214328Y-121973580D01*
X150341811Y-121920775D01*
X150456542Y-121844114D01*
X150475217Y-121825437D01*
X150480824Y-121819870D01*
X150485665Y-121816161D01*
X150520973Y-121783134D01*
X150542479Y-121758644D01*
X150545483Y-121755662D01*
X150572629Y-121740961D01*
X150598712Y-121724443D01*
X150603080Y-121724471D01*
X150606923Y-121722391D01*
X150637714Y-121724701D01*
X150668580Y-121724906D01*
X150672239Y-121727292D01*
X150676597Y-121727619D01*
X150701250Y-121746209D01*
X150720228Y-121758584D01*
X150721578Y-121757235D01*
X150823454Y-121859111D01*
X150823458Y-121859114D01*
X150938182Y-121935771D01*
X150938195Y-121935778D01*
X151040573Y-121978184D01*
X151094977Y-122022025D01*
X151117042Y-122088319D01*
X151107682Y-122140197D01*
X151076421Y-122215667D01*
X151076418Y-122215677D01*
X151049500Y-122351004D01*
X151049500Y-122351007D01*
X151049500Y-122488993D01*
X151049500Y-122488995D01*
X151049499Y-122488995D01*
X151076418Y-122624322D01*
X151076421Y-122624332D01*
X151129221Y-122751804D01*
X151129228Y-122751817D01*
X151205885Y-122866541D01*
X151213177Y-122873833D01*
X151246665Y-122935155D01*
X151249500Y-122961518D01*
X151249500Y-123314108D01*
X151249500Y-123445892D01*
X151263759Y-123499107D01*
X151283608Y-123573187D01*
X151292692Y-123588920D01*
X151349500Y-123687314D01*
X151349502Y-123687316D01*
X152028181Y-124365995D01*
X152061666Y-124427318D01*
X152063882Y-124447934D01*
X152063903Y-124447933D01*
X152064126Y-124450197D01*
X152064500Y-124453676D01*
X152064500Y-124453993D01*
X152064500Y-124453995D01*
X152064499Y-124453995D01*
X152091418Y-124589322D01*
X152091421Y-124589332D01*
X152144221Y-124716804D01*
X152144228Y-124716817D01*
X152220885Y-124831541D01*
X152220888Y-124831545D01*
X152318454Y-124929111D01*
X152318458Y-124929114D01*
X152433182Y-125005771D01*
X152433195Y-125005778D01*
X152566299Y-125060911D01*
X152565376Y-125063139D01*
X152614915Y-125095587D01*
X152643387Y-125159393D01*
X152644500Y-125175973D01*
X152644500Y-125233993D01*
X152644500Y-125233995D01*
X152644499Y-125233995D01*
X152671418Y-125369322D01*
X152671421Y-125369332D01*
X152724221Y-125496804D01*
X152724228Y-125496817D01*
X152800885Y-125611541D01*
X152800888Y-125611545D01*
X152898454Y-125709111D01*
X152898458Y-125709114D01*
X153013182Y-125785771D01*
X153013195Y-125785778D01*
X153100511Y-125821945D01*
X153140672Y-125838580D01*
X153140676Y-125838580D01*
X153140677Y-125838581D01*
X153276004Y-125865500D01*
X153276007Y-125865500D01*
X153413995Y-125865500D01*
X153505041Y-125847389D01*
X153549328Y-125838580D01*
X153676811Y-125785775D01*
X153676816Y-125785771D01*
X153676819Y-125785770D01*
X153691163Y-125776186D01*
X153691164Y-125776185D01*
X153742494Y-125741887D01*
X153791542Y-125709114D01*
X153889114Y-125611542D01*
X153965775Y-125496811D01*
X154018580Y-125369328D01*
X154028085Y-125321542D01*
X154045500Y-125233995D01*
X154045500Y-125096004D01*
X154018581Y-124960677D01*
X154018580Y-124960676D01*
X154018580Y-124960672D01*
X153981830Y-124871951D01*
X153974362Y-124802484D01*
X154005637Y-124740004D01*
X154065726Y-124704352D01*
X154096392Y-124700500D01*
X154098995Y-124700500D01*
X154190041Y-124682389D01*
X154234328Y-124673580D01*
X154332924Y-124632740D01*
X154361804Y-124620778D01*
X154361804Y-124620777D01*
X154361811Y-124620775D01*
X154476542Y-124544114D01*
X154574114Y-124446542D01*
X154650775Y-124331811D01*
X154703580Y-124204328D01*
X154715535Y-124144225D01*
X154730500Y-124068995D01*
X154730500Y-123931004D01*
X154703581Y-123795677D01*
X154703580Y-123795676D01*
X154703580Y-123795672D01*
X154682976Y-123745931D01*
X154675508Y-123676464D01*
X154706783Y-123613985D01*
X154709857Y-123610798D01*
X154711538Y-123609116D01*
X154711542Y-123609114D01*
X154809114Y-123511542D01*
X154885775Y-123396811D01*
X154938580Y-123269328D01*
X154960424Y-123159511D01*
X154965500Y-123133995D01*
X154965500Y-122996004D01*
X154938581Y-122860677D01*
X154938580Y-122860676D01*
X154938580Y-122860672D01*
X154910691Y-122793342D01*
X154885778Y-122733195D01*
X154885776Y-122733191D01*
X154885775Y-122733189D01*
X154810584Y-122620658D01*
X154789706Y-122553981D01*
X154808190Y-122486601D01*
X154817841Y-122473092D01*
X154819104Y-122471551D01*
X154819114Y-122471542D01*
X154878251Y-122383037D01*
X156194572Y-122383037D01*
X156221491Y-122518364D01*
X156221494Y-122518374D01*
X156274294Y-122645846D01*
X156274301Y-122645859D01*
X156350957Y-122760582D01*
X156350958Y-122760583D01*
X156350959Y-122760584D01*
X156363451Y-122773076D01*
X156396936Y-122834396D01*
X156399771Y-122860758D01*
X156399771Y-122936162D01*
X156433879Y-123063458D01*
X156435776Y-123066743D01*
X156499771Y-123177585D01*
X156499773Y-123177587D01*
X157696814Y-124374628D01*
X157730299Y-124435951D01*
X157725315Y-124505643D01*
X157712237Y-124531196D01*
X157704232Y-124543176D01*
X157704223Y-124543192D01*
X157651420Y-124670671D01*
X157651418Y-124670677D01*
X157624500Y-124806004D01*
X157624500Y-124806007D01*
X157624500Y-124943993D01*
X157624500Y-124943995D01*
X157624499Y-124943995D01*
X157651418Y-125079322D01*
X157651421Y-125079332D01*
X157704221Y-125206804D01*
X157704228Y-125206817D01*
X157780885Y-125321541D01*
X157780888Y-125321545D01*
X157878454Y-125419111D01*
X157878458Y-125419114D01*
X157993182Y-125495771D01*
X157993195Y-125495778D01*
X158110153Y-125544223D01*
X158120672Y-125548580D01*
X158120676Y-125548580D01*
X158120677Y-125548581D01*
X158256004Y-125575500D01*
X158256007Y-125575500D01*
X158393995Y-125575500D01*
X158485041Y-125557389D01*
X158529328Y-125548580D01*
X158644607Y-125500830D01*
X158656804Y-125495778D01*
X158656804Y-125495777D01*
X158656811Y-125495775D01*
X158771542Y-125419114D01*
X158869114Y-125321542D01*
X158945775Y-125206811D01*
X158998580Y-125079328D01*
X159017702Y-124983195D01*
X159025500Y-124943995D01*
X159025500Y-124806004D01*
X158998581Y-124670677D01*
X158998580Y-124670676D01*
X158998580Y-124670672D01*
X158989122Y-124647838D01*
X158945778Y-124543195D01*
X158945771Y-124543182D01*
X158869114Y-124428458D01*
X158869111Y-124428454D01*
X158861819Y-124421162D01*
X158850078Y-124399661D01*
X158834772Y-124380529D01*
X158832027Y-124366603D01*
X158828334Y-124359839D01*
X158826164Y-124346301D01*
X158825500Y-124339913D01*
X158825500Y-124229108D01*
X158809228Y-124168381D01*
X158806105Y-124156726D01*
X158791393Y-124101815D01*
X158733220Y-124001058D01*
X158725500Y-123987686D01*
X157534834Y-122797020D01*
X157501349Y-122735697D01*
X157506333Y-122666005D01*
X157513163Y-122650874D01*
X157515841Y-122645863D01*
X157515848Y-122645853D01*
X157568653Y-122518370D01*
X157595573Y-122383035D01*
X157595573Y-122245049D01*
X157595573Y-122245046D01*
X157568654Y-122109719D01*
X157568653Y-122109718D01*
X157568653Y-122109714D01*
X157559737Y-122088189D01*
X157515851Y-121982237D01*
X157515844Y-121982224D01*
X157439187Y-121867500D01*
X157439184Y-121867496D01*
X157341618Y-121769930D01*
X157341614Y-121769927D01*
X157226890Y-121693270D01*
X157226877Y-121693263D01*
X157099405Y-121640463D01*
X157099395Y-121640460D01*
X156964068Y-121613542D01*
X156964066Y-121613542D01*
X156826080Y-121613542D01*
X156826078Y-121613542D01*
X156690750Y-121640460D01*
X156690740Y-121640463D01*
X156563268Y-121693263D01*
X156563255Y-121693270D01*
X156448531Y-121769927D01*
X156448527Y-121769930D01*
X156350961Y-121867496D01*
X156350958Y-121867500D01*
X156274301Y-121982224D01*
X156274294Y-121982237D01*
X156221494Y-122109709D01*
X156221491Y-122109719D01*
X156194573Y-122245046D01*
X156194573Y-122245049D01*
X156194573Y-122383035D01*
X156194573Y-122383037D01*
X156194572Y-122383037D01*
X154878251Y-122383037D01*
X154895775Y-122356811D01*
X154948580Y-122229328D01*
X154950279Y-122220786D01*
X154951477Y-122214766D01*
X154951477Y-122214765D01*
X154975500Y-122093995D01*
X154975500Y-121956004D01*
X154948581Y-121820677D01*
X154948580Y-121820676D01*
X154948580Y-121820672D01*
X154948301Y-121819999D01*
X154895778Y-121693195D01*
X154895771Y-121693182D01*
X154819114Y-121578458D01*
X154819111Y-121578454D01*
X154721544Y-121480887D01*
X154703674Y-121468947D01*
X154673823Y-121449001D01*
X154629019Y-121395391D01*
X154620981Y-121344245D01*
X154618879Y-121344245D01*
X154618879Y-121200164D01*
X154591960Y-121064837D01*
X154591959Y-121064836D01*
X154591959Y-121064832D01*
X154591957Y-121064827D01*
X154539157Y-120937355D01*
X154539150Y-120937342D01*
X154462493Y-120822618D01*
X154462490Y-120822614D01*
X154364924Y-120725048D01*
X154364920Y-120725045D01*
X154250196Y-120648388D01*
X154250183Y-120648381D01*
X154122711Y-120595581D01*
X154122701Y-120595578D01*
X153987374Y-120568660D01*
X153987372Y-120568660D01*
X153849386Y-120568660D01*
X153849384Y-120568660D01*
X153714056Y-120595578D01*
X153714046Y-120595581D01*
X153586574Y-120648381D01*
X153586561Y-120648388D01*
X153471837Y-120725045D01*
X153471833Y-120725048D01*
X153374267Y-120822614D01*
X153374264Y-120822618D01*
X153297607Y-120937342D01*
X153297600Y-120937355D01*
X153244800Y-121064827D01*
X153244797Y-121064837D01*
X153217879Y-121200164D01*
X153217879Y-121210482D01*
X153209242Y-121239895D01*
X153202734Y-121269868D01*
X153198960Y-121274910D01*
X153198194Y-121277521D01*
X153195733Y-121280575D01*
X153195739Y-121280579D01*
X153195737Y-121280582D01*
X153195246Y-121281180D01*
X153181594Y-121298130D01*
X153180278Y-121299447D01*
X153180273Y-121299449D01*
X153180254Y-121299468D01*
X153180245Y-121299480D01*
X153104500Y-121375225D01*
X153038608Y-121489351D01*
X153004500Y-121616647D01*
X153004500Y-121839177D01*
X152984815Y-121906216D01*
X152932011Y-121951971D01*
X152862853Y-121961915D01*
X152799297Y-121932890D01*
X152773113Y-121901177D01*
X152751502Y-121863746D01*
X152751498Y-121863741D01*
X152070557Y-121182800D01*
X152037072Y-121121477D01*
X152034599Y-121085666D01*
X152036192Y-121064832D01*
X152351068Y-116946577D01*
X163389500Y-116946577D01*
X163389500Y-117143422D01*
X163420290Y-117337826D01*
X163481117Y-117525029D01*
X163570476Y-117700405D01*
X163686172Y-117859646D01*
X163825354Y-117998828D01*
X163984595Y-118114524D01*
X164025614Y-118135424D01*
X164159970Y-118203882D01*
X164159972Y-118203882D01*
X164159975Y-118203884D01*
X164205968Y-118218828D01*
X164347173Y-118264709D01*
X164541578Y-118295500D01*
X164541583Y-118295500D01*
X164738422Y-118295500D01*
X164932826Y-118264709D01*
X164978012Y-118250027D01*
X165120025Y-118203884D01*
X165295405Y-118114524D01*
X165454646Y-117998828D01*
X165593828Y-117859646D01*
X165709524Y-117700405D01*
X165798884Y-117525025D01*
X165859709Y-117337826D01*
X165890500Y-117143422D01*
X165890500Y-116946577D01*
X165859709Y-116752173D01*
X165824611Y-116644155D01*
X165798884Y-116564975D01*
X165798882Y-116564972D01*
X165798882Y-116564970D01*
X165740481Y-116450352D01*
X165709524Y-116389595D01*
X165593828Y-116230354D01*
X165454646Y-116091172D01*
X165295405Y-115975476D01*
X165120029Y-115886117D01*
X164932826Y-115825290D01*
X164738422Y-115794500D01*
X164738417Y-115794500D01*
X164541583Y-115794500D01*
X164541578Y-115794500D01*
X164347173Y-115825290D01*
X164159970Y-115886117D01*
X163984594Y-115975476D01*
X163893741Y-116041485D01*
X163825354Y-116091172D01*
X163825352Y-116091174D01*
X163825351Y-116091174D01*
X163686174Y-116230351D01*
X163686174Y-116230352D01*
X163686172Y-116230354D01*
X163636485Y-116298741D01*
X163570476Y-116389594D01*
X163481117Y-116564970D01*
X163420290Y-116752173D01*
X163389500Y-116946577D01*
X152351068Y-116946577D01*
X152368633Y-116716847D01*
X152377708Y-116678856D01*
X152408580Y-116604328D01*
X152417389Y-116560041D01*
X152435500Y-116468995D01*
X152435500Y-116331004D01*
X152408581Y-116195676D01*
X152408578Y-116195667D01*
X152407635Y-116193390D01*
X152407198Y-116191117D01*
X152406811Y-116189841D01*
X152406945Y-116189800D01*
X152405890Y-116184311D01*
X152402773Y-116179320D01*
X152398204Y-116144323D01*
X152399771Y-116023671D01*
X152407643Y-115985412D01*
X152406811Y-115985160D01*
X152408576Y-115979335D01*
X152408580Y-115979328D01*
X152435500Y-115843993D01*
X152435500Y-115706007D01*
X152435500Y-115706004D01*
X152408581Y-115570677D01*
X152408580Y-115570676D01*
X152408580Y-115570672D01*
X152408578Y-115570667D01*
X152355778Y-115443195D01*
X152355771Y-115443182D01*
X152279114Y-115328458D01*
X152279111Y-115328454D01*
X152181545Y-115230888D01*
X152181541Y-115230885D01*
X152066817Y-115154228D01*
X152066804Y-115154221D01*
X151939332Y-115101421D01*
X151939322Y-115101418D01*
X151798018Y-115073311D01*
X151798083Y-115072979D01*
X151775084Y-115067745D01*
X151773397Y-115067130D01*
X151768473Y-115065177D01*
X151711966Y-115044758D01*
X151711753Y-115044681D01*
X151710966Y-115044101D01*
X151666505Y-115015849D01*
X151611542Y-114960886D01*
X151611541Y-114960885D01*
X151611540Y-114960884D01*
X151496817Y-114884228D01*
X151496804Y-114884221D01*
X151369332Y-114831421D01*
X151369322Y-114831418D01*
X151233995Y-114804500D01*
X151233993Y-114804500D01*
X151096007Y-114804500D01*
X151096005Y-114804500D01*
X150960677Y-114831418D01*
X150960667Y-114831421D01*
X150833195Y-114884221D01*
X150833182Y-114884228D01*
X150718453Y-114960888D01*
X150714695Y-114963973D01*
X150650384Y-114991284D01*
X150581517Y-114979490D01*
X150567143Y-114971219D01*
X150496817Y-114924228D01*
X150496804Y-114924221D01*
X150369332Y-114871421D01*
X150369322Y-114871418D01*
X150233995Y-114844500D01*
X150233993Y-114844500D01*
X150096007Y-114844500D01*
X150096005Y-114844500D01*
X149960677Y-114871418D01*
X149960667Y-114871421D01*
X149833195Y-114924221D01*
X149833182Y-114924228D01*
X149718461Y-115000883D01*
X149718456Y-115000887D01*
X149684810Y-115034533D01*
X149639270Y-115063471D01*
X149551519Y-115095179D01*
X149528180Y-115104439D01*
X149514144Y-115110517D01*
X149491480Y-115121174D01*
X149393039Y-115171235D01*
X149349838Y-115196680D01*
X149338054Y-115204642D01*
X149316091Y-115216454D01*
X149273192Y-115234223D01*
X149273182Y-115234228D01*
X149158458Y-115310885D01*
X149158454Y-115310888D01*
X149060888Y-115408454D01*
X149060885Y-115408458D01*
X148984228Y-115523182D01*
X148984221Y-115523195D01*
X148931421Y-115650667D01*
X148931418Y-115650677D01*
X148904500Y-115786004D01*
X148904500Y-115923997D01*
X148917299Y-115988342D01*
X148919671Y-116010920D01*
X148923829Y-116331007D01*
X148924112Y-116352735D01*
X148924162Y-116355707D01*
X148924206Y-116357784D01*
X148924285Y-116361001D01*
X148925110Y-116389626D01*
X148924566Y-116405326D01*
X148924500Y-116405997D01*
X148924500Y-116543992D01*
X148941491Y-116629419D01*
X148943512Y-116644155D01*
X149066295Y-118250027D01*
X149051779Y-118318372D01*
X149002617Y-118368019D01*
X148934417Y-118383206D01*
X148868834Y-118359111D01*
X148854975Y-118347161D01*
X148527316Y-118019502D01*
X148527314Y-118019500D01*
X148470250Y-117986554D01*
X148413187Y-117953608D01*
X148349539Y-117936554D01*
X148285892Y-117919500D01*
X148285891Y-117919500D01*
X140701603Y-117919500D01*
X140634564Y-117899815D01*
X140598501Y-117864391D01*
X140577563Y-117833056D01*
X140577560Y-117833052D01*
X140479994Y-117735486D01*
X140479990Y-117735483D01*
X140365266Y-117658826D01*
X140365253Y-117658819D01*
X140237781Y-117606019D01*
X140237771Y-117606016D01*
X140102444Y-117579098D01*
X140102442Y-117579098D01*
X139964456Y-117579098D01*
X139964454Y-117579098D01*
X139829126Y-117606016D01*
X139829116Y-117606019D01*
X139701644Y-117658819D01*
X139701631Y-117658826D01*
X139586910Y-117735481D01*
X139586904Y-117735486D01*
X139564214Y-117758175D01*
X139502890Y-117791658D01*
X139452345Y-117792108D01*
X139324757Y-117766729D01*
X139324754Y-117766729D01*
X139186768Y-117766729D01*
X139186766Y-117766729D01*
X139051438Y-117793647D01*
X139051428Y-117793650D01*
X138923956Y-117846450D01*
X138923943Y-117846457D01*
X138809219Y-117923114D01*
X138809215Y-117923117D01*
X138711649Y-118020683D01*
X138711646Y-118020687D01*
X138634989Y-118135411D01*
X138634982Y-118135424D01*
X138582182Y-118262896D01*
X138582179Y-118262906D01*
X138555261Y-118398233D01*
X138555261Y-118398236D01*
X138555261Y-118536222D01*
X138555261Y-118536224D01*
X138555260Y-118536224D01*
X138582179Y-118671551D01*
X138582182Y-118671561D01*
X138634982Y-118799033D01*
X138634989Y-118799046D01*
X138711646Y-118913770D01*
X138711649Y-118913774D01*
X138809215Y-119011340D01*
X138809219Y-119011343D01*
X138923943Y-119088000D01*
X138923956Y-119088007D01*
X139051428Y-119140807D01*
X139051433Y-119140809D01*
X139051437Y-119140809D01*
X139051438Y-119140810D01*
X139186765Y-119167729D01*
X139186768Y-119167729D01*
X139197085Y-119167729D01*
X139264124Y-119187414D01*
X139284766Y-119204048D01*
X139353032Y-119272314D01*
X139446218Y-119365500D01*
X139493027Y-119392525D01*
X139560346Y-119431392D01*
X139687639Y-119465500D01*
X139687640Y-119465500D01*
X139687641Y-119465500D01*
X140430890Y-119465500D01*
X140430892Y-119465500D01*
X140558186Y-119431392D01*
X140599858Y-119407332D01*
X140643540Y-119382113D01*
X140705540Y-119365500D01*
X146781817Y-119365500D01*
X146848856Y-119385185D01*
X146894611Y-119437989D01*
X146904555Y-119507147D01*
X146889204Y-119551498D01*
X146874344Y-119577238D01*
X146848608Y-119621812D01*
X146814500Y-119749108D01*
X146814500Y-122306324D01*
X146794815Y-122373363D01*
X146778181Y-122394005D01*
X144044005Y-125128181D01*
X143982682Y-125161666D01*
X143956324Y-125164500D01*
X138849107Y-125164500D01*
X138721812Y-125198608D01*
X138607686Y-125264500D01*
X138607683Y-125264502D01*
X138394005Y-125478181D01*
X138332682Y-125511666D01*
X138306324Y-125514500D01*
X138296005Y-125514500D01*
X138160677Y-125541418D01*
X138160667Y-125541421D01*
X138033195Y-125594221D01*
X138033182Y-125594228D01*
X137918458Y-125670885D01*
X137918454Y-125670888D01*
X137820888Y-125768454D01*
X137820885Y-125768458D01*
X137744228Y-125883182D01*
X137744221Y-125883195D01*
X137691421Y-126010667D01*
X137691418Y-126010677D01*
X137664500Y-126146004D01*
X137664500Y-126146007D01*
X137664500Y-126283993D01*
X137664500Y-126283995D01*
X137664499Y-126283995D01*
X131812520Y-126283995D01*
X131756121Y-126227596D01*
X131693016Y-126164491D01*
X131693015Y-126164490D01*
X131567485Y-126092016D01*
X131567480Y-126092014D01*
X131523329Y-126080183D01*
X131523329Y-126080184D01*
X131464795Y-126064500D01*
X131427475Y-126054500D01*
X131427474Y-126054500D01*
X130639600Y-126054500D01*
X130572561Y-126034815D01*
X130570709Y-126033602D01*
X130496816Y-125984228D01*
X130496804Y-125984221D01*
X130369332Y-125931421D01*
X130369322Y-125931418D01*
X130233995Y-125904500D01*
X130233993Y-125904500D01*
X130096007Y-125904500D01*
X130096005Y-125904500D01*
X129960677Y-125931418D01*
X129960667Y-125931421D01*
X129833195Y-125984221D01*
X129833183Y-125984228D01*
X129759291Y-126033602D01*
X129741244Y-126039252D01*
X129725335Y-126049477D01*
X129694375Y-126053928D01*
X129692614Y-126054480D01*
X129690400Y-126054500D01*
X129534387Y-126054500D01*
X129467348Y-126034815D01*
X129446706Y-126018181D01*
X128139854Y-124711329D01*
X128106369Y-124650006D01*
X128105946Y-124647978D01*
X128088580Y-124560672D01*
X128083436Y-124548254D01*
X128035778Y-124433195D01*
X128035770Y-124433181D01*
X128023509Y-124414831D01*
X128002630Y-124348154D01*
X128021113Y-124280774D01*
X128073092Y-124234083D01*
X128079099Y-124231403D01*
X128202995Y-124180084D01*
X128325916Y-124097951D01*
X128430451Y-123993416D01*
X128512584Y-123870495D01*
X128569158Y-123733913D01*
X128598000Y-123588918D01*
X128598000Y-123441082D01*
X128598000Y-123441079D01*
X128569159Y-123296092D01*
X128569158Y-123296091D01*
X128569158Y-123296087D01*
X128520073Y-123177584D01*
X128512587Y-123159511D01*
X128512580Y-123159498D01*
X128430451Y-123036584D01*
X128430448Y-123036580D01*
X128325919Y-122932051D01*
X128325915Y-122932048D01*
X128203001Y-122849919D01*
X128202988Y-122849912D01*
X128066417Y-122793343D01*
X128066407Y-122793340D01*
X127921420Y-122764500D01*
X127921418Y-122764500D01*
X127773582Y-122764500D01*
X127773580Y-122764500D01*
X127628592Y-122793340D01*
X127628582Y-122793343D01*
X127492011Y-122849912D01*
X127491998Y-122849919D01*
X127369084Y-122932048D01*
X127369080Y-122932051D01*
X127264551Y-123036580D01*
X127264548Y-123036584D01*
X127182419Y-123159498D01*
X127182412Y-123159511D01*
X127125843Y-123296082D01*
X127125840Y-123296092D01*
X127097000Y-123441079D01*
X127097000Y-123441082D01*
X127097000Y-123588918D01*
X127097000Y-123588920D01*
X127096999Y-123588920D01*
X127125840Y-123733907D01*
X127125843Y-123733917D01*
X127182412Y-123870488D01*
X127182422Y-123870506D01*
X127220214Y-123927066D01*
X127241092Y-123993743D01*
X127222607Y-124061123D01*
X127170628Y-124107813D01*
X127164566Y-124110517D01*
X127083188Y-124144225D01*
X127083182Y-124144228D01*
X126968458Y-124220885D01*
X126968454Y-124220888D01*
X126870888Y-124318454D01*
X126870885Y-124318458D01*
X126794228Y-124433182D01*
X126794223Y-124433192D01*
X126746563Y-124548254D01*
X126702722Y-124602657D01*
X126656195Y-124622418D01*
X126560676Y-124641419D01*
X126560667Y-124641421D01*
X126433195Y-124694221D01*
X126433182Y-124694228D01*
X126318458Y-124770885D01*
X126318454Y-124770888D01*
X126220888Y-124868454D01*
X126220885Y-124868458D01*
X126144228Y-124983182D01*
X126144221Y-124983195D01*
X126091421Y-125110667D01*
X126091418Y-125110677D01*
X126074080Y-125197840D01*
X126041694Y-125259751D01*
X126040144Y-125261329D01*
X125674491Y-125626983D01*
X125674489Y-125626985D01*
X125649144Y-125670886D01*
X125608152Y-125741887D01*
X125602016Y-125752515D01*
X125564500Y-125892525D01*
X122535964Y-125892525D01*
X122535981Y-125884153D01*
X122553209Y-117166577D01*
X123814500Y-117166577D01*
X123814500Y-117363422D01*
X123845290Y-117557826D01*
X123906117Y-117745029D01*
X123984985Y-117899815D01*
X123995476Y-117920405D01*
X124111172Y-118079646D01*
X124250354Y-118218828D01*
X124409595Y-118334524D01*
X124434397Y-118347161D01*
X124584970Y-118423882D01*
X124584972Y-118423882D01*
X124584975Y-118423884D01*
X124685317Y-118456487D01*
X124772173Y-118484709D01*
X124966578Y-118515500D01*
X124966583Y-118515500D01*
X125163422Y-118515500D01*
X125357826Y-118484709D01*
X125545025Y-118423884D01*
X125720405Y-118334524D01*
X125879646Y-118218828D01*
X126018828Y-118079646D01*
X126134524Y-117920405D01*
X126223884Y-117745025D01*
X126284709Y-117557826D01*
X126315500Y-117363422D01*
X126315500Y-117166577D01*
X126284709Y-116972173D01*
X126223882Y-116784970D01*
X126152133Y-116644155D01*
X126134524Y-116609595D01*
X126018828Y-116450354D01*
X125879646Y-116311172D01*
X125720405Y-116195476D01*
X125709265Y-116189800D01*
X125545029Y-116106117D01*
X125357826Y-116045290D01*
X125163422Y-116014500D01*
X125163417Y-116014500D01*
X124966583Y-116014500D01*
X124966578Y-116014500D01*
X124772173Y-116045290D01*
X124584970Y-116106117D01*
X124409594Y-116195476D01*
X124318741Y-116261485D01*
X124250354Y-116311172D01*
X124250352Y-116311174D01*
X124250351Y-116311174D01*
X124111174Y-116450351D01*
X124111174Y-116450352D01*
X124111172Y-116450354D01*
X124061485Y-116518741D01*
X123995476Y-116609594D01*
X123906117Y-116784970D01*
X123845290Y-116972173D01*
X123814500Y-117166577D01*
X122553209Y-117166577D01*
X122553219Y-117161466D01*
X122564754Y-111324458D01*
X122584571Y-111257458D01*
X122637466Y-111211807D01*
X122689454Y-111200705D01*
X166276206Y-111447795D01*
G37*
%TD.AperFunction*%
%TD*%
M02*
