M48
; DRILL file KiCad 10.0.1 date 2026-04-23T17:24:40
; FORMAT={-:-/ absolute / inch / decimal}
; #@! TF.CreationDate,2026-04-23T17:24:40+02:00
; #@! TF.GenerationSoftware,Kicad,Pcbnew,10.0.1
; #@! TF.FileFunction,Plated,1,4,PTH
FMAT,2
INCH
; #@! TA.AperFunction,Plated,PTH,ViaDrill
T1C0.0118
; #@! TA.AperFunction,Plated,PTH,ViaDrill
T2C0.0157
; #@! TA.AperFunction,Plated,PTH,ComponentDrill
T3C0.0236
; #@! TA.AperFunction,Plated,PTH,ComponentDrill
T4C0.0276
; #@! TA.AperFunction,Plated,PTH,ComponentDrill
T5C0.0394
; #@! TA.AperFunction,Plated,PTH,ComponentDrill
T6C0.0866
%
G90
G05
T1
X4.7874Y-2.7402
X4.8031Y-2.5945
X4.8071Y-3.0354
X4.8228Y-2.8621
X4.8268Y-2.7047
X4.8268Y-2.7677
X4.8268Y-2.9252
X4.8272Y-2.8933
X4.8927Y-3.438
X4.9087Y-3.813
X4.9301Y-3.2431
X4.9528Y-2.937
X4.9717Y-5.233
X4.9882Y-5.0748
X4.9894Y-5.1424
X5.0138Y-3.0295
X5.0226Y-3.8622
X5.0236Y-3.3701
X5.0315Y-5.0394
X5.0374Y-3.2756
X5.0377Y-4.9824
X5.0453Y-3.0295
X5.0508Y-3.4016
X5.0512Y-4.4597
X5.0531Y-4.5097
X5.0689Y-3.2402
X5.0709Y-3.0945
X5.0748Y-3.4976
X5.0748Y-3.6309
X5.0768Y-3.2067
X5.0846Y-4.5768
X5.0915Y-3.2923
X5.1043Y-4.6142
X5.1083Y-3.1988
X5.1366Y-3.4539
X5.1378Y-3.4134
X5.1464Y-3.0308
X5.1609Y-4.8937
X5.1705Y-3.1429
X5.1732Y-3.1929
X5.185Y-3.1102
X5.189Y-3.0325
X5.2106Y-4.8996
X5.2126Y-4.0157
X5.2283Y-4.9882
X5.2329Y-3.1451
X5.2362Y-3.4449
X5.2402Y-3.311
X5.2402Y-3.7626
X5.248Y-3.8122
X5.248Y-3.8626
X5.2559Y-4.4843
X5.2598Y-3.6102
X5.2618Y-4.5374
X5.2884Y-3.1329
X5.2913Y-3.0354
X5.2963Y-3.2077
X5.3071Y-4.748
X5.3169Y-3.1112
X5.328Y-3.2185
X5.3445Y-4.5728
X5.3494Y-3.1683
X5.3622Y-3.815
X5.3626Y-3.8626
X5.3701Y-4.1929
X5.3736Y-2.7659
X5.374Y-2.9803
X5.374Y-3.7244
X5.374Y-3.7626
X5.374Y-4.4567
X5.376Y-2.7973
X5.378Y-2.8287
X5.378Y-2.8622
X5.3957Y-4.6201
X5.4213Y-3.0276
X5.4222Y-4.5305
X5.4331Y-4.6043
X5.4343Y-3.9823
X5.437Y-2.9134
X5.4398Y-3.4016
X5.4528Y-2.8425
X5.4882Y-3.5079
X5.4898Y-3.6071
X5.4921Y-2.9449
X5.4921Y-4.6043
X5.5079Y-3.248
X5.5079Y-3.2913
X5.5179Y-3.5766
X5.5197Y-4.3642
X5.5236Y-3.0512
X5.5315Y-2.7795
X5.5332Y-4.8749
X5.5433Y-2.9134
X5.5472Y-2.9528
X5.5472Y-3.9331
X5.5606Y-4.2957
X5.5666Y-4.0948
X5.5709Y-3.0512
X5.5807Y-3.1417
X5.5827Y-2.7874
X5.6063Y-2.874
X5.6063Y-4.9961
X5.6417Y-3.7992
X5.6535Y-2.874
X5.6575Y-4.2303
X5.6575Y-4.2668
X5.6654Y-3.0157
X5.689Y-2.7874
X5.689Y-3.9685
X5.7Y-3.1976
X5.7087Y-4.9143
X5.7283Y-4.0984
X5.748Y-2.9685
X5.7638Y-3.0315
X5.7638Y-4.8631
X5.7677Y-3.9646
X5.7786Y-4.7904
X5.7835Y-3.1693
X5.7913Y-4.7421
X5.8031Y-4.1811
X5.8047Y-5.0323
X5.8051Y-4.2185
X5.811Y-2.8268
X5.815Y-4.9379
X5.8164Y-4.8469
X5.8209Y-4.6368
X5.8248Y-4.4683
X5.8248Y-4.4958
X5.8248Y-4.5234
X5.8386Y-4.8701
X5.8465Y-4.9016
X5.8524Y-4.5076
X5.8524Y-4.5352
X5.8543Y-3.937
X5.8583Y-2.9803
X5.8661Y-4.8431
X5.8829Y-4.7488
X5.8839Y-4.7714
X5.89Y-4.509
X5.8906Y-5.0323
X5.8907Y-4.5334
X5.8957Y-4.1811
X5.8976Y-4.2165
X5.9016Y-4.2559
X5.9055Y-4.7256
X5.9061Y-4.7031
X5.912Y-4.4968
X5.912Y-4.5456
X5.9124Y-4.5212
X5.9287Y-5.0323
X5.9319Y-4.7486
X5.9319Y-4.7706
X5.9514Y-4.4952
X5.9518Y-4.52
X5.9528Y-2.685
X5.9528Y-4.1024
X5.953Y-4.5448
X5.9561Y-4.7035
X5.9571Y-4.7268
X5.9638Y-5.0323
X5.9738Y-4.5059
X5.9738Y-4.5305
X5.9744Y-4.7675
X5.9843Y-2.8268
X6.001Y-5.0323
X6.002Y-4.0965
X6.0138Y-4.5037
X6.0138Y-4.5312
X6.0197Y-5.1024
X6.0374Y-4.4604
X6.0374Y-4.4879
X6.0374Y-4.5155
X6.0413Y-5.1358
X6.0433Y-4.0984
X6.0471Y-4.9014
X6.0492Y-4.9567
X6.0684Y-4.7308
X6.0748Y-2.7402
X6.0756Y-4.7618
X6.0807Y-4.867
X6.0807Y-4.9011
X6.1102Y-4.124
X6.1181Y-5.0051
X6.1535Y-4.2067
X6.1535Y-4.95
X6.1535Y-4.9882
X6.16Y-4.9025
X6.1654Y-5.189
X6.1732Y-2.7185
X6.177Y-4.7633
X6.1785Y-4.0983
X6.2008Y-4.2323
X6.2136Y-4.0994
X6.2205Y-4.7608
X6.2264Y-4.1535
X6.2445Y-4.8469
X6.2913Y-4.1299
X6.2913Y-4.1614
X6.2915Y-4.1967
X6.315Y-2.9803
X6.315Y-3.0197
X6.378Y-3.9646
X6.3976Y-3.1535
X6.4Y-5.0866
X6.4Y-5.1654
X6.4291Y-2.9567
X6.4557Y-3.3081
X6.5157Y-3.0669
X6.5177Y-2.6831
X6.5354Y-3.0039
T2
X4.8012Y-5.065
X4.8012Y-5.0945
X4.8012Y-5.124
X4.935Y-5.3602
X4.935Y-5.3917
X4.9665Y-5.3602
X4.9665Y-5.3917
X4.9685Y-2.6693
X4.9764Y-2.7283
X4.9764Y-2.7992
X4.9764Y-2.8661
X4.998Y-5.3602
X4.998Y-5.3917
X5.0167Y-3.7559
X5.0295Y-5.3602
X5.0295Y-5.3917
X5.0354Y-2.6693
X5.0354Y-2.9252
X5.0354Y-3.4528
X5.0492Y-3.7559
X5.0728Y-3.6693
X5.0738Y-3.7028
X5.0748Y-3.7352
X5.1024Y-2.6693
X5.1024Y-2.9252
X5.1732Y-2.6693
X5.1732Y-2.9252
X5.2323Y-2.7283
X5.2323Y-2.7992
X5.2323Y-2.8661
X5.3642Y-5.2717
X5.3642Y-5.3031
X5.3642Y-5.3346
X5.3642Y-5.3661
X5.3858Y-2.5709
X5.3858Y-2.6024
X5.3858Y-2.6339
X5.3858Y-2.6654
X5.3858Y-2.6969
X5.3957Y-5.2717
X5.3957Y-5.3031
X5.3957Y-5.3346
X5.3957Y-5.3661
X5.4081Y-4.8755
X5.4173Y-2.6969
X5.4291Y-2.5744
X5.4396Y-4.8755
X5.5256Y-2.628
X5.5984Y-4.4248
X5.6299Y-4.4248
X5.6339Y-2.5709
X5.6339Y-2.6969
X5.6364Y-4.8269
X5.6614Y-4.4248
X5.6654Y-2.5709
X5.6654Y-2.6024
X5.6654Y-2.6339
X5.6654Y-2.6654
X5.6654Y-2.6969
X5.6679Y-4.8269
X5.6929Y-4.4252
X5.7165Y-2.5787
X5.7165Y-2.6102
X5.7165Y-2.6417
X5.7165Y-2.6732
X5.7244Y-4.4252
X5.7441Y-3.2638
X5.7441Y-3.4134
X5.7441Y-3.5669
X5.7441Y-3.7126
X5.7441Y-3.8661
X5.8976Y-3.2638
X5.8976Y-3.563
X5.8976Y-3.8661
X5.9055Y-3.0197
X5.9075Y-4.7614
X5.9252Y-2.9843
X5.9449Y-3.0197
X5.9646Y-2.9843
X5.9843Y-3.0197
X6.0433Y-3.2638
X6.0433Y-3.4173
X6.0433Y-3.7126
X6.0433Y-3.8661
X6.0433Y-5.2441
X6.0866Y-2.6102
X6.0866Y-2.9843
X6.0866Y-3.0236
X6.0906Y-2.815
X6.0906Y-2.8504
X6.0906Y-2.8858
X6.0906Y-2.9252
X6.1457Y-4.4173
X6.1693Y-5.2441
X6.1772Y-4.4173
X6.1929Y-3.563
X6.1969Y-3.2638
X6.1969Y-3.8661
X6.1969Y-4.8671
X6.2087Y-4.4173
X6.2402Y-4.4173
X6.2717Y-4.4173
X6.2781Y-4.7574
X6.3096Y-4.7574
X6.3228Y-2.7421
X6.3386Y-2.626
X6.3386Y-2.6614
X6.3386Y-2.6969
X6.3425Y-3.2638
X6.3425Y-3.4173
X6.3425Y-3.713
X6.3425Y-3.8661
X6.3465Y-3.563
X6.3543Y-2.7697
X6.3689Y-5.2115
X6.3689Y-5.2509
X6.3689Y-5.2903
X6.378Y-4.5906
X6.4035Y-4.2205
X6.4082Y-5.2509
X6.4106Y-4.5906
X6.4449Y-4.5906
X6.4776Y-4.5906
X6.5118Y-4.5906
X6.5185Y-5.15
X6.5185Y-5.2484
X6.5354Y-4.0669
X6.5354Y-4.2205
T4
X4.8665Y-5.229
X5.0941Y-5.229
T5
X4.85Y-3.2
X4.85Y-3.3
X4.85Y-3.4
X4.85Y-3.5
X4.85Y-3.6
X4.85Y-3.7
X4.85Y-3.8
X4.85Y-3.9
X4.85Y-4.0
X4.85Y-4.1
X4.85Y-4.2
X4.85Y-4.3
X4.85Y-4.4
X4.85Y-4.5
X4.85Y-4.6
X4.85Y-4.7
X5.35Y-3.3
X5.35Y-3.4
X5.35Y-3.5
X5.35Y-3.6
X5.85Y-5.3
X5.95Y-5.3
X6.45Y-4.4
X6.45Y-4.5
T6
X4.8425Y-4.8858
X6.1417Y-5.3583
T3
G00X4.8102Y-5.1905
M15
G01X4.8102Y-5.2259
M16
G05
G00X4.8102Y-5.3621
M15
G01X4.8102Y-5.3857
M16
G05
G00X5.1504Y-5.1905
M15
G01X5.1504Y-5.2259
M16
G05
G00X5.1504Y-5.3621
M15
G01X5.1504Y-5.3857
M16
G05
T6
G00X6.1811Y-2.5591
M15
G01X6.1811Y-2.4016
M16
G05
G00X6.5394Y-4.8465
M15
G01X6.6969Y-4.8465
M16
G05
M30
