%TF.GenerationSoftware,KiCad,Pcbnew,10.0.1*%
%TF.CreationDate,2026-04-23T17:24:39+02:00*%
%TF.ProjectId,Communication_pcb_main,436f6d6d-756e-4696-9361-74696f6e5f70,rev?*%
%TF.SameCoordinates,Original*%
%TF.FileFunction,Legend,Top*%
%TF.FilePolarity,Positive*%
%FSLAX46Y46*%
G04 Gerber Fmt 4.6, Leading zero omitted, Abs format (unit mm)*
G04 Created by KiCad (PCBNEW 10.0.1) date 2026-04-23 17:24:39*
%MOMM*%
%LPD*%
G01*
G04 APERTURE LIST*
G04 Aperture macros list*
%AMRoundRect*
0 Rectangle with rounded corners*
0 $1 Rounding radius*
0 $2 $3 $4 $5 $6 $7 $8 $9 X,Y pos of 4 corners*
0 Add a 4 corners polygon primitive as box body*
4,1,4,$2,$3,$4,$5,$6,$7,$8,$9,$2,$3,0*
0 Add four circle primitives for the rounded corners*
1,1,$1+$1,$2,$3*
1,1,$1+$1,$4,$5*
1,1,$1+$1,$6,$7*
1,1,$1+$1,$8,$9*
0 Add four rect primitives between the rounded corners*
20,1,$1+$1,$2,$3,$4,$5,0*
20,1,$1+$1,$4,$5,$6,$7,0*
20,1,$1+$1,$6,$7,$8,$9,0*
20,1,$1+$1,$8,$9,$2,$3,0*%
%AMFreePoly0*
4,1,17,0.505355,0.395355,0.520000,0.360000,0.520000,-0.350000,0.505355,-0.385355,0.470000,-0.400000,-0.480000,-0.400000,-0.515355,-0.385355,-0.530000,-0.350000,-0.530000,-0.140000,-0.515355,-0.104645,-0.480000,-0.090000,0.220000,-0.090000,0.220000,0.360000,0.234645,0.395355,0.270000,0.410000,0.470000,0.410000,0.505355,0.395355,0.505355,0.395355,$1*%
%AMFreePoly1*
4,1,9,0.004619,0.001913,0.004619,-0.001913,0.001913,-0.004619,-0.001913,-0.004619,-0.004619,-0.001913,-0.004619,0.001913,-0.001913,0.004619,0.001913,0.004619,0.004619,0.001913,0.004619,0.001913,$1*%
%AMFreePoly2*
4,1,17,0.485355,0.395355,0.500000,0.360000,0.500000,-0.340000,0.485355,-0.375355,0.450000,-0.390000,0.250000,-0.390000,0.214645,-0.375355,0.200000,-0.340000,0.200000,0.100000,-0.450000,0.100000,-0.485355,0.114645,-0.500000,0.150000,-0.500000,0.360000,-0.485355,0.395355,-0.450000,0.410000,0.450000,0.410000,0.485355,0.395355,0.485355,0.395355,$1*%
%AMFreePoly3*
4,1,17,0.485355,0.395355,0.500000,0.360000,0.500000,0.150000,0.485355,0.114645,0.450000,0.100000,-0.200000,0.100000,-0.200000,-0.340000,-0.214645,-0.375355,-0.250000,-0.390000,-0.450000,-0.390000,-0.485355,-0.375355,-0.500000,-0.340000,-0.500000,0.360000,-0.485355,0.395355,-0.450000,0.410000,0.450000,0.410000,0.485355,0.395355,0.485355,0.395355,$1*%
%AMFreePoly4*
4,1,17,-0.244645,0.385355,-0.230000,0.350000,-0.230000,-0.100000,0.470000,-0.100000,0.505355,-0.114645,0.520000,-0.150000,0.520000,-0.350000,0.505355,-0.385355,0.470000,-0.400000,-0.480000,-0.400000,-0.515355,-0.385355,-0.530000,-0.350000,-0.530000,0.350000,-0.515355,0.385355,-0.480000,0.400000,-0.280000,0.400000,-0.244645,0.385355,-0.244645,0.385355,$1*%
G04 Aperture macros list end*
%ADD10C,0.100000*%
%ADD11C,0.075000*%
%ADD12C,0.187500*%
%ADD13C,0.000000*%
%ADD14C,0.150000*%
%ADD15C,0.060000*%
%ADD16C,0.250000*%
%ADD17C,0.400000*%
%ADD18C,0.300000*%
%ADD19C,0.130000*%
%ADD20C,0.260000*%
%ADD21C,0.120000*%
%ADD22RoundRect,0.159000X0.159000X0.189000X-0.159000X0.189000X-0.159000X-0.189000X0.159000X-0.189000X0*%
%ADD23RoundRect,0.266521X-0.671479X0.346479X-0.671479X-0.346479X0.671479X-0.346479X0.671479X0.346479X0*%
%ADD24RoundRect,0.159000X-0.159000X-0.189000X0.159000X-0.189000X0.159000X0.189000X-0.159000X0.189000X0*%
%ADD25R,2.000000X2.000000*%
%ADD26R,1.000000X0.750000*%
%ADD27RoundRect,0.159000X-0.189000X0.159000X-0.189000X-0.159000X0.189000X-0.159000X0.189000X0.159000X0*%
%ADD28RoundRect,0.261500X-0.261500X-0.476500X0.261500X-0.476500X0.261500X0.476500X-0.261500X0.476500X0*%
%ADD29R,0.800000X0.400000*%
%ADD30R,0.400000X0.800000*%
%ADD31R,1.450000X1.450000*%
%ADD32R,0.700000X0.700000*%
%ADD33RoundRect,0.219000X-0.219000X-0.294000X0.219000X-0.294000X0.219000X0.294000X-0.219000X0.294000X0*%
%ADD34R,0.520000X0.260000*%
%ADD35R,1.050000X0.530000*%
%ADD36R,1.000000X1.050000*%
%ADD37R,1.050000X2.200000*%
%ADD38RoundRect,0.267317X0.280683X0.470683X-0.280683X0.470683X-0.280683X-0.470683X0.280683X-0.470683X0*%
%ADD39O,0.364000X0.847000*%
%ADD40RoundRect,0.159000X0.189000X-0.159000X0.189000X0.159000X-0.189000X0.159000X-0.189000X-0.159000X0*%
%ADD41C,3.800000*%
%ADD42RoundRect,0.219000X0.219000X0.294000X-0.219000X0.294000X-0.219000X-0.294000X0.219000X-0.294000X0*%
%ADD43RoundRect,0.269000X0.269000X0.494000X-0.269000X0.494000X-0.269000X-0.494000X0.269000X-0.494000X0*%
%ADD44RoundRect,0.267317X-0.280683X-0.470683X0.280683X-0.470683X0.280683X0.470683X-0.280683X0.470683X0*%
%ADD45R,1.230000X1.360000*%
%ADD46RoundRect,0.244000X-0.244000X-0.269000X0.244000X-0.269000X0.244000X0.269000X-0.244000X0.269000X0*%
%ADD47RoundRect,0.269000X-0.494000X0.269000X-0.494000X-0.269000X0.494000X-0.269000X0.494000X0.269000X0*%
%ADD48R,1.700000X1.700000*%
%ADD49C,1.700000*%
%ADD50RoundRect,0.266521X0.671479X-0.346479X0.671479X0.346479X-0.671479X0.346479X-0.671479X-0.346479X0*%
%ADD51O,2.000000X0.600000*%
%ADD52O,0.600000X2.000000*%
%ADD53R,2.100000X2.100000*%
%ADD54R,1.120000X0.900000*%
%ADD55R,0.900000X1.100000*%
%ADD56R,1.100000X0.900000*%
%ADD57RoundRect,0.219000X-0.294000X0.219000X-0.294000X-0.219000X0.294000X-0.219000X0.294000X0.219000X0*%
%ADD58R,1.500000X3.200000*%
%ADD59R,1.250000X0.700000*%
%ADD60RoundRect,0.269000X0.494000X-0.269000X0.494000X0.269000X-0.494000X0.269000X-0.494000X-0.269000X0*%
%ADD61R,1.377000X1.133000*%
%ADD62RoundRect,0.244000X0.269000X-0.244000X0.269000X0.244000X-0.269000X0.244000X-0.269000X-0.244000X0*%
%ADD63R,1.380000X1.130000*%
%ADD64R,1.070000X0.530000*%
%ADD65R,3.500000X1.000000*%
%ADD66R,3.500000X1.500000*%
%ADD67R,0.700000X1.250000*%
%ADD68RoundRect,0.261500X0.261500X0.476500X-0.261500X0.476500X-0.261500X-0.476500X0.261500X-0.476500X0*%
%ADD69RoundRect,0.244000X0.244000X0.269000X-0.244000X0.269000X-0.244000X-0.269000X0.244000X-0.269000X0*%
%ADD70R,0.530000X1.070000*%
%ADD71C,0.700000*%
%ADD72R,0.550000X1.100000*%
%ADD73R,0.300000X1.100000*%
%ADD74O,1.100000X2.000000*%
%ADD75O,1.200000X1.800000*%
%ADD76FreePoly0,0.000000*%
%ADD77FreePoly1,0.000000*%
%ADD78R,0.600000X0.200000*%
%ADD79FreePoly2,0.000000*%
%ADD80R,0.200000X0.600000*%
%ADD81FreePoly3,0.000000*%
%ADD82R,0.700000X0.200000*%
%ADD83R,0.650000X0.200000*%
%ADD84R,0.680000X0.200000*%
%ADD85FreePoly4,0.000000*%
%ADD86R,0.220000X1.000000*%
%ADD87R,0.220000X0.950000*%
%ADD88R,3.000000X1.900000*%
%ADD89R,0.260000X0.520000*%
%ADD90R,0.750000X1.000000*%
%ADD91R,0.550000X0.350000*%
%ADD92R,0.700000X0.280000*%
%ADD93R,0.280000X0.700000*%
%ADD94O,2.200000X0.610000*%
%ADD95RoundRect,0.261500X0.476500X-0.261500X0.476500X0.261500X-0.476500X0.261500X-0.476500X-0.261500X0*%
%ADD96RoundRect,0.150000X0.150000X-0.590000X0.150000X0.590000X-0.150000X0.590000X-0.150000X-0.590000X0*%
%ADD97RoundRect,0.244000X-0.269000X0.244000X-0.269000X-0.244000X0.269000X-0.244000X0.269000X0.244000X0*%
%ADD98R,1.800000X1.300000*%
%ADD99R,1.200000X0.900000*%
%ADD100R,1.133000X1.377000*%
%ADD101RoundRect,0.150000X-0.150000X0.590000X-0.150000X-0.590000X0.150000X-0.590000X0.150000X0.590000X0*%
%ADD102O,2.050000X0.590000*%
%ADD103O,8.000000X3.800000*%
%ADD104O,3.800000X8.000000*%
G04 APERTURE END LIST*
D10*
X120720000Y-105400000D02*
X124880000Y-105400000D01*
X120720000Y-110500000D02*
X124880000Y-110500000D01*
X120720000Y-120700000D02*
X124880000Y-120700000D01*
X120800000Y-80000000D02*
X124960000Y-80000000D01*
X120800000Y-90200000D02*
X124960000Y-90200000D01*
D11*
X147292199Y-96422671D02*
X147292199Y-96022671D01*
X147292199Y-96079814D02*
X147320770Y-96051242D01*
X147320770Y-96051242D02*
X147377913Y-96022671D01*
X147377913Y-96022671D02*
X147463627Y-96022671D01*
X147463627Y-96022671D02*
X147520770Y-96051242D01*
X147520770Y-96051242D02*
X147549342Y-96108385D01*
X147549342Y-96108385D02*
X147549342Y-96422671D01*
X147549342Y-96108385D02*
X147577913Y-96051242D01*
X147577913Y-96051242D02*
X147635056Y-96022671D01*
X147635056Y-96022671D02*
X147720770Y-96022671D01*
X147720770Y-96022671D02*
X147777913Y-96051242D01*
X147777913Y-96051242D02*
X147806484Y-96108385D01*
X147806484Y-96108385D02*
X147806484Y-96422671D01*
X148092199Y-96422671D02*
X148092199Y-96022671D01*
X148092199Y-96136957D02*
X148120770Y-96079814D01*
X148120770Y-96079814D02*
X148149342Y-96051242D01*
X148149342Y-96051242D02*
X148206484Y-96022671D01*
X148206484Y-96022671D02*
X148263627Y-96022671D01*
X148835056Y-96022671D02*
X149063628Y-96022671D01*
X148920771Y-96422671D02*
X148920771Y-95908385D01*
X148920771Y-95908385D02*
X148949342Y-95851242D01*
X148949342Y-95851242D02*
X149006485Y-95822671D01*
X149006485Y-95822671D02*
X149063628Y-95822671D01*
X149520771Y-96422671D02*
X149520771Y-96108385D01*
X149520771Y-96108385D02*
X149492199Y-96051242D01*
X149492199Y-96051242D02*
X149435056Y-96022671D01*
X149435056Y-96022671D02*
X149320771Y-96022671D01*
X149320771Y-96022671D02*
X149263628Y-96051242D01*
X149520771Y-96394100D02*
X149463628Y-96422671D01*
X149463628Y-96422671D02*
X149320771Y-96422671D01*
X149320771Y-96422671D02*
X149263628Y-96394100D01*
X149263628Y-96394100D02*
X149235056Y-96336957D01*
X149235056Y-96336957D02*
X149235056Y-96279814D01*
X149235056Y-96279814D02*
X149263628Y-96222671D01*
X149263628Y-96222671D02*
X149320771Y-96194100D01*
X149320771Y-96194100D02*
X149463628Y-96194100D01*
X149463628Y-96194100D02*
X149520771Y-96165528D01*
X149806485Y-96022671D02*
X149806485Y-96422671D01*
X149806485Y-96079814D02*
X149835056Y-96051242D01*
X149835056Y-96051242D02*
X149892199Y-96022671D01*
X149892199Y-96022671D02*
X149977913Y-96022671D01*
X149977913Y-96022671D02*
X150035056Y-96051242D01*
X150035056Y-96051242D02*
X150063628Y-96108385D01*
X150063628Y-96108385D02*
X150063628Y-96422671D01*
X150606485Y-96394100D02*
X150549342Y-96422671D01*
X150549342Y-96422671D02*
X150435056Y-96422671D01*
X150435056Y-96422671D02*
X150377913Y-96394100D01*
X150377913Y-96394100D02*
X150349342Y-96365528D01*
X150349342Y-96365528D02*
X150320770Y-96308385D01*
X150320770Y-96308385D02*
X150320770Y-96136957D01*
X150320770Y-96136957D02*
X150349342Y-96079814D01*
X150349342Y-96079814D02*
X150377913Y-96051242D01*
X150377913Y-96051242D02*
X150435056Y-96022671D01*
X150435056Y-96022671D02*
X150549342Y-96022671D01*
X150549342Y-96022671D02*
X150606485Y-96051242D01*
X150806485Y-96022671D02*
X150949342Y-96422671D01*
X151092199Y-96022671D02*
X150949342Y-96422671D01*
X150949342Y-96422671D02*
X150892199Y-96565528D01*
X150892199Y-96565528D02*
X150863628Y-96594100D01*
X150863628Y-96594100D02*
X150806485Y-96622671D01*
X151320771Y-96022671D02*
X151320771Y-96622671D01*
X151320771Y-96051242D02*
X151377914Y-96022671D01*
X151377914Y-96022671D02*
X151492199Y-96022671D01*
X151492199Y-96022671D02*
X151549342Y-96051242D01*
X151549342Y-96051242D02*
X151577914Y-96079814D01*
X151577914Y-96079814D02*
X151606485Y-96136957D01*
X151606485Y-96136957D02*
X151606485Y-96308385D01*
X151606485Y-96308385D02*
X151577914Y-96365528D01*
X151577914Y-96365528D02*
X151549342Y-96394100D01*
X151549342Y-96394100D02*
X151492199Y-96422671D01*
X151492199Y-96422671D02*
X151377914Y-96422671D01*
X151377914Y-96422671D02*
X151320771Y-96394100D01*
X152120771Y-96422671D02*
X152120771Y-96108385D01*
X152120771Y-96108385D02*
X152092199Y-96051242D01*
X152092199Y-96051242D02*
X152035056Y-96022671D01*
X152035056Y-96022671D02*
X151920771Y-96022671D01*
X151920771Y-96022671D02*
X151863628Y-96051242D01*
X152120771Y-96394100D02*
X152063628Y-96422671D01*
X152063628Y-96422671D02*
X151920771Y-96422671D01*
X151920771Y-96422671D02*
X151863628Y-96394100D01*
X151863628Y-96394100D02*
X151835056Y-96336957D01*
X151835056Y-96336957D02*
X151835056Y-96279814D01*
X151835056Y-96279814D02*
X151863628Y-96222671D01*
X151863628Y-96222671D02*
X151920771Y-96194100D01*
X151920771Y-96194100D02*
X152063628Y-96194100D01*
X152063628Y-96194100D02*
X152120771Y-96165528D01*
X152406485Y-96022671D02*
X152406485Y-96422671D01*
X152406485Y-96079814D02*
X152435056Y-96051242D01*
X152435056Y-96051242D02*
X152492199Y-96022671D01*
X152492199Y-96022671D02*
X152577913Y-96022671D01*
X152577913Y-96022671D02*
X152635056Y-96051242D01*
X152635056Y-96051242D02*
X152663628Y-96108385D01*
X152663628Y-96108385D02*
X152663628Y-96422671D01*
X152863627Y-96022671D02*
X153092199Y-96022671D01*
X152949342Y-95822671D02*
X152949342Y-96336957D01*
X152949342Y-96336957D02*
X152977913Y-96394100D01*
X152977913Y-96394100D02*
X153035056Y-96422671D01*
X153035056Y-96422671D02*
X153092199Y-96422671D01*
X153263627Y-96394100D02*
X153320770Y-96422671D01*
X153320770Y-96422671D02*
X153435056Y-96422671D01*
X153435056Y-96422671D02*
X153492199Y-96394100D01*
X153492199Y-96394100D02*
X153520770Y-96336957D01*
X153520770Y-96336957D02*
X153520770Y-96308385D01*
X153520770Y-96308385D02*
X153492199Y-96251242D01*
X153492199Y-96251242D02*
X153435056Y-96222671D01*
X153435056Y-96222671D02*
X153349342Y-96222671D01*
X153349342Y-96222671D02*
X153292199Y-96194100D01*
X153292199Y-96194100D02*
X153263627Y-96136957D01*
X153263627Y-96136957D02*
X153263627Y-96108385D01*
X153263627Y-96108385D02*
X153292199Y-96051242D01*
X153292199Y-96051242D02*
X153349342Y-96022671D01*
X153349342Y-96022671D02*
X153435056Y-96022671D01*
X153435056Y-96022671D02*
X153492199Y-96051242D01*
X154492199Y-96022671D02*
X154492199Y-96422671D01*
X154235056Y-96022671D02*
X154235056Y-96336957D01*
X154235056Y-96336957D02*
X154263627Y-96394100D01*
X154263627Y-96394100D02*
X154320770Y-96422671D01*
X154320770Y-96422671D02*
X154406484Y-96422671D01*
X154406484Y-96422671D02*
X154463627Y-96394100D01*
X154463627Y-96394100D02*
X154492199Y-96365528D01*
X154749341Y-96394100D02*
X154806484Y-96422671D01*
X154806484Y-96422671D02*
X154920770Y-96422671D01*
X154920770Y-96422671D02*
X154977913Y-96394100D01*
X154977913Y-96394100D02*
X155006484Y-96336957D01*
X155006484Y-96336957D02*
X155006484Y-96308385D01*
X155006484Y-96308385D02*
X154977913Y-96251242D01*
X154977913Y-96251242D02*
X154920770Y-96222671D01*
X154920770Y-96222671D02*
X154835056Y-96222671D01*
X154835056Y-96222671D02*
X154777913Y-96194100D01*
X154777913Y-96194100D02*
X154749341Y-96136957D01*
X154749341Y-96136957D02*
X154749341Y-96108385D01*
X154749341Y-96108385D02*
X154777913Y-96051242D01*
X154777913Y-96051242D02*
X154835056Y-96022671D01*
X154835056Y-96022671D02*
X154920770Y-96022671D01*
X154920770Y-96022671D02*
X154977913Y-96051242D01*
X155263627Y-96422671D02*
X155263627Y-96022671D01*
X155263627Y-95822671D02*
X155235055Y-95851242D01*
X155235055Y-95851242D02*
X155263627Y-95879814D01*
X155263627Y-95879814D02*
X155292198Y-95851242D01*
X155292198Y-95851242D02*
X155263627Y-95822671D01*
X155263627Y-95822671D02*
X155263627Y-95879814D01*
X155549341Y-96022671D02*
X155549341Y-96422671D01*
X155549341Y-96079814D02*
X155577912Y-96051242D01*
X155577912Y-96051242D02*
X155635055Y-96022671D01*
X155635055Y-96022671D02*
X155720769Y-96022671D01*
X155720769Y-96022671D02*
X155777912Y-96051242D01*
X155777912Y-96051242D02*
X155806484Y-96108385D01*
X155806484Y-96108385D02*
X155806484Y-96422671D01*
X156349341Y-96022671D02*
X156349341Y-96508385D01*
X156349341Y-96508385D02*
X156320769Y-96565528D01*
X156320769Y-96565528D02*
X156292198Y-96594100D01*
X156292198Y-96594100D02*
X156235055Y-96622671D01*
X156235055Y-96622671D02*
X156149341Y-96622671D01*
X156149341Y-96622671D02*
X156092198Y-96594100D01*
X156349341Y-96394100D02*
X156292198Y-96422671D01*
X156292198Y-96422671D02*
X156177912Y-96422671D01*
X156177912Y-96422671D02*
X156120769Y-96394100D01*
X156120769Y-96394100D02*
X156092198Y-96365528D01*
X156092198Y-96365528D02*
X156063626Y-96308385D01*
X156063626Y-96308385D02*
X156063626Y-96136957D01*
X156063626Y-96136957D02*
X156092198Y-96079814D01*
X156092198Y-96079814D02*
X156120769Y-96051242D01*
X156120769Y-96051242D02*
X156177912Y-96022671D01*
X156177912Y-96022671D02*
X156292198Y-96022671D01*
X156292198Y-96022671D02*
X156349341Y-96051242D01*
X157035055Y-96022671D02*
X157149341Y-96422671D01*
X157149341Y-96422671D02*
X157263626Y-96136957D01*
X157263626Y-96136957D02*
X157377912Y-96422671D01*
X157377912Y-96422671D02*
X157492198Y-96022671D01*
X157720769Y-96422671D02*
X157720769Y-96022671D01*
X157720769Y-95822671D02*
X157692197Y-95851242D01*
X157692197Y-95851242D02*
X157720769Y-95879814D01*
X157720769Y-95879814D02*
X157749340Y-95851242D01*
X157749340Y-95851242D02*
X157720769Y-95822671D01*
X157720769Y-95822671D02*
X157720769Y-95879814D01*
X157920768Y-96022671D02*
X158149340Y-96022671D01*
X158006483Y-96422671D02*
X158006483Y-95908385D01*
X158006483Y-95908385D02*
X158035054Y-95851242D01*
X158035054Y-95851242D02*
X158092197Y-95822671D01*
X158092197Y-95822671D02*
X158149340Y-95822671D01*
X158349340Y-96422671D02*
X158349340Y-96022671D01*
X158349340Y-95822671D02*
X158320768Y-95851242D01*
X158320768Y-95851242D02*
X158349340Y-95879814D01*
X158349340Y-95879814D02*
X158377911Y-95851242D01*
X158377911Y-95851242D02*
X158349340Y-95822671D01*
X158349340Y-95822671D02*
X158349340Y-95879814D01*
X158635054Y-96365528D02*
X158663625Y-96394100D01*
X158663625Y-96394100D02*
X158635054Y-96422671D01*
X158635054Y-96422671D02*
X158606482Y-96394100D01*
X158606482Y-96394100D02*
X158635054Y-96365528D01*
X158635054Y-96365528D02*
X158635054Y-96422671D01*
X158920768Y-96365528D02*
X158949339Y-96394100D01*
X158949339Y-96394100D02*
X158920768Y-96422671D01*
X158920768Y-96422671D02*
X158892196Y-96394100D01*
X158892196Y-96394100D02*
X158920768Y-96365528D01*
X158920768Y-96365528D02*
X158920768Y-96422671D01*
X159206482Y-96365528D02*
X159235053Y-96394100D01*
X159235053Y-96394100D02*
X159206482Y-96422671D01*
X159206482Y-96422671D02*
X159177910Y-96394100D01*
X159177910Y-96394100D02*
X159206482Y-96365528D01*
X159206482Y-96365528D02*
X159206482Y-96422671D01*
X159492196Y-96365528D02*
X159520767Y-96394100D01*
X159520767Y-96394100D02*
X159492196Y-96422671D01*
X159492196Y-96422671D02*
X159463624Y-96394100D01*
X159463624Y-96394100D02*
X159492196Y-96365528D01*
X159492196Y-96365528D02*
X159492196Y-96422671D01*
D12*
X147980497Y-136835250D02*
X149123355Y-136835250D01*
X148551926Y-137406678D02*
X148551926Y-136263821D01*
X150980497Y-136835250D02*
X152123355Y-136835250D01*
X148216212Y-131106678D02*
X148716212Y-132606678D01*
X148716212Y-132606678D02*
X149216212Y-131106678D01*
X149716211Y-132606678D02*
X149716211Y-131106678D01*
X150430497Y-132606678D02*
X150430497Y-131106678D01*
X150430497Y-131106678D02*
X151287640Y-132606678D01*
X151287640Y-132606678D02*
X151287640Y-131106678D01*
X125956678Y-130069502D02*
X127170964Y-130069502D01*
X127170964Y-130069502D02*
X127313821Y-129998073D01*
X127313821Y-129998073D02*
X127385250Y-129926645D01*
X127385250Y-129926645D02*
X127456678Y-129783787D01*
X127456678Y-129783787D02*
X127456678Y-129498073D01*
X127456678Y-129498073D02*
X127385250Y-129355216D01*
X127385250Y-129355216D02*
X127313821Y-129283787D01*
X127313821Y-129283787D02*
X127170964Y-129212359D01*
X127170964Y-129212359D02*
X125956678Y-129212359D01*
X127385250Y-128569501D02*
X127456678Y-128355216D01*
X127456678Y-128355216D02*
X127456678Y-127998073D01*
X127456678Y-127998073D02*
X127385250Y-127855216D01*
X127385250Y-127855216D02*
X127313821Y-127783787D01*
X127313821Y-127783787D02*
X127170964Y-127712358D01*
X127170964Y-127712358D02*
X127028107Y-127712358D01*
X127028107Y-127712358D02*
X126885250Y-127783787D01*
X126885250Y-127783787D02*
X126813821Y-127855216D01*
X126813821Y-127855216D02*
X126742392Y-127998073D01*
X126742392Y-127998073D02*
X126670964Y-128283787D01*
X126670964Y-128283787D02*
X126599535Y-128426644D01*
X126599535Y-128426644D02*
X126528107Y-128498073D01*
X126528107Y-128498073D02*
X126385250Y-128569501D01*
X126385250Y-128569501D02*
X126242392Y-128569501D01*
X126242392Y-128569501D02*
X126099535Y-128498073D01*
X126099535Y-128498073D02*
X126028107Y-128426644D01*
X126028107Y-128426644D02*
X125956678Y-128283787D01*
X125956678Y-128283787D02*
X125956678Y-127926644D01*
X125956678Y-127926644D02*
X126028107Y-127712358D01*
X126670964Y-126569502D02*
X126742392Y-126355216D01*
X126742392Y-126355216D02*
X126813821Y-126283787D01*
X126813821Y-126283787D02*
X126956678Y-126212359D01*
X126956678Y-126212359D02*
X127170964Y-126212359D01*
X127170964Y-126212359D02*
X127313821Y-126283787D01*
X127313821Y-126283787D02*
X127385250Y-126355216D01*
X127385250Y-126355216D02*
X127456678Y-126498073D01*
X127456678Y-126498073D02*
X127456678Y-127069502D01*
X127456678Y-127069502D02*
X125956678Y-127069502D01*
X125956678Y-127069502D02*
X125956678Y-126569502D01*
X125956678Y-126569502D02*
X126028107Y-126426645D01*
X126028107Y-126426645D02*
X126099535Y-126355216D01*
X126099535Y-126355216D02*
X126242392Y-126283787D01*
X126242392Y-126283787D02*
X126385250Y-126283787D01*
X126385250Y-126283787D02*
X126528107Y-126355216D01*
X126528107Y-126355216D02*
X126599535Y-126426645D01*
X126599535Y-126426645D02*
X126670964Y-126569502D01*
X126670964Y-126569502D02*
X126670964Y-127069502D01*
D13*
G36*
X167849991Y-121000000D02*
G01*
X165749991Y-121000000D01*
X165749991Y-120757082D01*
X167849991Y-120757082D01*
X167849991Y-121000000D01*
G37*
G36*
X167849991Y-120271245D02*
G01*
X165749991Y-120271245D01*
X165749991Y-120028326D01*
X167849991Y-120028326D01*
X167849991Y-120271245D01*
G37*
G36*
X167849991Y-119785408D02*
G01*
X165749991Y-119785408D01*
X165749991Y-119299571D01*
X167849991Y-119299571D01*
X167849991Y-119785408D01*
G37*
G36*
X167849991Y-119056652D02*
G01*
X165749991Y-119056652D01*
X165749991Y-118570815D01*
X167849991Y-118570815D01*
X167849991Y-119056652D01*
G37*
G36*
X167849991Y-118327897D02*
G01*
X165749991Y-118327897D01*
X165749991Y-118084979D01*
X167849991Y-118084979D01*
X167849991Y-118327897D01*
G37*
G36*
X167849991Y-117842060D02*
G01*
X165749991Y-117842060D01*
X165749991Y-117599142D01*
X167849991Y-117599142D01*
X167849991Y-117842060D01*
G37*
G36*
X167849991Y-117356223D02*
G01*
X165749991Y-117356223D01*
X165749991Y-117113305D01*
X167849991Y-117113305D01*
X167849991Y-117356223D01*
G37*
G36*
X167849991Y-116870386D02*
G01*
X165749991Y-116870386D01*
X165749991Y-116384549D01*
X167849991Y-116384549D01*
X167849991Y-116870386D01*
G37*
G36*
X167849991Y-115898712D02*
G01*
X165749991Y-115898712D01*
X165749991Y-115655794D01*
X167849991Y-115655794D01*
X167849991Y-115898712D01*
G37*
G36*
X167849991Y-115412876D02*
G01*
X165749991Y-115412876D01*
X165749991Y-114927039D01*
X167849991Y-114927039D01*
X167849991Y-115412876D01*
G37*
G36*
X167849991Y-114684120D02*
G01*
X165749991Y-114684120D01*
X165749991Y-114198283D01*
X167849991Y-114198283D01*
X167849991Y-114684120D01*
G37*
G36*
X167849991Y-113955365D02*
G01*
X165749991Y-113955365D01*
X165749991Y-113712446D01*
X167849991Y-113712446D01*
X167849991Y-113955365D01*
G37*
G36*
X167849991Y-113469528D02*
G01*
X165749991Y-113469528D01*
X165749991Y-112983691D01*
X167849991Y-112983691D01*
X167849991Y-113469528D01*
G37*
G36*
X167849991Y-112497854D02*
G01*
X165749991Y-112497854D01*
X165749991Y-112254936D01*
X167849991Y-112254936D01*
X167849991Y-112497854D01*
G37*
G36*
X167849991Y-112012017D02*
G01*
X165749991Y-112012017D01*
X165749991Y-111769099D01*
X167849991Y-111769099D01*
X167849991Y-112012017D01*
G37*
G36*
X167849991Y-111526180D02*
G01*
X165749991Y-111526180D01*
X165749991Y-111283262D01*
X167849991Y-111283262D01*
X167849991Y-111526180D01*
G37*
G36*
X167849991Y-111040343D02*
G01*
X165749991Y-111040343D01*
X165749991Y-110554506D01*
X167849991Y-110554506D01*
X167849991Y-111040343D01*
G37*
G36*
X167849991Y-110311588D02*
G01*
X165749991Y-110311588D01*
X165749991Y-110068670D01*
X167849991Y-110068670D01*
X167849991Y-110311588D01*
G37*
G36*
X167849991Y-109825751D02*
G01*
X165749991Y-109825751D01*
X165749991Y-109339914D01*
X167849991Y-109339914D01*
X167849991Y-109825751D01*
G37*
G36*
X167849991Y-108854077D02*
G01*
X165749991Y-108854077D01*
X165749991Y-108611159D01*
X167849991Y-108611159D01*
X167849991Y-108854077D01*
G37*
G36*
X167849991Y-108368240D02*
G01*
X165749991Y-108368240D01*
X165749991Y-108125322D01*
X167849991Y-108125322D01*
X167849991Y-108368240D01*
G37*
G36*
X167849991Y-107882403D02*
G01*
X165749991Y-107882403D01*
X165749991Y-107396567D01*
X167849991Y-107396567D01*
X167849991Y-107882403D01*
G37*
G36*
X167849991Y-107153648D02*
G01*
X165749991Y-107153648D01*
X165749991Y-106910730D01*
X167849991Y-106910730D01*
X167849991Y-107153648D01*
G37*
G36*
X167849991Y-106424893D02*
G01*
X165749991Y-106424893D01*
X165749991Y-105939056D01*
X167849991Y-105939056D01*
X167849991Y-106424893D01*
G37*
G36*
X167849991Y-105696137D02*
G01*
X165749991Y-105696137D01*
X165749991Y-105453219D01*
X167849991Y-105453219D01*
X167849991Y-105696137D01*
G37*
G36*
X167849991Y-105210300D02*
G01*
X165749991Y-105210300D01*
X165749991Y-104967382D01*
X167849991Y-104967382D01*
X167849991Y-105210300D01*
G37*
G36*
X167849991Y-104724464D02*
G01*
X165749991Y-104724464D01*
X165749991Y-104481545D01*
X167849991Y-104481545D01*
X167849991Y-104724464D01*
G37*
G36*
X167849991Y-104238627D02*
G01*
X165749991Y-104238627D01*
X165749991Y-103995708D01*
X167849991Y-103995708D01*
X167849991Y-104238627D01*
G37*
G36*
X167849991Y-103509871D02*
G01*
X165749991Y-103509871D01*
X165749991Y-103024034D01*
X167849991Y-103024034D01*
X167849991Y-103509871D01*
G37*
G36*
X167849991Y-102781116D02*
G01*
X165749991Y-102781116D01*
X165749991Y-102295279D01*
X167849991Y-102295279D01*
X167849991Y-102781116D01*
G37*
G36*
X167849991Y-102052361D02*
G01*
X165749991Y-102052361D01*
X165749991Y-101809442D01*
X167849991Y-101809442D01*
X167849991Y-102052361D01*
G37*
G36*
X167849991Y-101566524D02*
G01*
X165749991Y-101566524D01*
X165749991Y-101323605D01*
X167849991Y-101323605D01*
X167849991Y-101566524D01*
G37*
G36*
X167849991Y-101080687D02*
G01*
X165749991Y-101080687D01*
X165749991Y-100594850D01*
X167849991Y-100594850D01*
X167849991Y-101080687D01*
G37*
G36*
X167849991Y-100351931D02*
G01*
X165749991Y-100351931D01*
X165749991Y-100109013D01*
X167849991Y-100109013D01*
X167849991Y-100351931D01*
G37*
G36*
X167849991Y-99623176D02*
G01*
X165749991Y-99623176D01*
X165749991Y-99137339D01*
X167849991Y-99137339D01*
X167849991Y-99623176D01*
G37*
G36*
X167849991Y-98894421D02*
G01*
X165749991Y-98894421D01*
X165749991Y-98408584D01*
X167849991Y-98408584D01*
X167849991Y-98894421D01*
G37*
G36*
X169491428Y-98186614D02*
G01*
X169499078Y-98186986D01*
X169689553Y-98234605D01*
X169695741Y-98237529D01*
X169702346Y-98239337D01*
X169797584Y-98286956D01*
X169805495Y-98293097D01*
X169813827Y-98298663D01*
X169909066Y-98393902D01*
X169910805Y-98396506D01*
X169912087Y-98397146D01*
X169917049Y-98405851D01*
X169922614Y-98414179D01*
X169922614Y-98415611D01*
X169924165Y-98418332D01*
X169971784Y-98561189D01*
X169973036Y-98571128D01*
X169974991Y-98580953D01*
X169974991Y-98819048D01*
X169970233Y-98842966D01*
X169936409Y-98876790D01*
X169912491Y-98881548D01*
X169849991Y-98881548D01*
X168912491Y-98881548D01*
X168888573Y-98876790D01*
X168854749Y-98842966D01*
X168849991Y-98819048D01*
X168849991Y-98591096D01*
X168974991Y-98591096D01*
X168974991Y-98756548D01*
X169849991Y-98756548D01*
X169849991Y-98591096D01*
X169810244Y-98471857D01*
X169732612Y-98394226D01*
X169652579Y-98354209D01*
X169476225Y-98310120D01*
X169348756Y-98310120D01*
X169172402Y-98354209D01*
X169092369Y-98394225D01*
X169014737Y-98471857D01*
X168974991Y-98591096D01*
X168849991Y-98591096D01*
X168849991Y-98580953D01*
X168851945Y-98571128D01*
X168853198Y-98561189D01*
X168900817Y-98418332D01*
X168902368Y-98415611D01*
X168902368Y-98414179D01*
X168907932Y-98405851D01*
X168912895Y-98397146D01*
X168914176Y-98396506D01*
X168915916Y-98393902D01*
X169011154Y-98298664D01*
X169019475Y-98293104D01*
X169027397Y-98286956D01*
X169122635Y-98239337D01*
X169129239Y-98237529D01*
X169135428Y-98234605D01*
X169325903Y-98186986D01*
X169333552Y-98186614D01*
X169341062Y-98185120D01*
X169483919Y-98185120D01*
X169491428Y-98186614D01*
G37*
G36*
X167849991Y-98165665D02*
G01*
X165749991Y-98165665D01*
X165749991Y-97922747D01*
X167849991Y-97922747D01*
X167849991Y-98165665D01*
G37*
G36*
X169492980Y-97329780D02*
G01*
X169496048Y-97329166D01*
X169498664Y-97330911D01*
X169507837Y-97332735D01*
X169520708Y-97345606D01*
X169535849Y-97355700D01*
X169539436Y-97364335D01*
X169541661Y-97366559D01*
X169541661Y-97369690D01*
X169545205Y-97378220D01*
X169630394Y-97804167D01*
X169754878Y-97804167D01*
X169818287Y-97772463D01*
X169849991Y-97709055D01*
X169849991Y-97548089D01*
X169808970Y-97466047D01*
X169802530Y-97442526D01*
X169817656Y-97397147D01*
X169860442Y-97375754D01*
X169905822Y-97390880D01*
X169920774Y-97410145D01*
X169968393Y-97505383D01*
X169969219Y-97508403D01*
X169970233Y-97509416D01*
X169972187Y-97519244D01*
X169974833Y-97528904D01*
X169974380Y-97530263D01*
X169974991Y-97533334D01*
X169974991Y-97723810D01*
X169974380Y-97726882D01*
X169974833Y-97728240D01*
X169972187Y-97737901D01*
X169970233Y-97747728D01*
X169969219Y-97748742D01*
X169968393Y-97751761D01*
X169920774Y-97846999D01*
X169913143Y-97856830D01*
X169912088Y-97859998D01*
X169908560Y-97862736D01*
X169905822Y-97866264D01*
X169902653Y-97867321D01*
X169892822Y-97874950D01*
X169797584Y-97922569D01*
X169794564Y-97923396D01*
X169793551Y-97924409D01*
X169783723Y-97926364D01*
X169774063Y-97929009D01*
X169772704Y-97928557D01*
X169769633Y-97929167D01*
X169403436Y-97929167D01*
X169388681Y-97929167D01*
X169385609Y-97928557D01*
X169384251Y-97929009D01*
X169374590Y-97926364D01*
X169364763Y-97924409D01*
X169363749Y-97923396D01*
X169360730Y-97922569D01*
X169265492Y-97874950D01*
X169255661Y-97867320D01*
X169252493Y-97866264D01*
X169249754Y-97862737D01*
X169246227Y-97859998D01*
X169245171Y-97856830D01*
X169237541Y-97846999D01*
X169189922Y-97751761D01*
X169189095Y-97748742D01*
X169188082Y-97747728D01*
X169186127Y-97737901D01*
X169183482Y-97728240D01*
X169183934Y-97726882D01*
X169183324Y-97723810D01*
X169183324Y-97548089D01*
X169308324Y-97548089D01*
X169308324Y-97709055D01*
X169340028Y-97772463D01*
X169403436Y-97804167D01*
X169502919Y-97804167D01*
X169432681Y-97452977D01*
X169403436Y-97452977D01*
X169340028Y-97484681D01*
X169308324Y-97548089D01*
X169183324Y-97548089D01*
X169183324Y-97533334D01*
X169183934Y-97530263D01*
X169183482Y-97528904D01*
X169186127Y-97519244D01*
X169188082Y-97509416D01*
X169189095Y-97508403D01*
X169189922Y-97505383D01*
X169237541Y-97410145D01*
X169245171Y-97400315D01*
X169246227Y-97397146D01*
X169249754Y-97394408D01*
X169252493Y-97390880D01*
X169255661Y-97389825D01*
X169265492Y-97382194D01*
X169360730Y-97334575D01*
X169363749Y-97333749D01*
X169364763Y-97332735D01*
X169374590Y-97330781D01*
X169384251Y-97328135D01*
X169385609Y-97328588D01*
X169388681Y-97327977D01*
X169483919Y-97327977D01*
X169492980Y-97329780D01*
G37*
G36*
X167849991Y-97679828D02*
G01*
X165749991Y-97679828D01*
X165749991Y-97193991D01*
X167849991Y-97193991D01*
X167849991Y-97679828D01*
G37*
G36*
X169772704Y-96519064D02*
G01*
X169774063Y-96518611D01*
X169783723Y-96521257D01*
X169793551Y-96523211D01*
X169794564Y-96524225D01*
X169797584Y-96525051D01*
X169892823Y-96572670D01*
X169902653Y-96580301D01*
X169905822Y-96581356D01*
X169908560Y-96584884D01*
X169912088Y-96587622D01*
X169913143Y-96590791D01*
X169920774Y-96600621D01*
X169968393Y-96695859D01*
X169969219Y-96698879D01*
X169970233Y-96699892D01*
X169972187Y-96709720D01*
X169974833Y-96719380D01*
X169974380Y-96720739D01*
X169974991Y-96723810D01*
X169974991Y-96914286D01*
X169974380Y-96917358D01*
X169974833Y-96918716D01*
X169972187Y-96928377D01*
X169970233Y-96938204D01*
X169969219Y-96939218D01*
X169968393Y-96942237D01*
X169920774Y-97037475D01*
X169905822Y-97056740D01*
X169860442Y-97071866D01*
X169817656Y-97050474D01*
X169802530Y-97005094D01*
X169808970Y-96981573D01*
X169849991Y-96899531D01*
X169849991Y-96738565D01*
X169818287Y-96675157D01*
X169754879Y-96643453D01*
X169736769Y-96643453D01*
X169673361Y-96675157D01*
X169641657Y-96738565D01*
X169641657Y-96866667D01*
X169641046Y-96869739D01*
X169641499Y-96871097D01*
X169638853Y-96880758D01*
X169636899Y-96890585D01*
X169635885Y-96891599D01*
X169635059Y-96894618D01*
X169587440Y-96989856D01*
X169579809Y-96999687D01*
X169578754Y-97002855D01*
X169575226Y-97005594D01*
X169572488Y-97009121D01*
X169569319Y-97010177D01*
X169559489Y-97017807D01*
X169464251Y-97065426D01*
X169461231Y-97066253D01*
X169460218Y-97067266D01*
X169450390Y-97069221D01*
X169440730Y-97071866D01*
X169439371Y-97071414D01*
X169436300Y-97072024D01*
X169388681Y-97072024D01*
X169385609Y-97071414D01*
X169384251Y-97071866D01*
X169374590Y-97069221D01*
X169364763Y-97067266D01*
X169363749Y-97066253D01*
X169360730Y-97065426D01*
X169265492Y-97017807D01*
X169255661Y-97010177D01*
X169252493Y-97009121D01*
X169249754Y-97005594D01*
X169246227Y-97002855D01*
X169245171Y-96999687D01*
X169237541Y-96989856D01*
X169189922Y-96894618D01*
X169189095Y-96891599D01*
X169188082Y-96890585D01*
X169186127Y-96880758D01*
X169183482Y-96871097D01*
X169183934Y-96869739D01*
X169183324Y-96866667D01*
X169183324Y-96723810D01*
X169183934Y-96720739D01*
X169183482Y-96719380D01*
X169186127Y-96709720D01*
X169188082Y-96699892D01*
X169189095Y-96698879D01*
X169189922Y-96695859D01*
X169237541Y-96600621D01*
X169252493Y-96581356D01*
X169297873Y-96566230D01*
X169340659Y-96587623D01*
X169355785Y-96633002D01*
X169349345Y-96656523D01*
X169308324Y-96738565D01*
X169308324Y-96851912D01*
X169340028Y-96915320D01*
X169403436Y-96947024D01*
X169421545Y-96947024D01*
X169484953Y-96915320D01*
X169516657Y-96851912D01*
X169516657Y-96723810D01*
X169517267Y-96720739D01*
X169516815Y-96719380D01*
X169519460Y-96709720D01*
X169521415Y-96699892D01*
X169522428Y-96698879D01*
X169523255Y-96695859D01*
X169570874Y-96600621D01*
X169578504Y-96590791D01*
X169579560Y-96587622D01*
X169583087Y-96584884D01*
X169585826Y-96581356D01*
X169588994Y-96580301D01*
X169598825Y-96572670D01*
X169694063Y-96525051D01*
X169697082Y-96524225D01*
X169698096Y-96523211D01*
X169707923Y-96521257D01*
X169717584Y-96518611D01*
X169718942Y-96519064D01*
X169722014Y-96518453D01*
X169769633Y-96518453D01*
X169772704Y-96519064D01*
G37*
G36*
X167849991Y-96708155D02*
G01*
X165749991Y-96708155D01*
X165749991Y-96465236D01*
X167849991Y-96465236D01*
X167849991Y-96708155D01*
G37*
G36*
X169004304Y-96060568D02*
G01*
X169051923Y-96108187D01*
X169065468Y-96128461D01*
X169065471Y-96128463D01*
X169065471Y-96128464D01*
X169065471Y-96176298D01*
X169065471Y-96176299D01*
X169065468Y-96176302D01*
X169051923Y-96196575D01*
X169004304Y-96244194D01*
X168984027Y-96257742D01*
X168936193Y-96257742D01*
X168915916Y-96244194D01*
X168868297Y-96196575D01*
X168854751Y-96176302D01*
X168854749Y-96176299D01*
X168854749Y-96128463D01*
X168854751Y-96128461D01*
X168868297Y-96108187D01*
X168915916Y-96060568D01*
X168936193Y-96047020D01*
X168984027Y-96047020D01*
X169004304Y-96060568D01*
G37*
G36*
X167849991Y-96222318D02*
G01*
X165749991Y-96222318D01*
X165749991Y-95979399D01*
X167849991Y-95979399D01*
X167849991Y-96222318D01*
G37*
G36*
X169936409Y-96094639D02*
G01*
X169970233Y-96128463D01*
X169970233Y-96176299D01*
X169936409Y-96210123D01*
X169912491Y-96214881D01*
X169245824Y-96214881D01*
X169221906Y-96210123D01*
X169188082Y-96176299D01*
X169188082Y-96128463D01*
X169221906Y-96094639D01*
X169245824Y-96089881D01*
X169912491Y-96089881D01*
X169936409Y-96094639D01*
G37*
G36*
X170058419Y-95185731D02*
G01*
X170059778Y-95185278D01*
X170069438Y-95187924D01*
X170079266Y-95189878D01*
X170080279Y-95190892D01*
X170083299Y-95191718D01*
X170178537Y-95239337D01*
X170186458Y-95245485D01*
X170194780Y-95251045D01*
X170242399Y-95298664D01*
X170247959Y-95306986D01*
X170254107Y-95314907D01*
X170301726Y-95410145D01*
X170302552Y-95413165D01*
X170303566Y-95414178D01*
X170305520Y-95424006D01*
X170308166Y-95433666D01*
X170307713Y-95435025D01*
X170308324Y-95438096D01*
X170308324Y-95580953D01*
X170307713Y-95584025D01*
X170308166Y-95585383D01*
X170305520Y-95595044D01*
X170303566Y-95604871D01*
X170302552Y-95605885D01*
X170301726Y-95608904D01*
X170254107Y-95704142D01*
X170239155Y-95723407D01*
X170193775Y-95738533D01*
X170150989Y-95717141D01*
X170135863Y-95671761D01*
X170142303Y-95648240D01*
X170183324Y-95566198D01*
X170183324Y-95452851D01*
X170146838Y-95379879D01*
X170113565Y-95346606D01*
X170040593Y-95310120D01*
X169965999Y-95310120D01*
X169968393Y-95314907D01*
X169969219Y-95317927D01*
X169970233Y-95318940D01*
X169972187Y-95328768D01*
X169974833Y-95338428D01*
X169974380Y-95339787D01*
X169974991Y-95342858D01*
X169974991Y-95533334D01*
X169974380Y-95536406D01*
X169974833Y-95537764D01*
X169972187Y-95547425D01*
X169970233Y-95557252D01*
X169969219Y-95558266D01*
X169968393Y-95561285D01*
X169920774Y-95656523D01*
X169914630Y-95664439D01*
X169909066Y-95672767D01*
X169861446Y-95720386D01*
X169853114Y-95725953D01*
X169845203Y-95732093D01*
X169749965Y-95779712D01*
X169746945Y-95780539D01*
X169745932Y-95781552D01*
X169736104Y-95783507D01*
X169726444Y-95786152D01*
X169725085Y-95785700D01*
X169722014Y-95786310D01*
X169451055Y-95786310D01*
X169436300Y-95786310D01*
X169433228Y-95785700D01*
X169431870Y-95786152D01*
X169422209Y-95783507D01*
X169412382Y-95781552D01*
X169411368Y-95780539D01*
X169408349Y-95779712D01*
X169313111Y-95732093D01*
X169305189Y-95725946D01*
X169296868Y-95720385D01*
X169249249Y-95672766D01*
X169243688Y-95664445D01*
X169237541Y-95656523D01*
X169189922Y-95561285D01*
X169189095Y-95558266D01*
X169188082Y-95557252D01*
X169186127Y-95547425D01*
X169183482Y-95537764D01*
X169183934Y-95536406D01*
X169183324Y-95533334D01*
X169183324Y-95357613D01*
X169308324Y-95357613D01*
X169308324Y-95518579D01*
X169344810Y-95591551D01*
X169378083Y-95624824D01*
X169451055Y-95661310D01*
X169707259Y-95661310D01*
X169780229Y-95624825D01*
X169813506Y-95591549D01*
X169849991Y-95518579D01*
X169849991Y-95357613D01*
X169826244Y-95310120D01*
X169332070Y-95310120D01*
X169308324Y-95357613D01*
X169183324Y-95357613D01*
X169183324Y-95342858D01*
X169183934Y-95339787D01*
X169183482Y-95338428D01*
X169186127Y-95328768D01*
X169188082Y-95318940D01*
X169189095Y-95317927D01*
X169189922Y-95314907D01*
X169203765Y-95287221D01*
X169188082Y-95271538D01*
X169188082Y-95223702D01*
X169221906Y-95189878D01*
X169245824Y-95185120D01*
X170055348Y-95185120D01*
X170058419Y-95185731D01*
G37*
G36*
X167849991Y-95736481D02*
G01*
X165749991Y-95736481D01*
X165749991Y-95493562D01*
X167849991Y-95493562D01*
X167849991Y-95736481D01*
G37*
G36*
X167849991Y-95250644D02*
G01*
X165749991Y-95250644D01*
X165749991Y-95007725D01*
X167849991Y-95007725D01*
X167849991Y-95250644D01*
G37*
G36*
X169936409Y-94285116D02*
G01*
X169970233Y-94318940D01*
X169970233Y-94366776D01*
X169936409Y-94400600D01*
X169912491Y-94405358D01*
X169403436Y-94405358D01*
X169340028Y-94437062D01*
X169308324Y-94500470D01*
X169308324Y-94613817D01*
X169344810Y-94686789D01*
X169366950Y-94708929D01*
X169912491Y-94708929D01*
X169936409Y-94713687D01*
X169970233Y-94747511D01*
X169970233Y-94795347D01*
X169936409Y-94829171D01*
X169912491Y-94833929D01*
X169245824Y-94833929D01*
X169221906Y-94829171D01*
X169188082Y-94795347D01*
X169188082Y-94747511D01*
X169219638Y-94715955D01*
X169189922Y-94656523D01*
X169189095Y-94653504D01*
X169188082Y-94652490D01*
X169186127Y-94642663D01*
X169183482Y-94633002D01*
X169183934Y-94631644D01*
X169183324Y-94628572D01*
X169183324Y-94485715D01*
X169183934Y-94482644D01*
X169183482Y-94481285D01*
X169186127Y-94471625D01*
X169188082Y-94461797D01*
X169189095Y-94460784D01*
X169189922Y-94457764D01*
X169237541Y-94362526D01*
X169245171Y-94352696D01*
X169246227Y-94349527D01*
X169249754Y-94346789D01*
X169252493Y-94343261D01*
X169255661Y-94342206D01*
X169265492Y-94334575D01*
X169360730Y-94286956D01*
X169363749Y-94286130D01*
X169364763Y-94285116D01*
X169374590Y-94283162D01*
X169384251Y-94280516D01*
X169385609Y-94280969D01*
X169388681Y-94280358D01*
X169912491Y-94280358D01*
X169936409Y-94285116D01*
G37*
G36*
X167849991Y-94764807D02*
G01*
X165749991Y-94764807D01*
X165749991Y-94278970D01*
X167849991Y-94278970D01*
X167849991Y-94764807D01*
G37*
G36*
X169492980Y-93377399D02*
G01*
X169496048Y-93376785D01*
X169498664Y-93378530D01*
X169507837Y-93380354D01*
X169520708Y-93393225D01*
X169535849Y-93403319D01*
X169539436Y-93411954D01*
X169541661Y-93414178D01*
X169541661Y-93417309D01*
X169545205Y-93425839D01*
X169630394Y-93851786D01*
X169754878Y-93851786D01*
X169818287Y-93820082D01*
X169849991Y-93756674D01*
X169849991Y-93595708D01*
X169808970Y-93513666D01*
X169802530Y-93490145D01*
X169817656Y-93444766D01*
X169860442Y-93423373D01*
X169905822Y-93438499D01*
X169920774Y-93457764D01*
X169968393Y-93553002D01*
X169969219Y-93556022D01*
X169970233Y-93557035D01*
X169972187Y-93566863D01*
X169974833Y-93576523D01*
X169974380Y-93577882D01*
X169974991Y-93580953D01*
X169974991Y-93771429D01*
X169974380Y-93774501D01*
X169974833Y-93775859D01*
X169972187Y-93785520D01*
X169970233Y-93795347D01*
X169969219Y-93796361D01*
X169968393Y-93799380D01*
X169920774Y-93894618D01*
X169913143Y-93904449D01*
X169912088Y-93907617D01*
X169908560Y-93910355D01*
X169905822Y-93913883D01*
X169902653Y-93914940D01*
X169892822Y-93922569D01*
X169797584Y-93970188D01*
X169794564Y-93971015D01*
X169793551Y-93972028D01*
X169783723Y-93973983D01*
X169774063Y-93976628D01*
X169772704Y-93976176D01*
X169769633Y-93976786D01*
X169403436Y-93976786D01*
X169388681Y-93976786D01*
X169385609Y-93976176D01*
X169384251Y-93976628D01*
X169374590Y-93973983D01*
X169364763Y-93972028D01*
X169363749Y-93971015D01*
X169360730Y-93970188D01*
X169265492Y-93922569D01*
X169255661Y-93914939D01*
X169252493Y-93913883D01*
X169249754Y-93910356D01*
X169246227Y-93907617D01*
X169245171Y-93904449D01*
X169237541Y-93894618D01*
X169189922Y-93799380D01*
X169189095Y-93796361D01*
X169188082Y-93795347D01*
X169186127Y-93785520D01*
X169183482Y-93775859D01*
X169183934Y-93774501D01*
X169183324Y-93771429D01*
X169183324Y-93595708D01*
X169308324Y-93595708D01*
X169308324Y-93756674D01*
X169340028Y-93820082D01*
X169403436Y-93851786D01*
X169502919Y-93851786D01*
X169432681Y-93500596D01*
X169403436Y-93500596D01*
X169340028Y-93532300D01*
X169308324Y-93595708D01*
X169183324Y-93595708D01*
X169183324Y-93580953D01*
X169183934Y-93577882D01*
X169183482Y-93576523D01*
X169186127Y-93566863D01*
X169188082Y-93557035D01*
X169189095Y-93556022D01*
X169189922Y-93553002D01*
X169237541Y-93457764D01*
X169245171Y-93447934D01*
X169246227Y-93444765D01*
X169249754Y-93442027D01*
X169252493Y-93438499D01*
X169255661Y-93437444D01*
X169265492Y-93429813D01*
X169360730Y-93382194D01*
X169363749Y-93381368D01*
X169364763Y-93380354D01*
X169374590Y-93378400D01*
X169384251Y-93375754D01*
X169385609Y-93376207D01*
X169388681Y-93375596D01*
X169483919Y-93375596D01*
X169492980Y-93377399D01*
G37*
G36*
X167849991Y-93793133D02*
G01*
X165749991Y-93793133D01*
X165749991Y-93550215D01*
X167849991Y-93550215D01*
X167849991Y-93793133D01*
G37*
G36*
X167849991Y-93307296D02*
G01*
X165749991Y-93307296D01*
X165749991Y-92821459D01*
X167849991Y-92821459D01*
X167849991Y-93307296D01*
G37*
G36*
X169936409Y-92523211D02*
G01*
X169970233Y-92557035D01*
X169970233Y-92604871D01*
X169954550Y-92620554D01*
X169968393Y-92648240D01*
X169969219Y-92651260D01*
X169970233Y-92652273D01*
X169972187Y-92662101D01*
X169974833Y-92671761D01*
X169974380Y-92673120D01*
X169974991Y-92676191D01*
X169974991Y-92866667D01*
X169974380Y-92869739D01*
X169974833Y-92871097D01*
X169972187Y-92880758D01*
X169970233Y-92890585D01*
X169969219Y-92891599D01*
X169968393Y-92894618D01*
X169920774Y-92989856D01*
X169914630Y-92997772D01*
X169909066Y-93006100D01*
X169861446Y-93053719D01*
X169853114Y-93059286D01*
X169845203Y-93065426D01*
X169749965Y-93113045D01*
X169746945Y-93113872D01*
X169745932Y-93114885D01*
X169736104Y-93116840D01*
X169726444Y-93119485D01*
X169725085Y-93119033D01*
X169722014Y-93119643D01*
X169451055Y-93119643D01*
X169436300Y-93119643D01*
X169433228Y-93119033D01*
X169431870Y-93119485D01*
X169422209Y-93116840D01*
X169412382Y-93114885D01*
X169411368Y-93113872D01*
X169408349Y-93113045D01*
X169313111Y-93065426D01*
X169305189Y-93059279D01*
X169296868Y-93053718D01*
X169249249Y-93006099D01*
X169243688Y-92997778D01*
X169237541Y-92989856D01*
X169189922Y-92894618D01*
X169189095Y-92891599D01*
X169188082Y-92890585D01*
X169186127Y-92880758D01*
X169183482Y-92871097D01*
X169183934Y-92869739D01*
X169183324Y-92866667D01*
X169183324Y-92690946D01*
X169308324Y-92690946D01*
X169308324Y-92851912D01*
X169344810Y-92924884D01*
X169378083Y-92958157D01*
X169451055Y-92994643D01*
X169707259Y-92994643D01*
X169780229Y-92958158D01*
X169813506Y-92924882D01*
X169849991Y-92851912D01*
X169849991Y-92690946D01*
X169826244Y-92643453D01*
X169332070Y-92643453D01*
X169308324Y-92690946D01*
X169183324Y-92690946D01*
X169183324Y-92676191D01*
X169183934Y-92673120D01*
X169183482Y-92671761D01*
X169186127Y-92662101D01*
X169188082Y-92652273D01*
X169189095Y-92651260D01*
X169189922Y-92648240D01*
X169192315Y-92643453D01*
X168912491Y-92643453D01*
X168888573Y-92638695D01*
X168854749Y-92604871D01*
X168854749Y-92557035D01*
X168888573Y-92523211D01*
X168912491Y-92518453D01*
X169912491Y-92518453D01*
X169936409Y-92523211D01*
G37*
G36*
X167849991Y-92578541D02*
G01*
X165749991Y-92578541D01*
X165749991Y-92335622D01*
X167849991Y-92335622D01*
X167849991Y-92578541D01*
G37*
G36*
X167849991Y-91849785D02*
G01*
X165749991Y-91849785D01*
X165749991Y-91363948D01*
X167849991Y-91363948D01*
X167849991Y-91849785D01*
G37*
G36*
X169725085Y-90804778D02*
G01*
X169726444Y-90804325D01*
X169736104Y-90806971D01*
X169745932Y-90808925D01*
X169746945Y-90809939D01*
X169749965Y-90810765D01*
X169845203Y-90858384D01*
X169853118Y-90864528D01*
X169861446Y-90870091D01*
X169909066Y-90917710D01*
X169914630Y-90926039D01*
X169920774Y-90933954D01*
X169968393Y-91029192D01*
X169969219Y-91032212D01*
X169970233Y-91033225D01*
X169972187Y-91043053D01*
X169974833Y-91052713D01*
X169974380Y-91054072D01*
X169974991Y-91057143D01*
X169974991Y-91247619D01*
X169974380Y-91250691D01*
X169974833Y-91252049D01*
X169972187Y-91261710D01*
X169970233Y-91271537D01*
X169969219Y-91272551D01*
X169968393Y-91275570D01*
X169954550Y-91303256D01*
X169970233Y-91318939D01*
X169970233Y-91366775D01*
X169936409Y-91400599D01*
X169912491Y-91405357D01*
X169332070Y-91405357D01*
X168912491Y-91405357D01*
X168888573Y-91400599D01*
X168854749Y-91366775D01*
X168854749Y-91318939D01*
X168888573Y-91285115D01*
X168912491Y-91280357D01*
X169192315Y-91280357D01*
X169189922Y-91275570D01*
X169189095Y-91272551D01*
X169188082Y-91271537D01*
X169186127Y-91261710D01*
X169183482Y-91252049D01*
X169183934Y-91250691D01*
X169183324Y-91247619D01*
X169183324Y-91071898D01*
X169308324Y-91071898D01*
X169308324Y-91232864D01*
X169332070Y-91280357D01*
X169826244Y-91280357D01*
X169849991Y-91232864D01*
X169849991Y-91071898D01*
X169813506Y-90998929D01*
X169780229Y-90965653D01*
X169707259Y-90929167D01*
X169451055Y-90929167D01*
X169378083Y-90965653D01*
X169344810Y-90998926D01*
X169308324Y-91071898D01*
X169183324Y-91071898D01*
X169183324Y-91057143D01*
X169183934Y-91054072D01*
X169183482Y-91052713D01*
X169186127Y-91043053D01*
X169188082Y-91033225D01*
X169189095Y-91032212D01*
X169189922Y-91029192D01*
X169237541Y-90933954D01*
X169243688Y-90926033D01*
X169249249Y-90917711D01*
X169296868Y-90870092D01*
X169305189Y-90864532D01*
X169313111Y-90858384D01*
X169408349Y-90810765D01*
X169411368Y-90809939D01*
X169412382Y-90808925D01*
X169422209Y-90806971D01*
X169431870Y-90804325D01*
X169433228Y-90804778D01*
X169436300Y-90804167D01*
X169722014Y-90804167D01*
X169725085Y-90804778D01*
G37*
G36*
X167849991Y-91121030D02*
G01*
X165749991Y-91121030D01*
X165749991Y-90878112D01*
X167849991Y-90878112D01*
X167849991Y-91121030D01*
G37*
G36*
X167849991Y-90635193D02*
G01*
X165749991Y-90635193D01*
X165749991Y-90149356D01*
X167849991Y-90149356D01*
X167849991Y-90635193D01*
G37*
G36*
X169266845Y-89998284D02*
G01*
X169933512Y-90236379D01*
X169934532Y-90236991D01*
X169935703Y-90237208D01*
X170173798Y-90332446D01*
X170174240Y-90332734D01*
X170174503Y-90332734D01*
X170184310Y-90339287D01*
X170194238Y-90345747D01*
X170194341Y-90345990D01*
X170194780Y-90346282D01*
X170242399Y-90393901D01*
X170247959Y-90402223D01*
X170254107Y-90410144D01*
X170301726Y-90505382D01*
X170308166Y-90528903D01*
X170293040Y-90574283D01*
X170250254Y-90595675D01*
X170204874Y-90580549D01*
X170189922Y-90561284D01*
X170146838Y-90475116D01*
X170115464Y-90443742D01*
X169911238Y-90362052D01*
X169266845Y-90592192D01*
X169242720Y-90595756D01*
X169199490Y-90575278D01*
X169183401Y-90530229D01*
X169203879Y-90486999D01*
X169224803Y-90474474D01*
X169726664Y-90295238D01*
X169224803Y-90116002D01*
X169203879Y-90103477D01*
X169183402Y-90060247D01*
X169199491Y-90015198D01*
X169242720Y-89994721D01*
X169266845Y-89998284D01*
G37*
G36*
X167849991Y-89906438D02*
G01*
X165749991Y-89906438D01*
X165749991Y-89663519D01*
X167849991Y-89663519D01*
X167849991Y-89906438D01*
G37*
G36*
X167849991Y-89420601D02*
G01*
X165749991Y-89420601D01*
X165749991Y-89177682D01*
X167849991Y-89177682D01*
X167849991Y-89420601D01*
G37*
G36*
X168970233Y-88414177D02*
G01*
X168974991Y-88438095D01*
X168974991Y-88851785D01*
X169326181Y-88851785D01*
X169326181Y-88580952D01*
X169330939Y-88557034D01*
X169364763Y-88523210D01*
X169412599Y-88523210D01*
X169446423Y-88557034D01*
X169451181Y-88580952D01*
X169451181Y-88851785D01*
X169849991Y-88851785D01*
X169849991Y-88438095D01*
X169854749Y-88414177D01*
X169888573Y-88380353D01*
X169936409Y-88380353D01*
X169970233Y-88414177D01*
X169974991Y-88438095D01*
X169974991Y-88914285D01*
X169970233Y-88938203D01*
X169936409Y-88972027D01*
X169912491Y-88976785D01*
X168912491Y-88976785D01*
X168888573Y-88972027D01*
X168854749Y-88938203D01*
X168849991Y-88914285D01*
X168849991Y-88438095D01*
X168854749Y-88414177D01*
X168888573Y-88380353D01*
X168936409Y-88380353D01*
X168970233Y-88414177D01*
G37*
G36*
X167849991Y-88934764D02*
G01*
X165749991Y-88934764D01*
X165749991Y-88448927D01*
X167849991Y-88448927D01*
X167849991Y-88934764D01*
G37*
G36*
X167849991Y-88206009D02*
G01*
X165749991Y-88206009D01*
X165749991Y-87963090D01*
X167849991Y-87963090D01*
X167849991Y-88206009D01*
G37*
G36*
X169959707Y-87825717D02*
G01*
X169974833Y-87871096D01*
X169968393Y-87894617D01*
X169920774Y-87989855D01*
X169913143Y-87999686D01*
X169912088Y-88002854D01*
X169908560Y-88005592D01*
X169905822Y-88009120D01*
X169902653Y-88010177D01*
X169892822Y-88017806D01*
X169797584Y-88065425D01*
X169794564Y-88066252D01*
X169793551Y-88067265D01*
X169783723Y-88069220D01*
X169774063Y-88071865D01*
X169772704Y-88071413D01*
X169769633Y-88072023D01*
X168912491Y-88072023D01*
X168888573Y-88067265D01*
X168854749Y-88033441D01*
X168854749Y-87985605D01*
X168888573Y-87951781D01*
X168912491Y-87947023D01*
X169754878Y-87947023D01*
X169818287Y-87915319D01*
X169856589Y-87838715D01*
X169871541Y-87819450D01*
X169916921Y-87804324D01*
X169959707Y-87825717D01*
G37*
G36*
X169004304Y-87393900D02*
G01*
X169051923Y-87441519D01*
X169065468Y-87461793D01*
X169065471Y-87461795D01*
X169065471Y-87461796D01*
X169065471Y-87509630D01*
X169065471Y-87509631D01*
X169065468Y-87509634D01*
X169051923Y-87529907D01*
X169004304Y-87577526D01*
X168984027Y-87591074D01*
X168936193Y-87591074D01*
X168915916Y-87577526D01*
X168868297Y-87529907D01*
X168854751Y-87509634D01*
X168854749Y-87509631D01*
X168854749Y-87461795D01*
X168854751Y-87461793D01*
X168868297Y-87441519D01*
X168915916Y-87393900D01*
X168936193Y-87380352D01*
X168984027Y-87380352D01*
X169004304Y-87393900D01*
G37*
G36*
X169936409Y-87427971D02*
G01*
X169970233Y-87461795D01*
X169970233Y-87509631D01*
X169936409Y-87543455D01*
X169912491Y-87548213D01*
X169245824Y-87548213D01*
X169221906Y-87543455D01*
X169188082Y-87509631D01*
X169188082Y-87461795D01*
X169221906Y-87427971D01*
X169245824Y-87423213D01*
X169912491Y-87423213D01*
X169936409Y-87427971D01*
G37*
G36*
X167849991Y-87477253D02*
G01*
X165749991Y-87477253D01*
X165749991Y-87234335D01*
X167849991Y-87234335D01*
X167849991Y-87477253D01*
G37*
G36*
X169936409Y-86523210D02*
G01*
X169970233Y-86557034D01*
X169970233Y-86604870D01*
X169954550Y-86620553D01*
X169968393Y-86648239D01*
X169969219Y-86651259D01*
X169970233Y-86652272D01*
X169972187Y-86662100D01*
X169974833Y-86671760D01*
X169974380Y-86673119D01*
X169974991Y-86676190D01*
X169974991Y-86914285D01*
X169974380Y-86917357D01*
X169974833Y-86918715D01*
X169972187Y-86928376D01*
X169970233Y-86938203D01*
X169969219Y-86939217D01*
X169968393Y-86942236D01*
X169920774Y-87037474D01*
X169913143Y-87047305D01*
X169912088Y-87050473D01*
X169908560Y-87053211D01*
X169905822Y-87056739D01*
X169902653Y-87057796D01*
X169892822Y-87065425D01*
X169797584Y-87113044D01*
X169794564Y-87113871D01*
X169793551Y-87114884D01*
X169783723Y-87116839D01*
X169774063Y-87119484D01*
X169772704Y-87119032D01*
X169769633Y-87119642D01*
X169689150Y-87119642D01*
X169674395Y-87119642D01*
X169671323Y-87119032D01*
X169669965Y-87119484D01*
X169660304Y-87116839D01*
X169650477Y-87114884D01*
X169649463Y-87113871D01*
X169646444Y-87113044D01*
X169551206Y-87065425D01*
X169541375Y-87057795D01*
X169538207Y-87056739D01*
X169535468Y-87053212D01*
X169531941Y-87050473D01*
X169530885Y-87047305D01*
X169523255Y-87037474D01*
X169475636Y-86942236D01*
X169474809Y-86939217D01*
X169473796Y-86938203D01*
X169471841Y-86928376D01*
X169469196Y-86918715D01*
X169469648Y-86917357D01*
X169469038Y-86914285D01*
X169469038Y-86690945D01*
X169445291Y-86643452D01*
X169585046Y-86643452D01*
X169587440Y-86648239D01*
X169588266Y-86651259D01*
X169589280Y-86652272D01*
X169591234Y-86662100D01*
X169593880Y-86671760D01*
X169593427Y-86673119D01*
X169594038Y-86676190D01*
X169594038Y-86899530D01*
X169625742Y-86962938D01*
X169689150Y-86994642D01*
X169754878Y-86994642D01*
X169818287Y-86962938D01*
X169849991Y-86899530D01*
X169849991Y-86690945D01*
X169826244Y-86643452D01*
X169585046Y-86643452D01*
X169445291Y-86643452D01*
X169403436Y-86643452D01*
X169340028Y-86675156D01*
X169308324Y-86738564D01*
X169308324Y-86899530D01*
X169349345Y-86981572D01*
X169355785Y-87005093D01*
X169340659Y-87050473D01*
X169297873Y-87071865D01*
X169252493Y-87056739D01*
X169237541Y-87037474D01*
X169189922Y-86942236D01*
X169189095Y-86939217D01*
X169188082Y-86938203D01*
X169186127Y-86928376D01*
X169183482Y-86918715D01*
X169183934Y-86917357D01*
X169183324Y-86914285D01*
X169183324Y-86723809D01*
X169183934Y-86720738D01*
X169183482Y-86719379D01*
X169186127Y-86709719D01*
X169188082Y-86699891D01*
X169189095Y-86698878D01*
X169189922Y-86695858D01*
X169237541Y-86600620D01*
X169245171Y-86590790D01*
X169246227Y-86587621D01*
X169249754Y-86584883D01*
X169252493Y-86581355D01*
X169255661Y-86580300D01*
X169265492Y-86572669D01*
X169360730Y-86525050D01*
X169363749Y-86524224D01*
X169364763Y-86523210D01*
X169374590Y-86521256D01*
X169384251Y-86518610D01*
X169385609Y-86519063D01*
X169388681Y-86518452D01*
X169912491Y-86518452D01*
X169936409Y-86523210D01*
G37*
G36*
X167849991Y-86991416D02*
G01*
X165749991Y-86991416D01*
X165749991Y-86505579D01*
X167849991Y-86505579D01*
X167849991Y-86991416D01*
G37*
G36*
X167849991Y-86262661D02*
G01*
X165749991Y-86262661D01*
X165749991Y-85776824D01*
X167849991Y-85776824D01*
X167849991Y-86262661D01*
G37*
G36*
X167849991Y-85290987D02*
G01*
X165749991Y-85290987D01*
X165749991Y-85048069D01*
X167849991Y-85048069D01*
X167849991Y-85290987D01*
G37*
G36*
X167849991Y-84805150D02*
G01*
X165749991Y-84805150D01*
X165749991Y-84319313D01*
X167849991Y-84319313D01*
X167849991Y-84805150D01*
G37*
G36*
X167849991Y-84076395D02*
G01*
X165749991Y-84076395D01*
X165749991Y-83833476D01*
X167849991Y-83833476D01*
X167849991Y-84076395D01*
G37*
G36*
X167849991Y-83590558D02*
G01*
X165749991Y-83590558D01*
X165749991Y-83347639D01*
X167849991Y-83347639D01*
X167849991Y-83590558D01*
G37*
G36*
X167849991Y-83104721D02*
G01*
X165749991Y-83104721D01*
X165749991Y-82861803D01*
X167849991Y-82861803D01*
X167849991Y-83104721D01*
G37*
G36*
X167849991Y-82375966D02*
G01*
X165749991Y-82375966D01*
X165749991Y-81890129D01*
X167849991Y-81890129D01*
X167849991Y-82375966D01*
G37*
G36*
X167849991Y-81647210D02*
G01*
X165749991Y-81647210D01*
X165749991Y-81404292D01*
X167849991Y-81404292D01*
X167849991Y-81647210D01*
G37*
G36*
X167849991Y-81161373D02*
G01*
X165749991Y-81161373D01*
X165749991Y-80675536D01*
X167849991Y-80675536D01*
X167849991Y-81161373D01*
G37*
G36*
X167849991Y-80432618D02*
G01*
X165749991Y-80432618D01*
X165749991Y-80189700D01*
X167849991Y-80189700D01*
X167849991Y-80432618D01*
G37*
G36*
X167849991Y-79946781D02*
G01*
X165749991Y-79946781D01*
X165749991Y-79460944D01*
X167849991Y-79460944D01*
X167849991Y-79946781D01*
G37*
G36*
X167849991Y-79218026D02*
G01*
X165749991Y-79218026D01*
X165749991Y-78975107D01*
X167849991Y-78975107D01*
X167849991Y-79218026D01*
G37*
G36*
X167849991Y-78732189D02*
G01*
X165749991Y-78732189D01*
X165749991Y-78246352D01*
X167849991Y-78246352D01*
X167849991Y-78732189D01*
G37*
G36*
X167849991Y-77760515D02*
G01*
X165749991Y-77760515D01*
X165749991Y-77517597D01*
X167849991Y-77517597D01*
X167849991Y-77760515D01*
G37*
G36*
X167849991Y-77274678D02*
G01*
X165749991Y-77274678D01*
X165749991Y-77031760D01*
X167849991Y-77031760D01*
X167849991Y-77274678D01*
G37*
G36*
X167849991Y-76788841D02*
G01*
X165749991Y-76788841D01*
X165749991Y-76545923D01*
X167849991Y-76545923D01*
X167849991Y-76788841D01*
G37*
G36*
X167849991Y-76303004D02*
G01*
X165749991Y-76303004D01*
X165749991Y-75817167D01*
X167849991Y-75817167D01*
X167849991Y-76303004D01*
G37*
G36*
X167849991Y-75574249D02*
G01*
X165749991Y-75574249D01*
X165749991Y-75331330D01*
X167849991Y-75331330D01*
X167849991Y-75574249D01*
G37*
G36*
X167849991Y-75088412D02*
G01*
X165749991Y-75088412D01*
X165749991Y-74845494D01*
X167849991Y-74845494D01*
X167849991Y-75088412D01*
G37*
G36*
X167849991Y-74359657D02*
G01*
X165749991Y-74359657D01*
X165749991Y-73873820D01*
X167849991Y-73873820D01*
X167849991Y-74359657D01*
G37*
G36*
X167849991Y-73630901D02*
G01*
X165749991Y-73630901D01*
X165749991Y-73387983D01*
X167849991Y-73387983D01*
X167849991Y-73630901D01*
G37*
G36*
X167849991Y-73145064D02*
G01*
X165749991Y-73145064D01*
X165749991Y-72659227D01*
X167849991Y-72659227D01*
X167849991Y-73145064D01*
G37*
G36*
X167849991Y-72416309D02*
G01*
X165749991Y-72416309D01*
X165749991Y-72173391D01*
X167849991Y-72173391D01*
X167849991Y-72416309D01*
G37*
G36*
X167849991Y-71687554D02*
G01*
X165749991Y-71687554D01*
X165749991Y-71201717D01*
X167849991Y-71201717D01*
X167849991Y-71687554D01*
G37*
G36*
X167849991Y-70958798D02*
G01*
X165749991Y-70958798D01*
X165749991Y-70715880D01*
X167849991Y-70715880D01*
X167849991Y-70958798D01*
G37*
G36*
X167849991Y-70472961D02*
G01*
X165749991Y-70472961D01*
X165749991Y-69987124D01*
X167849991Y-69987124D01*
X167849991Y-70472961D01*
G37*
G36*
X167849991Y-69744206D02*
G01*
X165749991Y-69744206D01*
X165749991Y-69501288D01*
X167849991Y-69501288D01*
X167849991Y-69744206D01*
G37*
G36*
X167849991Y-69258369D02*
G01*
X165749991Y-69258369D01*
X165749991Y-69015451D01*
X167849991Y-69015451D01*
X167849991Y-69258369D01*
G37*
G36*
X167849991Y-68529614D02*
G01*
X165749991Y-68529614D01*
X165749991Y-68286695D01*
X167849991Y-68286695D01*
X167849991Y-68529614D01*
G37*
G36*
X167849991Y-68043777D02*
G01*
X165749991Y-68043777D01*
X165749991Y-67557940D01*
X167849991Y-67557940D01*
X167849991Y-68043777D01*
G37*
G36*
X167849991Y-67315021D02*
G01*
X165749991Y-67315021D01*
X165749991Y-67072103D01*
X167849991Y-67072103D01*
X167849991Y-67315021D01*
G37*
G36*
X167849991Y-66586266D02*
G01*
X165749991Y-66586266D01*
X165749991Y-66343348D01*
X167849991Y-66343348D01*
X167849991Y-66586266D01*
G37*
G36*
X167849991Y-66100429D02*
G01*
X165749991Y-66100429D01*
X165749991Y-65614592D01*
X167849991Y-65614592D01*
X167849991Y-66100429D01*
G37*
G36*
X167849991Y-65371674D02*
G01*
X165749991Y-65371674D01*
X165749991Y-64885837D01*
X167849991Y-64885837D01*
X167849991Y-65371674D01*
G37*
G36*
X167849991Y-64642918D02*
G01*
X165749991Y-64642918D01*
X165749991Y-64400000D01*
X167849991Y-64400000D01*
X167849991Y-64642918D01*
G37*
%TO.C,D401*%
D14*
X141720000Y-131100000D02*
X141720000Y-136300000D01*
X141970000Y-136290000D02*
X141740000Y-136300000D01*
X144580000Y-131100000D02*
X144580000Y-136300000D01*
X144580000Y-132820000D02*
X141720000Y-132820000D01*
X144580000Y-136300000D02*
X144340000Y-136300000D01*
D15*
X141880000Y-131090000D02*
G75*
G02*
X141820000Y-131090000I-30000J0D01*
G01*
X141820000Y-131090000D02*
G75*
G02*
X141880000Y-131090000I30000J0D01*
G01*
D13*
G36*
X142054041Y-130731019D02*
G01*
X142054041Y-131188219D01*
X141647438Y-131186899D01*
X141651959Y-130727362D01*
X142054041Y-130731019D01*
G37*
G36*
X144652410Y-130722790D02*
G01*
X144652410Y-131179990D01*
X144245807Y-131178669D01*
X144250328Y-130719132D01*
X144652410Y-130722790D01*
G37*
%TO.C,D204*%
D14*
X138670000Y-126020000D02*
X140430000Y-126020000D01*
X138670000Y-127480000D02*
X140430000Y-127480000D01*
X139080000Y-126020000D02*
X139080000Y-127480000D01*
X140430000Y-126020000D02*
X140430000Y-126220000D01*
X140430000Y-127480000D02*
X140430000Y-127270000D01*
%TO.C,D201*%
X138875000Y-123508702D02*
X138875000Y-125428702D01*
X138875000Y-125428702D02*
X141565000Y-125428702D01*
X141565000Y-123508702D02*
X138875000Y-123508702D01*
%TO.C,U405*%
D16*
X122990000Y-65230000D02*
X136200000Y-65230000D01*
D17*
X122430000Y-67010000D02*
G75*
G02*
X122030000Y-67010000I-200000J0D01*
G01*
X122030000Y-67010000D02*
G75*
G02*
X122430000Y-67010000I200000J0D01*
G01*
%TO.C,D406*%
D14*
X148520000Y-68920000D02*
X149480000Y-68920000D01*
X148520000Y-69680000D02*
X149480000Y-69680000D01*
X148870000Y-68920000D02*
X148870000Y-69670000D01*
D15*
X148530000Y-69600000D02*
G75*
G02*
X148470000Y-69600000I-30000J0D01*
G01*
X148470000Y-69600000D02*
G75*
G02*
X148530000Y-69600000I30000J0D01*
G01*
D13*
G36*
X148600001Y-69017603D02*
G01*
X148295201Y-69017603D01*
X148295201Y-68847601D01*
X148600001Y-68847601D01*
X148600001Y-69017603D01*
G37*
G36*
X148600001Y-69752399D02*
G01*
X148295201Y-69752399D01*
X148295201Y-69582397D01*
X148600001Y-69582397D01*
X148600001Y-69752399D01*
G37*
%TO.C,U603*%
D14*
X139450000Y-66290000D02*
X139450000Y-67210000D01*
X141250000Y-65200000D02*
X139450000Y-65200000D01*
X141250000Y-68300000D02*
X139450000Y-68300000D01*
D18*
X141800000Y-68420000D02*
G75*
G02*
X141500000Y-68420000I-150000J0D01*
G01*
X141500000Y-68420000D02*
G75*
G02*
X141800000Y-68420000I150000J0D01*
G01*
%TO.C,U402*%
D19*
X163000000Y-104060000D02*
X165600000Y-104060000D01*
X163000000Y-104090000D02*
X163000000Y-104060000D01*
X163000000Y-106660000D02*
X163000000Y-106620000D01*
X163630000Y-106660000D02*
X163000000Y-106660000D01*
X165600000Y-104060000D02*
X165600000Y-104090000D01*
X165600000Y-106620000D02*
X165600000Y-106660000D01*
X165600000Y-106660000D02*
X164970000Y-106660000D01*
%TO.C,U407*%
D14*
X131820000Y-92780000D02*
X131820000Y-90620000D01*
X133980000Y-92780000D02*
X133980000Y-90620000D01*
D15*
X131930000Y-92700000D02*
G75*
G02*
X131870000Y-92700000I-30000J0D01*
G01*
X131870000Y-92700000D02*
G75*
G02*
X131930000Y-92700000I30000J0D01*
G01*
D14*
X132320000Y-93420000D02*
G75*
G02*
X132180000Y-93420000I-70000J0D01*
G01*
X132180000Y-93420000D02*
G75*
G02*
X132320000Y-93420000I70000J0D01*
G01*
%TO.C,SW603*%
X139070000Y-69260000D02*
X139070000Y-69920000D01*
X139070000Y-72340000D02*
X139070000Y-71680000D01*
X143130000Y-69260000D02*
X139070000Y-69260000D01*
X143130000Y-72340000D02*
X139070000Y-72340000D01*
D16*
X142000000Y-70800000D02*
G75*
G02*
X140200000Y-70800000I-900000J0D01*
G01*
X140200000Y-70800000D02*
G75*
G02*
X142000000Y-70800000I900000J0D01*
G01*
%TO.C,D203*%
D14*
X131690000Y-118847452D02*
X131690000Y-119057452D01*
X131690000Y-120307452D02*
X131690000Y-120107452D01*
X133040000Y-120307452D02*
X133040000Y-118847452D01*
X133450000Y-118847452D02*
X131690000Y-118847452D01*
X133450000Y-120307452D02*
X131690000Y-120307452D01*
%TO.C,U403*%
D16*
X141100000Y-78100000D02*
X141100000Y-81950000D01*
X141500000Y-78500000D02*
X141970000Y-78500000D01*
X141500000Y-81970000D02*
X141500000Y-78500000D01*
X141500000Y-102500000D02*
X141500000Y-99030000D01*
X141950000Y-78100000D02*
X141100000Y-78100000D01*
X141970000Y-102500000D02*
X141500000Y-102500000D01*
X142900000Y-82400000D02*
X143450000Y-81850000D01*
X143450000Y-81850000D02*
X143650000Y-81650000D01*
X143650000Y-81650000D02*
X143650000Y-83100000D01*
X143650000Y-83100000D02*
X142900000Y-82400000D01*
X165030000Y-78500000D02*
X165500000Y-78500000D01*
X165500000Y-78500000D02*
X165500000Y-81970000D01*
X165500000Y-99030000D02*
X165500000Y-102500000D01*
X165500000Y-102500000D02*
X165030000Y-102500000D01*
%TO.C,L201*%
D14*
X150405000Y-110468702D02*
X150805000Y-110468702D01*
X150805000Y-113468702D02*
X150405000Y-113468702D01*
%TO.C,Q201*%
X128020000Y-118997452D02*
X128020000Y-120037452D01*
X128020000Y-122057452D02*
X128020000Y-121017452D01*
X129480000Y-118997452D02*
X128020000Y-118997452D01*
X129480000Y-120067452D02*
X129480000Y-120987452D01*
X129480000Y-122057452D02*
X128020000Y-122057452D01*
%TO.C,L402*%
D16*
X122680000Y-127110000D02*
X122680000Y-128380000D01*
X122680000Y-129140000D02*
X122680000Y-130280000D01*
X122680000Y-130280000D02*
X122680000Y-130410000D01*
X122680000Y-130410000D02*
X122940000Y-130660000D01*
X122940000Y-126850000D02*
X122680000Y-127110000D01*
X122940000Y-130660000D02*
X124330000Y-130660000D01*
X123060000Y-126850000D02*
X122940000Y-126850000D01*
X124330000Y-130660000D02*
X124460000Y-130660000D01*
X124460000Y-126850000D02*
X123060000Y-126850000D01*
X124460000Y-130660000D02*
X124720000Y-130410000D01*
X124720000Y-127110000D02*
X124460000Y-126850000D01*
X124720000Y-127240000D02*
X124720000Y-127110000D01*
X124720000Y-128380000D02*
X124720000Y-127240000D01*
X124720000Y-130410000D02*
X124720000Y-129140000D01*
D15*
X123090000Y-127800000D02*
G75*
G02*
X123030000Y-127800000I-30000J0D01*
G01*
X123030000Y-127800000D02*
G75*
G02*
X123090000Y-127800000I30000J0D01*
G01*
%TO.C,Q406*%
D14*
X163910000Y-73620000D02*
X165370000Y-73620000D01*
X163910000Y-75610000D02*
X163910000Y-74690000D01*
X163910000Y-76680000D02*
X165370000Y-76680000D01*
X165370000Y-73620000D02*
X165370000Y-74660000D01*
X165370000Y-76680000D02*
X165370000Y-75640000D01*
D15*
X163470000Y-73700000D02*
G75*
G02*
X163410000Y-73700000I-30000J0D01*
G01*
X163410000Y-73700000D02*
G75*
G02*
X163470000Y-73700000I30000J0D01*
G01*
%TO.C,L401*%
D16*
X162080000Y-69510000D02*
X162080000Y-70780000D01*
X162080000Y-71540000D02*
X162080000Y-72680000D01*
X162080000Y-72680000D02*
X162080000Y-72810000D01*
X162080000Y-72810000D02*
X162340000Y-73070000D01*
X162340000Y-69260000D02*
X162080000Y-69510000D01*
X162340000Y-73070000D02*
X163730000Y-73070000D01*
X162460000Y-69260000D02*
X162340000Y-69260000D01*
X163730000Y-73070000D02*
X163860000Y-73070000D01*
X163860000Y-69260000D02*
X162460000Y-69260000D01*
X163860000Y-73070000D02*
X164120000Y-72810000D01*
X164120000Y-69510000D02*
X163860000Y-69260000D01*
X164120000Y-69640000D02*
X164120000Y-69510000D01*
X164120000Y-70780000D02*
X164120000Y-69640000D01*
X164120000Y-72810000D02*
X164120000Y-71540000D01*
%TO.C,D606*%
D14*
X131420000Y-85170000D02*
X129640000Y-85170000D01*
X131420000Y-88250000D02*
X129640000Y-88250000D01*
D18*
X131980000Y-88380000D02*
G75*
G02*
X131680000Y-88380000I-150000J0D01*
G01*
X131680000Y-88380000D02*
G75*
G02*
X131980000Y-88380000I150000J0D01*
G01*
%TO.C,J202*%
D16*
X158810000Y-126200000D02*
X158810000Y-127150000D01*
X158810000Y-126200000D02*
X162800000Y-126200000D01*
X158810000Y-127150000D02*
X160310000Y-127150000D01*
X158810000Y-135300000D02*
X160310000Y-135300000D01*
X158810000Y-136250000D02*
X158810000Y-135300000D01*
X160310000Y-127150000D02*
X160310000Y-128470000D01*
X160310000Y-130470000D02*
X160310000Y-129930000D01*
X160310000Y-132470000D02*
X160310000Y-131930000D01*
X160310000Y-133980000D02*
X160310000Y-133930000D01*
X160310000Y-135300000D02*
X160310000Y-133980000D01*
X162900000Y-136250000D02*
X158810000Y-136250000D01*
X166480000Y-128070000D02*
X166480000Y-134570000D01*
X166480000Y-132040000D02*
X166480000Y-127830000D01*
X158320000Y-134440000D02*
G75*
G02*
X158060000Y-134440000I-130000J0D01*
G01*
X158060000Y-134440000D02*
G75*
G02*
X158320000Y-134440000I130000J0D01*
G01*
%TO.C,Q204*%
D14*
X161385000Y-119458702D02*
X161385000Y-120918702D01*
X161385000Y-120918702D02*
X162425000Y-120918702D01*
X162455000Y-119458702D02*
X163375000Y-119458702D01*
X164445000Y-119458702D02*
X164445000Y-120918702D01*
X164445000Y-120918702D02*
X163405000Y-120918702D01*
%TO.C,Q408*%
X136470000Y-77870000D02*
X136470000Y-78910000D01*
X136470000Y-80930000D02*
X136470000Y-79890000D01*
X137930000Y-77870000D02*
X136470000Y-77870000D01*
X137930000Y-78940000D02*
X137930000Y-79860000D01*
X137930000Y-80930000D02*
X136470000Y-80930000D01*
D15*
X138430000Y-80850000D02*
G75*
G02*
X138370000Y-80850000I-30000J0D01*
G01*
X138370000Y-80850000D02*
G75*
G02*
X138430000Y-80850000I30000J0D01*
G01*
%TO.C,D420*%
D14*
X125700000Y-79760000D02*
X128390000Y-79760000D01*
X128390000Y-77840000D02*
X125700000Y-77840000D01*
X128390000Y-79760000D02*
X128390000Y-77840000D01*
%TO.C,L403*%
D16*
X125130000Y-83190000D02*
X125130000Y-84460000D01*
X125130000Y-85220000D02*
X125130000Y-86360000D01*
X125130000Y-86360000D02*
X125130000Y-86490000D01*
X125130000Y-86490000D02*
X125390000Y-86750000D01*
X125390000Y-82940000D02*
X125130000Y-83190000D01*
X125390000Y-86750000D02*
X126790000Y-86750000D01*
X125520000Y-82940000D02*
X125390000Y-82940000D01*
X126790000Y-86750000D02*
X126910000Y-86750000D01*
X126910000Y-82940000D02*
X125520000Y-82940000D01*
X126910000Y-86750000D02*
X127170000Y-86490000D01*
X127170000Y-83190000D02*
X126910000Y-82940000D01*
X127170000Y-83320000D02*
X127170000Y-83190000D01*
X127170000Y-84460000D02*
X127170000Y-83320000D01*
X127170000Y-86490000D02*
X127170000Y-85220000D01*
D15*
X126820000Y-85800000D02*
G75*
G02*
X126760000Y-85800000I-30000J0D01*
G01*
X126760000Y-85800000D02*
G75*
G02*
X126820000Y-85800000I30000J0D01*
G01*
%TO.C,Q203*%
D14*
X134345847Y-127670000D02*
X134345847Y-129130000D01*
X134345847Y-129130000D02*
X135385847Y-129130000D01*
X135415847Y-127670000D02*
X136335847Y-127670000D01*
X137405847Y-127670000D02*
X137405847Y-129130000D01*
X137405847Y-129130000D02*
X136365847Y-129130000D01*
%TO.C,Q409*%
X140320000Y-74670000D02*
X141360000Y-74670000D01*
X140320000Y-76130000D02*
X140320000Y-74670000D01*
X142310000Y-76130000D02*
X141390000Y-76130000D01*
X143380000Y-74670000D02*
X142340000Y-74670000D01*
X143380000Y-76130000D02*
X143380000Y-74670000D01*
D15*
X140430000Y-76600000D02*
G75*
G02*
X140370000Y-76600000I-30000J0D01*
G01*
X140370000Y-76600000D02*
G75*
G02*
X140430000Y-76600000I30000J0D01*
G01*
%TO.C,U401*%
D19*
X148600000Y-65260000D02*
X151200000Y-65260000D01*
X148600000Y-65290000D02*
X148600000Y-65260000D01*
X148600000Y-67860000D02*
X148600000Y-67820000D01*
X149230000Y-67860000D02*
X148600000Y-67860000D01*
X151200000Y-65260000D02*
X151200000Y-65290000D01*
X151200000Y-67820000D02*
X151200000Y-67860000D01*
X151200000Y-67860000D02*
X150570000Y-67860000D01*
%TO.C,D405*%
D14*
X142810000Y-105637500D02*
X144590000Y-105637500D01*
X142810000Y-108717500D02*
X144590000Y-108717500D01*
D18*
X142550000Y-105507500D02*
G75*
G02*
X142250000Y-105507500I-150000J0D01*
G01*
X142250000Y-105507500D02*
G75*
G02*
X142550000Y-105507500I150000J0D01*
G01*
%TO.C,D212*%
D14*
X128810000Y-128340000D02*
X128810000Y-126560000D01*
X131890000Y-128340000D02*
X131890000Y-126560000D01*
D18*
X128830000Y-128750000D02*
G75*
G02*
X128530000Y-128750000I-150000J0D01*
G01*
X128530000Y-128750000D02*
G75*
G02*
X128830000Y-128750000I150000J0D01*
G01*
%TO.C,J201*%
D16*
X122000000Y-135507500D02*
X122000000Y-133517500D01*
X122000000Y-139087500D02*
X122000000Y-137467500D01*
X131000000Y-139087500D02*
X122000000Y-139087500D01*
X131070000Y-135507500D02*
X131070000Y-133517500D01*
X131070000Y-138937500D02*
X131070000Y-137467500D01*
%TO.C,U202*%
D14*
X148665000Y-118198702D02*
X148985000Y-118198702D01*
X148665000Y-118308702D02*
X148665000Y-118218702D01*
X148665000Y-122188702D02*
X148665000Y-122078702D01*
X148935000Y-122188702D02*
X148665000Y-122188702D01*
X152345000Y-118198702D02*
X152665000Y-118198702D01*
X152665000Y-118198702D02*
X152665000Y-118308702D01*
X152665000Y-122078702D02*
X152665000Y-122188702D01*
X152665000Y-122188702D02*
X152395000Y-122188702D01*
D20*
X148185000Y-118228702D02*
G75*
G02*
X147925000Y-118228702I-130000J0D01*
G01*
X147925000Y-118228702D02*
G75*
G02*
X148185000Y-118228702I130000J0D01*
G01*
%TO.C,L407*%
D16*
X133050000Y-130520000D02*
X140410000Y-130520000D01*
X133050000Y-131020000D02*
X133050000Y-130520000D01*
X133050000Y-134020000D02*
X133050000Y-133380000D01*
X133050000Y-136870000D02*
X133050000Y-136380000D01*
X140410000Y-130520000D02*
X140410000Y-131020000D01*
X140410000Y-133380000D02*
X140410000Y-134020000D01*
X140410000Y-136380000D02*
X140410000Y-136870000D01*
X140410000Y-136870000D02*
X133050000Y-136870000D01*
D15*
X140260000Y-136700000D02*
G75*
G02*
X140200000Y-136700000I-30000J0D01*
G01*
X140200000Y-136700000D02*
G75*
G02*
X140260000Y-136700000I30000J0D01*
G01*
D16*
X141550000Y-136750000D02*
G75*
G02*
X141050000Y-136750000I-250000J0D01*
G01*
X141050000Y-136750000D02*
G75*
G02*
X141550000Y-136750000I250000J0D01*
G01*
%TO.C,D403*%
D14*
X161020000Y-109530000D02*
X161770000Y-109530000D01*
X161020000Y-109880000D02*
X161020000Y-108920000D01*
X161780000Y-109880000D02*
X161780000Y-108920000D01*
D15*
X161730000Y-109900000D02*
G75*
G02*
X161670000Y-109900000I-30000J0D01*
G01*
X161670000Y-109900000D02*
G75*
G02*
X161730000Y-109900000I30000J0D01*
G01*
D13*
G36*
X161117603Y-110104799D02*
G01*
X160947601Y-110104799D01*
X160947601Y-109799999D01*
X161117603Y-109799999D01*
X161117603Y-110104799D01*
G37*
G36*
X161852399Y-110104799D02*
G01*
X161682397Y-110104799D01*
X161682397Y-109799999D01*
X161852399Y-109799999D01*
X161852399Y-110104799D01*
G37*
%TO.C,D407*%
D14*
X137370000Y-82890000D02*
X137570000Y-82890000D01*
X137370000Y-84240000D02*
X138830000Y-84240000D01*
X137370000Y-84650000D02*
X137370000Y-82890000D01*
X138830000Y-82890000D02*
X138620000Y-82890000D01*
X138830000Y-84650000D02*
X138830000Y-82890000D01*
%TO.C,Q402*%
X145070000Y-72470000D02*
X146110000Y-72470000D01*
X145070000Y-73930000D02*
X145070000Y-72470000D01*
X147060000Y-73930000D02*
X146140000Y-73930000D01*
X148130000Y-72470000D02*
X147090000Y-72470000D01*
X148130000Y-73930000D02*
X148130000Y-72470000D01*
D15*
X145180000Y-74400000D02*
G75*
G02*
X145120000Y-74400000I-30000J0D01*
G01*
X145120000Y-74400000D02*
G75*
G02*
X145180000Y-74400000I30000J0D01*
G01*
%TO.C,U404*%
D14*
X160680000Y-71170000D02*
X160780000Y-71070000D01*
X160680000Y-71200000D02*
X160680000Y-71170000D01*
X160680000Y-71680000D02*
X160680000Y-71200000D01*
X160700000Y-72460000D02*
X160700000Y-71930000D01*
X160770000Y-72530000D02*
X160700000Y-72460000D01*
X160780000Y-71070000D02*
X161520000Y-71070000D01*
X160790000Y-70890000D02*
X161550000Y-70890000D01*
X160880000Y-72530000D02*
X160770000Y-72530000D01*
X161520000Y-71070000D02*
X161630000Y-71070000D01*
X161610000Y-72710000D02*
X160850000Y-72710000D01*
X161620000Y-72530000D02*
X160880000Y-72530000D01*
X161630000Y-71070000D02*
X161700000Y-71140000D01*
X161700000Y-71140000D02*
X161700000Y-71670000D01*
X161720000Y-71920000D02*
X161720000Y-72400000D01*
X161720000Y-72400000D02*
X161720000Y-72430000D01*
X161720000Y-72430000D02*
X161620000Y-72530000D01*
%TO.C,Q405*%
X127370000Y-89370000D02*
X127370000Y-90830000D01*
X127370000Y-90830000D02*
X128410000Y-90830000D01*
X128440000Y-89370000D02*
X129360000Y-89370000D01*
X130430000Y-89370000D02*
X130430000Y-90830000D01*
X130430000Y-90830000D02*
X129390000Y-90830000D01*
D15*
X130380000Y-88900000D02*
G75*
G02*
X130320000Y-88900000I-30000J0D01*
G01*
X130320000Y-88900000D02*
G75*
G02*
X130380000Y-88900000I30000J0D01*
G01*
%TO.C,U406*%
D10*
X136612500Y-113918702D02*
X136612500Y-114028702D01*
X136612500Y-116218702D02*
X136612500Y-116108702D01*
X137232500Y-113918702D02*
X136612500Y-113918702D01*
X137232500Y-116218702D02*
X136612500Y-116218702D01*
X138312500Y-113918702D02*
X138932500Y-113918702D01*
X138312500Y-116218702D02*
X138932500Y-116218702D01*
X138932500Y-113918702D02*
X138932500Y-114028702D01*
X138932500Y-116218702D02*
X138932500Y-116108702D01*
D15*
X138792500Y-116068702D02*
G75*
G02*
X138732500Y-116068702I-30000J0D01*
G01*
X138732500Y-116068702D02*
G75*
G02*
X138792500Y-116068702I30000J0D01*
G01*
D14*
X139472500Y-115838702D02*
G75*
G02*
X139332500Y-115838702I-70000J0D01*
G01*
X139332500Y-115838702D02*
G75*
G02*
X139472500Y-115838702I70000J0D01*
G01*
%TO.C,Q401*%
X157310000Y-67370000D02*
X158770000Y-67370000D01*
X157310000Y-69360000D02*
X157310000Y-68440000D01*
X157310000Y-70430000D02*
X158770000Y-70430000D01*
X158770000Y-67370000D02*
X158770000Y-68410000D01*
X158770000Y-70430000D02*
X158770000Y-69390000D01*
D15*
X156870000Y-67450000D02*
G75*
G02*
X156810000Y-67450000I-30000J0D01*
G01*
X156810000Y-67450000D02*
G75*
G02*
X156870000Y-67450000I30000J0D01*
G01*
%TO.C,U602*%
D14*
X132590000Y-93510000D02*
X137010000Y-93510000D01*
X132590000Y-98890000D02*
X132590000Y-93510000D01*
X137010000Y-93510000D02*
X137010000Y-98890000D01*
X137010000Y-98890000D02*
X132590000Y-98890000D01*
D18*
X136410000Y-98110000D02*
G75*
G02*
X136110000Y-98110000I-150000J0D01*
G01*
X136110000Y-98110000D02*
G75*
G02*
X136410000Y-98110000I150000J0D01*
G01*
X138490000Y-98860000D02*
G75*
G02*
X138190000Y-98860000I-150000J0D01*
G01*
X138190000Y-98860000D02*
G75*
G02*
X138490000Y-98860000I150000J0D01*
G01*
%TO.C,Q206*%
D14*
X131870000Y-120897452D02*
X133330000Y-120897452D01*
X131870000Y-122887452D02*
X131870000Y-121967452D01*
X131870000Y-123957452D02*
X133330000Y-123957452D01*
X133330000Y-120897452D02*
X133330000Y-121937452D01*
X133330000Y-123957452D02*
X133330000Y-122917452D01*
%TO.C,D402*%
X164440000Y-69750000D02*
X164440000Y-72440000D01*
X164440000Y-72440000D02*
X166360000Y-72440000D01*
X166360000Y-72440000D02*
X166360000Y-69750000D01*
%TO.C,Q407*%
X125165000Y-92925000D02*
X125165000Y-92275000D01*
X125165000Y-92925000D02*
X125165000Y-93575000D01*
X128285000Y-92925000D02*
X128285000Y-92275000D01*
X128285000Y-92925000D02*
X128285000Y-93575000D01*
D21*
X125215000Y-94087500D02*
X124885000Y-94327500D01*
X124885000Y-93847500D01*
X125215000Y-94087500D01*
G36*
X125215000Y-94087500D02*
G01*
X124885000Y-94327500D01*
X124885000Y-93847500D01*
X125215000Y-94087500D01*
G37*
%TO.C,D404*%
D14*
X148390000Y-105605000D02*
X146610000Y-105605000D01*
X148390000Y-108685000D02*
X146610000Y-108685000D01*
D18*
X148950000Y-108815000D02*
G75*
G02*
X148650000Y-108815000I-150000J0D01*
G01*
X148650000Y-108815000D02*
G75*
G02*
X148950000Y-108815000I150000J0D01*
G01*
%TO.C,Q403*%
D14*
X148550000Y-72470000D02*
X149590000Y-72470000D01*
X148550000Y-73930000D02*
X148550000Y-72470000D01*
X150540000Y-73930000D02*
X149620000Y-73930000D01*
X151610000Y-72470000D02*
X150570000Y-72470000D01*
X151610000Y-73930000D02*
X151610000Y-72470000D01*
D15*
X148660000Y-74400000D02*
G75*
G02*
X148600000Y-74400000I-30000J0D01*
G01*
X148600000Y-74400000D02*
G75*
G02*
X148660000Y-74400000I30000J0D01*
G01*
%TO.C,Card401*%
D16*
X126210000Y-100000000D02*
X126210000Y-111700000D01*
X130020000Y-108710000D02*
X130020000Y-102730000D01*
X131840000Y-102730000D02*
X131840000Y-108710000D01*
X134870000Y-100000000D02*
X128330000Y-100000000D01*
X134870000Y-111650000D02*
X128330000Y-111650000D01*
X137440000Y-100000000D02*
X137130000Y-100000000D01*
X137440000Y-100000000D02*
X140310000Y-100000000D01*
X137440000Y-111650000D02*
X137130000Y-111650000D01*
X138810000Y-101950000D02*
X138810000Y-109950000D01*
X138810000Y-109950000D02*
X140310000Y-109950000D01*
X140310000Y-101950000D02*
X138810000Y-101950000D01*
X140310000Y-101950000D02*
X140310000Y-100050000D01*
X140310000Y-109950000D02*
X140310000Y-111650000D01*
X140310000Y-111650000D02*
X137440000Y-111650000D01*
X130030000Y-102730000D02*
G75*
G02*
X131850000Y-102730000I910000J0D01*
G01*
X131840000Y-108710000D02*
G75*
G02*
X130020000Y-108710000I-910000J0D01*
G01*
X128590000Y-102600000D02*
G75*
G02*
X127030000Y-102600000I-780000J0D01*
G01*
X127030000Y-102600000D02*
G75*
G02*
X128590000Y-102600000I780000J0D01*
G01*
X128590000Y-105960000D02*
G75*
G02*
X127030000Y-105960000I-780000J0D01*
G01*
X127030000Y-105960000D02*
G75*
G02*
X128590000Y-105960000I780000J0D01*
G01*
X128590000Y-109080000D02*
G75*
G02*
X127030000Y-109080000I-780000J0D01*
G01*
X127030000Y-109080000D02*
G75*
G02*
X128590000Y-109080000I780000J0D01*
G01*
%TO.C,L404*%
X151740000Y-106040000D02*
X151740000Y-107430000D01*
X151740000Y-107430000D02*
X151740000Y-107560000D01*
X151740000Y-107560000D02*
X151990000Y-107820000D01*
X151990000Y-105780000D02*
X151740000Y-106040000D01*
X151990000Y-107820000D02*
X153260000Y-107820000D01*
X152120000Y-105780000D02*
X151990000Y-105780000D01*
X153260000Y-105780000D02*
X152120000Y-105780000D01*
X154020000Y-107820000D02*
X155160000Y-107820000D01*
X155160000Y-107820000D02*
X155290000Y-107820000D01*
X155290000Y-105780000D02*
X154020000Y-105780000D01*
X155290000Y-107820000D02*
X155550000Y-107560000D01*
X155550000Y-106040000D02*
X155290000Y-105780000D01*
X155550000Y-106160000D02*
X155550000Y-106040000D01*
X155550000Y-107560000D02*
X155550000Y-106160000D01*
D15*
X154630000Y-106160000D02*
G75*
G02*
X154570000Y-106160000I-30000J0D01*
G01*
X154570000Y-106160000D02*
G75*
G02*
X154630000Y-106160000I30000J0D01*
G01*
D13*
%TO.C,G\u002A\u002A\u002A*%
G36*
X148186408Y-128148475D02*
G01*
X148186408Y-128244194D01*
X148037200Y-128244194D01*
X147887990Y-128244194D01*
X147887990Y-128843846D01*
X147887990Y-129443498D01*
X147786666Y-129443498D01*
X147685342Y-129443498D01*
X147683909Y-128845253D01*
X147682475Y-128247009D01*
X147531859Y-128245510D01*
X147381242Y-128244010D01*
X147381242Y-128148383D01*
X147381242Y-128052756D01*
X147783825Y-128052756D01*
X148186408Y-128052756D01*
X148186408Y-128148475D01*
G37*
G36*
X148659374Y-128471976D02*
G01*
X148659374Y-128570255D01*
X148638259Y-128573881D01*
X148595247Y-128582957D01*
X148554886Y-128594619D01*
X148521381Y-128607645D01*
X148520031Y-128608277D01*
X148479281Y-128633492D01*
X148444291Y-128667044D01*
X148416711Y-128706893D01*
X148398189Y-128750999D01*
X148395075Y-128762849D01*
X148393838Y-128773982D01*
X148392725Y-128795706D01*
X148391745Y-128827347D01*
X148390911Y-128868235D01*
X148390233Y-128917699D01*
X148389722Y-128975067D01*
X148389390Y-129039669D01*
X148389248Y-129110832D01*
X148389245Y-129115519D01*
X148389108Y-129443498D01*
X148284943Y-129443498D01*
X148180778Y-129443498D01*
X148180778Y-128919858D01*
X148180778Y-128396219D01*
X148282127Y-128396219D01*
X148383477Y-128396219D01*
X148383477Y-128412920D01*
X148383477Y-128429622D01*
X148401776Y-128418962D01*
X148420814Y-128410623D01*
X148448513Y-128402077D01*
X148482297Y-128393828D01*
X148519590Y-128386380D01*
X148557815Y-128380237D01*
X148594393Y-128375903D01*
X148626750Y-128373882D01*
X148632628Y-128373800D01*
X148659374Y-128373697D01*
X148659374Y-128471976D01*
G37*
G36*
X145841650Y-128378719D02*
G01*
X145916243Y-128391396D01*
X145968102Y-128406455D01*
X146034979Y-128435374D01*
X146097611Y-128473691D01*
X146154767Y-128520203D01*
X146205217Y-128573705D01*
X146247731Y-128632993D01*
X146281079Y-128696862D01*
X146291426Y-128723004D01*
X146305566Y-128762203D01*
X146196689Y-128762203D01*
X146087811Y-128762203D01*
X146068034Y-128732644D01*
X146031127Y-128684973D01*
X145989342Y-128644251D01*
X145944358Y-128611876D01*
X145897853Y-128589243D01*
X145893883Y-128587812D01*
X145832438Y-128571783D01*
X145771596Y-128566335D01*
X145712373Y-128570932D01*
X145655788Y-128585037D01*
X145602858Y-128608112D01*
X145554599Y-128639622D01*
X145512030Y-128679030D01*
X145476167Y-128725798D01*
X145448029Y-128779391D01*
X145430315Y-128832360D01*
X145425025Y-128863229D01*
X145422382Y-128900730D01*
X145422376Y-128940553D01*
X145424995Y-128978386D01*
X145430231Y-129009920D01*
X145430738Y-129011949D01*
X145449987Y-129065132D01*
X145478838Y-129115548D01*
X145515676Y-129161237D01*
X145558885Y-129200238D01*
X145606850Y-129230592D01*
X145613686Y-129233960D01*
X145653190Y-129251117D01*
X145688675Y-129262290D01*
X145724686Y-129268489D01*
X145765768Y-129270724D01*
X145779352Y-129270775D01*
X145840067Y-129265485D01*
X145896507Y-129250087D01*
X145949030Y-129224390D01*
X145997994Y-129188208D01*
X146043756Y-129141350D01*
X146058152Y-129123594D01*
X146089032Y-129083831D01*
X146203288Y-129083488D01*
X146317544Y-129083144D01*
X146302394Y-129109889D01*
X146266531Y-129171125D01*
X146233423Y-129222947D01*
X146202051Y-129266552D01*
X146171398Y-129303136D01*
X146140446Y-129333895D01*
X146108177Y-129360026D01*
X146073575Y-129382725D01*
X146067112Y-129386486D01*
X145996215Y-129421705D01*
X145924749Y-129446243D01*
X145851350Y-129460374D01*
X145774655Y-129464374D01*
X145703340Y-129459728D01*
X145625768Y-129445358D01*
X145552285Y-129420773D01*
X145483662Y-129386515D01*
X145420669Y-129343131D01*
X145364078Y-129291164D01*
X145314657Y-129231160D01*
X145273178Y-129163662D01*
X145266799Y-129151131D01*
X145241694Y-129088479D01*
X145224949Y-129020185D01*
X145216744Y-128948353D01*
X145217263Y-128875082D01*
X145226686Y-128802476D01*
X145233863Y-128770649D01*
X145245137Y-128735916D01*
X145261650Y-128696656D01*
X145281436Y-128656998D01*
X145302524Y-128621067D01*
X145311615Y-128607633D01*
X145348777Y-128562397D01*
X145393947Y-128518451D01*
X145444181Y-128478165D01*
X145496538Y-128443912D01*
X145545685Y-128419066D01*
X145614882Y-128395453D01*
X145688753Y-128380813D01*
X145765081Y-128375213D01*
X145841650Y-128378719D01*
G37*
G36*
X150469955Y-128378719D02*
G01*
X150544548Y-128391396D01*
X150596406Y-128406455D01*
X150663284Y-128435374D01*
X150725915Y-128473691D01*
X150783071Y-128520203D01*
X150833521Y-128573705D01*
X150876036Y-128632993D01*
X150909384Y-128696862D01*
X150919730Y-128723004D01*
X150933870Y-128762203D01*
X150824993Y-128762203D01*
X150716116Y-128762203D01*
X150696338Y-128732644D01*
X150659432Y-128684973D01*
X150617646Y-128644251D01*
X150572662Y-128611876D01*
X150526157Y-128589243D01*
X150522187Y-128587812D01*
X150460742Y-128571783D01*
X150399900Y-128566335D01*
X150340678Y-128570932D01*
X150284093Y-128585037D01*
X150231162Y-128608112D01*
X150182903Y-128639622D01*
X150140334Y-128679030D01*
X150104472Y-128725798D01*
X150076333Y-128779391D01*
X150058619Y-128832360D01*
X150053330Y-128863229D01*
X150050687Y-128900730D01*
X150050680Y-128940553D01*
X150053300Y-128978386D01*
X150058535Y-129009920D01*
X150059043Y-129011949D01*
X150078291Y-129065132D01*
X150107142Y-129115548D01*
X150143980Y-129161237D01*
X150187189Y-129200238D01*
X150235155Y-129230592D01*
X150241990Y-129233960D01*
X150281495Y-129251117D01*
X150316980Y-129262290D01*
X150352990Y-129268489D01*
X150394072Y-129270724D01*
X150407657Y-129270775D01*
X150468371Y-129265485D01*
X150524811Y-129250087D01*
X150577335Y-129224390D01*
X150626298Y-129188208D01*
X150672060Y-129141350D01*
X150686456Y-129123594D01*
X150717337Y-129083831D01*
X150831593Y-129083488D01*
X150945848Y-129083144D01*
X150930699Y-129109889D01*
X150894836Y-129171125D01*
X150861727Y-129222947D01*
X150830355Y-129266552D01*
X150799702Y-129303136D01*
X150768750Y-129333895D01*
X150736482Y-129360026D01*
X150701879Y-129382725D01*
X150695416Y-129386486D01*
X150624519Y-129421705D01*
X150553053Y-129446243D01*
X150479655Y-129460374D01*
X150402960Y-129464374D01*
X150331644Y-129459728D01*
X150254072Y-129445358D01*
X150180589Y-129420773D01*
X150111966Y-129386515D01*
X150048974Y-129343131D01*
X149992382Y-129291164D01*
X149942961Y-129231160D01*
X149901482Y-129163662D01*
X149895103Y-129151131D01*
X149869998Y-129088479D01*
X149853253Y-129020185D01*
X149845049Y-128948353D01*
X149845567Y-128875082D01*
X149854991Y-128802476D01*
X149862167Y-128770649D01*
X149873441Y-128735916D01*
X149889955Y-128696656D01*
X149909740Y-128656998D01*
X149930829Y-128621067D01*
X149939920Y-128607633D01*
X149977081Y-128562397D01*
X150022251Y-128518451D01*
X150072486Y-128478165D01*
X150124842Y-128443912D01*
X150173989Y-128419066D01*
X150243187Y-128395453D01*
X150317058Y-128380813D01*
X150393386Y-128375213D01*
X150469955Y-128378719D01*
G37*
G36*
X144699071Y-128382370D02*
G01*
X144772809Y-128400471D01*
X144842887Y-128429051D01*
X144908768Y-128467913D01*
X144969912Y-128516859D01*
X144999997Y-128546591D01*
X145038308Y-128591934D01*
X145069942Y-128640217D01*
X145095400Y-128692806D01*
X145115181Y-128751065D01*
X145129787Y-128816358D01*
X145139717Y-128890051D01*
X145143595Y-128938157D01*
X145147453Y-128998686D01*
X144706786Y-128998686D01*
X144266119Y-128998686D01*
X144268784Y-129026417D01*
X144277482Y-129062945D01*
X144295843Y-129100415D01*
X144322522Y-129137389D01*
X144356177Y-129172428D01*
X144395462Y-129204096D01*
X144439034Y-129230955D01*
X144475882Y-129247938D01*
X144534282Y-129265176D01*
X144594183Y-129272099D01*
X144653939Y-129268860D01*
X144711902Y-129255611D01*
X144766425Y-129232502D01*
X144789198Y-129219058D01*
X144825864Y-129190660D01*
X144860186Y-129155522D01*
X144889031Y-129117162D01*
X144904794Y-129089221D01*
X144923510Y-129049994D01*
X145029034Y-129049677D01*
X145134559Y-129049360D01*
X145121285Y-129084625D01*
X145087037Y-129161912D01*
X145045657Y-129231271D01*
X144997585Y-129292332D01*
X144943259Y-129344727D01*
X144883115Y-129388086D01*
X144817594Y-129422041D01*
X144747131Y-129446222D01*
X144675766Y-129459835D01*
X144643441Y-129463321D01*
X144616636Y-129464886D01*
X144590802Y-129464525D01*
X144561388Y-129462236D01*
X144538145Y-129459705D01*
X144462394Y-129445607D01*
X144391416Y-129421356D01*
X144324944Y-129386829D01*
X144262710Y-129341900D01*
X144237047Y-129319221D01*
X144182239Y-129260750D01*
X144137330Y-129197244D01*
X144102527Y-129129065D01*
X144078040Y-129056575D01*
X144073003Y-129035284D01*
X144067739Y-129001484D01*
X144064498Y-128960765D01*
X144063289Y-128916688D01*
X144064123Y-128872815D01*
X144067013Y-128832706D01*
X144070860Y-128807247D01*
X144272424Y-128807247D01*
X144602800Y-128807247D01*
X144933177Y-128807247D01*
X144929775Y-128793693D01*
X144912524Y-128747339D01*
X144885648Y-128704397D01*
X144850492Y-128665727D01*
X144808397Y-128632194D01*
X144760708Y-128604657D01*
X144708769Y-128583979D01*
X144653922Y-128571021D01*
X144597513Y-128566646D01*
X144576852Y-128567352D01*
X144514972Y-128576493D01*
X144458275Y-128595588D01*
X144406428Y-128624772D01*
X144373738Y-128650482D01*
X144351193Y-128673605D01*
X144328026Y-128702663D01*
X144306455Y-128734374D01*
X144288697Y-128765455D01*
X144276973Y-128792625D01*
X144276348Y-128794579D01*
X144272424Y-128807247D01*
X144070860Y-128807247D01*
X144071967Y-128799922D01*
X144072276Y-128798510D01*
X144093960Y-128724146D01*
X144124556Y-128656399D01*
X144164441Y-128594538D01*
X144199028Y-128553335D01*
X144255349Y-128499084D01*
X144314108Y-128455413D01*
X144376510Y-128421708D01*
X144443762Y-128397354D01*
X144517070Y-128381739D01*
X144542767Y-128378402D01*
X144622211Y-128374948D01*
X144699071Y-128382370D01*
G37*
G36*
X151630267Y-128382370D02*
G01*
X151704005Y-128400471D01*
X151774083Y-128429051D01*
X151839964Y-128467913D01*
X151901108Y-128516859D01*
X151931193Y-128546591D01*
X151969504Y-128591934D01*
X152001138Y-128640217D01*
X152026596Y-128692806D01*
X152046377Y-128751065D01*
X152060983Y-128816358D01*
X152070913Y-128890051D01*
X152074791Y-128938157D01*
X152078649Y-128998686D01*
X151637982Y-128998686D01*
X151197315Y-128998686D01*
X151199980Y-129026417D01*
X151208678Y-129062945D01*
X151227039Y-129100415D01*
X151253719Y-129137389D01*
X151287373Y-129172428D01*
X151326658Y-129204096D01*
X151370230Y-129230955D01*
X151407078Y-129247938D01*
X151465478Y-129265176D01*
X151525379Y-129272099D01*
X151585135Y-129268860D01*
X151643098Y-129255611D01*
X151697621Y-129232502D01*
X151720394Y-129219058D01*
X151757060Y-129190660D01*
X151791382Y-129155522D01*
X151820227Y-129117162D01*
X151835990Y-129089221D01*
X151854706Y-129049994D01*
X151960230Y-129049677D01*
X152065755Y-129049360D01*
X152052481Y-129084625D01*
X152018233Y-129161912D01*
X151976854Y-129231271D01*
X151928782Y-129292332D01*
X151874455Y-129344727D01*
X151814311Y-129388086D01*
X151748790Y-129422041D01*
X151678327Y-129446222D01*
X151606962Y-129459835D01*
X151574637Y-129463321D01*
X151547832Y-129464886D01*
X151521998Y-129464525D01*
X151492584Y-129462236D01*
X151469341Y-129459705D01*
X151393590Y-129445607D01*
X151322612Y-129421356D01*
X151256140Y-129386829D01*
X151193906Y-129341900D01*
X151168243Y-129319221D01*
X151113435Y-129260750D01*
X151068526Y-129197244D01*
X151033724Y-129129065D01*
X151009236Y-129056575D01*
X151004199Y-129035284D01*
X150998935Y-129001484D01*
X150995694Y-128960765D01*
X150994485Y-128916688D01*
X150995319Y-128872815D01*
X150998209Y-128832706D01*
X151002056Y-128807247D01*
X151203620Y-128807247D01*
X151533996Y-128807247D01*
X151864373Y-128807247D01*
X151860971Y-128793693D01*
X151843720Y-128747339D01*
X151816844Y-128704397D01*
X151781688Y-128665727D01*
X151739593Y-128632194D01*
X151691904Y-128604657D01*
X151639965Y-128583979D01*
X151585118Y-128571021D01*
X151528709Y-128566646D01*
X151508048Y-128567352D01*
X151446168Y-128576493D01*
X151389471Y-128595588D01*
X151337624Y-128624772D01*
X151304934Y-128650482D01*
X151282389Y-128673605D01*
X151259222Y-128702663D01*
X151237651Y-128734374D01*
X151219894Y-128765455D01*
X151208169Y-128792625D01*
X151207544Y-128794579D01*
X151203620Y-128807247D01*
X151002056Y-128807247D01*
X151003163Y-128799922D01*
X151003472Y-128798510D01*
X151025156Y-128724146D01*
X151055752Y-128656399D01*
X151095637Y-128594538D01*
X151130224Y-128553335D01*
X151186545Y-128499084D01*
X151245304Y-128455413D01*
X151307706Y-128421708D01*
X151374958Y-128397354D01*
X151448266Y-128381739D01*
X151473963Y-128378402D01*
X151553407Y-128374948D01*
X151630267Y-128382370D01*
G37*
G36*
X146976956Y-128378545D02*
G01*
X147010282Y-128381844D01*
X147023702Y-128384172D01*
X147093604Y-128402585D01*
X147155548Y-128427040D01*
X147211702Y-128458651D01*
X147264236Y-128498531D01*
X147287558Y-128519745D01*
X147338780Y-128576293D01*
X147380517Y-128638746D01*
X147412644Y-128706752D01*
X147435037Y-128779955D01*
X147447572Y-128858006D01*
X147450126Y-128940549D01*
X147448132Y-128977236D01*
X147439164Y-129045901D01*
X147423159Y-129108518D01*
X147399222Y-129168478D01*
X147395582Y-129176048D01*
X147358060Y-129240169D01*
X147312032Y-129297485D01*
X147258410Y-129347364D01*
X147198105Y-129389176D01*
X147132030Y-129422289D01*
X147061097Y-129446071D01*
X146986218Y-129459890D01*
X146985574Y-129459962D01*
X146954662Y-129463123D01*
X146929636Y-129464743D01*
X146906377Y-129464820D01*
X146880765Y-129463348D01*
X146848679Y-129460321D01*
X146843595Y-129459789D01*
X146766789Y-129446208D01*
X146694062Y-129422210D01*
X146625986Y-129388081D01*
X146563133Y-129344106D01*
X146508065Y-129292704D01*
X146462240Y-129237257D01*
X146425797Y-129178332D01*
X146398145Y-129114581D01*
X146378691Y-129044656D01*
X146367424Y-128972786D01*
X146365607Y-128927207D01*
X146570731Y-128927207D01*
X146572389Y-128966219D01*
X146576326Y-129000796D01*
X146579166Y-129015279D01*
X146597963Y-129071289D01*
X146626240Y-129122308D01*
X146662979Y-129167418D01*
X146707162Y-129205704D01*
X146757772Y-129236250D01*
X146813789Y-129258139D01*
X146860590Y-129268614D01*
X146895423Y-129271469D01*
X146935758Y-129270832D01*
X146976488Y-129266995D01*
X147012509Y-129260247D01*
X147013845Y-129259904D01*
X147061996Y-129242269D01*
X147106272Y-129215133D01*
X147148042Y-129177653D01*
X147149041Y-129176602D01*
X147187266Y-129129848D01*
X147215524Y-129080231D01*
X147234335Y-129026391D01*
X147244220Y-128966966D01*
X147246109Y-128922673D01*
X147241255Y-128856914D01*
X147227043Y-128795990D01*
X147203991Y-128740614D01*
X147172622Y-128691498D01*
X147133456Y-128649353D01*
X147087013Y-128614894D01*
X147033814Y-128588833D01*
X146992734Y-128575944D01*
X146965075Y-128571357D01*
X146930597Y-128568939D01*
X146893534Y-128568693D01*
X146858118Y-128570624D01*
X146828581Y-128574734D01*
X146823818Y-128575802D01*
X146767654Y-128595113D01*
X146716505Y-128623963D01*
X146671328Y-128661385D01*
X146633082Y-128706414D01*
X146602726Y-128758083D01*
X146581219Y-128815423D01*
X146579383Y-128822233D01*
X146574232Y-128851348D01*
X146571347Y-128887628D01*
X146570731Y-128927207D01*
X146365607Y-128927207D01*
X146364311Y-128894699D01*
X146371742Y-128818248D01*
X146389517Y-128744688D01*
X146413128Y-128684257D01*
X146450237Y-128617856D01*
X146496140Y-128557949D01*
X146549989Y-128505209D01*
X146610939Y-128460308D01*
X146678143Y-128423917D01*
X146750757Y-128396710D01*
X146787219Y-128387123D01*
X146816994Y-128382205D01*
X146854232Y-128378845D01*
X146895555Y-128377088D01*
X146937589Y-128376973D01*
X146976956Y-128378545D01*
G37*
G36*
X149224976Y-128377425D02*
G01*
X149300691Y-128388732D01*
X149321597Y-128393679D01*
X149359911Y-128406581D01*
X149402086Y-128425936D01*
X149444484Y-128449791D01*
X149483469Y-128476199D01*
X149500039Y-128489325D01*
X149543983Y-128526277D01*
X149540636Y-128507700D01*
X149538168Y-128493260D01*
X149534666Y-128471842D01*
X149530804Y-128447595D01*
X149530033Y-128442671D01*
X149522777Y-128396219D01*
X149625977Y-128396219D01*
X149729177Y-128396219D01*
X149729177Y-128919858D01*
X149729177Y-129443498D01*
X149625011Y-129443498D01*
X149520847Y-129443498D01*
X149520847Y-129394922D01*
X149520847Y-129346345D01*
X149495147Y-129370034D01*
X149460687Y-129395593D01*
X149416811Y-129417996D01*
X149365062Y-129436679D01*
X149306982Y-129451080D01*
X149247765Y-129460236D01*
X149211951Y-129463675D01*
X149181403Y-129464972D01*
X149151181Y-129464111D01*
X149116344Y-129461074D01*
X149104186Y-129459728D01*
X149046063Y-129449332D01*
X148986006Y-129431899D01*
X148929287Y-129409046D01*
X148913315Y-129401170D01*
X148854728Y-129365052D01*
X148800243Y-129320201D01*
X148751251Y-129268316D01*
X148709147Y-129211094D01*
X148675324Y-129150235D01*
X148651176Y-129087435D01*
X148648674Y-129078687D01*
X148632952Y-129001393D01*
X148629297Y-128948778D01*
X148834904Y-128948778D01*
X148838623Y-128987650D01*
X148847122Y-129023743D01*
X148861208Y-129061071D01*
X148871418Y-129083144D01*
X148897091Y-129124988D01*
X148931646Y-129164926D01*
X148972700Y-129200936D01*
X149017874Y-129230998D01*
X149064787Y-129253092D01*
X149076300Y-129257067D01*
X149119195Y-129266784D01*
X149167549Y-129271212D01*
X149216906Y-129270296D01*
X149262811Y-129263982D01*
X149280539Y-129259547D01*
X149332740Y-129238635D01*
X149381162Y-129207509D01*
X149416805Y-129175814D01*
X149457579Y-129127285D01*
X149488232Y-129073863D01*
X149508790Y-129015485D01*
X149519278Y-128952087D01*
X149520763Y-128914735D01*
X149516744Y-128853323D01*
X149504447Y-128798580D01*
X149483212Y-128748880D01*
X149452376Y-128702595D01*
X149419799Y-128666383D01*
X149375878Y-128628318D01*
X149329884Y-128600160D01*
X149280147Y-128581246D01*
X149224996Y-128570918D01*
X149171753Y-128568401D01*
X149140779Y-128569122D01*
X149116646Y-128571349D01*
X149094970Y-128575742D01*
X149071362Y-128582960D01*
X149068557Y-128583921D01*
X149016086Y-128606381D01*
X148970411Y-128635813D01*
X148935850Y-128666441D01*
X148897857Y-128709767D01*
X148869596Y-128754791D01*
X148850219Y-128803504D01*
X148838878Y-128857901D01*
X148835156Y-128903112D01*
X148834904Y-128948778D01*
X148629297Y-128948778D01*
X148627536Y-128923439D01*
X148632229Y-128846151D01*
X148646834Y-128770859D01*
X148671153Y-128698890D01*
X148704991Y-128631572D01*
X148718080Y-128610802D01*
X148738693Y-128583586D01*
X148765921Y-128553020D01*
X148796937Y-128521887D01*
X148828911Y-128492972D01*
X148859017Y-128469059D01*
X148869359Y-128461876D01*
X148932118Y-128426987D01*
X149000650Y-128400858D01*
X149073364Y-128383728D01*
X149148670Y-128375837D01*
X149224976Y-128377425D01*
G37*
%TO.C,Q404*%
D14*
X161740000Y-67150000D02*
X161740000Y-66500000D01*
X161740000Y-67150000D02*
X161740000Y-67800000D01*
X164860000Y-67150000D02*
X164860000Y-66500000D01*
X164860000Y-67150000D02*
X164860000Y-67800000D01*
D21*
X165140000Y-66227500D02*
X164810000Y-65987500D01*
X165140000Y-65747500D01*
X165140000Y-66227500D01*
G36*
X165140000Y-66227500D02*
G01*
X164810000Y-65987500D01*
X165140000Y-65747500D01*
X165140000Y-66227500D01*
G37*
%TO.C,Q202*%
D14*
X134395847Y-123409757D02*
X134395847Y-124449757D01*
X134395847Y-126469757D02*
X134395847Y-125429757D01*
X135855847Y-123409757D02*
X134395847Y-123409757D01*
X135855847Y-124479757D02*
X135855847Y-125399757D01*
X135855847Y-126469757D02*
X134395847Y-126469757D01*
%TO.C,U604*%
X127780000Y-112647500D02*
X130820000Y-112647500D01*
X127780000Y-117707500D02*
X127780000Y-112647500D01*
X130820000Y-112647500D02*
X130820000Y-117707500D01*
X130820000Y-117707500D02*
X127780000Y-117707500D01*
D18*
X130220000Y-117087500D02*
G75*
G02*
X129920000Y-117087500I-150000J0D01*
G01*
X129920000Y-117087500D02*
G75*
G02*
X130220000Y-117087500I150000J0D01*
G01*
X132220000Y-117827500D02*
G75*
G02*
X131920000Y-117827500I-150000J0D01*
G01*
X131920000Y-117827500D02*
G75*
G02*
X132220000Y-117827500I150000J0D01*
G01*
%TD*%
%LPC*%
D22*
%TO.C,C403*%
X156500000Y-76800000D03*
X155500000Y-76800000D03*
%TD*%
D23*
%TO.C,C204*%
X143965000Y-113758702D03*
X143965000Y-116718702D03*
%TD*%
D22*
%TO.C,C402*%
X156500000Y-75800000D03*
X155500000Y-75800000D03*
%TD*%
D24*
%TO.C,C404*%
X158500000Y-76800000D03*
X159500000Y-76800000D03*
%TD*%
D25*
%TO.C,D401*%
X143150000Y-131500000D03*
X143150000Y-135900000D03*
%TD*%
D26*
%TO.C,D204*%
X138350000Y-126750000D03*
X140690000Y-126750000D03*
%TD*%
D22*
%TO.C,R201*%
X143865000Y-125538702D03*
X142865000Y-125538702D03*
%TD*%
D27*
%TO.C,R420*%
X130100000Y-91600000D03*
X130100000Y-92600000D03*
%TD*%
D28*
%TO.C,D201*%
X139625000Y-124468702D03*
X141505000Y-124468702D03*
%TD*%
D22*
%TO.C,R604*%
X139900000Y-74000000D03*
X138900000Y-74000000D03*
%TD*%
D23*
%TO.C,C207*%
X154900000Y-113658702D03*
X154900000Y-116618702D03*
%TD*%
D24*
%TO.C,R602*%
X126900000Y-82300000D03*
X127900000Y-82300000D03*
%TD*%
D22*
%TO.C,R699*%
X134650000Y-78100000D03*
X133650000Y-78100000D03*
%TD*%
D29*
%TO.C,U405*%
X123700000Y-67090000D03*
X123700000Y-67900000D03*
X123700000Y-68700000D03*
X123700000Y-69490000D03*
X123700000Y-70300000D03*
X123700000Y-71090000D03*
X123700000Y-71890000D03*
X123700000Y-72700000D03*
X123700000Y-73490000D03*
X123700000Y-74300000D03*
X123700000Y-75100000D03*
D30*
X124800000Y-75970000D03*
X125600000Y-75970000D03*
X126400000Y-75970000D03*
X127200000Y-75970000D03*
X128000000Y-75970000D03*
X128800000Y-75970000D03*
X129600000Y-75970000D03*
X130400000Y-75970000D03*
X131200000Y-75970000D03*
X132000000Y-75970000D03*
X132800000Y-75970000D03*
X133600000Y-75970000D03*
X134400000Y-75970000D03*
D29*
X135500000Y-75100000D03*
X135500000Y-74300000D03*
X135500000Y-73490000D03*
X135500000Y-72700000D03*
X135500000Y-71890000D03*
X135500000Y-71100000D03*
X135500000Y-70300000D03*
X135500000Y-69490000D03*
X135500000Y-68700000D03*
X135500000Y-67900000D03*
X135500000Y-67090000D03*
D30*
X134400000Y-66170000D03*
X133600000Y-66170000D03*
X132800000Y-66170000D03*
X132000000Y-66170000D03*
X131200000Y-66170000D03*
X130400000Y-66170000D03*
X129600000Y-66170000D03*
X128800000Y-66170000D03*
X128000000Y-66170000D03*
X127200000Y-66170000D03*
X126400000Y-66170000D03*
X125600000Y-66170000D03*
X124800000Y-66170000D03*
D31*
X127820000Y-69220000D03*
X127820000Y-71020000D03*
X127820000Y-72820000D03*
X129620000Y-69220000D03*
X129620000Y-71020000D03*
X129620000Y-72820000D03*
X131420000Y-69220000D03*
X131420000Y-71020000D03*
X131420000Y-72820000D03*
D32*
X135550000Y-66120000D03*
X135550000Y-76020000D03*
X123650000Y-76020000D03*
X123650000Y-66120000D03*
%TD*%
D33*
%TO.C,R223*%
X154560000Y-128280000D03*
X156200000Y-128280000D03*
%TD*%
D34*
%TO.C,D406*%
X148460000Y-69300000D03*
X149540000Y-69300000D03*
%TD*%
D35*
%TO.C,U603*%
X141500000Y-67700000D03*
X141500000Y-66750000D03*
X141500000Y-65800000D03*
X139200000Y-65800000D03*
X139200000Y-67700000D03*
%TD*%
D36*
%TO.C,U402*%
X164300000Y-106880000D03*
D37*
X165600000Y-105360000D03*
X163000000Y-105360000D03*
%TD*%
D22*
%TO.C,C407*%
X161550000Y-107500000D03*
X160550000Y-107500000D03*
%TD*%
D38*
%TO.C,R412*%
X165310000Y-109000000D03*
X163490000Y-109000000D03*
%TD*%
D39*
%TO.C,U407*%
X132250000Y-92700000D03*
X132900000Y-92700000D03*
X133550000Y-92700000D03*
X133550000Y-90700000D03*
X132900000Y-90700000D03*
X132250000Y-90700000D03*
%TD*%
D40*
%TO.C,R427*%
X125600000Y-81500000D03*
X125600000Y-80500000D03*
%TD*%
D41*
%TO.C,H401*%
X123000000Y-124100000D03*
%TD*%
D40*
%TO.C,R651*%
X129550000Y-79100000D03*
X129550000Y-78100000D03*
%TD*%
D42*
%TO.C,R212*%
X146585000Y-125823702D03*
X144945000Y-125823702D03*
%TD*%
D24*
%TO.C,C605*%
X138500000Y-73000000D03*
X139500000Y-73000000D03*
%TD*%
D43*
%TO.C,C415*%
X143450000Y-110850000D03*
X141550000Y-110850000D03*
%TD*%
D44*
%TO.C,R401*%
X151390000Y-69500000D03*
X153210000Y-69500000D03*
%TD*%
D45*
%TO.C,SW603*%
X138920000Y-70800000D03*
X143280000Y-70800000D03*
%TD*%
D46*
%TO.C,C417*%
X130020000Y-130100000D03*
X131580000Y-130100000D03*
%TD*%
D22*
%TO.C,R405*%
X147580000Y-70920000D03*
X146580000Y-70920000D03*
%TD*%
D40*
%TO.C,R425*%
X138600000Y-76100000D03*
X138600000Y-75100000D03*
%TD*%
D47*
%TO.C,C414*%
X159600000Y-108850000D03*
X159600000Y-110750000D03*
%TD*%
D26*
%TO.C,D203*%
X133770000Y-119577452D03*
X131430000Y-119577452D03*
%TD*%
D22*
%TO.C,R415*%
X148500000Y-104200000D03*
X147500000Y-104200000D03*
%TD*%
D24*
%TO.C,C411*%
X158500000Y-75800000D03*
X159500000Y-75800000D03*
%TD*%
%TO.C,R410*%
X158300000Y-107500000D03*
X159300000Y-107500000D03*
%TD*%
D22*
%TO.C,R411*%
X158250000Y-106450000D03*
X157250000Y-106450000D03*
%TD*%
D48*
%TO.C,J404*%
X123190000Y-81280000D03*
D49*
X123190000Y-83820000D03*
X123190000Y-86360000D03*
X123190000Y-88900000D03*
%TD*%
D22*
%TO.C,R408*%
X149980000Y-70920000D03*
X148980000Y-70920000D03*
%TD*%
D24*
%TO.C,R421*%
X125475000Y-95400000D03*
X126475000Y-95400000D03*
%TD*%
D27*
%TO.C,C697*%
X135702500Y-114218702D03*
X135702500Y-115218702D03*
%TD*%
D22*
%TO.C,C610*%
X133500000Y-81800000D03*
X132500000Y-81800000D03*
%TD*%
D50*
%TO.C,C410*%
X159200000Y-74380000D03*
X159200000Y-71420000D03*
%TD*%
D40*
%TO.C,C693*%
X134602500Y-115218702D03*
X134602500Y-114218702D03*
%TD*%
D48*
%TO.C,J204*%
X123190000Y-111760000D03*
D49*
X123190000Y-114300000D03*
X123190000Y-116840000D03*
X123190000Y-119380000D03*
%TD*%
D23*
%TO.C,C201*%
X143620000Y-121123702D03*
X143620000Y-124083702D03*
%TD*%
D51*
%TO.C,U403*%
X141500000Y-82500000D03*
X141500000Y-83500000D03*
X141500000Y-84500000D03*
X141500000Y-85500000D03*
X141500000Y-86500000D03*
X141500000Y-87500000D03*
X141500000Y-88500000D03*
X141500000Y-89500000D03*
X141500000Y-90500000D03*
X141500000Y-91500000D03*
X141500000Y-92500000D03*
X141500000Y-93500000D03*
X141500000Y-94500000D03*
X141500000Y-95500000D03*
X141500000Y-96500000D03*
X141500000Y-97500000D03*
X141500000Y-98500000D03*
D52*
X145500000Y-102500000D03*
X146500000Y-102500000D03*
X147500000Y-102500000D03*
X148500000Y-102500000D03*
X149500000Y-102500000D03*
X150500000Y-102500000D03*
X151500000Y-102500000D03*
X152500000Y-102500000D03*
X153500000Y-102500000D03*
X154500000Y-102500000D03*
X155500000Y-102500000D03*
X156500000Y-102500000D03*
X157500000Y-102500000D03*
X158500000Y-102500000D03*
X159500000Y-102500000D03*
X160500000Y-102500000D03*
X161500000Y-102500000D03*
D51*
X165500000Y-98500000D03*
X165500000Y-97500000D03*
X165500000Y-96500000D03*
X165500000Y-95500000D03*
X165500000Y-94500000D03*
X165500000Y-93500000D03*
X165500000Y-92500000D03*
X165500000Y-91500000D03*
X165500000Y-90500000D03*
X165500000Y-89500000D03*
X165500000Y-88500000D03*
X165500000Y-87500000D03*
X165500000Y-86500000D03*
X165500000Y-85500000D03*
X165500000Y-84500000D03*
X165500000Y-83500000D03*
X165500000Y-82500000D03*
D52*
X161500000Y-78500000D03*
X160500000Y-78500000D03*
X159500000Y-78500000D03*
X158500000Y-78500000D03*
X157500000Y-78500000D03*
X156500000Y-78500000D03*
X155500000Y-78500000D03*
X154500000Y-78500000D03*
X153500000Y-78500000D03*
X152500000Y-78500000D03*
X151500000Y-78500000D03*
X150500000Y-78500000D03*
X149500000Y-78500000D03*
X148500000Y-78500000D03*
X147500000Y-78500000D03*
X146500000Y-78500000D03*
X145500000Y-78500000D03*
D53*
X145900000Y-82900000D03*
X145900000Y-86700000D03*
X145900000Y-90500000D03*
X145900000Y-94300000D03*
X145900000Y-98100000D03*
X149700000Y-98100000D03*
X153500000Y-98100000D03*
X157300000Y-98100000D03*
X161100000Y-98100000D03*
X161100000Y-94310000D03*
X161100000Y-90500000D03*
X161100000Y-86700000D03*
X161100000Y-82900000D03*
X157300000Y-82900000D03*
X153500000Y-82900000D03*
X149700000Y-82900000D03*
X149700000Y-90500000D03*
X153500000Y-94300000D03*
X157300000Y-90500000D03*
X153500000Y-86700000D03*
D52*
X142500000Y-102500000D03*
X143500000Y-102500000D03*
X144500000Y-102500000D03*
X162500000Y-102500000D03*
X163500000Y-102500000D03*
X164500000Y-102500000D03*
X164500000Y-78500000D03*
X163500000Y-78500000D03*
X162500000Y-78500000D03*
X144500000Y-78500000D03*
X143500000Y-78500000D03*
X142500000Y-78500000D03*
D54*
X143700000Y-87000000D03*
X143700000Y-88400000D03*
X143700000Y-89800000D03*
X143700000Y-91200000D03*
X143700000Y-92600000D03*
X143700000Y-94000000D03*
D55*
X150000000Y-100300000D03*
X151400000Y-100300000D03*
X152800000Y-100300000D03*
X154200000Y-100300000D03*
X155600000Y-100300000D03*
X157000000Y-100300000D03*
D56*
X163300000Y-94000000D03*
X163300000Y-92600000D03*
X163300000Y-91200000D03*
X163300000Y-89800000D03*
X163300000Y-88400000D03*
X163300000Y-87000000D03*
D55*
X157000000Y-80700000D03*
X155600000Y-80700000D03*
X154200000Y-80700000D03*
X152800000Y-80700000D03*
X151400000Y-80700000D03*
X150000000Y-80700000D03*
%TD*%
D24*
%TO.C,R416*%
X154600000Y-68050000D03*
X155600000Y-68050000D03*
%TD*%
D22*
%TO.C,C408*%
X161550000Y-106500000D03*
X160550000Y-106500000D03*
%TD*%
D23*
%TO.C,C205*%
X146365000Y-113758702D03*
X146365000Y-116718702D03*
%TD*%
D24*
%TO.C,C603*%
X128400000Y-98100000D03*
X129400000Y-98100000D03*
%TD*%
D41*
%TO.C,H403*%
X156000000Y-136100000D03*
%TD*%
D40*
%TO.C,R423*%
X135800000Y-78300000D03*
X135800000Y-77300000D03*
%TD*%
D50*
%TO.C,C218*%
X138590000Y-122463702D03*
X138590000Y-119503702D03*
%TD*%
D24*
%TO.C,C221*%
X138275847Y-128150000D03*
X139275847Y-128150000D03*
%TD*%
D46*
%TO.C,C206*%
X151420000Y-116643702D03*
X152980000Y-116643702D03*
%TD*%
D24*
%TO.C,R402*%
X161200000Y-76700000D03*
X162200000Y-76700000D03*
%TD*%
D22*
%TO.C,C609*%
X133500000Y-80750000D03*
X132500000Y-80750000D03*
%TD*%
D50*
%TO.C,C211*%
X157290000Y-122203702D03*
X157290000Y-119243702D03*
%TD*%
D24*
%TO.C,C606*%
X140500000Y-73000000D03*
X141500000Y-73000000D03*
%TD*%
%TO.C,R418*%
X160000000Y-65800000D03*
X161000000Y-65800000D03*
%TD*%
D22*
%TO.C,C406*%
X161550000Y-105500000D03*
X160550000Y-105500000D03*
%TD*%
D48*
%TO.C,J205*%
X148590000Y-134620000D03*
D49*
X151130000Y-134620000D03*
%TD*%
D22*
%TO.C,R454*%
X126450000Y-77100000D03*
X125450000Y-77100000D03*
%TD*%
%TO.C,R404*%
X165800000Y-73000000D03*
X164800000Y-73000000D03*
%TD*%
%TO.C,C604*%
X128100000Y-118350000D03*
X127100000Y-118350000D03*
%TD*%
D33*
%TO.C,R208*%
X158730000Y-124180000D03*
X160370000Y-124180000D03*
%TD*%
D57*
%TO.C,R424*%
X133200000Y-127980000D03*
X133200000Y-129620000D03*
%TD*%
D24*
%TO.C,R225*%
X154820000Y-131020000D03*
X155820000Y-131020000D03*
%TD*%
D47*
%TO.C,C413*%
X157500000Y-108850000D03*
X157500000Y-110750000D03*
%TD*%
D50*
%TO.C,C219*%
X141080000Y-122463702D03*
X141080000Y-119503702D03*
%TD*%
D58*
%TO.C,L201*%
X149455000Y-111968702D03*
X151755000Y-111968702D03*
%TD*%
D22*
%TO.C,C409*%
X161550000Y-104500000D03*
X160550000Y-104500000D03*
%TD*%
D27*
%TO.C,R414*%
X166200000Y-80700000D03*
X166200000Y-81700000D03*
%TD*%
D59*
%TO.C,Q201*%
X129750000Y-121477452D03*
X129750000Y-119577452D03*
X127750000Y-120527452D03*
%TD*%
D48*
%TO.C,J402*%
X123190000Y-91440000D03*
D49*
X123190000Y-93980000D03*
X123190000Y-96520000D03*
X123190000Y-99060000D03*
X123190000Y-101600000D03*
X123190000Y-104140000D03*
%TD*%
D24*
%TO.C,C220*%
X130000000Y-118400000D03*
X131000000Y-118400000D03*
%TD*%
D60*
%TO.C,C405*%
X153000000Y-67650000D03*
X153000000Y-65750000D03*
%TD*%
D61*
%TO.C,L402*%
X123700000Y-127830000D03*
X123700000Y-129770000D03*
%TD*%
D62*
%TO.C,C214*%
X152550000Y-125003702D03*
X152550000Y-123443702D03*
%TD*%
D59*
%TO.C,Q406*%
X163640000Y-74200000D03*
X163640000Y-76100000D03*
X165640000Y-75150000D03*
%TD*%
D24*
%TO.C,R655*%
X131650000Y-78100000D03*
X132650000Y-78100000D03*
%TD*%
D43*
%TO.C,C416*%
X123950000Y-78375000D03*
X122050000Y-78375000D03*
%TD*%
D40*
%TO.C,R413*%
X166200000Y-79700000D03*
X166200000Y-78700000D03*
%TD*%
D48*
%TO.C,J206*%
X163830000Y-111760000D03*
D49*
X163830000Y-114300000D03*
%TD*%
D63*
%TO.C,L401*%
X163100000Y-70230000D03*
X163100000Y-72170000D03*
%TD*%
D27*
%TO.C,R419*%
X131200000Y-88900000D03*
X131200000Y-89900000D03*
%TD*%
D43*
%TO.C,C418*%
X155650000Y-109100000D03*
X153750000Y-109100000D03*
%TD*%
D64*
%TO.C,D606*%
X131680000Y-87660000D03*
X131680000Y-86710000D03*
X131680000Y-85760000D03*
X129380000Y-85760000D03*
X129380000Y-86710000D03*
X129380000Y-87660000D03*
%TD*%
D65*
%TO.C,J202*%
X159150000Y-133200000D03*
X159150000Y-131200000D03*
X159150000Y-129200000D03*
D66*
X164850000Y-126850000D03*
X164850000Y-135550000D03*
%TD*%
D67*
%TO.C,Q204*%
X163865000Y-119188702D03*
X161965000Y-119188702D03*
X162915000Y-121188702D03*
%TD*%
D59*
%TO.C,Q408*%
X138200000Y-80350000D03*
X138200000Y-78450000D03*
X136200000Y-79400000D03*
%TD*%
D27*
%TO.C,C601*%
X142800000Y-66500000D03*
X142800000Y-67500000D03*
%TD*%
D22*
%TO.C,R409*%
X157250000Y-105000000D03*
X156250000Y-105000000D03*
%TD*%
D27*
%TO.C,R406*%
X144300000Y-74100000D03*
X144300000Y-75100000D03*
%TD*%
D68*
%TO.C,D420*%
X127640000Y-78800000D03*
X125760000Y-78800000D03*
%TD*%
D61*
%TO.C,L403*%
X126150000Y-85770000D03*
X126150000Y-83830000D03*
%TD*%
D24*
%TO.C,R209*%
X146700000Y-124423702D03*
X147700000Y-124423702D03*
%TD*%
D67*
%TO.C,Q203*%
X136825847Y-127400000D03*
X134925847Y-127400000D03*
X135875847Y-129400000D03*
%TD*%
%TO.C,Q409*%
X140900000Y-76400000D03*
X142800000Y-76400000D03*
X141850000Y-74400000D03*
%TD*%
D36*
%TO.C,U401*%
X149900000Y-68080000D03*
D37*
X151200000Y-66560000D03*
X148600000Y-66560000D03*
%TD*%
D69*
%TO.C,C202*%
X149930000Y-116643702D03*
X148370000Y-116643702D03*
%TD*%
D64*
%TO.C,D405*%
X142550000Y-106227500D03*
X142550000Y-107177500D03*
X142550000Y-108127500D03*
X144850000Y-108127500D03*
X144850000Y-107177500D03*
X144850000Y-106227500D03*
%TD*%
D44*
%TO.C,R213*%
X140610000Y-128550000D03*
X142430000Y-128550000D03*
%TD*%
D70*
%TO.C,D212*%
X129400000Y-128600000D03*
X130350000Y-128600000D03*
X131300000Y-128600000D03*
X131300000Y-126300000D03*
X130350000Y-126300000D03*
X129400000Y-126300000D03*
%TD*%
D71*
%TO.C,J201*%
X123610000Y-132817500D03*
X129390000Y-132817500D03*
D72*
X123300000Y-131737500D03*
X124100000Y-131737500D03*
D73*
X124750000Y-131737500D03*
X125250000Y-131737500D03*
X125750000Y-131737500D03*
X126250000Y-131737500D03*
X126750000Y-131737500D03*
X127250000Y-131737500D03*
X127750000Y-131737500D03*
X128250000Y-131737500D03*
D72*
X128900000Y-131737500D03*
X129700000Y-131737500D03*
D74*
X122180000Y-132287500D03*
D75*
X122180000Y-136497500D03*
D74*
X130820000Y-132287500D03*
D75*
X130820000Y-136497500D03*
%TD*%
D76*
%TO.C,U202*%
X148895000Y-118348702D03*
D77*
X148895000Y-118348702D03*
D78*
X148715000Y-118998702D03*
X148715000Y-119398702D03*
X148715000Y-119798702D03*
X148715000Y-120198702D03*
X148715000Y-120598702D03*
X148715000Y-120998702D03*
X148715000Y-121398702D03*
D79*
X148865000Y-122048702D03*
D77*
X148865000Y-122048702D03*
D80*
X149665000Y-122098702D03*
X150065000Y-122098702D03*
X150465000Y-122098702D03*
X150865000Y-122098702D03*
X151265000Y-122098702D03*
X151665000Y-122098702D03*
D81*
X152465000Y-122048702D03*
D77*
X152465000Y-122048702D03*
D82*
X152565000Y-121398702D03*
D83*
X152585000Y-120998702D03*
D84*
X152575000Y-120598702D03*
D78*
X152615000Y-120198702D03*
X152615000Y-119798702D03*
X152615000Y-119398702D03*
X152615000Y-118998702D03*
D85*
X152445000Y-118348702D03*
D77*
X152445000Y-118348702D03*
D86*
X151565000Y-118498702D03*
X151115000Y-118498702D03*
X150665000Y-118498702D03*
X150215000Y-118498702D03*
D87*
X149765000Y-118468702D03*
%TD*%
D23*
%TO.C,C210*%
X159765000Y-113658702D03*
X159765000Y-116618702D03*
%TD*%
D27*
%TO.C,C602*%
X137850000Y-66500000D03*
X137850000Y-67500000D03*
%TD*%
D60*
%TO.C,C412*%
X146800000Y-67650000D03*
X146800000Y-65750000D03*
%TD*%
D50*
%TO.C,C401*%
X156600000Y-74380000D03*
X156600000Y-71420000D03*
%TD*%
D88*
%TO.C,L407*%
X139680000Y-135200000D03*
X139680000Y-132200000D03*
X133780000Y-132200000D03*
X133780000Y-135200000D03*
%TD*%
D23*
%TO.C,C209*%
X157365000Y-113658702D03*
X157365000Y-116618702D03*
%TD*%
D38*
%TO.C,R214*%
X135910000Y-117600000D03*
X134090000Y-117600000D03*
%TD*%
D89*
%TO.C,D403*%
X161400000Y-109940000D03*
X161400000Y-108860000D03*
%TD*%
D90*
%TO.C,D407*%
X138100000Y-84970000D03*
X138100000Y-82630000D03*
%TD*%
D40*
%TO.C,C607*%
X122000000Y-67710000D03*
X122000000Y-66710000D03*
%TD*%
D62*
%TO.C,C217*%
X145465000Y-120913702D03*
X145465000Y-119353702D03*
%TD*%
D67*
%TO.C,Q402*%
X145650000Y-74200000D03*
X147550000Y-74200000D03*
X146600000Y-72200000D03*
%TD*%
D91*
%TO.C,U404*%
X161200000Y-71480000D03*
X161200000Y-72120000D03*
%TD*%
D27*
%TO.C,C698*%
X131200000Y-92200000D03*
X131200000Y-93200000D03*
%TD*%
D42*
%TO.C,R224*%
X156190000Y-129740000D03*
X154550000Y-129740000D03*
%TD*%
D67*
%TO.C,Q405*%
X129850000Y-89100000D03*
X127950000Y-89100000D03*
X128900000Y-91100000D03*
%TD*%
D50*
%TO.C,C212*%
X159820000Y-122213702D03*
X159820000Y-119253702D03*
%TD*%
D92*
%TO.C,U406*%
X138742500Y-115818702D03*
X138742500Y-115318702D03*
X138742500Y-114818702D03*
X138742500Y-114318702D03*
D93*
X138022500Y-114098702D03*
X137522500Y-114098702D03*
D92*
X136802500Y-114318702D03*
X136802500Y-114818702D03*
X136802500Y-115318702D03*
X136802500Y-115818702D03*
D93*
X137522500Y-116048702D03*
X138022500Y-116048702D03*
%TD*%
D59*
%TO.C,Q401*%
X157040000Y-67950000D03*
X157040000Y-69850000D03*
X159040000Y-68900000D03*
%TD*%
D27*
%TO.C,R422*%
X139600000Y-78900000D03*
X139600000Y-79900000D03*
%TD*%
D23*
%TO.C,C203*%
X141565000Y-113758702D03*
X141565000Y-116718702D03*
%TD*%
D94*
%TO.C,U602*%
X138340000Y-98110000D03*
X138340000Y-96830000D03*
X138340000Y-95570000D03*
X138340000Y-94300000D03*
X131260000Y-94300000D03*
X131260000Y-95570000D03*
X131260000Y-96830000D03*
X131260000Y-98110000D03*
%TD*%
D27*
%TO.C,R603*%
X137600000Y-74700000D03*
X137600000Y-75700000D03*
%TD*%
D24*
%TO.C,R601*%
X126930000Y-81200000D03*
X127930000Y-81200000D03*
%TD*%
D59*
%TO.C,Q206*%
X131600000Y-121477452D03*
X131600000Y-123377452D03*
X133600000Y-122427452D03*
%TD*%
D95*
%TO.C,D402*%
X165400000Y-71690000D03*
X165400000Y-69810000D03*
%TD*%
D96*
%TO.C,Q407*%
X125775000Y-93865000D03*
X127675000Y-93865000D03*
X126725000Y-91985000D03*
%TD*%
D48*
%TO.C,J403*%
X123190000Y-106680000D03*
D49*
X123190000Y-109220000D03*
%TD*%
D62*
%TO.C,C208*%
X155465000Y-122393702D03*
X155465000Y-120833702D03*
%TD*%
D40*
%TO.C,R650*%
X130600000Y-79100000D03*
X130600000Y-78100000D03*
%TD*%
D57*
%TO.C,R202*%
X157500000Y-125300000D03*
X157500000Y-126940000D03*
%TD*%
D64*
%TO.C,D404*%
X148650000Y-108095000D03*
X148650000Y-107145000D03*
X148650000Y-106195000D03*
X146350000Y-106195000D03*
X146350000Y-107145000D03*
X146350000Y-108095000D03*
%TD*%
D67*
%TO.C,Q403*%
X149130000Y-74200000D03*
X151030000Y-74200000D03*
X150080000Y-72200000D03*
%TD*%
D97*
%TO.C,C213*%
X145465000Y-122258702D03*
X145465000Y-123818702D03*
%TD*%
D98*
%TO.C,Card401*%
X127200000Y-111700000D03*
X127200000Y-100000000D03*
X136000000Y-111700000D03*
X136000000Y-100000000D03*
D99*
X140100000Y-102670000D03*
X140100000Y-105210000D03*
X140100000Y-107750000D03*
X140100000Y-103940000D03*
X140100000Y-106480000D03*
X140100000Y-109020000D03*
%TD*%
D40*
%TO.C,R407*%
X152300000Y-74200000D03*
X152300000Y-73200000D03*
%TD*%
%TO.C,R426*%
X139600000Y-76700000D03*
X139600000Y-75700000D03*
%TD*%
D27*
%TO.C,R417*%
X155600000Y-68950000D03*
X155600000Y-69950000D03*
%TD*%
D24*
%TO.C,R222*%
X144900000Y-127000000D03*
X145900000Y-127000000D03*
%TD*%
D100*
%TO.C,L404*%
X154570000Y-106800000D03*
X152630000Y-106800000D03*
%TD*%
D48*
%TO.C,J401*%
X135890000Y-91440000D03*
D49*
X135890000Y-88900000D03*
X135890000Y-86360000D03*
X135890000Y-83820000D03*
%TD*%
D101*
%TO.C,Q404*%
X164250000Y-66210000D03*
X162350000Y-66210000D03*
X163300000Y-68090000D03*
%TD*%
D24*
%TO.C,R403*%
X161200000Y-75700000D03*
X162200000Y-75700000D03*
%TD*%
D59*
%TO.C,Q202*%
X136125847Y-125889757D03*
X136125847Y-123989757D03*
X134125847Y-124939757D03*
%TD*%
D102*
%TO.C,U604*%
X131870000Y-117087500D03*
X131870000Y-115807500D03*
X131870000Y-114547500D03*
X131870000Y-113277500D03*
X126730000Y-113277500D03*
X126730000Y-114547500D03*
X126730000Y-115807500D03*
X126730000Y-117087500D03*
%TD*%
D103*
%TO.C,H404*%
X168100000Y-123100000D03*
%TD*%
D104*
%TO.C,H402*%
X157000000Y-63000000D03*
%TD*%
%LPD*%
M02*
