%TF.GenerationSoftware,KiCad,Pcbnew,9.0.2*%
%TF.CreationDate,2026-03-16T14:15:29+01:00*%
%TF.ProjectId,Communication_pcb_main,436f6d6d-756e-4696-9361-74696f6e5f70,rev?*%
%TF.SameCoordinates,Original*%
%TF.FileFunction,Legend,Top*%
%TF.FilePolarity,Positive*%
%FSLAX46Y46*%
G04 Gerber Fmt 4.6, Leading zero omitted, Abs format (unit mm)*
G04 Created by KiCad (PCBNEW 9.0.2) date 2026-03-16 14:15:29*
%MOMM*%
%LPD*%
G01*
G04 APERTURE LIST*
G04 Aperture macros list*
%AMRoundRect*
0 Rectangle with rounded corners*
0 $1 Rounding radius*
0 $2 $3 $4 $5 $6 $7 $8 $9 X,Y pos of 4 corners*
0 Add a 4 corners polygon primitive as box body*
4,1,4,$2,$3,$4,$5,$6,$7,$8,$9,$2,$3,0*
0 Add four circle primitives for the rounded corners*
1,1,$1+$1,$2,$3*
1,1,$1+$1,$4,$5*
1,1,$1+$1,$6,$7*
1,1,$1+$1,$8,$9*
0 Add four rect primitives between the rounded corners*
20,1,$1+$1,$2,$3,$4,$5,0*
20,1,$1+$1,$4,$5,$6,$7,0*
20,1,$1+$1,$6,$7,$8,$9,0*
20,1,$1+$1,$8,$9,$2,$3,0*%
%AMFreePoly0*
4,1,17,0.505355,0.395355,0.520000,0.360000,0.520000,-0.350000,0.505355,-0.385355,0.470000,-0.400000,-0.480000,-0.400000,-0.515355,-0.385355,-0.530000,-0.350000,-0.530000,-0.140000,-0.515355,-0.104645,-0.480000,-0.090000,0.220000,-0.090000,0.220000,0.360000,0.234645,0.395355,0.270000,0.410000,0.470000,0.410000,0.505355,0.395355,0.505355,0.395355,$1*%
%AMFreePoly1*
4,1,9,0.004619,0.001913,0.004619,-0.001913,0.001913,-0.004619,-0.001913,-0.004619,-0.004619,-0.001913,-0.004619,0.001913,-0.001913,0.004619,0.001913,0.004619,0.004619,0.001913,0.004619,0.001913,$1*%
%AMFreePoly2*
4,1,17,0.485355,0.395355,0.500000,0.360000,0.500000,-0.340000,0.485355,-0.375355,0.450000,-0.390000,0.250000,-0.390000,0.214645,-0.375355,0.200000,-0.340000,0.200000,0.100000,-0.450000,0.100000,-0.485355,0.114645,-0.500000,0.150000,-0.500000,0.360000,-0.485355,0.395355,-0.450000,0.410000,0.450000,0.410000,0.485355,0.395355,0.485355,0.395355,$1*%
%AMFreePoly3*
4,1,17,0.485355,0.395355,0.500000,0.360000,0.500000,0.150000,0.485355,0.114645,0.450000,0.100000,-0.200000,0.100000,-0.200000,-0.340000,-0.214645,-0.375355,-0.250000,-0.390000,-0.450000,-0.390000,-0.485355,-0.375355,-0.500000,-0.340000,-0.500000,0.360000,-0.485355,0.395355,-0.450000,0.410000,0.450000,0.410000,0.485355,0.395355,0.485355,0.395355,$1*%
%AMFreePoly4*
4,1,17,-0.244645,0.385355,-0.230000,0.350000,-0.230000,-0.100000,0.470000,-0.100000,0.505355,-0.114645,0.520000,-0.150000,0.520000,-0.350000,0.505355,-0.385355,0.470000,-0.400000,-0.480000,-0.400000,-0.515355,-0.385355,-0.530000,-0.350000,-0.530000,0.350000,-0.515355,0.385355,-0.480000,0.400000,-0.280000,0.400000,-0.244645,0.385355,-0.244645,0.385355,$1*%
G04 Aperture macros list end*
%ADD10C,0.125000*%
%ADD11C,0.150000*%
%ADD12C,0.300000*%
%ADD13C,0.250000*%
%ADD14C,0.120000*%
%ADD15C,0.400000*%
%ADD16C,0.130000*%
%ADD17C,0.260000*%
%ADD18R,1.200000X1.400000*%
%ADD19O,2.200000X0.610000*%
%ADD20R,1.100000X0.600000*%
%ADD21R,1.700000X1.700000*%
%ADD22O,1.800000X1.200000*%
%ADD23O,2.000000X1.100000*%
%ADD24R,1.100000X0.550000*%
%ADD25R,1.100000X0.300000*%
%ADD26C,0.700000*%
%ADD27RoundRect,0.150000X-0.590000X-0.150000X0.590000X-0.150000X0.590000X0.150000X-0.590000X0.150000X0*%
%ADD28RoundRect,0.159000X0.189000X-0.159000X0.189000X0.159000X-0.189000X0.159000X-0.189000X-0.159000X0*%
%ADD29RoundRect,0.159000X-0.189000X0.159000X-0.189000X-0.159000X0.189000X-0.159000X0.189000X0.159000X0*%
%ADD30RoundRect,0.159000X0.159000X0.189000X-0.159000X0.189000X-0.159000X-0.189000X0.159000X-0.189000X0*%
%ADD31RoundRect,0.266521X-0.671479X0.346479X-0.671479X-0.346479X0.671479X-0.346479X0.671479X0.346479X0*%
%ADD32RoundRect,0.159000X-0.159000X-0.189000X0.159000X-0.189000X0.159000X0.189000X-0.159000X0.189000X0*%
%ADD33R,1.000000X0.750000*%
%ADD34RoundRect,0.261500X-0.261500X-0.476500X0.261500X-0.476500X0.261500X0.476500X-0.261500X0.476500X0*%
%ADD35R,0.800000X0.400000*%
%ADD36R,0.400000X0.800000*%
%ADD37R,1.450000X1.450000*%
%ADD38R,0.700000X0.700000*%
%ADD39RoundRect,0.219000X-0.219000X-0.294000X0.219000X-0.294000X0.219000X0.294000X-0.219000X0.294000X0*%
%ADD40R,0.530000X1.050000*%
%ADD41O,2.000000X0.600000*%
%ADD42O,0.600000X2.000000*%
%ADD43R,2.100000X2.100000*%
%ADD44R,1.120000X0.900000*%
%ADD45R,0.900000X1.100000*%
%ADD46R,1.100000X0.900000*%
%ADD47RoundRect,0.219000X0.219000X0.294000X-0.219000X0.294000X-0.219000X-0.294000X0.219000X-0.294000X0*%
%ADD48RoundRect,0.267317X-0.280683X-0.470683X0.280683X-0.470683X0.280683X0.470683X-0.280683X0.470683X0*%
%ADD49R,1.360000X1.230000*%
%ADD50RoundRect,0.263396X0.949604X-0.434604X0.949604X0.434604X-0.949604X0.434604X-0.949604X-0.434604X0*%
%ADD51C,1.700000*%
%ADD52RoundRect,0.266521X0.671479X-0.346479X0.671479X0.346479X-0.671479X0.346479X-0.671479X-0.346479X0*%
%ADD53RoundRect,0.244000X-0.244000X-0.269000X0.244000X-0.269000X0.244000X0.269000X-0.244000X0.269000X0*%
%ADD54R,1.500000X3.200000*%
%ADD55R,1.250000X0.700000*%
%ADD56RoundRect,0.269000X0.494000X-0.269000X0.494000X0.269000X-0.494000X0.269000X-0.494000X-0.269000X0*%
%ADD57RoundRect,0.244000X0.244000X0.269000X-0.244000X0.269000X-0.244000X-0.269000X0.244000X-0.269000X0*%
%ADD58R,1.380000X1.130000*%
%ADD59R,1.000000X3.500000*%
%ADD60R,1.500000X3.500000*%
%ADD61R,0.700000X1.250000*%
%ADD62RoundRect,0.269000X-0.269000X-0.494000X0.269000X-0.494000X0.269000X0.494000X-0.269000X0.494000X0*%
%ADD63R,1.000000X1.050000*%
%ADD64R,1.050000X2.200000*%
%ADD65RoundRect,0.267317X-0.470683X0.280683X-0.470683X-0.280683X0.470683X-0.280683X0.470683X0.280683X0*%
%ADD66FreePoly0,0.000000*%
%ADD67FreePoly1,0.000000*%
%ADD68R,0.600000X0.200000*%
%ADD69FreePoly2,0.000000*%
%ADD70R,0.200000X0.600000*%
%ADD71FreePoly3,0.000000*%
%ADD72R,0.700000X0.200000*%
%ADD73R,0.650000X0.200000*%
%ADD74R,0.680000X0.200000*%
%ADD75FreePoly4,0.000000*%
%ADD76R,0.220000X1.000000*%
%ADD77R,0.220000X0.950000*%
%ADD78RoundRect,0.267317X0.280683X0.470683X-0.280683X0.470683X-0.280683X-0.470683X0.280683X-0.470683X0*%
%ADD79RoundRect,0.244000X0.269000X-0.244000X0.269000X0.244000X-0.269000X0.244000X-0.269000X-0.244000X0*%
%ADD80RoundRect,0.150000X0.150000X-0.590000X0.150000X0.590000X-0.150000X0.590000X-0.150000X-0.590000X0*%
%ADD81R,0.550000X0.350000*%
%ADD82RoundRect,0.261500X0.476500X-0.261500X0.476500X0.261500X-0.476500X0.261500X-0.476500X-0.261500X0*%
%ADD83RoundRect,0.219000X-0.294000X0.219000X-0.294000X-0.219000X0.294000X-0.219000X0.294000X0.219000X0*%
%ADD84RoundRect,0.244000X-0.269000X0.244000X-0.269000X-0.244000X0.269000X-0.244000X0.269000X0.244000X0*%
%ADD85R,1.300000X1.800000*%
%ADD86R,0.900000X1.200000*%
%ADD87RoundRect,0.150000X-0.150000X0.590000X-0.150000X-0.590000X0.150000X-0.590000X0.150000X0.590000X0*%
%ADD88O,2.050000X0.590000*%
G04 APERTURE END LIST*
D10*
X152990093Y-112036119D02*
X153609140Y-112036119D01*
X153609140Y-112036119D02*
X153275807Y-112417071D01*
X153275807Y-112417071D02*
X153418664Y-112417071D01*
X153418664Y-112417071D02*
X153513902Y-112464690D01*
X153513902Y-112464690D02*
X153561521Y-112512309D01*
X153561521Y-112512309D02*
X153609140Y-112607547D01*
X153609140Y-112607547D02*
X153609140Y-112845642D01*
X153609140Y-112845642D02*
X153561521Y-112940880D01*
X153561521Y-112940880D02*
X153513902Y-112988500D01*
X153513902Y-112988500D02*
X153418664Y-113036119D01*
X153418664Y-113036119D02*
X153132950Y-113036119D01*
X153132950Y-113036119D02*
X153037712Y-112988500D01*
X153037712Y-112988500D02*
X152990093Y-112940880D01*
X153990093Y-112750404D02*
X154466283Y-112750404D01*
X153894855Y-113036119D02*
X154228188Y-112036119D01*
X154228188Y-112036119D02*
X154561521Y-113036119D01*
X155609141Y-112988500D02*
X155751998Y-113036119D01*
X155751998Y-113036119D02*
X155990093Y-113036119D01*
X155990093Y-113036119D02*
X156085331Y-112988500D01*
X156085331Y-112988500D02*
X156132950Y-112940880D01*
X156132950Y-112940880D02*
X156180569Y-112845642D01*
X156180569Y-112845642D02*
X156180569Y-112750404D01*
X156180569Y-112750404D02*
X156132950Y-112655166D01*
X156132950Y-112655166D02*
X156085331Y-112607547D01*
X156085331Y-112607547D02*
X155990093Y-112559928D01*
X155990093Y-112559928D02*
X155799617Y-112512309D01*
X155799617Y-112512309D02*
X155704379Y-112464690D01*
X155704379Y-112464690D02*
X155656760Y-112417071D01*
X155656760Y-112417071D02*
X155609141Y-112321833D01*
X155609141Y-112321833D02*
X155609141Y-112226595D01*
X155609141Y-112226595D02*
X155656760Y-112131357D01*
X155656760Y-112131357D02*
X155704379Y-112083738D01*
X155704379Y-112083738D02*
X155799617Y-112036119D01*
X155799617Y-112036119D02*
X156037712Y-112036119D01*
X156037712Y-112036119D02*
X156180569Y-112083738D01*
X156751998Y-113036119D02*
X156656760Y-112988500D01*
X156656760Y-112988500D02*
X156609141Y-112940880D01*
X156609141Y-112940880D02*
X156561522Y-112845642D01*
X156561522Y-112845642D02*
X156561522Y-112559928D01*
X156561522Y-112559928D02*
X156609141Y-112464690D01*
X156609141Y-112464690D02*
X156656760Y-112417071D01*
X156656760Y-112417071D02*
X156751998Y-112369452D01*
X156751998Y-112369452D02*
X156894855Y-112369452D01*
X156894855Y-112369452D02*
X156990093Y-112417071D01*
X156990093Y-112417071D02*
X157037712Y-112464690D01*
X157037712Y-112464690D02*
X157085331Y-112559928D01*
X157085331Y-112559928D02*
X157085331Y-112845642D01*
X157085331Y-112845642D02*
X157037712Y-112940880D01*
X157037712Y-112940880D02*
X156990093Y-112988500D01*
X156990093Y-112988500D02*
X156894855Y-113036119D01*
X156894855Y-113036119D02*
X156751998Y-113036119D01*
X157656760Y-113036119D02*
X157561522Y-112988500D01*
X157561522Y-112988500D02*
X157513903Y-112893261D01*
X157513903Y-112893261D02*
X157513903Y-112036119D01*
X158466284Y-113036119D02*
X158466284Y-112512309D01*
X158466284Y-112512309D02*
X158418665Y-112417071D01*
X158418665Y-112417071D02*
X158323427Y-112369452D01*
X158323427Y-112369452D02*
X158132951Y-112369452D01*
X158132951Y-112369452D02*
X158037713Y-112417071D01*
X158466284Y-112988500D02*
X158371046Y-113036119D01*
X158371046Y-113036119D02*
X158132951Y-113036119D01*
X158132951Y-113036119D02*
X158037713Y-112988500D01*
X158037713Y-112988500D02*
X157990094Y-112893261D01*
X157990094Y-112893261D02*
X157990094Y-112798023D01*
X157990094Y-112798023D02*
X158037713Y-112702785D01*
X158037713Y-112702785D02*
X158132951Y-112655166D01*
X158132951Y-112655166D02*
X158371046Y-112655166D01*
X158371046Y-112655166D02*
X158466284Y-112607547D01*
X158942475Y-113036119D02*
X158942475Y-112369452D01*
X158942475Y-112559928D02*
X158990094Y-112464690D01*
X158990094Y-112464690D02*
X159037713Y-112417071D01*
X159037713Y-112417071D02*
X159132951Y-112369452D01*
X159132951Y-112369452D02*
X159228189Y-112369452D01*
X160275808Y-111988500D02*
X159418666Y-113274214D01*
X160609142Y-112036119D02*
X160609142Y-112845642D01*
X160609142Y-112845642D02*
X160656761Y-112940880D01*
X160656761Y-112940880D02*
X160704380Y-112988500D01*
X160704380Y-112988500D02*
X160799618Y-113036119D01*
X160799618Y-113036119D02*
X160990094Y-113036119D01*
X160990094Y-113036119D02*
X161085332Y-112988500D01*
X161085332Y-112988500D02*
X161132951Y-112940880D01*
X161132951Y-112940880D02*
X161180570Y-112845642D01*
X161180570Y-112845642D02*
X161180570Y-112036119D01*
X161609142Y-112988500D02*
X161751999Y-113036119D01*
X161751999Y-113036119D02*
X161990094Y-113036119D01*
X161990094Y-113036119D02*
X162085332Y-112988500D01*
X162085332Y-112988500D02*
X162132951Y-112940880D01*
X162132951Y-112940880D02*
X162180570Y-112845642D01*
X162180570Y-112845642D02*
X162180570Y-112750404D01*
X162180570Y-112750404D02*
X162132951Y-112655166D01*
X162132951Y-112655166D02*
X162085332Y-112607547D01*
X162085332Y-112607547D02*
X161990094Y-112559928D01*
X161990094Y-112559928D02*
X161799618Y-112512309D01*
X161799618Y-112512309D02*
X161704380Y-112464690D01*
X161704380Y-112464690D02*
X161656761Y-112417071D01*
X161656761Y-112417071D02*
X161609142Y-112321833D01*
X161609142Y-112321833D02*
X161609142Y-112226595D01*
X161609142Y-112226595D02*
X161656761Y-112131357D01*
X161656761Y-112131357D02*
X161704380Y-112083738D01*
X161704380Y-112083738D02*
X161799618Y-112036119D01*
X161799618Y-112036119D02*
X162037713Y-112036119D01*
X162037713Y-112036119D02*
X162180570Y-112083738D01*
X162942475Y-112512309D02*
X163085332Y-112559928D01*
X163085332Y-112559928D02*
X163132951Y-112607547D01*
X163132951Y-112607547D02*
X163180570Y-112702785D01*
X163180570Y-112702785D02*
X163180570Y-112845642D01*
X163180570Y-112845642D02*
X163132951Y-112940880D01*
X163132951Y-112940880D02*
X163085332Y-112988500D01*
X163085332Y-112988500D02*
X162990094Y-113036119D01*
X162990094Y-113036119D02*
X162609142Y-113036119D01*
X162609142Y-113036119D02*
X162609142Y-112036119D01*
X162609142Y-112036119D02*
X162942475Y-112036119D01*
X162942475Y-112036119D02*
X163037713Y-112083738D01*
X163037713Y-112083738D02*
X163085332Y-112131357D01*
X163085332Y-112131357D02*
X163132951Y-112226595D01*
X163132951Y-112226595D02*
X163132951Y-112321833D01*
X163132951Y-112321833D02*
X163085332Y-112417071D01*
X163085332Y-112417071D02*
X163037713Y-112464690D01*
X163037713Y-112464690D02*
X162942475Y-112512309D01*
X162942475Y-112512309D02*
X162609142Y-112512309D01*
X141085331Y-112612309D02*
X141418664Y-112612309D01*
X141561521Y-113136119D02*
X141085331Y-113136119D01*
X141085331Y-113136119D02*
X141085331Y-112136119D01*
X141085331Y-112136119D02*
X141561521Y-112136119D01*
X141990093Y-113040880D02*
X142037712Y-113088500D01*
X142037712Y-113088500D02*
X141990093Y-113136119D01*
X141990093Y-113136119D02*
X141942474Y-113088500D01*
X141942474Y-113088500D02*
X141990093Y-113040880D01*
X141990093Y-113040880D02*
X141990093Y-113136119D01*
X142371045Y-112136119D02*
X142609140Y-113136119D01*
X142609140Y-113136119D02*
X142799616Y-112421833D01*
X142799616Y-112421833D02*
X142990092Y-113136119D01*
X142990092Y-113136119D02*
X143228188Y-112136119D01*
X143990092Y-113088500D02*
X143894854Y-113136119D01*
X143894854Y-113136119D02*
X143704378Y-113136119D01*
X143704378Y-113136119D02*
X143609140Y-113088500D01*
X143609140Y-113088500D02*
X143561521Y-112993261D01*
X143561521Y-112993261D02*
X143561521Y-112612309D01*
X143561521Y-112612309D02*
X143609140Y-112517071D01*
X143609140Y-112517071D02*
X143704378Y-112469452D01*
X143704378Y-112469452D02*
X143894854Y-112469452D01*
X143894854Y-112469452D02*
X143990092Y-112517071D01*
X143990092Y-112517071D02*
X144037711Y-112612309D01*
X144037711Y-112612309D02*
X144037711Y-112707547D01*
X144037711Y-112707547D02*
X143561521Y-112802785D01*
X144466283Y-113136119D02*
X144466283Y-112136119D01*
X144466283Y-112517071D02*
X144561521Y-112469452D01*
X144561521Y-112469452D02*
X144751997Y-112469452D01*
X144751997Y-112469452D02*
X144847235Y-112517071D01*
X144847235Y-112517071D02*
X144894854Y-112564690D01*
X144894854Y-112564690D02*
X144942473Y-112659928D01*
X144942473Y-112659928D02*
X144942473Y-112945642D01*
X144942473Y-112945642D02*
X144894854Y-113040880D01*
X144894854Y-113040880D02*
X144847235Y-113088500D01*
X144847235Y-113088500D02*
X144751997Y-113136119D01*
X144751997Y-113136119D02*
X144561521Y-113136119D01*
X144561521Y-113136119D02*
X144466283Y-113088500D01*
X145751997Y-113088500D02*
X145656759Y-113136119D01*
X145656759Y-113136119D02*
X145466283Y-113136119D01*
X145466283Y-113136119D02*
X145371045Y-113088500D01*
X145371045Y-113088500D02*
X145323426Y-112993261D01*
X145323426Y-112993261D02*
X145323426Y-112612309D01*
X145323426Y-112612309D02*
X145371045Y-112517071D01*
X145371045Y-112517071D02*
X145466283Y-112469452D01*
X145466283Y-112469452D02*
X145656759Y-112469452D01*
X145656759Y-112469452D02*
X145751997Y-112517071D01*
X145751997Y-112517071D02*
X145799616Y-112612309D01*
X145799616Y-112612309D02*
X145799616Y-112707547D01*
X145799616Y-112707547D02*
X145323426Y-112802785D01*
X146228188Y-113136119D02*
X146228188Y-112469452D01*
X146228188Y-112659928D02*
X146275807Y-112564690D01*
X146275807Y-112564690D02*
X146323426Y-112517071D01*
X146323426Y-112517071D02*
X146418664Y-112469452D01*
X146418664Y-112469452D02*
X146513902Y-112469452D01*
D11*
X133654819Y-115490475D02*
X132654819Y-115490475D01*
X132654819Y-115490475D02*
X132654819Y-115252380D01*
X132654819Y-115252380D02*
X132702438Y-115109523D01*
X132702438Y-115109523D02*
X132797676Y-115014285D01*
X132797676Y-115014285D02*
X132892914Y-114966666D01*
X132892914Y-114966666D02*
X133083390Y-114919047D01*
X133083390Y-114919047D02*
X133226247Y-114919047D01*
X133226247Y-114919047D02*
X133416723Y-114966666D01*
X133416723Y-114966666D02*
X133511961Y-115014285D01*
X133511961Y-115014285D02*
X133607200Y-115109523D01*
X133607200Y-115109523D02*
X133654819Y-115252380D01*
X133654819Y-115252380D02*
X133654819Y-115490475D01*
X132750057Y-114538094D02*
X132702438Y-114490475D01*
X132702438Y-114490475D02*
X132654819Y-114395237D01*
X132654819Y-114395237D02*
X132654819Y-114157142D01*
X132654819Y-114157142D02*
X132702438Y-114061904D01*
X132702438Y-114061904D02*
X132750057Y-114014285D01*
X132750057Y-114014285D02*
X132845295Y-113966666D01*
X132845295Y-113966666D02*
X132940533Y-113966666D01*
X132940533Y-113966666D02*
X133083390Y-114014285D01*
X133083390Y-114014285D02*
X133654819Y-114585713D01*
X133654819Y-114585713D02*
X133654819Y-113966666D01*
X133654819Y-113014285D02*
X133654819Y-113585713D01*
X133654819Y-113299999D02*
X132654819Y-113299999D01*
X132654819Y-113299999D02*
X132797676Y-113395237D01*
X132797676Y-113395237D02*
X132892914Y-113490475D01*
X132892914Y-113490475D02*
X132940533Y-113585713D01*
X132654819Y-112395237D02*
X132654819Y-112299999D01*
X132654819Y-112299999D02*
X132702438Y-112204761D01*
X132702438Y-112204761D02*
X132750057Y-112157142D01*
X132750057Y-112157142D02*
X132845295Y-112109523D01*
X132845295Y-112109523D02*
X133035771Y-112061904D01*
X133035771Y-112061904D02*
X133273866Y-112061904D01*
X133273866Y-112061904D02*
X133464342Y-112109523D01*
X133464342Y-112109523D02*
X133559580Y-112157142D01*
X133559580Y-112157142D02*
X133607200Y-112204761D01*
X133607200Y-112204761D02*
X133654819Y-112299999D01*
X133654819Y-112299999D02*
X133654819Y-112395237D01*
X133654819Y-112395237D02*
X133607200Y-112490475D01*
X133607200Y-112490475D02*
X133559580Y-112538094D01*
X133559580Y-112538094D02*
X133464342Y-112585713D01*
X133464342Y-112585713D02*
X133273866Y-112633332D01*
X133273866Y-112633332D02*
X133035771Y-112633332D01*
X133035771Y-112633332D02*
X132845295Y-112585713D01*
X132845295Y-112585713D02*
X132750057Y-112538094D01*
X132750057Y-112538094D02*
X132702438Y-112490475D01*
X132702438Y-112490475D02*
X132654819Y-112395237D01*
X129465714Y-66654819D02*
X129465714Y-67464342D01*
X129465714Y-67464342D02*
X129513333Y-67559580D01*
X129513333Y-67559580D02*
X129560952Y-67607200D01*
X129560952Y-67607200D02*
X129656190Y-67654819D01*
X129656190Y-67654819D02*
X129846666Y-67654819D01*
X129846666Y-67654819D02*
X129941904Y-67607200D01*
X129941904Y-67607200D02*
X129989523Y-67559580D01*
X129989523Y-67559580D02*
X130037142Y-67464342D01*
X130037142Y-67464342D02*
X130037142Y-66654819D01*
X130941904Y-66988152D02*
X130941904Y-67654819D01*
X130703809Y-66607200D02*
X130465714Y-67321485D01*
X130465714Y-67321485D02*
X131084761Y-67321485D01*
X131656190Y-66654819D02*
X131751428Y-66654819D01*
X131751428Y-66654819D02*
X131846666Y-66702438D01*
X131846666Y-66702438D02*
X131894285Y-66750057D01*
X131894285Y-66750057D02*
X131941904Y-66845295D01*
X131941904Y-66845295D02*
X131989523Y-67035771D01*
X131989523Y-67035771D02*
X131989523Y-67273866D01*
X131989523Y-67273866D02*
X131941904Y-67464342D01*
X131941904Y-67464342D02*
X131894285Y-67559580D01*
X131894285Y-67559580D02*
X131846666Y-67607200D01*
X131846666Y-67607200D02*
X131751428Y-67654819D01*
X131751428Y-67654819D02*
X131656190Y-67654819D01*
X131656190Y-67654819D02*
X131560952Y-67607200D01*
X131560952Y-67607200D02*
X131513333Y-67559580D01*
X131513333Y-67559580D02*
X131465714Y-67464342D01*
X131465714Y-67464342D02*
X131418095Y-67273866D01*
X131418095Y-67273866D02*
X131418095Y-67035771D01*
X131418095Y-67035771D02*
X131465714Y-66845295D01*
X131465714Y-66845295D02*
X131513333Y-66750057D01*
X131513333Y-66750057D02*
X131560952Y-66702438D01*
X131560952Y-66702438D02*
X131656190Y-66654819D01*
X132894285Y-66654819D02*
X132418095Y-66654819D01*
X132418095Y-66654819D02*
X132370476Y-67131009D01*
X132370476Y-67131009D02*
X132418095Y-67083390D01*
X132418095Y-67083390D02*
X132513333Y-67035771D01*
X132513333Y-67035771D02*
X132751428Y-67035771D01*
X132751428Y-67035771D02*
X132846666Y-67083390D01*
X132846666Y-67083390D02*
X132894285Y-67131009D01*
X132894285Y-67131009D02*
X132941904Y-67226247D01*
X132941904Y-67226247D02*
X132941904Y-67464342D01*
X132941904Y-67464342D02*
X132894285Y-67559580D01*
X132894285Y-67559580D02*
X132846666Y-67607200D01*
X132846666Y-67607200D02*
X132751428Y-67654819D01*
X132751428Y-67654819D02*
X132513333Y-67654819D01*
X132513333Y-67654819D02*
X132418095Y-67607200D01*
X132418095Y-67607200D02*
X132370476Y-67559580D01*
X119414285Y-63099819D02*
X119414285Y-63814104D01*
X119414285Y-63814104D02*
X119366666Y-63956961D01*
X119366666Y-63956961D02*
X119271428Y-64052200D01*
X119271428Y-64052200D02*
X119128571Y-64099819D01*
X119128571Y-64099819D02*
X119033333Y-64099819D01*
X120319047Y-63433152D02*
X120319047Y-64099819D01*
X120080952Y-63052200D02*
X119842857Y-63766485D01*
X119842857Y-63766485D02*
X120461904Y-63766485D01*
X121033333Y-63099819D02*
X121128571Y-63099819D01*
X121128571Y-63099819D02*
X121223809Y-63147438D01*
X121223809Y-63147438D02*
X121271428Y-63195057D01*
X121271428Y-63195057D02*
X121319047Y-63290295D01*
X121319047Y-63290295D02*
X121366666Y-63480771D01*
X121366666Y-63480771D02*
X121366666Y-63718866D01*
X121366666Y-63718866D02*
X121319047Y-63909342D01*
X121319047Y-63909342D02*
X121271428Y-64004580D01*
X121271428Y-64004580D02*
X121223809Y-64052200D01*
X121223809Y-64052200D02*
X121128571Y-64099819D01*
X121128571Y-64099819D02*
X121033333Y-64099819D01*
X121033333Y-64099819D02*
X120938095Y-64052200D01*
X120938095Y-64052200D02*
X120890476Y-64004580D01*
X120890476Y-64004580D02*
X120842857Y-63909342D01*
X120842857Y-63909342D02*
X120795238Y-63718866D01*
X120795238Y-63718866D02*
X120795238Y-63480771D01*
X120795238Y-63480771D02*
X120842857Y-63290295D01*
X120842857Y-63290295D02*
X120890476Y-63195057D01*
X120890476Y-63195057D02*
X120938095Y-63147438D01*
X120938095Y-63147438D02*
X121033333Y-63099819D01*
X121700000Y-63099819D02*
X122319047Y-63099819D01*
X122319047Y-63099819D02*
X121985714Y-63480771D01*
X121985714Y-63480771D02*
X122128571Y-63480771D01*
X122128571Y-63480771D02*
X122223809Y-63528390D01*
X122223809Y-63528390D02*
X122271428Y-63576009D01*
X122271428Y-63576009D02*
X122319047Y-63671247D01*
X122319047Y-63671247D02*
X122319047Y-63909342D01*
X122319047Y-63909342D02*
X122271428Y-64004580D01*
X122271428Y-64004580D02*
X122223809Y-64052200D01*
X122223809Y-64052200D02*
X122128571Y-64099819D01*
X122128571Y-64099819D02*
X121842857Y-64099819D01*
X121842857Y-64099819D02*
X121747619Y-64052200D01*
X121747619Y-64052200D02*
X121700000Y-64004580D01*
%TO.C,D210*%
X128470000Y-112420000D02*
X128270000Y-112420000D01*
X130120000Y-112420000D02*
X129930000Y-112420000D01*
X130130000Y-115180000D02*
X129930000Y-115180000D01*
X129180000Y-113800000D02*
X129690000Y-113290000D01*
X129690000Y-113290000D02*
X128680000Y-113290000D01*
X129180000Y-113800000D02*
X128680000Y-113290000D01*
X128930000Y-113800000D02*
X129440000Y-113800000D01*
X129180000Y-113800000D02*
X128680000Y-114310000D01*
X128680000Y-114310000D02*
X129690000Y-114310000D01*
X129180000Y-113800000D02*
X129690000Y-114310000D01*
X129690000Y-113800000D02*
X128680000Y-113800000D01*
X129180000Y-113040000D02*
X129180000Y-114560000D01*
X128270000Y-112420000D02*
X128270000Y-115180000D01*
X130130000Y-112420000D02*
X130130000Y-115180000D01*
X128270000Y-115180000D02*
X128470000Y-115180000D01*
%TO.C,U602*%
X126910000Y-90890000D02*
X122490000Y-90890000D01*
X122490000Y-90890000D02*
X122490000Y-85510000D01*
X122490000Y-85510000D02*
X126910000Y-85510000D01*
X126910000Y-85510000D02*
X126910000Y-90890000D01*
D12*
X126310000Y-90110000D02*
G75*
G02*
X126010000Y-90110000I-150000J0D01*
G01*
X126010000Y-90110000D02*
G75*
G02*
X126310000Y-90110000I150000J0D01*
G01*
X128390000Y-90860000D02*
G75*
G02*
X128090000Y-90860000I-150000J0D01*
G01*
X128090000Y-90860000D02*
G75*
G02*
X128390000Y-90860000I150000J0D01*
G01*
D13*
%TO.C,TV402*%
X122050000Y-105800000D02*
X123850000Y-105800000D01*
X122050000Y-108900000D02*
X123850000Y-108900000D01*
X124480000Y-109000000D02*
G75*
G02*
X124220000Y-109000000I-130000J0D01*
G01*
X124220000Y-109000000D02*
G75*
G02*
X124480000Y-109000000I130000J0D01*
G01*
%TO.C,TV401*%
X156980000Y-107400000D02*
G75*
G02*
X156720000Y-107400000I-130000J0D01*
G01*
X156720000Y-107400000D02*
G75*
G02*
X156980000Y-107400000I130000J0D01*
G01*
X154550000Y-107300000D02*
X156350000Y-107300000D01*
X154550000Y-104200000D02*
X156350000Y-104200000D01*
D14*
%TO.C,J209*%
X163745000Y-135135000D02*
X163745000Y-135245000D01*
X160985000Y-135245000D02*
X163745000Y-135245000D01*
X160985000Y-135135000D02*
X163745000Y-135135000D01*
X160985000Y-135135000D02*
X160985000Y-135245000D01*
X160985000Y-133865000D02*
X160985000Y-132485000D01*
X160985000Y-132485000D02*
X162365000Y-132485000D01*
%TO.C,J208*%
X161145000Y-135135000D02*
X161145000Y-135245000D01*
X158385000Y-135245000D02*
X161145000Y-135245000D01*
X158385000Y-135135000D02*
X161145000Y-135135000D01*
X158385000Y-135135000D02*
X158385000Y-135245000D01*
X158385000Y-133865000D02*
X158385000Y-132485000D01*
X158385000Y-132485000D02*
X159765000Y-132485000D01*
%TO.C,J207*%
X166445000Y-125935000D02*
X166445000Y-126045000D01*
X163685000Y-126045000D02*
X166445000Y-126045000D01*
X163685000Y-125935000D02*
X166445000Y-125935000D01*
X163685000Y-125935000D02*
X163685000Y-126045000D01*
X163685000Y-124665000D02*
X163685000Y-123285000D01*
X163685000Y-123285000D02*
X165065000Y-123285000D01*
D13*
%TO.C,J201*%
X125157500Y-130975000D02*
X127147500Y-130975000D01*
X125157500Y-121905000D02*
X127147500Y-121905000D01*
X121727500Y-130975000D02*
X123197500Y-130975000D01*
X121577500Y-130905000D02*
X121577500Y-121905000D01*
X121577500Y-121905000D02*
X123197500Y-121905000D01*
D11*
%TO.C,Q406*%
X164660000Y-73840000D02*
X164010000Y-73840000D01*
X164660000Y-73840000D02*
X165310000Y-73840000D01*
X164660000Y-76960000D02*
X164010000Y-76960000D01*
X164660000Y-76960000D02*
X165310000Y-76960000D01*
D14*
X163497500Y-73890000D02*
X163257500Y-73560000D01*
X163737500Y-73560000D01*
X163497500Y-73890000D01*
G36*
X163497500Y-73890000D02*
G01*
X163257500Y-73560000D01*
X163737500Y-73560000D01*
X163497500Y-73890000D01*
G37*
D11*
%TO.C,D204*%
X134905000Y-114435000D02*
X134905000Y-114645000D01*
X134905000Y-115895000D02*
X134905000Y-115695000D01*
X136255000Y-115895000D02*
X136255000Y-114435000D01*
X136665000Y-114435000D02*
X134905000Y-114435000D01*
X136665000Y-115895000D02*
X134905000Y-115895000D01*
%TO.C,D201*%
X138875000Y-124835000D02*
X138875000Y-126755000D01*
X138875000Y-126755000D02*
X141565000Y-126755000D01*
X141565000Y-124835000D02*
X138875000Y-124835000D01*
D13*
%TO.C,U405*%
X124570000Y-70310000D02*
X137780000Y-70310000D01*
D15*
X124010000Y-72090000D02*
G75*
G02*
X123610000Y-72090000I-200000J0D01*
G01*
X123610000Y-72090000D02*
G75*
G02*
X124010000Y-72090000I200000J0D01*
G01*
D11*
%TO.C,U603*%
X120150000Y-100050000D02*
X120150000Y-98250000D01*
X122160000Y-98250000D02*
X121240000Y-98250000D01*
X123250000Y-100050000D02*
X123250000Y-98250000D01*
D12*
X120180000Y-100450000D02*
G75*
G02*
X119880000Y-100450000I-150000J0D01*
G01*
X119880000Y-100450000D02*
G75*
G02*
X120180000Y-100450000I150000J0D01*
G01*
D13*
%TO.C,U402*%
X141100000Y-78100000D02*
X141100000Y-81950000D01*
X141500000Y-78500000D02*
X141970000Y-78500000D01*
X141500000Y-81970000D02*
X141500000Y-78500000D01*
X141500000Y-102500000D02*
X141500000Y-99030000D01*
X141950000Y-78100000D02*
X141100000Y-78100000D01*
X141970000Y-102500000D02*
X141500000Y-102500000D01*
X142900000Y-82400000D02*
X143450000Y-81850000D01*
X143450000Y-81850000D02*
X143650000Y-81650000D01*
X143650000Y-81650000D02*
X143650000Y-83100000D01*
X143650000Y-83100000D02*
X142900000Y-82400000D01*
X165030000Y-78500000D02*
X165500000Y-78500000D01*
X165500000Y-78500000D02*
X165500000Y-81970000D01*
X165500000Y-99030000D02*
X165500000Y-102500000D01*
X165500000Y-102500000D02*
X165030000Y-102500000D01*
D11*
%TO.C,SW603*%
X141160000Y-65970000D02*
X141160000Y-70030000D01*
X141160000Y-70030000D02*
X141820000Y-70030000D01*
X144240000Y-65970000D02*
X144240000Y-70030000D01*
X144240000Y-70030000D02*
X143580000Y-70030000D01*
D13*
X143600000Y-68000000D02*
G75*
G02*
X141800000Y-68000000I-900000J0D01*
G01*
X141800000Y-68000000D02*
G75*
G02*
X143600000Y-68000000I900000J0D01*
G01*
D11*
%TO.C,D203*%
X133555000Y-124985000D02*
X133555000Y-125195000D01*
X133555000Y-126445000D02*
X133555000Y-126245000D01*
X134905000Y-126445000D02*
X134905000Y-124985000D01*
X135315000Y-124985000D02*
X133555000Y-124985000D01*
X135315000Y-126445000D02*
X133555000Y-126445000D01*
%TO.C,C410*%
X157690000Y-70850000D02*
X157690000Y-75060000D01*
X157690000Y-75060000D02*
X160710000Y-75060000D01*
X160710000Y-75060000D02*
X160710000Y-70850000D01*
D14*
%TO.C,J204*%
X126765000Y-135965000D02*
X126765000Y-134585000D01*
X128145000Y-135965000D02*
X126765000Y-135965000D01*
X129415000Y-133205000D02*
X137145000Y-133205000D01*
X129415000Y-135965000D02*
X129415000Y-133205000D01*
X129415000Y-135965000D02*
X137145000Y-135965000D01*
X137145000Y-135965000D02*
X137145000Y-133205000D01*
%TO.C,J205*%
X123735000Y-115995000D02*
X123735000Y-118595000D01*
X123735000Y-115995000D02*
X126395000Y-115995000D01*
X123735000Y-118595000D02*
X126395000Y-118595000D01*
X125065000Y-113395000D02*
X126395000Y-113395000D01*
X126395000Y-113395000D02*
X126395000Y-114725000D01*
X126395000Y-115995000D02*
X126395000Y-118595000D01*
D11*
%TO.C,L201*%
X150405000Y-111795000D02*
X150805000Y-111795000D01*
X150805000Y-114795000D02*
X150405000Y-114795000D01*
%TO.C,Q201*%
X130785000Y-119535000D02*
X130785000Y-120575000D01*
X130785000Y-122595000D02*
X130785000Y-121555000D01*
X132245000Y-119535000D02*
X130785000Y-119535000D01*
X132245000Y-120605000D02*
X132245000Y-121525000D01*
X132245000Y-122595000D02*
X130785000Y-122595000D01*
D14*
%TO.C,J206*%
X163310000Y-115775000D02*
X163310000Y-118375000D01*
X163310000Y-115775000D02*
X165970000Y-115775000D01*
X163310000Y-118375000D02*
X165970000Y-118375000D01*
X164640000Y-113175000D02*
X165970000Y-113175000D01*
X165970000Y-113175000D02*
X165970000Y-114505000D01*
X165970000Y-115775000D02*
X165970000Y-118375000D01*
D13*
%TO.C,L401*%
X162380000Y-69746282D02*
X162380000Y-71016282D01*
X162380000Y-71776282D02*
X162380000Y-72916282D01*
X162380000Y-72916282D02*
X162380000Y-73046282D01*
X162380000Y-73046282D02*
X162640000Y-73306282D01*
X162640000Y-69496282D02*
X162380000Y-69746282D01*
X162640000Y-73306282D02*
X164030000Y-73306282D01*
X162760000Y-69496282D02*
X162640000Y-69496282D01*
X164030000Y-73306282D02*
X164160000Y-73306282D01*
X164160000Y-69496282D02*
X162760000Y-69496282D01*
X164160000Y-73306282D02*
X164420000Y-73046282D01*
X164420000Y-69746282D02*
X164160000Y-69496282D01*
X164420000Y-69876282D02*
X164420000Y-69746282D01*
X164420000Y-71016282D02*
X164420000Y-69876282D01*
X164420000Y-73046282D02*
X164420000Y-71776282D01*
%TO.C,J202*%
X155885000Y-127855000D02*
X156835000Y-127855000D01*
X155885000Y-131945000D02*
X155885000Y-127855000D01*
X156835000Y-127855000D02*
X156835000Y-129355000D01*
X156835000Y-129355000D02*
X158155000Y-129355000D01*
X158155000Y-129355000D02*
X158205000Y-129355000D01*
X159665000Y-129355000D02*
X160205000Y-129355000D01*
X160095000Y-135525000D02*
X164305000Y-135525000D01*
X161665000Y-129355000D02*
X162205000Y-129355000D01*
X164065000Y-135525000D02*
X157565000Y-135525000D01*
X164985000Y-127855000D02*
X164985000Y-129355000D01*
X164985000Y-129355000D02*
X163665000Y-129355000D01*
X165935000Y-127855000D02*
X164985000Y-127855000D01*
X165935000Y-127855000D02*
X165935000Y-131845000D01*
X157825000Y-127235000D02*
G75*
G02*
X157565000Y-127235000I-130000J0D01*
G01*
X157565000Y-127235000D02*
G75*
G02*
X157825000Y-127235000I130000J0D01*
G01*
D11*
%TO.C,Q204*%
X161385000Y-120785000D02*
X161385000Y-122245000D01*
X161385000Y-122245000D02*
X162425000Y-122245000D01*
X162455000Y-120785000D02*
X163375000Y-120785000D01*
X164445000Y-120785000D02*
X164445000Y-122245000D01*
X164445000Y-122245000D02*
X163405000Y-122245000D01*
%TO.C,Q203*%
X130885000Y-114435000D02*
X130885000Y-115475000D01*
X130885000Y-117495000D02*
X130885000Y-116455000D01*
X132345000Y-114435000D02*
X130885000Y-114435000D01*
X132345000Y-115505000D02*
X132345000Y-116425000D01*
X132345000Y-117495000D02*
X130885000Y-117495000D01*
D16*
%TO.C,U401*%
X148600000Y-65260000D02*
X151200000Y-65260000D01*
X148600000Y-65290000D02*
X148600000Y-65260000D01*
X148600000Y-67860000D02*
X148600000Y-67820000D01*
X149230000Y-67860000D02*
X148600000Y-67860000D01*
X151200000Y-65260000D02*
X151200000Y-65290000D01*
X151200000Y-67820000D02*
X151200000Y-67860000D01*
X151200000Y-67860000D02*
X150570000Y-67860000D01*
D11*
%TO.C,U202*%
X148665000Y-119525000D02*
X148985000Y-119525000D01*
X148665000Y-119635000D02*
X148665000Y-119545000D01*
X148665000Y-123515000D02*
X148665000Y-123405000D01*
X148935000Y-123515000D02*
X148665000Y-123515000D01*
X152345000Y-119525000D02*
X152665000Y-119525000D01*
X152665000Y-119525000D02*
X152665000Y-119635000D01*
X152665000Y-123405000D02*
X152665000Y-123515000D01*
X152665000Y-123515000D02*
X152395000Y-123515000D01*
D17*
X148185000Y-119555000D02*
G75*
G02*
X147925000Y-119555000I-130000J0D01*
G01*
X147925000Y-119555000D02*
G75*
G02*
X148185000Y-119555000I130000J0D01*
G01*
D14*
%TO.C,J403*%
X119320000Y-64645000D02*
X120700000Y-64645000D01*
X119320000Y-66025000D02*
X119320000Y-64645000D01*
X119320000Y-67295000D02*
X119320000Y-69945000D01*
X119320000Y-67295000D02*
X122080000Y-67295000D01*
X119320000Y-69945000D02*
X122080000Y-69945000D01*
X122080000Y-67295000D02*
X122080000Y-69945000D01*
D11*
%TO.C,C401*%
X154290000Y-70850000D02*
X154290000Y-75060000D01*
X154290000Y-75060000D02*
X157310000Y-75060000D01*
X157310000Y-75060000D02*
X157310000Y-70850000D01*
%TO.C,Q402*%
X144220000Y-73360000D02*
X144220000Y-72710000D01*
X144220000Y-73360000D02*
X144220000Y-74010000D01*
X147340000Y-73360000D02*
X147340000Y-72710000D01*
X147340000Y-73360000D02*
X147340000Y-74010000D01*
D14*
X144270000Y-74522500D02*
X143940000Y-74762500D01*
X143940000Y-74282500D01*
X144270000Y-74522500D01*
G36*
X144270000Y-74522500D02*
G01*
X143940000Y-74762500D01*
X143940000Y-74282500D01*
X144270000Y-74522500D01*
G37*
D11*
%TO.C,U404*%
X161080000Y-71170000D02*
X161180000Y-71070000D01*
X161080000Y-71200000D02*
X161080000Y-71170000D01*
X161080000Y-71680000D02*
X161080000Y-71200000D01*
X161100000Y-72460000D02*
X161100000Y-71930000D01*
X161170000Y-72530000D02*
X161100000Y-72460000D01*
X161180000Y-71070000D02*
X161920000Y-71070000D01*
X161190000Y-70890000D02*
X161950000Y-70890000D01*
X161280000Y-72530000D02*
X161170000Y-72530000D01*
X161920000Y-71070000D02*
X162030000Y-71070000D01*
X162010000Y-72710000D02*
X161250000Y-72710000D01*
X162020000Y-72530000D02*
X161280000Y-72530000D01*
X162030000Y-71070000D02*
X162100000Y-71140000D01*
X162100000Y-71140000D02*
X162100000Y-71670000D01*
X162120000Y-71920000D02*
X162120000Y-72400000D01*
X162120000Y-72400000D02*
X162120000Y-72430000D01*
X162120000Y-72430000D02*
X162020000Y-72530000D01*
%TO.C,Q401*%
X158040000Y-66690000D02*
X157390000Y-66690000D01*
X158040000Y-66690000D02*
X158690000Y-66690000D01*
X158040000Y-69810000D02*
X157390000Y-69810000D01*
X158040000Y-69810000D02*
X158690000Y-69810000D01*
D14*
X156877500Y-66740000D02*
X156637500Y-66410000D01*
X157117500Y-66410000D01*
X156877500Y-66740000D01*
G36*
X156877500Y-66740000D02*
G01*
X156637500Y-66410000D01*
X157117500Y-66410000D01*
X156877500Y-66740000D01*
G37*
D11*
%TO.C,Q206*%
X134635000Y-121435000D02*
X136095000Y-121435000D01*
X134635000Y-123425000D02*
X134635000Y-122505000D01*
X134635000Y-124495000D02*
X136095000Y-124495000D01*
X136095000Y-121435000D02*
X136095000Y-122475000D01*
X136095000Y-124495000D02*
X136095000Y-123455000D01*
%TO.C,D402*%
X164640000Y-69960000D02*
X164640000Y-72650000D01*
X164640000Y-72650000D02*
X166560000Y-72650000D01*
X166560000Y-72650000D02*
X166560000Y-69960000D01*
%TO.C,Q403*%
X147720000Y-73360000D02*
X147720000Y-72710000D01*
X147720000Y-73360000D02*
X147720000Y-74010000D01*
X150840000Y-73360000D02*
X150840000Y-72710000D01*
X150840000Y-73360000D02*
X150840000Y-74010000D01*
D14*
X147770000Y-74522500D02*
X147440000Y-74762500D01*
X147440000Y-74282500D01*
X147770000Y-74522500D01*
G36*
X147770000Y-74522500D02*
G01*
X147440000Y-74762500D01*
X147440000Y-74282500D01*
X147770000Y-74522500D01*
G37*
D13*
%TO.C,Card401*%
X127530000Y-100370000D02*
X127530000Y-93830000D01*
X127530000Y-102940000D02*
X127530000Y-102630000D01*
X127530000Y-105810000D02*
X127530000Y-102940000D01*
X129230000Y-104310000D02*
X129230000Y-105810000D01*
X129230000Y-105810000D02*
X127530000Y-105810000D01*
X130470000Y-95520000D02*
X136450000Y-95520000D01*
X136450000Y-97340000D02*
X130470000Y-97340000D01*
X137230000Y-104310000D02*
X129230000Y-104310000D01*
X137230000Y-105810000D02*
X137230000Y-104310000D01*
X137230000Y-105810000D02*
X139130000Y-105810000D01*
X139180000Y-91710000D02*
X127480000Y-91710000D01*
X139180000Y-100370000D02*
X139180000Y-93830000D01*
X139180000Y-102940000D02*
X139180000Y-102630000D01*
X139180000Y-102940000D02*
X139180000Y-105810000D01*
X130470000Y-97340000D02*
G75*
G02*
X130470000Y-95520000I0J910000D01*
G01*
X136450000Y-95530000D02*
G75*
G02*
X136450000Y-97350000I0J-910000D01*
G01*
X130880000Y-93310000D02*
G75*
G02*
X129320000Y-93310000I-780000J0D01*
G01*
X129320000Y-93310000D02*
G75*
G02*
X130880000Y-93310000I780000J0D01*
G01*
X134000000Y-93310000D02*
G75*
G02*
X132440000Y-93310000I-780000J0D01*
G01*
X132440000Y-93310000D02*
G75*
G02*
X134000000Y-93310000I780000J0D01*
G01*
X137360000Y-93310000D02*
G75*
G02*
X135800000Y-93310000I-780000J0D01*
G01*
X135800000Y-93310000D02*
G75*
G02*
X137360000Y-93310000I780000J0D01*
G01*
D11*
%TO.C,Q404*%
X161740000Y-67260000D02*
X161740000Y-66610000D01*
X161740000Y-67260000D02*
X161740000Y-67910000D01*
X164860000Y-67260000D02*
X164860000Y-66610000D01*
X164860000Y-67260000D02*
X164860000Y-67910000D01*
D14*
X165140000Y-66337500D02*
X164810000Y-66097500D01*
X165140000Y-65857500D01*
X165140000Y-66337500D01*
G36*
X165140000Y-66337500D02*
G01*
X164810000Y-66097500D01*
X165140000Y-65857500D01*
X165140000Y-66337500D01*
G37*
D11*
%TO.C,Q202*%
X134985000Y-116385000D02*
X136445000Y-116385000D01*
X134985000Y-118375000D02*
X134985000Y-117455000D01*
X134985000Y-119445000D02*
X136445000Y-119445000D01*
X136445000Y-116385000D02*
X136445000Y-117425000D01*
X136445000Y-119445000D02*
X136445000Y-118405000D01*
%TO.C,U604*%
X133780000Y-86097500D02*
X136820000Y-86097500D01*
X133780000Y-91157500D02*
X133780000Y-86097500D01*
X136820000Y-86097500D02*
X136820000Y-91157500D01*
X136820000Y-91157500D02*
X133780000Y-91157500D01*
D12*
X136220000Y-90537500D02*
G75*
G02*
X135920000Y-90537500I-150000J0D01*
G01*
X135920000Y-90537500D02*
G75*
G02*
X136220000Y-90537500I150000J0D01*
G01*
X138220000Y-91277500D02*
G75*
G02*
X137920000Y-91277500I-150000J0D01*
G01*
X137920000Y-91277500D02*
G75*
G02*
X138220000Y-91277500I150000J0D01*
G01*
%TD*%
%LPC*%
D18*
%TO.C,D210*%
X129200000Y-112060000D03*
X129200000Y-115540000D03*
%TD*%
D19*
%TO.C,U602*%
X128240000Y-90110000D03*
X128240000Y-88830000D03*
X128240000Y-87570000D03*
X128240000Y-86300000D03*
X121160000Y-90110000D03*
X121160000Y-88830000D03*
X121160000Y-87570000D03*
X121160000Y-86300000D03*
%TD*%
D20*
%TO.C,TV402*%
X124300000Y-106400000D03*
X124300000Y-107350000D03*
X124300000Y-108300000D03*
X121600000Y-108300000D03*
X121600000Y-107350000D03*
X121600000Y-106400000D03*
%TD*%
%TO.C,TV401*%
X154100000Y-104800000D03*
X154100000Y-105750000D03*
X154100000Y-106700000D03*
X156800000Y-106700000D03*
X156800000Y-105750000D03*
X156800000Y-104800000D03*
%TD*%
D21*
%TO.C,J209*%
X162365000Y-133865000D03*
%TD*%
%TO.C,J208*%
X159765000Y-133865000D03*
%TD*%
%TO.C,J207*%
X165065000Y-124665000D03*
%TD*%
D22*
%TO.C,J201*%
X124167500Y-130725000D03*
D23*
X128377500Y-130725000D03*
D22*
X124167500Y-122085000D03*
D23*
X128377500Y-122085000D03*
D24*
X128927500Y-129605000D03*
X128927500Y-128805000D03*
D25*
X128927500Y-128155000D03*
X128927500Y-127655000D03*
X128927500Y-127155000D03*
X128927500Y-126655000D03*
X128927500Y-126155000D03*
X128927500Y-125655000D03*
X128927500Y-125155000D03*
X128927500Y-124655000D03*
D24*
X128927500Y-124005000D03*
X128927500Y-123205000D03*
D26*
X127847500Y-129295000D03*
X127847500Y-123515000D03*
%TD*%
D27*
%TO.C,Q406*%
X163720000Y-74450000D03*
X163720000Y-76350000D03*
X165600000Y-75400000D03*
%TD*%
D28*
%TO.C,C606*%
X139700000Y-67200000D03*
X139700000Y-66200000D03*
%TD*%
D29*
%TO.C,C605*%
X140600000Y-66200000D03*
X140600000Y-67200000D03*
%TD*%
D28*
%TO.C,C607*%
X124000000Y-74000000D03*
X124000000Y-73000000D03*
%TD*%
D29*
%TO.C,C604*%
X131100000Y-89500000D03*
X131100000Y-90500000D03*
%TD*%
D30*
%TO.C,C603*%
X125515000Y-92975000D03*
X124515000Y-92975000D03*
%TD*%
%TO.C,C403*%
X156500000Y-76800000D03*
X155500000Y-76800000D03*
%TD*%
D31*
%TO.C,C204*%
X143965000Y-115085000D03*
X143965000Y-118045000D03*
%TD*%
D30*
%TO.C,C402*%
X156500000Y-75800000D03*
X155500000Y-75800000D03*
%TD*%
D32*
%TO.C,C404*%
X158500000Y-76800000D03*
X159500000Y-76800000D03*
%TD*%
D33*
%TO.C,D204*%
X136985000Y-115165000D03*
X134645000Y-115165000D03*
%TD*%
D30*
%TO.C,R201*%
X143865000Y-126865000D03*
X142865000Y-126865000D03*
%TD*%
D34*
%TO.C,D201*%
X139625000Y-125795000D03*
X141505000Y-125795000D03*
%TD*%
D29*
%TO.C,R604*%
X140400000Y-68800000D03*
X140400000Y-69800000D03*
%TD*%
D31*
%TO.C,C207*%
X154900000Y-114985000D03*
X154900000Y-117945000D03*
%TD*%
D28*
%TO.C,R602*%
X129800000Y-83400000D03*
X129800000Y-82400000D03*
%TD*%
D35*
%TO.C,U405*%
X125280000Y-72170000D03*
X125280000Y-72980000D03*
X125280000Y-73780000D03*
X125280000Y-74570000D03*
X125280000Y-75380000D03*
X125280000Y-76170000D03*
X125280000Y-76970000D03*
X125280000Y-77780000D03*
X125280000Y-78570000D03*
X125280000Y-79380000D03*
X125280000Y-80180000D03*
D36*
X126380000Y-81050000D03*
X127180000Y-81050000D03*
X127980000Y-81050000D03*
X128780000Y-81050000D03*
X129580000Y-81050000D03*
X130380000Y-81050000D03*
X131180000Y-81050000D03*
X131980000Y-81050000D03*
X132780000Y-81050000D03*
X133580000Y-81050000D03*
X134380000Y-81050000D03*
X135180000Y-81050000D03*
X135980000Y-81050000D03*
D35*
X137080000Y-80180000D03*
X137080000Y-79380000D03*
X137080000Y-78570000D03*
X137080000Y-77780000D03*
X137080000Y-76970000D03*
X137080000Y-76180000D03*
X137080000Y-75380000D03*
X137080000Y-74570000D03*
X137080000Y-73780000D03*
X137080000Y-72980000D03*
X137080000Y-72170000D03*
D36*
X135980000Y-71250000D03*
X135180000Y-71250000D03*
X134380000Y-71250000D03*
X133580000Y-71250000D03*
X132780000Y-71250000D03*
X131980000Y-71250000D03*
X131180000Y-71250000D03*
X130380000Y-71250000D03*
X129580000Y-71250000D03*
X128780000Y-71250000D03*
X127980000Y-71250000D03*
X127180000Y-71250000D03*
X126380000Y-71250000D03*
D37*
X129400000Y-74300000D03*
X129400000Y-76100000D03*
X129400000Y-77900000D03*
X131200000Y-74300000D03*
X131200000Y-76100000D03*
X131200000Y-77900000D03*
X133000000Y-74300000D03*
X133000000Y-76100000D03*
X133000000Y-77900000D03*
D38*
X137130000Y-71200000D03*
X137130000Y-81100000D03*
X125230000Y-81100000D03*
X125230000Y-71200000D03*
%TD*%
D39*
%TO.C,R223*%
X138775000Y-130665000D03*
X140415000Y-130665000D03*
%TD*%
D40*
%TO.C,U603*%
X120750000Y-100300000D03*
X121700000Y-100300000D03*
X122650000Y-100300000D03*
X122650000Y-98000000D03*
X120750000Y-98000000D03*
%TD*%
D41*
%TO.C,U402*%
X141500000Y-82500000D03*
X141500000Y-83500000D03*
X141500000Y-84500000D03*
X141500000Y-85500000D03*
X141500000Y-86500000D03*
X141500000Y-87500000D03*
X141500000Y-88500000D03*
X141500000Y-89500000D03*
X141500000Y-90500000D03*
X141500000Y-91500000D03*
X141500000Y-92500000D03*
X141500000Y-93500000D03*
X141500000Y-94500000D03*
X141500000Y-95500000D03*
X141500000Y-96500000D03*
X141500000Y-97500000D03*
X141500000Y-98500000D03*
D42*
X145500000Y-102500000D03*
X146500000Y-102500000D03*
X147500000Y-102500000D03*
X148500000Y-102500000D03*
X149500000Y-102500000D03*
X150500000Y-102500000D03*
X151500000Y-102500000D03*
X152500000Y-102500000D03*
X153500000Y-102500000D03*
X154500000Y-102500000D03*
X155500000Y-102500000D03*
X156500000Y-102500000D03*
X157500000Y-102500000D03*
X158500000Y-102500000D03*
X159500000Y-102500000D03*
X160500000Y-102500000D03*
X161500000Y-102500000D03*
D41*
X165500000Y-98500000D03*
X165500000Y-97500000D03*
X165500000Y-96500000D03*
X165500000Y-95500000D03*
X165500000Y-94500000D03*
X165500000Y-93500000D03*
X165500000Y-92500000D03*
X165500000Y-91500000D03*
X165500000Y-90500000D03*
X165500000Y-89500000D03*
X165500000Y-88500000D03*
X165500000Y-87500000D03*
X165500000Y-86500000D03*
X165500000Y-85500000D03*
X165500000Y-84500000D03*
X165500000Y-83500000D03*
X165500000Y-82500000D03*
D42*
X161500000Y-78500000D03*
X160500000Y-78500000D03*
X159500000Y-78500000D03*
X158500000Y-78500000D03*
X157500000Y-78500000D03*
X156500000Y-78500000D03*
X155500000Y-78500000D03*
X154500000Y-78500000D03*
X153500000Y-78500000D03*
X152500000Y-78500000D03*
X151500000Y-78500000D03*
X150500000Y-78500000D03*
X149500000Y-78500000D03*
X148500000Y-78500000D03*
X147500000Y-78500000D03*
X146500000Y-78500000D03*
X145500000Y-78500000D03*
D43*
X145900000Y-82900000D03*
X145900000Y-86700000D03*
X145900000Y-90500000D03*
X145900000Y-94300000D03*
X145900000Y-98100000D03*
X149700000Y-98100000D03*
X153500000Y-98100000D03*
X157300000Y-98100000D03*
X161100000Y-98100000D03*
X161100000Y-94310000D03*
X161100000Y-90500000D03*
X161100000Y-86700000D03*
X161100000Y-82900000D03*
X157300000Y-82900000D03*
X153500000Y-82900000D03*
X149700000Y-82900000D03*
X149700000Y-90500000D03*
X153500000Y-94300000D03*
X157300000Y-90500000D03*
X153500000Y-86700000D03*
D42*
X142500000Y-102500000D03*
X143500000Y-102500000D03*
X144500000Y-102500000D03*
X162500000Y-102500000D03*
X163500000Y-102500000D03*
X164500000Y-102500000D03*
X164500000Y-78500000D03*
X163500000Y-78500000D03*
X162500000Y-78500000D03*
X144500000Y-78500000D03*
X143500000Y-78500000D03*
X142500000Y-78500000D03*
D44*
X143700000Y-87000000D03*
X143700000Y-88400000D03*
X143700000Y-89800000D03*
X143700000Y-91200000D03*
X143700000Y-92600000D03*
X143700000Y-94000000D03*
D45*
X150000000Y-100300000D03*
X151400000Y-100300000D03*
X152800000Y-100300000D03*
X154200000Y-100300000D03*
X155600000Y-100300000D03*
X157000000Y-100300000D03*
D46*
X163300000Y-94000000D03*
X163300000Y-92600000D03*
X163300000Y-91200000D03*
X163300000Y-89800000D03*
X163300000Y-88400000D03*
X163300000Y-87000000D03*
D45*
X157000000Y-80700000D03*
X155600000Y-80700000D03*
X154200000Y-80700000D03*
X152800000Y-80700000D03*
X151400000Y-80700000D03*
X150000000Y-80700000D03*
%TD*%
D30*
%TO.C,C407*%
X163700000Y-107200000D03*
X162700000Y-107200000D03*
%TD*%
D29*
%TO.C,R651*%
X130900000Y-82400000D03*
X130900000Y-83400000D03*
%TD*%
D47*
%TO.C,R212*%
X146585000Y-127915000D03*
X144945000Y-127915000D03*
%TD*%
D48*
%TO.C,R215*%
X134990000Y-112900000D03*
X136810000Y-112900000D03*
%TD*%
%TO.C,R401*%
X151390000Y-69500000D03*
X153210000Y-69500000D03*
%TD*%
D49*
%TO.C,SW603*%
X142700000Y-70180000D03*
X142700000Y-65820000D03*
%TD*%
D30*
%TO.C,R405*%
X146780000Y-70920000D03*
X145780000Y-70920000D03*
%TD*%
D33*
%TO.C,D203*%
X135635000Y-125715000D03*
X133295000Y-125715000D03*
%TD*%
D32*
%TO.C,C411*%
X158500000Y-75800000D03*
X159500000Y-75800000D03*
%TD*%
D28*
%TO.C,R410*%
X160600000Y-107100000D03*
X160600000Y-106100000D03*
%TD*%
%TO.C,R411*%
X159500000Y-106400000D03*
X159500000Y-105400000D03*
%TD*%
D30*
%TO.C,R408*%
X149180000Y-70920000D03*
X148180000Y-70920000D03*
%TD*%
D32*
%TO.C,C610*%
X129900000Y-84600000D03*
X130900000Y-84600000D03*
%TD*%
D50*
%TO.C,C410*%
X159200000Y-74140000D03*
X159200000Y-71060000D03*
%TD*%
D21*
%TO.C,J204*%
X128145000Y-134585000D03*
D51*
X130685000Y-134585000D03*
X133225000Y-134585000D03*
X135765000Y-134585000D03*
%TD*%
D31*
%TO.C,C201*%
X143620000Y-122450000D03*
X143620000Y-125410000D03*
%TD*%
D32*
%TO.C,R416*%
X154600000Y-67400000D03*
X155600000Y-67400000D03*
%TD*%
D30*
%TO.C,C408*%
X163700000Y-106200000D03*
X162700000Y-106200000D03*
%TD*%
D31*
%TO.C,C205*%
X146365000Y-115085000D03*
X146365000Y-118045000D03*
%TD*%
D52*
%TO.C,C218*%
X138590000Y-123790000D03*
X138590000Y-120830000D03*
%TD*%
D32*
%TO.C,C221*%
X138100000Y-113615000D03*
X139100000Y-113615000D03*
%TD*%
D53*
%TO.C,C206*%
X151420000Y-117970000D03*
X152980000Y-117970000D03*
%TD*%
D32*
%TO.C,R402*%
X161200000Y-76700000D03*
X162200000Y-76700000D03*
%TD*%
D30*
%TO.C,C609*%
X133000000Y-84600000D03*
X132000000Y-84600000D03*
%TD*%
D52*
%TO.C,C211*%
X157290000Y-123530000D03*
X157290000Y-120570000D03*
%TD*%
D32*
%TO.C,R418*%
X160000000Y-65800000D03*
X161000000Y-65800000D03*
%TD*%
D30*
%TO.C,C406*%
X163700000Y-105200000D03*
X162700000Y-105200000D03*
%TD*%
D21*
%TO.C,J205*%
X125065000Y-114725000D03*
D51*
X125065000Y-117265000D03*
%TD*%
D30*
%TO.C,R404*%
X166100000Y-73200000D03*
X165100000Y-73200000D03*
%TD*%
D39*
%TO.C,R208*%
X159485000Y-125215000D03*
X161125000Y-125215000D03*
%TD*%
D30*
%TO.C,R225*%
X137765000Y-132265000D03*
X136765000Y-132265000D03*
%TD*%
D52*
%TO.C,C219*%
X141080000Y-123790000D03*
X141080000Y-120830000D03*
%TD*%
D54*
%TO.C,L201*%
X149455000Y-113295000D03*
X151755000Y-113295000D03*
%TD*%
D30*
%TO.C,C409*%
X163700000Y-104200000D03*
X162700000Y-104200000D03*
%TD*%
D55*
%TO.C,Q201*%
X132515000Y-122015000D03*
X132515000Y-120115000D03*
X130515000Y-121065000D03*
%TD*%
D32*
%TO.C,C220*%
X133965000Y-127115000D03*
X134965000Y-127115000D03*
%TD*%
D56*
%TO.C,C405*%
X153000000Y-67650000D03*
X153000000Y-65750000D03*
%TD*%
D57*
%TO.C,C214*%
X154445000Y-126365000D03*
X152885000Y-126365000D03*
%TD*%
D28*
%TO.C,R655*%
X134400000Y-83400000D03*
X134400000Y-82400000D03*
%TD*%
D29*
%TO.C,R652*%
X124100000Y-79500000D03*
X124100000Y-80500000D03*
%TD*%
D21*
%TO.C,J206*%
X164640000Y-114505000D03*
D51*
X164640000Y-117045000D03*
%TD*%
D58*
%TO.C,L401*%
X163400000Y-70466282D03*
X163400000Y-72406282D03*
%TD*%
D59*
%TO.C,J202*%
X158935000Y-128195000D03*
X160935000Y-128195000D03*
X162935000Y-128195000D03*
D60*
X165285000Y-133895000D03*
X156585000Y-133895000D03*
%TD*%
D61*
%TO.C,Q204*%
X163865000Y-120515000D03*
X161965000Y-120515000D03*
X162915000Y-122515000D03*
%TD*%
D30*
%TO.C,C601*%
X121700000Y-101600000D03*
X120700000Y-101600000D03*
%TD*%
D28*
%TO.C,R409*%
X158400000Y-105200000D03*
X158400000Y-104200000D03*
%TD*%
D30*
%TO.C,R406*%
X146500000Y-75820000D03*
X145500000Y-75820000D03*
%TD*%
D29*
%TO.C,R209*%
X148465000Y-126865000D03*
X148465000Y-127865000D03*
%TD*%
D55*
%TO.C,Q203*%
X132615000Y-116915000D03*
X132615000Y-115015000D03*
X130615000Y-115965000D03*
%TD*%
D62*
%TO.C,C216*%
X131450000Y-112900000D03*
X133350000Y-112900000D03*
%TD*%
D63*
%TO.C,U401*%
X149900000Y-68080000D03*
D64*
X151200000Y-66560000D03*
X148600000Y-66560000D03*
%TD*%
D65*
%TO.C,R213*%
X138965000Y-115335000D03*
X138965000Y-117155000D03*
%TD*%
D66*
%TO.C,U202*%
X148895000Y-119675000D03*
D67*
X148895000Y-119675000D03*
D68*
X148715000Y-120325000D03*
X148715000Y-120725000D03*
X148715000Y-121125000D03*
X148715000Y-121525000D03*
X148715000Y-121925000D03*
X148715000Y-122325000D03*
X148715000Y-122725000D03*
D69*
X148865000Y-123375000D03*
D67*
X148865000Y-123375000D03*
D70*
X149665000Y-123425000D03*
X150065000Y-123425000D03*
X150465000Y-123425000D03*
X150865000Y-123425000D03*
X151265000Y-123425000D03*
X151665000Y-123425000D03*
D71*
X152465000Y-123375000D03*
D67*
X152465000Y-123375000D03*
D72*
X152565000Y-122725000D03*
D73*
X152585000Y-122325000D03*
D74*
X152575000Y-121925000D03*
D68*
X152615000Y-121525000D03*
X152615000Y-121125000D03*
X152615000Y-120725000D03*
X152615000Y-120325000D03*
D75*
X152445000Y-119675000D03*
D67*
X152445000Y-119675000D03*
D76*
X151565000Y-119825000D03*
X151115000Y-119825000D03*
X150665000Y-119825000D03*
X150215000Y-119825000D03*
D77*
X149765000Y-119795000D03*
%TD*%
D31*
%TO.C,C210*%
X159765000Y-114985000D03*
X159765000Y-117945000D03*
%TD*%
D21*
%TO.C,J403*%
X120700000Y-66025000D03*
D51*
X120700000Y-68565000D03*
%TD*%
D30*
%TO.C,C602*%
X121700000Y-96775000D03*
X120700000Y-96775000D03*
%TD*%
D56*
%TO.C,C412*%
X146800000Y-67650000D03*
X146800000Y-65750000D03*
%TD*%
D50*
%TO.C,C401*%
X155800000Y-74140000D03*
X155800000Y-71060000D03*
%TD*%
D31*
%TO.C,C209*%
X157365000Y-114985000D03*
X157365000Y-117945000D03*
%TD*%
D78*
%TO.C,R214*%
X135375000Y-128615000D03*
X133555000Y-128615000D03*
%TD*%
D79*
%TO.C,C217*%
X145465000Y-122240000D03*
X145465000Y-120680000D03*
%TD*%
D80*
%TO.C,Q402*%
X144830000Y-74300000D03*
X146730000Y-74300000D03*
X145780000Y-72420000D03*
%TD*%
D81*
%TO.C,U404*%
X161600000Y-71480000D03*
X161600000Y-72120000D03*
%TD*%
D47*
%TO.C,R224*%
X140415000Y-132065000D03*
X138775000Y-132065000D03*
%TD*%
D52*
%TO.C,C212*%
X159820000Y-123540000D03*
X159820000Y-120580000D03*
%TD*%
D27*
%TO.C,Q401*%
X157100000Y-67300000D03*
X157100000Y-69200000D03*
X158980000Y-68250000D03*
%TD*%
D29*
%TO.C,R653*%
X124100000Y-77500000D03*
X124100000Y-78500000D03*
%TD*%
D31*
%TO.C,C203*%
X141565000Y-115085000D03*
X141565000Y-118045000D03*
%TD*%
D32*
%TO.C,R603*%
X137000000Y-82400000D03*
X138000000Y-82400000D03*
%TD*%
D28*
%TO.C,R601*%
X128700000Y-83400000D03*
X128700000Y-82400000D03*
%TD*%
D55*
%TO.C,Q206*%
X134365000Y-122015000D03*
X134365000Y-123915000D03*
X136365000Y-122965000D03*
%TD*%
D82*
%TO.C,D402*%
X165600000Y-71900000D03*
X165600000Y-70020000D03*
%TD*%
D31*
%TO.C,C608*%
X122400000Y-71240000D03*
X122400000Y-74200000D03*
%TD*%
D79*
%TO.C,C208*%
X155465000Y-123720000D03*
X155465000Y-122160000D03*
%TD*%
D29*
%TO.C,R650*%
X132000000Y-82400000D03*
X132000000Y-83400000D03*
%TD*%
D83*
%TO.C,R202*%
X154765000Y-130545000D03*
X154765000Y-132185000D03*
%TD*%
D80*
%TO.C,Q403*%
X148330000Y-74300000D03*
X150230000Y-74300000D03*
X149280000Y-72420000D03*
%TD*%
D84*
%TO.C,C213*%
X145465000Y-123585000D03*
X145465000Y-125145000D03*
%TD*%
D85*
%TO.C,Card401*%
X127480000Y-92700000D03*
X139180000Y-92700000D03*
X127480000Y-101500000D03*
X139180000Y-101500000D03*
D86*
X136510000Y-105600000D03*
X133970000Y-105600000D03*
X131430000Y-105600000D03*
X135240000Y-105600000D03*
X132700000Y-105600000D03*
X130160000Y-105600000D03*
%TD*%
D30*
%TO.C,R407*%
X148480000Y-75820000D03*
X147480000Y-75820000D03*
%TD*%
D29*
%TO.C,R417*%
X155600000Y-68300000D03*
X155600000Y-69300000D03*
%TD*%
D30*
%TO.C,R222*%
X143865000Y-127865000D03*
X142865000Y-127865000D03*
%TD*%
D87*
%TO.C,Q404*%
X164250000Y-66320000D03*
X162350000Y-66320000D03*
X163300000Y-68200000D03*
%TD*%
D32*
%TO.C,R403*%
X161200000Y-75700000D03*
X162200000Y-75700000D03*
%TD*%
D55*
%TO.C,Q202*%
X134715000Y-116965000D03*
X134715000Y-118865000D03*
X136715000Y-117915000D03*
%TD*%
D88*
%TO.C,U604*%
X137870000Y-90537500D03*
X137870000Y-89257500D03*
X137870000Y-87997500D03*
X137870000Y-86727500D03*
X132730000Y-86727500D03*
X132730000Y-87997500D03*
X132730000Y-89257500D03*
X132730000Y-90537500D03*
%TD*%
D57*
%TO.C,C202*%
X149930000Y-117970000D03*
X148370000Y-117970000D03*
%TD*%
%LPD*%
M02*
